<?xml version="1.0" encoding="UTF-8" standalone="no"?><!DOCTYPE svg PUBLIC "-//W3C//DTD SVG 1.1//EN" "http://www.w3.org/Graphics/SVG/1.1/DTD/svg11.dtd"><svg width="100%" height="100%" viewBox="0 0 93 23" version="1.1" xmlns="http://www.w3.org/2000/svg" xmlns:xlink="http://www.w3.org/1999/xlink" xml:space="preserve" style="fill-rule:evenodd;clip-rule:evenodd;stroke-linejoin:round;stroke-miterlimit:1.41421;"><path d="M88.134,13.833c0.248,-0.329 0.413,-0.725 0.455,-1.163c0.069,-0.588 -0.042,-1.026 -0.331,-1.355c-0.62,-0.697 -1.999,-0.834 -4.329,-0.862c-2.013,-0.027 -2.895,-0.068 -3.129,-0.328c-0.069,-0.082 -0.083,-0.178 -0.069,-0.356c0.041,-0.314 0.248,-0.547 0.648,-0.698c0.744,0.301 1.158,0.425 2.398,0.425c2.923,0 4.205,-1.82 4.343,-3.052c0.11,-0.93 -0.096,-1.354 -0.262,-1.696c0.276,-0.151 0.662,-0.356 1.586,-0.356l0.027,0l0.152,-1.313l-0.014,0c-1.131,0 -1.53,0.301 -2.302,0.889c-0.855,-0.616 -1.641,-0.821 -3.088,-0.821c-2.565,0 -4.219,1.177 -4.453,3.133c-0.124,1.054 0.317,1.628 0.882,2.217c-0.455,0.26 -1.227,0.725 -1.323,1.532c-0.083,0.698 0.33,0.972 0.744,1.232c-0.993,0.355 -1.503,0.875 -1.585,1.628c0,0.013 0,0.013 0,0.027c-1.227,-0.055 -1.999,-0.068 -2.013,-0.068c-0.745,-0.014 -1.42,-0.014 -2.068,-0.014c-0.29,0 -0.565,0 -0.855,0c-1.516,0.014 -3.074,0.055 -4.604,0.137c-10.933,0.533 -20.886,2.599 -26.001,5.377l0.028,0.068c6.714,-2.093 16.598,-3.598 27.117,-4.118c0.869,-0.041 1.737,-0.068 2.592,-0.096c0.427,-0.013 0.841,-0.027 1.268,-0.041c1.351,-0.055 2.964,-0.068 4.77,-0.055c0.386,0.602 1.392,1.314 4.053,1.314c2.178,0 3.764,-0.328 4.729,-0.999c1.93,0.137 3.777,0.315 5.487,0.547l0.013,-0.068c-1.433,-0.41 -3.06,-0.766 -4.866,-1.067Zm-0.896,-1.026c-0.138,1.245 -2.785,1.436 -4.357,1.436c-0.675,0 -2.302,-0.068 -2.881,-0.711c-0.152,-0.164 -0.22,-0.37 -0.193,-0.602c0.069,-0.589 0.648,-0.917 1.517,-1.232c1.034,0.055 2.081,0.082 3.088,0.124c1.585,0.054 2.44,0.15 2.715,0.478c0.097,0.11 0.138,0.274 0.111,0.507Zm-3.061,-8.456c0.758,0 1.779,0.123 2.303,0.712c0.289,0.314 0.399,0.738 0.344,1.258c-0.055,0.465 -0.441,2.012 -3.074,2.012c-0.372,0 -1.641,-0.055 -2.289,-0.767c-0.289,-0.314 -0.399,-0.738 -0.344,-1.231c0.193,-1.792 2.206,-1.984 3.06,-1.984Z" style="fill-rule:nonzero;"/><path d="M12.532,3.243c0.11,-0.931 -0.083,-1.67 -0.552,-2.203c-0.937,-1.04 -2.73,-1.04 -3.695,-1.04l-6.865,0l-1.42,12.273l0,0.041l6.08,0c1.254,0 2.688,-0.041 3.873,-0.479c1.407,-0.52 2.165,-1.505 2.33,-2.983c0.235,-1.997 -1.103,-2.695 -1.819,-3.037c0.813,-0.383 1.875,-0.917 2.068,-2.572Zm-3.006,7.306c-0.565,0.26 -1.323,0.383 -2.371,0.383l-5.501,0l0.51,-4.392l5.666,0c1.269,0 2.096,0.246 2.551,0.753c0.331,0.355 0.455,0.862 0.386,1.491c-0.097,0.848 -0.496,1.423 -1.241,1.765Zm-2.233,-5.322l-4.977,0l0.455,-3.913l4.494,0c1.406,0 2.854,0 3.461,0.684c0.261,0.301 0.372,0.711 0.303,1.258c-0.152,1.328 -1.365,1.971 -3.736,1.971Z" style="fill-rule:nonzero;"/><path d="M19.535,3.229c-0.221,-0.041 -0.455,-0.068 -0.786,-0.068c-1.709,0 -2.922,1.204 -3.736,2.038l0.207,-1.778l-1.378,0l-1.021,8.852l0,0.041l1.379,0l0.607,-5.295c0.082,-0.274 1.681,-2.463 3.515,-2.463c0.414,0 0.689,0.055 0.868,0.096c0.069,0.014 0.125,0.027 0.166,0.027l0.027,0l0.166,-1.423l-0.014,-0.027Z" style="fill-rule:nonzero;"/><path d="M27.531,4.543c-0.786,-0.89 -2.068,-1.369 -3.626,-1.369c-1.296,0 -2.523,0.452 -3.474,1.273c-0.979,0.862 -1.586,2.025 -1.737,3.393c-0.152,1.341 0.193,2.545 0.965,3.42c0.772,0.862 1.957,1.341 3.336,1.341c2.73,0 3.777,-1.026 4.701,-1.943c0.055,-0.054 0.124,-0.123 0.179,-0.177l0.028,-0.028l-0.993,-0.821l-0.069,0.082c-0.62,0.698 -1.461,1.642 -3.584,1.642c-0.979,0 -1.806,-0.314 -2.385,-0.916c-0.552,-0.575 -0.855,-1.396 -0.841,-2.258l8.34,0l0,-0.027c0.221,-1.519 -0.068,-2.737 -0.84,-3.612Zm-7.293,2.421c0.593,-1.669 1.861,-2.558 3.653,-2.558c2.164,0 3.047,1.313 3.129,2.558l-6.782,0Z" style="fill-rule:nonzero;"/><path d="M37.966,4.666l3.378,0l0.138,-1.232l-3.378,0l0.345,-2.928l-1.379,0l-0.345,2.928l-5.032,0l0.345,-2.928l-1.378,0l-0.345,2.928l-1.806,0l-0.138,1.232l1.806,0l-0.62,5.418c-0.056,0.424 -0.138,1.218 0.386,1.806c0.413,0.465 1.13,0.698 2.15,0.698c0.538,0 1.213,-0.096 2.178,-0.26l0.028,0l0.138,-1.259l-0.165,0.027c-0.69,0.137 -1.186,0.247 -1.779,0.247c-0.675,0 -1.103,-0.123 -1.337,-0.383c-0.193,-0.219 -0.262,-0.534 -0.207,-1.013l0.607,-5.295l5.032,0l-0.621,5.418c-0.055,0.424 -0.138,1.218 0.386,1.806c0.414,0.465 1.131,0.698 2.151,0.698c0.537,0 1.213,-0.096 2.178,-0.26l0.028,0l0.137,-1.259l-0.165,0.028c-0.689,0.136 -1.186,0.246 -1.778,0.246c-0.676,0 -1.103,-0.123 -1.338,-0.383c-0.193,-0.219 -0.262,-0.534 -0.206,-1.013l0.606,-5.267Z" style="fill-rule:nonzero;"/><path d="M52.29,0l-5.611,5.965l-4.232,-5.965l-1.944,0l5.28,7.334l-0.579,4.98l1.503,0l0.565,-4.967l6.976,-7.347l-1.958,0Z" style="fill-rule:nonzero;"/><path d="M58.618,4.529c-0.8,-0.889 -1.999,-1.368 -3.474,-1.368c-1.448,0 -2.744,0.451 -3.75,1.327c-0.965,0.821 -1.572,1.97 -1.71,3.215c-0.165,1.478 0.152,2.709 0.91,3.558c0.772,0.862 1.972,1.313 3.474,1.313c3.033,0 5.129,-1.861 5.473,-4.871c0.152,-1.218 -0.179,-2.34 -0.923,-3.174Zm-0.469,3.352c-0.124,1.04 -0.551,1.902 -1.241,2.518c-0.703,0.629 -1.64,0.957 -2.702,0.957c-1.075,0 -1.93,-0.328 -2.495,-0.944c-0.551,-0.615 -0.786,-1.491 -0.662,-2.517c0.193,-1.683 1.517,-3.489 3.957,-3.489c1.047,0 1.861,0.314 2.412,0.93c0.579,0.629 0.841,1.56 0.731,2.545Z" style="fill-rule:nonzero;"/><path d="M68.076,3.434l-0.717,6.171c-0.662,0.657 -2.013,1.751 -3.571,1.751c-0.772,0 -1.323,-0.191 -1.682,-0.588c-0.344,-0.397 -0.468,-0.985 -0.372,-1.751l0.648,-5.583l-1.379,0l-0.675,5.843c-0.124,1.026 0.069,1.833 0.579,2.394c0.538,0.588 1.434,0.903 2.592,0.903c1.24,0 2.454,-0.493 3.708,-1.505l-0.138,1.231l1.379,0l1.02,-8.879l-1.392,0l0,0.013Z" style="fill-rule:nonzero;"/><path d="M78.18,4.077c-0.537,-0.588 -1.434,-0.903 -2.592,-0.903c-1.24,0 -2.453,0.493 -3.708,1.505l0.138,-1.231l-1.379,0l-1.02,8.866l1.379,0l0.717,-6.171c0.675,-0.656 2.026,-1.751 3.584,-1.751c0.772,0 1.323,0.192 1.682,0.588c0.344,0.397 0.469,0.985 0.372,1.752l-0.648,5.582l1.379,0l0.675,-5.842c0.124,-1.026 -0.069,-1.834 -0.579,-2.395Z" style="fill-rule:nonzero;"/><path d="M89.154,9.4l0,0.328l0.482,0l0,1.437l0.386,0l0,-1.437l0.497,0l0,-0.328l-1.365,0Z" style="fill-rule:nonzero;"/><path d="M92.394,9.4l-0.469,0l-0.248,0.698c-0.041,0.136 -0.097,0.301 -0.138,0.479c-0.041,-0.151 -0.083,-0.315 -0.124,-0.466l-0.234,-0.711l-0.469,0l-0.124,1.765l0.358,0l0.042,-0.712c0.013,-0.136 0.013,-0.314 0.027,-0.478c0.042,0.136 0.069,0.287 0.124,0.424l0.235,0.752l0.289,0l0.262,-0.752c0.055,-0.151 0.097,-0.301 0.138,-0.452c0,0.151 0.014,0.315 0.014,0.452l0.041,0.766l0.372,0l-0.096,-1.765Z" style="fill-rule:nonzero;"/><path d="M48.265,20.086c-0.111,-0.219 -0.345,-0.315 -0.593,-0.315c-0.359,0 -0.758,0.164 -0.827,0.575c-0.042,0.314 0.11,0.451 0.648,0.629c0.51,0.164 0.992,0.342 0.896,1.026c-0.097,0.684 -0.745,0.999 -1.365,0.999c-0.4,0 -0.813,-0.137 -0.993,-0.479l0.4,-0.287c0.11,0.246 0.386,0.383 0.676,0.383c0.358,0 0.785,-0.205 0.84,-0.602c0.056,-0.424 -0.22,-0.493 -0.813,-0.698c-0.469,-0.164 -0.813,-0.369 -0.73,-0.944c0.096,-0.657 0.716,-0.985 1.323,-0.985c0.386,0 0.703,0.109 0.91,0.397l-0.372,0.301Z" style="fill-rule:nonzero;"/><path d="M49.23,19.47l2.178,0l-0.056,0.383l-1.764,0l-0.152,1.081l1.655,0l-0.056,0.383l-1.654,0l-0.165,1.218l1.861,0l-0.055,0.383l-2.261,0l0.469,-3.448Z" style="fill-rule:nonzero;"/><path d="M52.097,19.47l2.178,0l-0.055,0.383l-1.765,0l-0.152,1.081l1.655,0l-0.055,0.383l-1.655,0l-0.165,1.218l1.861,0l-0.055,0.383l-2.261,0l0.469,-3.448Z" style="fill-rule:nonzero;"/><path d="M54.937,19.47l1.337,0c0.675,0 1.627,0.451 1.447,1.724c-0.179,1.272 -1.268,1.724 -1.943,1.724l-1.324,0l0.483,-3.448Zm-0.014,3.065l0.786,0c0.799,0 1.447,-0.397 1.585,-1.341c0.138,-0.944 -0.414,-1.341 -1.199,-1.341l-0.786,0l-0.386,2.682Z" style="fill-rule:nonzero;"/><path d="M59.996,19.47l1.034,0c0.634,0 1.186,0.219 1.075,0.944c-0.11,0.752 -0.772,0.958 -1.268,0.958l-0.689,0l-0.221,1.546l-0.413,0l0.482,-3.448Zm0.193,1.519l0.689,0c0.414,0 0.717,-0.178 0.772,-0.575c0.056,-0.383 -0.206,-0.575 -0.606,-0.575l-0.689,0l-0.166,1.149Z" style="fill-rule:nonzero;"/><path d="M62.643,19.47l0.883,0c0.675,0 1.364,0.096 1.24,0.944c-0.069,0.506 -0.441,0.821 -0.992,0.903l0.758,1.587l-0.51,0l-0.717,-1.546l-0.524,0l-0.22,1.546l-0.414,0l0.496,-3.434Zm0.193,1.519l0.372,0c0.455,0 1.048,0 1.131,-0.575c0.069,-0.493 -0.358,-0.575 -0.758,-0.575l-0.579,0l-0.166,1.149Z" style="fill-rule:nonzero;"/><path d="M64.946,21.194c0.151,-1.04 1.006,-1.806 2.068,-1.806c1.047,0 1.709,0.766 1.557,1.806c-0.151,1.04 -1.02,1.806 -2.067,1.806c-1.062,0 -1.71,-0.766 -1.558,-1.806Zm3.184,0c0.111,-0.794 -0.358,-1.423 -1.171,-1.423c-0.814,0 -1.462,0.643 -1.572,1.423c-0.11,0.794 0.358,1.423 1.172,1.423c0.799,0 1.461,-0.629 1.571,-1.423Z" style="fill-rule:nonzero;"/><path d="M69.288,19.47l1.337,0c0.675,0 1.627,0.451 1.448,1.724c-0.18,1.272 -1.269,1.724 -1.944,1.724l-1.337,0l0.496,-3.448Zm-0.014,3.065l0.786,0c0.799,0 1.447,-0.397 1.585,-1.341c0.138,-0.944 -0.413,-1.341 -1.199,-1.341l-0.786,0l-0.386,2.682Z" style="fill-rule:nonzero;"/><path d="M75.051,21.604c-0.111,0.753 -0.552,1.396 -1.503,1.396c-0.951,0 -1.213,-0.657 -1.103,-1.396l0.303,-2.134l0.414,0l-0.29,2.066c-0.082,0.547 0.055,1.081 0.745,1.081c0.689,0 0.979,-0.52 1.047,-1.081l0.29,-2.066l0.414,0l-0.318,2.134Z" style="fill-rule:nonzero;"/><path d="M78.304,20.181c-0.166,-0.273 -0.469,-0.424 -0.814,-0.424c-0.772,0 -1.42,0.671 -1.516,1.423c-0.11,0.794 0.345,1.423 1.117,1.423c0.427,0 0.785,-0.164 1.075,-0.479l0.276,0.26c-0.373,0.411 -0.841,0.602 -1.407,0.602c-0.992,0 -1.654,-0.766 -1.502,-1.806c0.138,-1.012 0.992,-1.806 2.013,-1.806c0.468,0 0.909,0.164 1.144,0.534l-0.386,0.273Z" style="fill-rule:nonzero;"/><path d="M81.654,19.853l-1.144,0l-0.441,3.065l-0.414,0l0.441,-3.065l-1.144,0l0.055,-0.383l2.702,0l-0.055,0.383Z" style="fill-rule:nonzero;"/><path d="M82.164,19.47l0.414,0l-0.496,3.434l-0.414,0l0.496,-3.434Z" style="fill-rule:nonzero;"/><path d="M82.826,21.194c0.151,-1.04 1.006,-1.806 2.068,-1.806c1.047,0 1.709,0.766 1.557,1.806c-0.151,1.04 -1.02,1.806 -2.067,1.806c-1.048,0 -1.71,-0.766 -1.558,-1.806Zm3.17,0c0.111,-0.794 -0.358,-1.423 -1.171,-1.423c-0.814,0 -1.462,0.643 -1.572,1.423c-0.11,0.794 0.359,1.423 1.172,1.423c0.813,0 1.461,-0.629 1.572,-1.423Z" style="fill-rule:nonzero;"/><path d="M87.196,19.47l0.524,0l1.599,2.859l0.014,0l0.4,-2.859l0.413,0l-0.496,3.434l-0.524,0l-1.599,-2.86l-0.014,0l-0.4,2.86l-0.413,0l0.496,-3.434Z" style="fill-rule:nonzero;"/></svg>