<svg width="427" height="319" viewBox="0 0 427 319" fill="none" xmlns="http://www.w3.org/2000/svg">
<path fill-rule="evenodd" clip-rule="evenodd" d="M404.129 14.4161V23.6571H26.0076V14.4161C26.0076 6.46884 32.4633 0.00012207 40.3946 0.00012207H389.926C397.857 0.00012207 404.129 6.46884 404.129 14.4161ZM26.0076 223.818H404.129V251.725C404.129 259.673 397.673 266.141 389.741 266.141H268.743L271.878 306.987C271.878 308.465 273.17 309.574 274.645 309.574H296.226C297.148 309.574 297.886 310.314 297.886 311.238V317.337C297.886 318.261 297.148 319 296.226 319H134.279C133.357 319 132.619 318.261 132.619 317.337V311.238C132.619 310.314 133.357 309.574 134.279 309.574H155.86C157.335 309.574 158.442 308.465 158.627 306.987L161.762 266.141H40.3946C32.4633 266.141 26.0076 259.673 26.0076 251.725V223.818ZM9.96049 64.6409H66.0331V66.1195H9.96049V64.6409ZM176.703 79.4265H46.8503V80.9051H176.703V79.4265ZM46.8503 86.8193H158.258V88.2979H46.8503V86.8193ZM158.258 94.2122H46.8503V95.6907H158.258V94.2122ZM65.2953 101.605H139.813V103.084H65.2953V101.605ZM176.703 108.998H28.4054V110.476H176.703V108.998ZM9.96049 116.391H102.923V117.869H9.96049V116.391ZM158.258 72.0337H28.4054V73.5123H158.258V72.0337ZM0.163712 64.4419C0.123657 64.4561 0.078598 64.4561 0.000244141 64.4561V65.3802C0.369141 65.3802 0.553589 65.565 0.738037 65.7498C0.922485 65.9346 0.922485 66.3043 0.922485 66.6739V68.1525C0.922485 68.5221 1.10693 68.8918 1.29138 69.0766C1.47585 69.2614 1.66029 69.4462 2.02919 69.4462H2.95143V68.7069H2.39809C2.21364 68.7069 2.02919 68.5221 2.02919 68.3373C1.84474 68.1525 1.84474 67.9677 1.84474 67.7828V66.3043V65.7498C1.73074 65.6356 1.68721 65.5214 1.62703 65.3635C1.58984 65.266 1.5463 65.1517 1.47585 65.0105C1.47585 65.0105 1.47585 64.8257 1.29138 64.8257H1.10693C1.29138 64.8257 1.47585 64.6409 1.66029 64.4561C1.66029 64.4561 1.84474 64.2713 1.84474 64.0864V63.532V62.0534C1.84474 61.8686 1.84474 61.4989 2.02919 60.9445C2.02919 60.9445 2.21364 60.7597 2.39809 60.7597H2.76698V60.0204H1.84474C1.47585 60.0204 1.29138 60.2052 1.10693 60.39C0.922485 60.5748 0.738037 60.9445 0.738037 61.3141V62.9775C0.738037 63.3472 0.738037 63.7168 0.553589 63.9016C0.553589 64.0864 0.553589 64.2713 0.369141 64.2713C0.263046 64.3776 0.217972 64.4227 0.163712 64.4419ZM108.272 121.566H108.825C109.01 121.566 109.194 121.381 109.194 121.196C109.194 121.104 109.24 121.011 109.286 120.919C109.333 120.826 109.379 120.734 109.379 120.641V119.348C109.379 119.163 109.379 118.978 109.563 118.793C109.563 118.608 109.748 118.424 109.748 118.424C109.932 118.239 110.116 118.054 110.301 118.054C110.301 118.054 110.116 118.054 110.116 117.869C110.116 117.869 109.932 117.684 109.748 117.684C109.642 117.578 109.596 117.533 109.577 117.479C109.563 117.438 109.563 117.393 109.563 117.315C109.563 117.222 109.517 117.13 109.471 117.037C109.425 116.945 109.379 116.853 109.379 116.76V115.282C109.379 115.097 109.379 114.912 109.194 114.727C109.194 114.542 109.01 114.542 108.825 114.542H108.272V113.803H109.194C109.563 113.803 109.748 113.988 109.932 114.173C110.116 114.358 110.301 114.727 110.301 115.097V116.575C110.301 116.945 110.301 117.315 110.485 117.5C110.67 117.684 110.854 117.869 111.039 117.869V118.608C110.854 118.608 110.485 118.793 110.485 118.978C110.301 119.163 110.301 119.533 110.301 119.902V121.196C110.301 121.566 110.116 121.935 109.932 122.12C109.748 122.305 109.379 122.49 109.194 122.49H108.272V121.566ZM9.96049 131.176H84.478V132.655H9.96049V131.176ZM158.258 145.962H46.8503V147.44H158.258V145.962ZM46.8503 153.355H139.813V154.833H46.8503V153.355ZM176.703 160.747H46.8503V162.226H176.703V160.747ZM65.2953 168.14H139.813V169.619H65.2953V168.14ZM158.258 175.533H28.4054V177.012H158.258V175.533ZM9.96049 182.926H84.478V184.405H9.96049V182.926ZM139.813 138.569H28.4054V140.048H139.813V138.569ZM0.163712 130.977C0.123657 130.991 0.0785828 130.991 0.000244141 130.991V131.916C0.369141 131.916 0.553589 132.1 0.738037 132.285C0.922485 132.47 0.922485 132.84 0.922485 133.209V134.688C0.922485 135.057 1.10693 135.427 1.29138 135.612C1.47585 135.797 1.66029 135.982 2.02919 135.982H2.95143V135.242H2.39809C2.21364 135.242 2.02919 135.057 2.02919 134.873C1.84474 134.688 1.84474 134.503 1.84474 134.318V132.84V132.285C1.73074 132.171 1.68721 132.057 1.62703 131.899C1.58984 131.801 1.5463 131.687 1.47585 131.546C1.47585 131.546 1.47585 131.361 1.29138 131.361H1.10693C1.29138 131.361 1.47585 131.176 1.66029 130.991C1.66029 130.991 1.84474 130.807 1.84474 130.622V130.067V128.589C1.84474 128.404 1.84474 128.034 2.02919 127.48C2.02919 127.48 2.21364 127.295 2.39809 127.295H2.76698V126.556H1.84474C1.47585 126.556 1.29138 126.741 1.10693 126.925C0.922485 127.11 0.738037 127.48 0.738037 127.849V129.513C0.738037 129.882 0.738037 130.252 0.553589 130.437C0.553589 130.622 0.553589 130.807 0.369141 130.807C0.263031 130.913 0.217972 130.958 0.163712 130.977ZM89.827 188.101H90.3804C90.5648 188.101 90.7493 187.916 90.7493 187.731C90.7493 187.639 90.7954 187.547 90.8415 187.454C90.8876 187.362 90.9337 187.269 90.9337 187.177V185.883C90.9337 185.698 90.9337 185.513 91.1182 185.329C91.1182 185.144 91.3026 184.959 91.3026 184.959C91.4871 184.774 91.6715 184.589 91.856 184.589C91.856 184.589 91.6715 184.589 91.6715 184.405C91.6715 184.405 91.4871 184.22 91.3026 184.22C91.1966 184.113 91.1516 184.068 91.1324 184.014C91.1247 183.992 91.1212 183.969 91.1196 183.94C91.1182 183.915 91.1182 183.886 91.1182 183.85C91.1182 183.758 91.0721 183.665 91.026 183.573C90.9799 183.48 90.9337 183.388 90.9337 183.296V181.817C90.9337 181.632 90.9337 181.447 90.7493 181.263C90.7493 181.078 90.5648 181.078 90.3804 181.078H89.827V180.339H90.7493C91.1182 180.339 91.3026 180.523 91.4871 180.708C91.6715 180.893 91.856 181.263 91.856 181.632V183.111C91.856 183.48 91.856 183.85 92.0404 184.035C92.2249 184.22 92.4093 184.405 92.5938 184.405V185.144C92.4093 185.144 92.0404 185.329 92.0404 185.513C91.856 185.698 91.856 186.068 91.856 186.438V187.731C91.856 188.101 91.6715 188.471 91.4871 188.655C91.3026 188.84 90.9337 189.025 90.7493 189.025H89.827V188.101ZM259.52 102.159L262.103 94.9514H277.596L279.81 102.159H291.43L275.567 60.39H263.763L247.9 102.159H259.52ZM269.849 72.9578L274.645 86.8194H265.054L269.849 72.9578ZM317.068 73.8819H327.213V102.344H317.068V99.0175C314.855 101.79 312.088 103.084 308.399 103.084C306.37 103.084 304.526 102.714 302.681 101.975C301.021 101.235 299.361 100.126 298.07 98.8327C296.779 97.5389 295.857 95.8755 295.119 94.0273C294.381 92.1791 294.012 90.1461 294.012 87.9283C294.012 85.8952 294.381 84.047 295.119 82.1989C295.857 80.3506 296.779 78.6873 298.07 77.3935C299.361 76.0998 300.837 74.9908 302.497 74.0667C304.157 73.3275 306.186 72.9578 308.215 72.9578C311.719 72.9578 314.671 74.2516 317.068 76.6542V73.8819ZM304.526 87.9283C304.526 88.8524 304.71 89.7765 305.079 90.5157L305.079 90.516C305.448 91.2552 305.817 91.9944 306.37 92.5488C306.924 93.1032 307.662 93.6577 308.399 94.0273C309.137 94.397 310.059 94.5818 310.982 94.5818C311.904 94.5818 312.642 94.397 313.564 94.0273C314.302 93.6577 315.04 93.2881 315.593 92.5488C316.146 91.9943 316.7 91.255 317.068 90.5157C317.437 89.7765 317.622 88.8524 317.622 87.9283C317.622 87.0042 317.437 86.2649 317.068 85.3408C316.7 84.6015 316.331 83.8622 315.593 83.3078C315.04 82.7533 314.302 82.1988 313.564 81.8292C312.826 81.4596 311.904 81.2747 310.982 81.2747C310.059 81.2747 309.137 81.4596 308.399 81.8292C307.662 82.1988 306.924 82.5685 306.37 83.3078C305.817 83.8622 305.264 84.6015 305.079 85.3408C304.71 86.2649 304.526 87.0042 304.526 87.9283ZM247.531 127.295H427V187.916H247.531V127.295Z" fill="url(#paint0_linear)"/>
<defs>
<linearGradient id="paint0_linear" x1="213.5" y1="0.00012207" x2="213.5" y2="319" gradientUnits="userSpaceOnUse">
<stop stop-color="#A0A0A0"/>
<stop offset="1" stop-color="#F0F0F0"/>
</linearGradient>
</defs>
</svg>
