<svg width="67" height="99" viewBox="0 0 67 99" fill="none" xmlns="http://www.w3.org/2000/svg">
<path d="M44.3405 91.7326H22.6597C22.4782 91.7326 22.3291 91.8825 22.3291 92.065C22.3291 92.2475 22.4782 92.3974 22.6597 92.3974H44.334C44.5155 92.3974 44.6646 92.2475 44.6646 92.065C44.6646 91.8825 44.522 91.7326 44.3405 91.7326Z" fill="url(#paint0_linear)"/>
<path d="M60.4277 0H6.56583C2.94263 0 0 2.95912 0 6.60261V92.3909C0 96.0409 2.94263 98.9935 6.56583 98.9935H60.4277C64.0574 98.9935 66.9935 96.0344 66.9935 92.3909V6.60261C67 2.95912 64.0574 0 60.4277 0ZM63.0592 91.0743C63.0592 93.2643 61.2962 95.0371 59.1184 95.0371H7.88159C5.70378 95.0371 3.9408 93.2643 3.9408 91.0743V7.92574C3.9408 5.73573 5.70378 3.96287 7.88159 3.96287H17.4419V5.05787C17.4419 6.72645 18.7901 8.08216 20.4494 8.08216H46.5506C48.2099 8.08216 49.5581 6.72645 49.5581 5.05787V3.96287H59.1184C61.2962 3.96287 63.0592 5.73573 63.0592 7.92574V91.0743Z" fill="url(#paint1_linear)"/>
<path d="M53.9784 17.2985H48.2811C46.7061 17.2985 45.4292 18.5825 45.4292 20.1663V25.8955C45.4292 27.4794 46.7061 28.7634 48.2811 28.7634H53.9784C55.5534 28.7634 56.8303 27.4794 56.8303 25.8955V20.1663C56.8303 18.5825 55.5534 17.2985 53.9784 17.2985Z" fill="url(#paint2_linear)"/>
<path d="M30.6512 28.7699H36.3485C37.9235 28.7699 39.2004 27.4859 39.2004 25.902V20.1728C39.2004 18.589 37.9235 17.3049 36.3485 17.3049H30.6512C29.0762 17.3049 27.7993 18.589 27.7993 20.1728V25.902C27.7993 27.4859 29.0762 28.7699 30.6512 28.7699Z" fill="url(#paint3_linear)"/>
<path d="M18.7186 17.2985H13.0213C11.4463 17.2985 10.1694 18.5825 10.1694 20.1663V25.8955C10.1694 27.4794 11.4463 28.7634 13.0213 28.7634H18.7186C20.2936 28.7634 21.5705 27.4794 21.5705 25.8955V20.1663C21.5705 18.5825 20.2936 17.2985 18.7186 17.2985Z" fill="url(#paint4_linear)"/>
<path d="M53.9784 35.027H48.2811C46.7061 35.027 45.4292 36.3111 45.4292 37.8949V43.6241C45.4292 45.208 46.7061 46.492 48.2811 46.492H53.9784C55.5534 46.492 56.8303 45.208 56.8303 43.6241V37.8949C56.8303 36.3111 55.5534 35.027 53.9784 35.027Z" fill="url(#paint5_linear)"/>
<path d="M30.6512 46.4985H36.3485C37.9235 46.4985 39.2004 45.2145 39.2004 43.6306V37.9014C39.2004 36.3176 37.9235 35.0336 36.3485 35.0336H30.6512C29.0762 35.0336 27.7993 36.3176 27.7993 37.9014V43.6306C27.7993 45.2145 29.0762 46.4985 30.6512 46.4985Z" fill="url(#paint6_linear)"/>
<path d="M18.7186 35.027H13.0213C11.4463 35.027 10.1694 36.3111 10.1694 37.8949V43.6241C10.1694 45.208 11.4463 46.492 13.0213 46.492H18.7186C20.2936 46.492 21.5705 45.208 21.5705 43.6241V37.8949C21.5705 36.3111 20.2936 35.027 18.7186 35.027Z" fill="url(#paint7_linear)"/>
<path d="M53.9784 52.7557H48.2811C46.7061 52.7557 45.4292 54.0397 45.4292 55.6235V61.3527C45.4292 62.9366 46.7061 64.2206 48.2811 64.2206H53.9784C55.5534 64.2206 56.8303 62.9366 56.8303 61.3527V55.6235C56.8303 54.0462 55.5534 52.7557 53.9784 52.7557Z" fill="url(#paint8_linear)"/>
<path d="M30.6512 64.2271H36.3485C37.9235 64.2271 39.2004 62.9431 39.2004 61.3593V55.6301C39.2004 54.0462 37.9235 52.7622 36.3485 52.7622H30.6512C29.0762 52.7622 27.7993 54.0462 27.7993 55.6301V61.3593C27.7993 62.9431 29.0762 64.2271 30.6512 64.2271Z" fill="url(#paint9_linear)"/>
<path d="M18.7186 52.7557H13.0213C11.4463 52.7557 10.1694 54.0397 10.1694 55.6235V61.3527C10.1694 62.9366 11.4463 64.2206 13.0213 64.2206H18.7186C20.2936 64.2206 21.5705 62.9366 21.5705 61.3527V55.6235C21.5705 54.0462 20.2936 52.7557 18.7186 52.7557Z" fill="url(#paint10_linear)"/>
<path d="M53.9784 70.4908H48.2811C46.7061 70.4908 45.4292 71.7749 45.4292 73.3587V79.0879C45.4292 80.6718 46.7061 81.9558 48.2811 81.9558H53.9784C55.5534 81.9558 56.8303 80.6718 56.8303 79.0879V73.3587C56.8303 71.7749 55.5534 70.4908 53.9784 70.4908Z" fill="url(#paint11_linear)"/>
<path d="M30.6512 81.9558H36.3485C37.9235 81.9558 39.2004 80.6718 39.2004 79.0879V73.3587C39.2004 71.7749 37.9235 70.4908 36.3485 70.4908H30.6512C29.0762 70.4908 27.7993 71.7749 27.7993 73.3587V79.0879C27.7993 80.6718 29.0762 81.9558 30.6512 81.9558Z" fill="url(#paint12_linear)"/>
<path d="M18.7186 70.4908H13.0213C11.4463 70.4908 10.1694 71.7749 10.1694 73.3587V79.0879C10.1694 80.6718 11.4463 81.9558 13.0213 81.9558H18.7186C20.2936 81.9558 21.5705 80.6718 21.5705 79.0879V73.3587C21.5705 71.7749 20.2936 70.4908 18.7186 70.4908Z" fill="url(#paint13_linear)"/>
<defs>
<linearGradient id="paint0_linear" x1="46.5315" y1="111.72" x2="-18.6295" y2="14.5213" gradientUnits="userSpaceOnUse">
<stop stop-color="#F47732"/>
<stop offset="1" stop-color="#EF3734"/>
</linearGradient>
<linearGradient id="paint1_linear" x1="66.0667" y1="98.6242" x2="0.903863" y2="1.42439" gradientUnits="userSpaceOnUse">
<stop stop-color="#F47732"/>
<stop offset="1" stop-color="#EF3734"/>
</linearGradient>
<linearGradient id="paint2_linear" x1="90.419" y1="82.2983" x2="25.2562" y2="-14.9015" gradientUnits="userSpaceOnUse">
<stop stop-color="#F47732"/>
<stop offset="1" stop-color="#EF3734"/>
</linearGradient>
<linearGradient id="paint3_linear" x1="78.2132" y1="90.481" x2="13.0505" y2="-6.71881" gradientUnits="userSpaceOnUse">
<stop stop-color="#F47732"/>
<stop offset="1" stop-color="#EF3734"/>
</linearGradient>
<linearGradient id="paint4_linear" x1="66.0074" y1="98.6638" x2="0.844663" y2="1.46398" gradientUnits="userSpaceOnUse">
<stop stop-color="#F47732"/>
<stop offset="1" stop-color="#EF3734"/>
</linearGradient>
<linearGradient id="paint5_linear" x1="82.2818" y1="87.7534" x2="17.119" y2="-9.44635" gradientUnits="userSpaceOnUse">
<stop stop-color="#F47732"/>
<stop offset="1" stop-color="#EF3734"/>
</linearGradient>
<linearGradient id="paint6_linear" x1="70.0761" y1="95.9361" x2="4.91324" y2="-1.26359" gradientUnits="userSpaceOnUse">
<stop stop-color="#F47732"/>
<stop offset="1" stop-color="#EF3734"/>
</linearGradient>
<linearGradient id="paint7_linear" x1="57.8703" y1="104.119" x2="-7.29248" y2="6.91913" gradientUnits="userSpaceOnUse">
<stop stop-color="#F47732"/>
<stop offset="1" stop-color="#EF3734"/>
</linearGradient>
<linearGradient id="paint8_linear" x1="74.1446" y1="93.2086" x2="8.98187" y2="-3.9912" gradientUnits="userSpaceOnUse">
<stop stop-color="#F47732"/>
<stop offset="1" stop-color="#EF3734"/>
</linearGradient>
<linearGradient id="paint9_linear" x1="61.9389" y1="101.391" x2="-3.22391" y2="4.19156" gradientUnits="userSpaceOnUse">
<stop stop-color="#F47732"/>
<stop offset="1" stop-color="#EF3734"/>
</linearGradient>
<linearGradient id="paint10_linear" x1="49.7331" y1="109.574" x2="-15.4296" y2="12.3743" gradientUnits="userSpaceOnUse">
<stop stop-color="#F47732"/>
<stop offset="1" stop-color="#EF3734"/>
</linearGradient>
<linearGradient id="paint11_linear" x1="66.0075" y1="98.6638" x2="0.844746" y2="1.46404" gradientUnits="userSpaceOnUse">
<stop stop-color="#F47732"/>
<stop offset="1" stop-color="#EF3734"/>
</linearGradient>
<linearGradient id="paint12_linear" x1="53.8017" y1="106.847" x2="-11.361" y2="9.64679" gradientUnits="userSpaceOnUse">
<stop stop-color="#F47732"/>
<stop offset="1" stop-color="#EF3734"/>
</linearGradient>
<linearGradient id="paint13_linear" x1="41.596" y1="115.029" x2="-23.5668" y2="17.8295" gradientUnits="userSpaceOnUse">
<stop stop-color="#F47732"/>
<stop offset="1" stop-color="#EF3734"/>
</linearGradient>
</defs>
</svg>
