<svg width="112" height="100" viewBox="0 0 112 100" fill="none" xmlns="http://www.w3.org/2000/svg">
<path d="M50.6014 28.8013C48.4259 28.8013 46.4115 28.1577 44.7194 27.1119L42.9468 30.8126C51.0849 33.9501 57.2892 40.8689 59.4647 49.3966L70.1812 46.1786C69.6978 44.4892 69.3755 42.7997 69.3755 40.9493C69.3755 37.0877 70.6647 33.387 72.7596 30.4103L60.6733 22.6871C58.7395 26.3073 54.9525 28.8013 50.6014 28.8013Z" fill="url(#paint0_linear)"/>
<path d="M87.7464 16.6533C83.3148 16.6533 79.1249 17.86 75.499 19.9517L67.8443 15.1247C66.7163 6.59694 59.3839 0 50.6012 0C41.0128 0.0804505 33.1164 7.88415 33.1164 17.4578C33.1164 19.3886 33.4387 21.2389 34.0027 23.0089H33.1164C14.9064 23.0089 0 37.8117 0 56.074C0 74.3363 14.9064 89.1392 33.1164 89.1392C39.9653 89.1392 46.2502 87.0475 51.5681 83.5076L66.2328 98.1496C67.4415 99.3564 69.053 100 70.745 100C72.4371 100 74.0486 99.3564 75.2573 98.1496C76.4659 96.9429 77.1105 95.3339 77.1105 93.6444C77.1105 91.9549 76.4659 90.3459 75.2573 89.1392L60.5926 74.4167C63.5738 69.992 65.5077 64.7627 66.0717 59.1311L70.181 57.9244C74.6127 62.4296 80.8169 65.2454 87.5853 65.2454C101.041 65.2454 112 54.3041 112 40.8689C112.08 27.5945 101.202 16.6533 87.7464 16.6533ZM87.7464 59.3725C81.381 59.3725 75.7407 56.074 72.4371 51.1665L64.5407 53.4996L60.2703 54.7868V56.1545C60.2703 62.9123 57.7724 69.107 53.6631 73.8536L57.853 78.037L72.1954 92.3572C72.9206 93.0813 72.9206 94.3685 72.1954 95.0925C71.7925 95.4948 71.3091 95.6557 70.8256 95.6557C70.3422 95.6557 69.8587 95.4948 69.4558 95.0925L55.1135 80.7723L50.9235 76.5889C46.1696 80.6919 39.9653 83.1858 33.197 83.1858C18.2906 83.1858 6.12372 71.0378 6.12372 56.074C6.12372 41.1102 18.2906 29.0426 33.197 29.0426C35.1308 29.0426 37.0646 29.284 38.8373 29.6058L40.6905 25.6637L41.4157 24.2156C40.0459 22.3652 39.1596 20.0322 39.1596 17.4578C39.1596 11.1826 44.2358 6.11424 50.5207 6.11424C56.8055 6.11424 61.9623 11.1826 61.9623 17.4578C61.9623 17.86 61.9623 18.1818 61.8818 18.5036L75.5796 27.1923C78.8026 24.3765 82.9925 22.6066 87.6658 22.6066C97.8183 22.6066 106.037 30.8126 106.037 40.9493C106.037 51.0861 97.8183 59.3725 87.7464 59.3725Z" fill="url(#paint1_linear)"/>
<path d="M49.5536 39.9035C45.2026 35.5591 39.4011 33.1456 33.2774 33.1456C27.0731 33.1456 21.3523 35.5591 17.0012 39.9035C12.6502 44.2478 10.2329 50.0402 10.2329 56.1545C10.2329 62.3492 12.6502 68.0612 17.0012 72.4055C21.3523 76.7498 27.1537 79.1633 33.2774 79.1633C39.4011 79.1633 45.2026 76.7498 49.5536 72.4055C53.9047 68.0612 56.3219 62.2687 56.3219 56.1545C56.3219 53.0974 55.7579 50.1207 54.5493 47.3049C53.4212 44.5696 51.7291 42.0756 49.5536 39.9035ZM33.0357 43.5237C36.2587 43.5237 39.24 44.6501 41.5767 46.7418L38.0314 50.2816C36.6616 49.0748 34.9695 48.3508 33.0357 48.3508C29.8933 48.3508 27.0731 50.2816 25.8645 53.1778C25.8645 53.1778 25.8645 53.2583 25.7839 53.3387L21.7552 50.2011C24.0113 46.0177 28.2818 43.5237 33.0357 43.5237ZM21.1911 61.6251C20.466 60.0161 20.0631 58.1657 20.0631 56.3958C20.0631 54.6259 20.3854 52.9365 21.1106 51.3274L25.3811 54.6259C25.2199 55.1891 25.1393 55.7522 25.1393 56.3958C25.1393 57.0394 25.2199 57.7635 25.3811 58.4071L21.1911 61.6251C21.2717 61.7056 21.1911 61.6251 21.1911 61.6251ZM33.0357 69.2679C28.3623 69.2679 24.1724 66.8544 21.8357 62.8319L25.8645 59.6943C27.1537 62.5101 29.8933 64.3604 32.9551 64.3604C34.3249 64.3604 35.6141 64.0386 36.7422 63.4755L40.8515 66.6935C38.8371 68.383 36.0976 69.2679 33.0357 69.2679ZM41.899 65.8085L37.9508 62.7514C39.0788 61.8665 39.8846 60.5793 40.1263 59.0507V58.8898H33.0357V54.1432H45.0414C45.2026 54.9477 45.2831 55.8327 45.2831 56.7176C45.3637 60.3379 44.1551 63.5559 41.899 65.8085Z" fill="url(#paint2_linear)"/>
<defs>
<linearGradient id="paint0_linear" x1="57.8532" y1="22.6871" x2="57.8532" y2="49.3966" gradientUnits="userSpaceOnUse">
<stop stop-color="#FF782D"/>
<stop offset="1" stop-color="#FF2D2D"/>
</linearGradient>
<linearGradient id="paint1_linear" x1="56" y1="0" x2="56" y2="100" gradientUnits="userSpaceOnUse">
<stop stop-color="#FF782D"/>
<stop offset="1" stop-color="#FF2D2D"/>
</linearGradient>
<linearGradient id="paint2_linear" x1="33.2774" y1="33.1456" x2="33.2774" y2="79.1633" gradientUnits="userSpaceOnUse">
<stop stop-color="#FF782D"/>
<stop offset="1" stop-color="#FF2D2D"/>
</linearGradient>
</defs>
</svg>
