<svg width="112" height="110" viewBox="0 0 112 110" xmlns="http://www.w3.org/2000/svg" fill-rule="evenodd" clip-rule="evenodd"
     stroke-linejoin="round" stroke-miterlimit="1.414">
    <path d="M6.004 49a6.004 6.004 0 00-5.855 4.705 5.727 5.727 0 000 2.598A6.005 6.005 0 006.004 61C9.313 61 12 58.306 12 55s-2.687-6-5.996-6zM55.004 1a6.004 6.004 0 00-5.855 4.705 5.727 5.727 0 000 2.598A6.005 6.005 0 0055.004 13C58.313 13 61 10.306 61 7s-2.687-6-5.996-6zM94.004 10a6.004 6.004 0 00-5.855 4.705 5.727 5.727 0 000 2.598A6.005 6.005 0 0094.004 22c3.309 0 5.996-2.694 5.996-6s-2.687-6-5.996-6zM55 84.478c-16.254 0-29.478-13.224-29.478-29.478S38.746 25.523 55 25.523c16.253 0 29.476 13.223 29.476 29.477 0 16.254-13.223 29.478-29.476 29.478z"
          fill="#fff" fill-rule="nonzero"/>
    <path d="M48.339 6.661C48.339 2.991 51.33 0 55 0c3.67 0 6.652 2.991 6.652 6.661a6.655 6.655 0 01-5.215 6.496v12.401c7.045.339 13.449 3.164 18.353 7.614l13.74-13.74-.001-.001a6.63 6.63 0 01.904-8.273 6.646 6.646 0 019.409 0 6.646 6.646 0 010 9.409c-2.243 2.254-5.71 2.554-8.283.913L76.828 35.211c4.449 4.904 7.274 11.307 7.614 18.352h10.974c.019-.101.04-.202.063-.302.787-3.607 4.019-6.321 7.861-6.321 4.441 0 8.048 3.619 8.048 8.06 0 4.441-3.607 8.06-8.048 8.06-3.842 0-7.062-2.702-7.861-6.309a7.8 7.8 0 01-.063-.304H84.441c-.342 7.041-3.165 13.441-7.613 18.343l13.731 13.73c2.574-1.641 6.04-1.34 8.283.913a6.646 6.646 0 010 9.409 6.646 6.646 0 01-9.409 0 6.63 6.63 0 01-.904-8.273v-.001L74.79 76.828c-4.904 4.451-11.308 7.276-18.353 7.615v12.4a6.655 6.655 0 015.215 6.496c0 3.67-2.982 6.661-6.652 6.661s-6.661-2.991-6.661-6.661a6.662 6.662 0 015.214-6.496v-12.4c-7.042-.342-13.442-3.166-18.344-7.614L22.478 89.56c.059.086.116.173.171.26 1.985 3.113 1.622 7.296-1.093 10.01-3.137 3.149-8.248 3.149-11.385 0-3.149-3.137-3.149-8.248 0-11.385 2.714-2.726 6.909-3.09 10.023-1.104.085.056.17.114.254.173L33.171 74.79c-4.448-4.901-7.272-11.302-7.614-18.343h-12.41a6.643 6.643 0 01-6.486 5.215C2.991 61.662 0 58.671 0 55c0-3.67 2.991-6.661 6.661-6.661 3.176 0 5.836 2.243 6.486 5.224h12.41c.34-7.045 3.164-13.449 7.614-18.353L20.448 22.487c-.084.059-.169.117-.254.173-3.114 1.986-7.309 1.621-10.023-1.104-3.149-3.137-3.149-8.248 0-11.386 3.137-3.148 8.248-3.148 11.385 0 2.715 2.715 3.078 6.897 1.093 10.011a8.256 8.256 0 01-.171.259L35.21 33.172c4.901-4.448 11.302-7.272 18.343-7.614V13.157a6.662 6.662 0 01-5.214-6.496zm43.153 84.83l-.001.001-.027.027a3.734 3.734 0 00.027 5.265 3.752 3.752 0 005.292 0 3.75 3.75 0 000-5.292 3.749 3.749 0 00-5.276-.016l-.015.015zm0-72.982l.027.028a3.75 3.75 0 005.264-.028 3.75 3.75 0 000-5.292 3.75 3.75 0 00-5.292 0 3.734 3.734 0 00-.038 5.254l.039.038zM51.252 6.661a3.742 3.742 0 107.486 0 3.742 3.742 0 10-7.486 0zm0 96.678A3.751 3.751 0 0155 99.59a3.743 3.743 0 013.738 3.749 3.742 3.742 0 11-7.486 0zM55 28.414C40.339 28.414 28.413 40.34 28.413 55c0 14.661 11.926 26.587 26.587 26.587 14.66 0 26.586-11.926 26.586-26.587 0-14.66-11.926-26.586-26.586-26.586zM2.914 55a3.742 3.742 0 107.486 0 3.742 3.742 0 10-7.486 0zm67.314.411l-2.401-1.631a12.737 12.737 0 00-.414-2.333l1.702-2.445-2.102-3.489-2.864.291a12.59 12.59 0 00-1.842-1.534l-.266-2.952-3.853-1.321-2.025 2.082a12.667 12.667 0 00-2.353.016l-2.127-2.115-3.801 1.465-.217 2.961c-.62.439-1.195.929-1.722 1.466l-3.056-.259-1.97 3.565 1.78 2.467a12.796 12.796 0 00-.363 2.131l-2.564 1.805.783 3.997 2.995.758.049.105c.295.601.632 1.172 1.007 1.71l-.814 3.07 3.169 2.559 2.779-1.343a13.12 13.12 0 001.983.719l1.346 2.865 4.072-.076 1.245-2.771a12.765 12.765 0 002.051-.745l2.823 1.307 3.07-2.676-.808-2.853c.438-.62.821-1.281 1.145-1.978l2.931-.794.632-4.024zm-8.684 1.627a6.841 6.841 0 01-8.68 4.248 6.841 6.841 0 01-4.248-8.681c1.222-3.564 5.116-5.47 8.68-4.247 3.565 1.221 5.47 5.116 4.248 8.68zM49.303 77.671c1.849.462 3.761.696 5.683.696 2.473 0 4.909-.385 7.24-1.144l-1.097-3.365a20.058 20.058 0 01-10.968.379l-.858 3.434zm-12.231-7.667a23.359 23.359 0 0010.72 7.234l1.088-3.368a19.822 19.822 0 01-9.095-6.14l-2.713 2.274zm25.31 3.399l1.322 3.284a23.4 23.4 0 0010.192-7.957l-2.863-2.081a19.862 19.862 0 01-8.651 6.754zM31.675 56.618a23.267 23.267 0 004.429 12.15l2.859-2.088a19.73 19.73 0 01-3.757-10.304l-3.531.242zm40.106 8.925l2.995 1.885a23.293 23.293 0 003.576-12.427v-.09h-3.539v.09c0 3.744-1.048 7.39-3.032 10.542zM31.62 55.028l.756.007 2.783-.034c0-3.73 1.041-7.364 3.01-10.509l-3-1.878a23.322 23.322 0 00-3.549 12.414zm39.365-11.741a19.738 19.738 0 013.779 10.296l3.53-.249a23.258 23.258 0 00-4.455-12.14l-2.854 2.093zM36.048 41.31l2.867 2.076a19.857 19.857 0 018.637-6.773l-1.328-3.28a23.387 23.387 0 00-10.176 7.977zm25.005-5.192a19.82 19.82 0 019.108 6.121l2.707-2.28a23.352 23.352 0 00-10.734-7.211l-1.081 3.37zm-13.352-3.326l1.102 3.363a19.826 19.826 0 016.181-.982h.002c1.619 0 3.229.196 4.785.581l.851-3.436a23.487 23.487 0 00-5.636-.684h-.002c-2.488 0-4.939.39-7.283 1.158z"
          fill="url(#_Linear1)"/>
    <defs>
        <linearGradient id="_Linear1" x1="0" y1="0" x2="1" y2="0" gradientUnits="userSpaceOnUse"
                        gradientTransform="matrix(0 110 -110 0 55.694 0)">
            <stop offset="0%" stop-color="#ff782d"/>
            <stop offset="100%" stop-color="#ff2d2d"/>
        </linearGradient>
    </defs>
</svg>