<?xml version="1.0" encoding="UTF-8" standalone="no"?><!DOCTYPE svg PUBLIC "-//W3C//DTD SVG 1.1//EN" "http://www.w3.org/Graphics/SVG/1.1/DTD/svg11.dtd"><svg width="100%" height="100%" viewBox="0 0 614 423" version="1.1" xmlns="http://www.w3.org/2000/svg" xmlns:xlink="http://www.w3.org/1999/xlink" xml:space="preserve" style="fill-rule:evenodd;clip-rule:evenodd;stroke-linejoin:round;stroke-miterlimit:1.41421;"><path d="M376.138,88.16c0,32.84 -27.023,59.863 -59.863,59.863c-32.84,0 -59.863,-27.023 -59.863,-59.863c0,-32.84 27.023,-59.863 59.863,-59.863c32.84,0 59.863,27.023 59.863,59.863l0,0Z" style="fill:url(#_Linear1);fill-rule:nonzero;"/><rect x="248.276" y="343.303" width="145.298" height="30.222" style="fill:url(#_Linear2);"/><rect x="257.575" y="309.594" width="145.298" height="30.222" style="fill:url(#_Linear3);"/><rect x="252.925" y="275.885" width="145.298" height="30.222" style="fill:url(#_Linear4);"/><rect x="241.301" y="242.176" width="145.298" height="30.222" style="fill:url(#_Linear5);"/><rect x="245.951" y="208.466" width="145.298" height="30.222" style="fill:url(#_Linear6);"/><rect x="252.925" y="174.757" width="145.298" height="30.222" style="fill:url(#_Linear7);"/><g><circle cx="326.737" cy="88.16" r="59.863" style="fill:url(#_Linear8);"/><path d="M327.135,26.555l0.397,0.004l0.397,0.006l0.396,0.009l0.395,0.011l0.395,0.014l0.395,0.016l0.394,0.019l0.393,0.021l0.392,0.024l0.392,0.026l0.391,0.028l0.391,0.031l0.389,0.034l0.39,0.036l0.388,0.038l0.388,0.041l0.387,0.043l0.386,0.045l0.386,0.048l0.385,0.05l0.384,0.053l0.383,0.055l0.383,0.057l0.381,0.06l0.382,0.062l0.38,0.064l0.379,0.067l0.379,0.068l0.378,0.072l0.377,0.073l0.377,0.076l0.375,0.078l0.375,0.081l0.374,0.082l0.372,0.085l0.373,0.088l0.371,0.089l0.37,0.092l0.37,0.094l0.368,0.096l0.368,0.098l0.367,0.101l0.366,0.103l0.365,0.105l0.364,0.107l0.363,0.109l0.362,0.112l0.361,0.113l0.36,0.116l0.36,0.118l0.358,0.12l0.357,0.122l0.357,0.125l0.355,0.126l0.354,0.129l0.354,0.131l0.352,0.133l0.351,0.134l0.351,0.137l0.349,0.139l0.348,0.142l0.347,0.143l0.346,0.145l0.345,0.147l0.344,0.149l0.343,0.152l0.341,0.153l0.341,0.155l0.34,0.158l0.338,0.159l0.337,0.162l0.336,0.163l0.335,0.165l0.334,0.167l0.333,0.17l0.331,0.171l0.33,0.173l0.33,0.175l0.328,0.177l0.326,0.179l0.326,0.18l0.324,0.183l0.323,0.185l0.322,0.186l0.321,0.189l0.319,0.19l0.318,0.192l0.317,0.194l0.316,0.196l0.314,0.197l0.313,0.2l0.312,0.201l0.311,0.203l0.309,0.205l0.308,0.207l0.307,0.209l0.305,0.21l0.304,0.212l0.302,0.214l0.302,0.216l0.3,0.217l0.298,0.219l0.297,0.221l0.296,0.223l0.294,0.224l0.294,0.226l0.291,0.228l0.29,0.23l0.289,0.231l0.288,0.233l0.286,0.234l0.284,0.237l0.283,0.238l0.282,0.239l0.28,0.241l0.279,0.243l0.277,0.245l0.276,0.246l0.274,0.248l0.273,0.249l0.271,0.251l0.27,0.253l0.268,0.254l0.267,0.256l0.265,0.257l0.263,0.259l0.263,0.261l0.26,0.262l0.259,0.264l0.257,0.265l0.256,0.267l0.254,0.268l0.253,0.27l0.251,0.271l0.25,0.273l0.247,0.274l0.247,0.276l0.244,0.277l0.243,0.278l0.241,0.281l0.24,0.281l0.238,0.283l0.236,0.285l0.235,0.286l0.233,0.287l0.231,0.289l0.229,0.29l0.228,0.292l0.226,0.293l0.225,0.294l0.222,0.296l0.221,0.297l0.219,0.299l0.218,0.3l0.216,0.301l0.213,0.303l0.213,0.304l0.21,0.305l0.208,0.307l0.207,0.307l0.205,0.31l0.203,0.31l0.202,0.312l0.199,0.313l0.198,0.314l0.196,0.316l0.194,0.317l0.192,0.318l0.19,0.32l0.188,0.32l0.187,0.322l0.184,0.323l0.183,0.325l0.181,0.325l0.179,0.327l0.177,0.328l0.175,0.329l0.173,0.33l0.171,0.332l0.169,0.332l0.167,0.334l0.166,0.335l0.163,0.336l0.161,0.338l0.16,0.338l0.157,0.339l0.155,0.341l0.154,0.342l0.151,0.342l0.149,0.344l0.148,0.345l0.145,0.346l0.143,0.347l0.141,0.349l0.139,0.349l0.137,0.35l0.135,0.351l0.133,0.353l0.13,0.353l0.129,0.354l0.127,0.356l0.124,0.356l0.122,0.357l0.12,0.359l0.118,0.359l0.116,0.36l0.114,0.361l0.111,0.363l0.11,0.363l0.107,0.364l0.105,0.365l0.103,0.366l0.1,0.366l0.099,0.368l0.096,0.369l0.094,0.369l0.091,0.371l0.09,0.371l0.087,0.372l0.085,0.373l0.083,0.374l0.08,0.374l0.078,0.376l0.076,0.376l0.074,0.377l0.071,0.378l0.069,0.379l0.067,0.38l0.064,0.38l0.062,0.381l0.06,0.382l0.057,0.382l0.055,0.384l0.052,0.384l0.051,0.385l0.047,0.385l0.046,0.387l0.043,0.387l0.041,0.388l0.038,0.388l0.036,0.389l0.033,0.39l0.031,0.39l0.029,0.392l0.026,0.391l0.023,0.393l0.022,0.393l0.018,0.394l0.017,0.394l0.013,0.395l0.012,0.396l0.009,0.396l0.006,0.397l0.004,0.397l0.001,0.398l-0.001,0.398l-0.004,0.397l-0.006,0.397l-0.009,0.396l-0.012,0.396l-0.013,0.395l-0.017,0.394l-0.018,0.394l-0.022,0.393l-0.023,0.392l-0.026,0.392l-0.029,0.391l-0.031,0.391l-0.033,0.39l-0.036,0.389l-0.038,0.388l-0.041,0.388l-0.043,0.387l-0.046,0.386l-0.047,0.386l-0.051,0.385l-0.052,0.384l-0.055,0.383l-0.057,0.383l-0.06,0.382l-0.062,0.381l-0.064,0.38l-0.067,0.38l-0.069,0.378l-0.071,0.378l-0.074,0.378l-0.076,0.376l-0.078,0.375l-0.08,0.375l-0.083,0.374l-0.085,0.373l-0.087,0.372l-0.09,0.371l-0.091,0.37l-0.094,0.37l-0.096,0.369l-0.099,0.367l-0.1,0.367l-0.103,0.366l-0.105,0.365l-0.107,0.364l-0.11,0.363l-0.111,0.362l-0.114,0.361l-0.116,0.361l-0.118,0.359l-0.12,0.358l-0.122,0.358l-0.124,0.356l-0.127,0.355l-0.129,0.355l-0.13,0.353l-0.133,0.352l-0.135,0.352l-0.137,0.35l-0.139,0.349l-0.141,0.348l-0.143,0.347l-0.145,0.346l-0.148,0.345l-0.149,0.344l-0.151,0.343l-0.154,0.342l-0.155,0.34l-0.157,0.34l-0.16,0.338l-0.161,0.337l-0.163,0.337l-0.166,0.335l-0.167,0.333l-0.169,0.333l-0.171,0.331l-0.173,0.331l-0.175,0.329l-0.177,0.328l-0.179,0.327l-0.181,0.325l-0.183,0.324l-0.184,0.324l-0.187,0.322l-0.188,0.32l-0.19,0.32l-0.192,0.318l-0.194,0.317l-0.196,0.315l-0.198,0.315l-0.199,0.313l-0.202,0.312l-0.203,0.31l-0.205,0.309l-0.207,0.308l-0.208,0.307l-0.21,0.305l-0.213,0.304l-0.213,0.303l-0.216,0.301l-0.218,0.3l-0.219,0.298l-0.221,0.298l-0.222,0.295l-0.225,0.295l-0.226,0.293l-0.228,0.291l-0.229,0.291l-0.231,0.289l-0.233,0.287l-0.235,0.286l-0.236,0.284l-0.238,0.283l-0.24,0.282l-0.241,0.28l-0.243,0.279l-0.244,0.277l-0.247,0.276l-0.247,0.274l-0.25,0.273l-0.251,0.271l-0.253,0.27l-0.254,0.268l-0.256,0.267l-0.257,0.265l-0.259,0.264l-0.26,0.262l-0.263,0.26l-0.263,0.259l-0.265,0.258l-0.267,0.255l-0.268,0.255l-0.27,0.252l-0.271,0.251l-0.273,0.25l-0.274,0.248l-0.276,0.246l-0.277,0.244l-0.279,0.243l-0.28,0.242l-0.282,0.239l-0.283,0.238l-0.284,0.236l-0.286,0.235l-0.288,0.233l-0.289,0.231l-0.29,0.23l-0.291,0.227l-0.293,0.227l-0.295,0.224l-0.296,0.223l-0.297,0.221l-0.298,0.219l-0.3,0.217l-0.302,0.216l-0.302,0.214l-0.304,0.212l-0.305,0.21l-0.307,0.209l-0.308,0.207l-0.309,0.204l-0.311,0.204l-0.312,0.201l-0.313,0.199l-0.314,0.198l-0.316,0.196l-0.317,0.194l-0.318,0.192l-0.319,0.19l-0.321,0.188l-0.322,0.187l-0.323,0.185l-0.324,0.182l-0.326,0.181l-0.326,0.179l-0.328,0.177l-0.33,0.175l-0.33,0.173l-0.331,0.171l-0.333,0.169l-0.334,0.168l-0.335,0.165l-0.336,0.163l-0.337,0.162l-0.338,0.159l-0.34,0.157l-0.341,0.156l-0.341,0.153l-0.343,0.151l-0.344,0.15l-0.345,0.147l-0.346,0.145l-0.347,0.143l-0.348,0.141l-0.349,0.139l-0.351,0.137l-0.351,0.135l-0.352,0.133l-0.354,0.131l-0.354,0.128l-0.355,0.127l-0.357,0.124l-0.357,0.123l-0.358,0.12l-0.36,0.118l-0.36,0.115l-0.361,0.114l-0.362,0.112l-0.363,0.109l-0.364,0.107l-0.365,0.105l-0.366,0.103l-0.367,0.101l-0.368,0.098l-0.368,0.096l-0.37,0.094l-0.37,0.092l-0.371,0.089l-0.373,0.087l-0.372,0.085l-0.374,0.083l-0.375,0.08l-0.375,0.079l-0.377,0.075l-0.377,0.074l-0.378,0.071l-0.379,0.069l-0.379,0.067l-0.38,0.064l-0.382,0.062l-0.381,0.06l-0.383,0.057l-0.383,0.055l-0.385,0.053l-0.384,0.05l-0.386,0.048l-0.386,0.045l-0.387,0.043l-0.388,0.041l-0.389,0.038l-0.389,0.036l-0.389,0.033l-0.391,0.031l-0.391,0.029l-0.392,0.026l-0.392,0.024l-0.393,0.021l-0.394,0.019l-0.395,0.016l-0.395,0.014l-0.395,0.011l-0.396,0.009l-0.397,0.006l-0.397,0.004l-0.398,0.001l-0.398,-0.001l-0.398,-0.004l-0.397,-0.006l-0.396,-0.009l-0.395,-0.011l-0.395,-0.014l-0.395,-0.016l-0.393,-0.019l-0.393,-0.021l-0.393,-0.024l-0.392,-0.026l-0.391,-0.029l-0.39,-0.031l-0.39,-0.033l-0.389,-0.036l-0.389,-0.038l-0.388,-0.041l-0.387,-0.043l-0.386,-0.045l-0.385,-0.048l-0.385,-0.05l-0.384,-0.053l-0.384,-0.055l-0.382,-0.057l-0.382,-0.06l-0.381,-0.062l-0.381,-0.064l-0.379,-0.067l-0.379,-0.069l-0.378,-0.071l-0.377,-0.074l-0.376,-0.075l-0.376,-0.079l-0.374,-0.08l-0.374,-0.083l-0.373,-0.085l-0.372,-0.087l-0.372,-0.089l-0.37,-0.092l-0.369,-0.094l-0.369,-0.096l-0.368,-0.098l-0.367,-0.101l-0.365,-0.103l-0.365,-0.105l-0.365,-0.107l-0.363,-0.109l-0.362,-0.112l-0.361,-0.114l-0.36,-0.115l-0.36,-0.118l-0.358,-0.12l-0.357,-0.123l-0.357,-0.124l-0.355,-0.127l-0.354,-0.128l-0.354,-0.131l-0.352,-0.133l-0.351,-0.135l-0.35,-0.137l-0.35,-0.139l-0.348,-0.141l-0.347,-0.143l-0.346,-0.145l-0.345,-0.147l-0.344,-0.15l-0.343,-0.151l-0.341,-0.153l-0.341,-0.156l-0.339,-0.157l-0.339,-0.159l-0.337,-0.162l-0.336,-0.163l-0.335,-0.165l-0.334,-0.168l-0.332,-0.169l-0.332,-0.171l-0.33,-0.173l-0.329,-0.175l-0.328,-0.177l-0.327,-0.179l-0.326,-0.181l-0.324,-0.182l-0.323,-0.185l-0.322,-0.187l-0.321,-0.188l-0.319,-0.19l-0.318,-0.192l-0.317,-0.194l-0.316,-0.196l-0.314,-0.198l-0.313,-0.199l-0.312,-0.201l-0.311,-0.204l-0.309,-0.204l-0.308,-0.207l-0.306,-0.209l-0.306,-0.21l-0.304,-0.212l-0.302,-0.214l-0.301,-0.216l-0.3,-0.217l-0.299,-0.219l-0.297,-0.221l-0.296,-0.223l-0.294,-0.224l-0.293,-0.227l-0.292,-0.227l-0.29,-0.23l-0.289,-0.231l-0.287,-0.233l-0.286,-0.235l-0.285,-0.236l-0.283,-0.238l-0.282,-0.239l-0.28,-0.242l-0.278,-0.243l-0.278,-0.244l-0.275,-0.246l-0.275,-0.248l-0.272,-0.25l-0.272,-0.251l-0.27,-0.252l-0.268,-0.255l-0.266,-0.255l-0.266,-0.258l-0.263,-0.259l-0.262,-0.26l-0.261,-0.262l-0.259,-0.264l-0.257,-0.265l-0.256,-0.267l-0.254,-0.268l-0.253,-0.27l-0.251,-0.271l-0.249,-0.273l-0.248,-0.274l-0.246,-0.276l-0.245,-0.277l-0.243,-0.279l-0.241,-0.28l-0.24,-0.282l-0.238,-0.283l-0.236,-0.284l-0.235,-0.286l-0.232,-0.288l-0.232,-0.288l-0.229,-0.291l-0.228,-0.291l-0.226,-0.293l-0.225,-0.295l-0.222,-0.295l-0.221,-0.298l-0.219,-0.298l-0.218,-0.3l-0.215,-0.301l-0.214,-0.303l-0.212,-0.304l-0.211,-0.305l-0.208,-0.307l-0.207,-0.308l-0.205,-0.309l-0.203,-0.31l-0.201,-0.312l-0.2,-0.313l-0.198,-0.315l-0.195,-0.315l-0.194,-0.317l-0.192,-0.318l-0.191,-0.32l-0.188,-0.321l-0.186,-0.321l-0.185,-0.324l-0.183,-0.324l-0.181,-0.325l-0.178,-0.327l-0.177,-0.328l-0.175,-0.329l-0.174,-0.331l-0.171,-0.331l-0.169,-0.333l-0.167,-0.333l-0.165,-0.335l-0.164,-0.337l-0.161,-0.337l-0.159,-0.338l-0.158,-0.34l-0.155,-0.34l-0.153,-0.342l-0.152,-0.343l-0.149,-0.344l-0.147,-0.345l-0.146,-0.346l-0.143,-0.347l-0.141,-0.348l-0.139,-0.349l-0.137,-0.35l-0.135,-0.352l-0.133,-0.352l-0.13,-0.353l-0.129,-0.355l-0.126,-0.355l-0.125,-0.356l-0.122,-0.358l-0.12,-0.358l-0.118,-0.359l-0.116,-0.361l-0.114,-0.361l-0.111,-0.362l-0.11,-0.363l-0.107,-0.364l-0.105,-0.365l-0.102,-0.366l-0.101,-0.367l-0.098,-0.367l-0.097,-0.369l-0.094,-0.37l-0.091,-0.37l-0.09,-0.371l-0.087,-0.372l-0.085,-0.373l-0.083,-0.374l-0.08,-0.375l-0.078,-0.375l-0.076,-0.376l-0.074,-0.378l-0.071,-0.378l-0.069,-0.378l-0.066,-0.38l-0.065,-0.38l-0.062,-0.381l-0.059,-0.382l-0.058,-0.383l-0.055,-0.383l-0.052,-0.384l-0.05,-0.385l-0.048,-0.386l-0.046,-0.386l-0.043,-0.387l-0.04,-0.388l-0.039,-0.388l-0.036,-0.389l-0.033,-0.39l-0.031,-0.391l-0.029,-0.391l-0.026,-0.392l-0.023,-0.392l-0.021,-0.393l-0.019,-0.394l-0.016,-0.394l-0.014,-0.395l-0.012,-0.396l-0.008,-0.396l-0.007,-0.397l-0.003,-0.397l-0.002,-0.398l0.002,-0.398l0.003,-0.397l0.007,-0.397l0.008,-0.396l0.012,-0.396l0.014,-0.395l0.016,-0.394l0.019,-0.394l0.021,-0.393l0.023,-0.393l0.026,-0.391l0.029,-0.392l0.031,-0.39l0.033,-0.39l0.036,-0.389l0.039,-0.388l0.04,-0.388l0.043,-0.387l0.046,-0.387l0.048,-0.385l0.05,-0.385l0.052,-0.384l0.055,-0.384l0.058,-0.382l0.059,-0.382l0.062,-0.381l0.065,-0.38l0.066,-0.38l0.069,-0.379l0.071,-0.378l0.074,-0.377l0.076,-0.376l0.078,-0.376l0.08,-0.374l0.083,-0.374l0.085,-0.373l0.087,-0.372l0.09,-0.371l0.091,-0.371l0.094,-0.369l0.097,-0.369l0.098,-0.367l0.101,-0.367l0.102,-0.366l0.105,-0.365l0.107,-0.364l0.11,-0.363l0.111,-0.363l0.114,-0.361l0.116,-0.36l0.118,-0.359l0.12,-0.359l0.122,-0.357l0.125,-0.356l0.126,-0.356l0.129,-0.354l0.13,-0.353l0.133,-0.353l0.135,-0.351l0.137,-0.35l0.139,-0.349l0.141,-0.349l0.143,-0.347l0.146,-0.346l0.147,-0.345l0.149,-0.344l0.152,-0.342l0.153,-0.342l0.155,-0.341l0.158,-0.339l0.159,-0.338l0.161,-0.338l0.164,-0.336l0.165,-0.335l0.167,-0.334l0.169,-0.332l0.171,-0.332l0.174,-0.33l0.175,-0.329l0.177,-0.328l0.178,-0.327l0.181,-0.325l0.183,-0.325l0.185,-0.323l0.186,-0.322l0.188,-0.32l0.191,-0.32l0.192,-0.318l0.194,-0.317l0.195,-0.316l0.198,-0.314l0.2,-0.313l0.201,-0.312l0.203,-0.31l0.205,-0.31l0.207,-0.307l0.208,-0.307l0.211,-0.305l0.212,-0.304l0.214,-0.303l0.215,-0.301l0.218,-0.3l0.219,-0.299l0.221,-0.297l0.222,-0.296l0.225,-0.294l0.226,-0.293l0.228,-0.292l0.229,-0.29l0.232,-0.289l0.232,-0.287l0.235,-0.286l0.236,-0.285l0.238,-0.283l0.24,-0.281l0.241,-0.28l0.243,-0.279l0.245,-0.277l0.246,-0.276l0.248,-0.274l0.249,-0.273l0.251,-0.271l0.253,-0.27l0.254,-0.268l0.256,-0.267l0.257,-0.265l0.259,-0.264l0.261,-0.262l0.262,-0.261l0.263,-0.259l0.266,-0.257l0.266,-0.256l0.268,-0.254l0.27,-0.253l0.272,-0.251l0.272,-0.249l0.275,-0.248l0.275,-0.246l0.278,-0.245l0.278,-0.243l0.28,-0.241l0.282,-0.239l0.283,-0.238l0.285,-0.237l0.286,-0.234l0.287,-0.233l0.289,-0.231l0.29,-0.23l0.292,-0.228l0.293,-0.226l0.294,-0.224l0.296,-0.223l0.297,-0.221l0.299,-0.219l0.3,-0.217l0.301,-0.216l0.302,-0.214l0.304,-0.212l0.306,-0.21l0.306,-0.209l0.308,-0.207l0.309,-0.205l0.311,-0.203l0.312,-0.201l0.313,-0.2l0.314,-0.197l0.316,-0.196l0.317,-0.194l0.318,-0.192l0.319,-0.19l0.321,-0.189l0.322,-0.186l0.323,-0.185l0.324,-0.183l0.326,-0.18l0.327,-0.179l0.328,-0.177l0.329,-0.175l0.33,-0.173l0.332,-0.171l0.332,-0.17l0.334,-0.167l0.335,-0.165l0.336,-0.163l0.337,-0.162l0.339,-0.159l0.339,-0.158l0.341,-0.155l0.341,-0.153l0.343,-0.152l0.344,-0.149l0.345,-0.147l0.346,-0.145l0.347,-0.143l0.348,-0.142l0.35,-0.139l0.35,-0.137l0.351,-0.134l0.352,-0.133l0.354,-0.131l0.354,-0.129l0.355,-0.126l0.357,-0.125l0.357,-0.122l0.358,-0.12l0.36,-0.118l0.36,-0.116l0.361,-0.113l0.362,-0.112l0.363,-0.109l0.365,-0.107l0.365,-0.105l0.365,-0.103l0.367,-0.101l0.368,-0.098l0.369,-0.096l0.369,-0.094l0.37,-0.092l0.372,-0.089l0.372,-0.088l0.373,-0.085l0.373,-0.082l0.375,-0.081l0.376,-0.078l0.376,-0.076l0.377,-0.073l0.378,-0.072l0.379,-0.068l0.379,-0.067l0.381,-0.064l0.381,-0.062l0.382,-0.06l0.382,-0.057l0.384,-0.055l0.384,-0.053l0.385,-0.05l0.385,-0.048l0.386,-0.045l0.387,-0.043l0.388,-0.041l0.389,-0.038l0.389,-0.036l0.39,-0.034l0.39,-0.031l0.391,-0.028l0.392,-0.026l0.393,-0.024l0.393,-0.021l0.393,-0.019l0.395,-0.016l0.395,-0.014l0.395,-0.011l0.396,-0.009l0.397,-0.006l0.398,-0.004l0.398,-0.001l0.398,0.001Zm-0.774,3.487l-0.375,0.004l-0.375,0.005l-0.374,0.009l-0.374,0.01l-0.373,0.013l-0.372,0.016l-0.372,0.017l-0.371,0.02l-0.37,0.023l-0.37,0.024l-0.369,0.027l-0.368,0.03l-0.368,0.031l-0.367,0.034l-0.367,0.036l-0.366,0.038l-0.365,0.041l-0.364,0.043l-0.364,0.045l-0.363,0.048l-0.363,0.049l-0.361,0.052l-0.361,0.054l-0.36,0.056l-0.36,0.059l-0.358,0.06l-0.358,0.063l-0.358,0.065l-0.356,0.067l-0.356,0.07l-0.355,0.071l-0.354,0.074l-0.353,0.076l-0.352,0.078l-0.352,0.08l-0.351,0.082l-0.35,0.085l-0.349,0.086l-0.349,0.089l-0.347,0.09l-0.347,0.093l-0.346,0.095l-0.345,0.097l-0.344,0.099l-0.343,0.101l-0.343,0.103l-0.341,0.105l-0.341,0.107l-0.34,0.11l-0.338,0.111l-0.338,0.113l-0.337,0.115l-0.336,0.118l-0.335,0.119l-0.334,0.121l-0.334,0.124l-0.332,0.125l-0.331,0.127l-0.33,0.129l-0.33,0.131l-0.328,0.133l-0.327,0.135l-0.327,0.137l-0.325,0.139l-0.324,0.141l-0.324,0.143l-0.322,0.144l-0.321,0.147l-0.32,0.148l-0.319,0.15l-0.318,0.153l-0.317,0.154l-0.316,0.156l-0.315,0.157l-0.314,0.16l-0.313,0.161l-0.311,0.164l-0.311,0.165l-0.309,0.167l-0.308,0.168l-0.307,0.171l-0.306,0.172l-0.305,0.174l-0.304,0.176l-0.302,0.178l-0.302,0.18l-0.3,0.181l-0.299,0.183l-0.298,0.184l-0.296,0.187l-0.296,0.188l-0.294,0.19l-0.293,0.192l-0.292,0.193l-0.29,0.195l-0.289,0.197l-0.289,0.199l-0.286,0.2l-0.286,0.201l-0.284,0.204l-0.283,0.205l-0.282,0.207l-0.28,0.208l-0.279,0.211l-0.278,0.211l-0.277,0.214l-0.275,0.215l-0.274,0.216l-0.272,0.219l-0.272,0.219l-0.27,0.222l-0.268,0.223l-0.267,0.224l-0.266,0.226l-0.264,0.228l-0.263,0.229l-0.262,0.231l-0.26,0.233l-0.259,0.233l-0.258,0.236l-0.256,0.237l-0.254,0.238l-0.253,0.24l-0.252,0.242l-0.25,0.242l-0.249,0.245l-0.248,0.246l-0.245,0.247l-0.245,0.249l-0.243,0.25l-0.241,0.252l-0.24,0.253l-0.239,0.255l-0.236,0.256l-0.236,0.257l-0.234,0.259l-0.232,0.26l-0.231,0.262l-0.229,0.263l-0.228,0.264l-0.226,0.266l-0.225,0.267l-0.223,0.269l-0.221,0.27l-0.22,0.271l-0.218,0.272l-0.217,0.274l-0.215,0.276l-0.213,0.276l-0.212,0.278l-0.21,0.279l-0.208,0.28l-0.207,0.282l-0.205,0.283l-0.204,0.284l-0.202,0.286l-0.2,0.287l-0.198,0.288l-0.197,0.289l-0.195,0.291l-0.194,0.291l-0.191,0.293l-0.19,0.295l-0.188,0.295l-0.187,0.297l-0.185,0.297l-0.183,0.299l-0.181,0.301l-0.179,0.301l-0.178,0.302l-0.176,0.304l-0.174,0.305l-0.172,0.306l-0.171,0.307l-0.169,0.308l-0.167,0.31l-0.165,0.31l-0.163,0.312l-0.161,0.312l-0.16,0.314l-0.158,0.315l-0.156,0.316l-0.154,0.317l-0.152,0.318l-0.15,0.319l-0.149,0.32l-0.146,0.321l-0.145,0.323l-0.142,0.323l-0.141,0.324l-0.139,0.326l-0.137,0.326l-0.135,0.327l-0.133,0.329l-0.131,0.329l-0.129,0.33l-0.128,0.331l-0.125,0.333l-0.123,0.333l-0.121,0.334l-0.12,0.335l-0.117,0.336l-0.115,0.337l-0.113,0.338l-0.112,0.339l-0.109,0.339l-0.107,0.341l-0.105,0.341l-0.103,0.343l-0.101,0.343l-0.099,0.344l-0.097,0.345l-0.095,0.346l-0.093,0.347l-0.091,0.348l-0.088,0.348l-0.087,0.349l-0.084,0.35l-0.082,0.351l-0.08,0.352l-0.078,0.352l-0.076,0.354l-0.074,0.354l-0.071,0.355l-0.07,0.355l-0.067,0.357l-0.065,0.357l-0.063,0.358l-0.061,0.358l-0.058,0.36l-0.056,0.36l-0.054,0.361l-0.052,0.362l-0.05,0.362l-0.047,0.363l-0.045,0.364l-0.043,0.364l-0.041,0.366l-0.038,0.365l-0.036,0.367l-0.034,0.367l-0.032,0.368l-0.029,0.368l-0.027,0.369l-0.024,0.37l-0.023,0.371l-0.02,0.371l-0.017,0.371l-0.016,0.373l-0.013,0.373l-0.011,0.373l-0.008,0.374l-0.006,0.375l-0.003,0.375l-0.002,0.376l0.002,0.376l0.003,0.375l0.006,0.375l0.008,0.374l0.011,0.373l0.013,0.373l0.016,0.372l0.017,0.372l0.02,0.371l0.023,0.371l0.024,0.369l0.027,0.369l0.029,0.369l0.032,0.368l0.034,0.367l0.036,0.366l0.038,0.366l0.041,0.365l0.043,0.365l0.045,0.364l0.047,0.363l0.05,0.362l0.052,0.362l0.054,0.361l0.056,0.36l0.058,0.359l0.061,0.359l0.063,0.358l0.065,0.357l0.067,0.356l0.07,0.356l0.071,0.355l0.074,0.354l0.076,0.353l0.078,0.353l0.08,0.352l0.082,0.351l0.084,0.35l0.087,0.349l0.088,0.348l0.091,0.348l0.093,0.347l0.095,0.345l0.097,0.345l0.099,0.345l0.101,0.343l0.103,0.342l0.105,0.342l0.107,0.34l0.109,0.34l0.112,0.339l0.113,0.338l0.115,0.337l0.117,0.336l0.12,0.335l0.121,0.334l0.123,0.333l0.125,0.332l0.128,0.332l0.129,0.33l0.131,0.329l0.133,0.329l0.135,0.327l0.137,0.326l0.139,0.325l0.141,0.325l0.142,0.323l0.145,0.322l0.146,0.322l0.149,0.32l0.15,0.319l0.152,0.318l0.154,0.317l0.156,0.316l0.158,0.315l0.16,0.313l0.161,0.313l0.163,0.312l0.165,0.31l0.167,0.31l0.169,0.308l0.171,0.307l0.172,0.306l0.174,0.305l0.176,0.303l0.178,0.303l0.179,0.301l0.181,0.3l0.183,0.299l0.185,0.298l0.187,0.297l0.188,0.295l0.19,0.294l0.191,0.293l0.194,0.292l0.195,0.291l0.197,0.289l0.198,0.288l0.2,0.287l0.202,0.285l0.204,0.285l0.205,0.283l0.207,0.281l0.208,0.281l0.21,0.279l0.212,0.278l0.213,0.276l0.215,0.275l0.217,0.274l0.218,0.273l0.22,0.271l0.221,0.27l0.223,0.269l0.225,0.267l0.226,0.265l0.228,0.265l0.229,0.263l0.231,0.262l0.232,0.26l0.234,0.259l0.236,0.257l0.236,0.256l0.239,0.255l0.24,0.253l0.241,0.252l0.243,0.25l0.245,0.249l0.245,0.247l0.248,0.246l0.249,0.244l0.25,0.243l0.252,0.242l0.253,0.24l0.254,0.238l0.256,0.237l0.258,0.235l0.259,0.234l0.26,0.233l0.262,0.23l0.263,0.23l0.264,0.227l0.266,0.226l0.267,0.225l0.268,0.223l0.27,0.221l0.272,0.22l0.272,0.218l0.274,0.217l0.275,0.215l0.277,0.213l0.278,0.212l0.279,0.21l0.28,0.209l0.282,0.207l0.283,0.205l0.284,0.203l0.286,0.202l0.286,0.2l0.289,0.199l0.289,0.197l0.29,0.195l0.292,0.193l0.293,0.192l0.294,0.19l0.296,0.188l0.296,0.186l0.298,0.185l0.299,0.183l0.3,0.181l0.302,0.18l0.302,0.177l0.304,0.176l0.305,0.174l0.306,0.173l0.307,0.17l0.308,0.169l0.309,0.167l0.311,0.165l0.311,0.163l0.313,0.162l0.314,0.159l0.315,0.158l0.316,0.156l0.317,0.154l0.318,0.152l0.319,0.151l0.32,0.148l0.321,0.146l0.322,0.145l0.324,0.143l0.324,0.141l0.325,0.138l0.327,0.137l0.327,0.135l0.328,0.134l0.33,0.131l0.33,0.129l0.331,0.127l0.332,0.125l0.334,0.124l0.334,0.121l0.335,0.119l0.336,0.117l0.337,0.116l0.338,0.113l0.338,0.111l0.34,0.109l0.341,0.108l0.341,0.105l0.343,0.103l0.343,0.101l0.344,0.099l0.345,0.097l0.346,0.095l0.347,0.092l0.347,0.091l0.349,0.089l0.349,0.086l0.35,0.084l0.351,0.083l0.352,0.08l0.352,0.078l0.353,0.076l0.354,0.073l0.355,0.072l0.356,0.069l0.356,0.067l0.358,0.066l0.358,0.062l0.358,0.061l0.36,0.059l0.36,0.056l0.361,0.054l0.361,0.052l0.363,0.049l0.363,0.048l0.364,0.045l0.364,0.043l0.365,0.04l0.366,0.039l0.367,0.036l0.367,0.034l0.368,0.031l0.368,0.029l0.369,0.027l0.37,0.025l0.37,0.022l0.371,0.02l0.372,0.018l0.372,0.015l0.373,0.013l0.374,0.011l0.374,0.008l0.375,0.006l0.375,0.004l0.376,0.001l0.375,-0.001l0.376,-0.004l0.374,-0.006l0.374,-0.008l0.374,-0.011l0.373,-0.013l0.372,-0.015l0.372,-0.018l0.371,-0.02l0.37,-0.022l0.37,-0.025l0.369,-0.027l0.369,-0.029l0.368,-0.031l0.367,-0.034l0.366,-0.036l0.366,-0.039l0.365,-0.04l0.365,-0.043l0.363,-0.045l0.363,-0.048l0.363,-0.049l0.361,-0.052l0.361,-0.054l0.361,-0.056l0.359,-0.059l0.359,-0.061l0.358,-0.062l0.357,-0.066l0.356,-0.067l0.356,-0.069l0.355,-0.072l0.354,-0.073l0.353,-0.076l0.353,-0.078l0.351,-0.08l0.351,-0.083l0.35,-0.084l0.35,-0.086l0.348,-0.089l0.348,-0.091l0.346,-0.092l0.346,-0.095l0.345,-0.097l0.344,-0.099l0.344,-0.101l0.342,-0.103l0.341,-0.105l0.341,-0.108l0.34,-0.109l0.339,-0.111l0.337,-0.113l0.337,-0.116l0.336,-0.117l0.335,-0.119l0.335,-0.121l0.333,-0.124l0.332,-0.125l0.331,-0.127l0.331,-0.129l0.329,-0.131l0.328,-0.134l0.328,-0.135l0.326,-0.137l0.325,-0.138l0.325,-0.141l0.323,-0.143l0.322,-0.145l0.321,-0.146l0.32,-0.148l0.32,-0.151l0.318,-0.152l0.317,-0.154l0.316,-0.156l0.314,-0.158l0.314,-0.159l0.313,-0.162l0.311,-0.163l0.311,-0.165l0.309,-0.167l0.308,-0.169l0.308,-0.17l0.306,-0.173l0.304,-0.174l0.304,-0.176l0.303,-0.177l0.301,-0.18l0.3,-0.181l0.299,-0.183l0.298,-0.185l0.296,-0.186l0.296,-0.188l0.294,-0.19l0.293,-0.192l0.292,-0.193l0.29,-0.195l0.29,-0.197l0.288,-0.199l0.287,-0.2l0.285,-0.202l0.284,-0.203l0.283,-0.205l0.282,-0.207l0.28,-0.209l0.28,-0.21l0.277,-0.212l0.277,-0.213l0.275,-0.215l0.274,-0.217l0.273,-0.218l0.271,-0.22l0.27,-0.221l0.268,-0.223l0.267,-0.225l0.266,-0.226l0.265,-0.227l0.263,-0.23l0.261,-0.23l0.261,-0.233l0.258,-0.234l0.258,-0.235l0.256,-0.237l0.254,-0.238l0.254,-0.24l0.251,-0.242l0.251,-0.243l0.248,-0.244l0.248,-0.246l0.246,-0.247l0.244,-0.249l0.243,-0.25l0.241,-0.252l0.24,-0.253l0.239,-0.255l0.237,-0.256l0.235,-0.257l0.234,-0.259l0.232,-0.26l0.231,-0.262l0.229,-0.263l0.228,-0.265l0.226,-0.265l0.225,-0.267l0.223,-0.269l0.221,-0.27l0.22,-0.271l0.218,-0.273l0.217,-0.274l0.215,-0.275l0.213,-0.276l0.212,-0.278l0.21,-0.279l0.208,-0.281l0.207,-0.281l0.205,-0.283l0.204,-0.285l0.202,-0.285l0.2,-0.287l0.198,-0.288l0.197,-0.289l0.195,-0.291l0.194,-0.292l0.191,-0.293l0.19,-0.294l0.189,-0.295l0.186,-0.297l0.185,-0.298l0.183,-0.299l0.181,-0.3l0.179,-0.301l0.178,-0.303l0.176,-0.303l0.174,-0.305l0.173,-0.306l0.17,-0.307l0.169,-0.308l0.167,-0.31l0.165,-0.31l0.163,-0.312l0.162,-0.313l0.159,-0.313l0.158,-0.315l0.156,-0.316l0.154,-0.317l0.152,-0.318l0.15,-0.319l0.149,-0.32l0.146,-0.322l0.145,-0.322l0.143,-0.323l0.14,-0.325l0.139,-0.325l0.137,-0.326l0.135,-0.327l0.133,-0.329l0.131,-0.329l0.13,-0.33l0.127,-0.332l0.125,-0.332l0.123,-0.333l0.122,-0.334l0.119,-0.335l0.117,-0.336l0.115,-0.337l0.114,-0.338l0.111,-0.339l0.109,-0.34l0.107,-0.34l0.105,-0.342l0.104,-0.342l0.101,-0.343l0.099,-0.345l0.097,-0.345l0.094,-0.345l0.093,-0.347l0.091,-0.348l0.088,-0.348l0.087,-0.349l0.084,-0.35l0.082,-0.351l0.081,-0.352l0.078,-0.353l0.075,-0.353l0.074,-0.354l0.072,-0.355l0.069,-0.356l0.067,-0.356l0.065,-0.357l0.063,-0.358l0.061,-0.359l0.058,-0.359l0.056,-0.36l0.055,-0.361l0.051,-0.362l0.05,-0.362l0.047,-0.363l0.045,-0.364l0.043,-0.365l0.041,-0.365l0.038,-0.366l0.036,-0.366l0.034,-0.367l0.032,-0.368l0.029,-0.369l0.027,-0.369l0.025,-0.369l0.022,-0.371l0.02,-0.371l0.018,-0.372l0.015,-0.372l0.013,-0.373l0.011,-0.373l0.008,-0.374l0.006,-0.375l0.004,-0.375l0.001,-0.376l-0.001,-0.376l-0.004,-0.375l-0.006,-0.375l-0.008,-0.374l-0.011,-0.373l-0.013,-0.373l-0.015,-0.373l-0.018,-0.371l-0.02,-0.371l-0.022,-0.371l-0.025,-0.37l-0.027,-0.369l-0.029,-0.368l-0.032,-0.368l-0.034,-0.367l-0.036,-0.367l-0.038,-0.366l-0.041,-0.365l-0.043,-0.364l-0.045,-0.364l-0.047,-0.363l-0.05,-0.362l-0.051,-0.362l-0.055,-0.361l-0.056,-0.36l-0.058,-0.359l-0.061,-0.359l-0.063,-0.358l-0.065,-0.357l-0.067,-0.357l-0.069,-0.355l-0.072,-0.355l-0.074,-0.354l-0.075,-0.354l-0.078,-0.352l-0.081,-0.352l-0.082,-0.351l-0.084,-0.35l-0.087,-0.349l-0.088,-0.349l-0.091,-0.347l-0.093,-0.347l-0.094,-0.346l-0.097,-0.345l-0.099,-0.344l-0.101,-0.343l-0.104,-0.342l-0.105,-0.342l-0.107,-0.341l-0.109,-0.339l-0.111,-0.339l-0.114,-0.338l-0.115,-0.337l-0.117,-0.336l-0.119,-0.335l-0.122,-0.334l-0.123,-0.333l-0.125,-0.333l-0.127,-0.331l-0.13,-0.33l-0.131,-0.329l-0.133,-0.329l-0.135,-0.327l-0.137,-0.326l-0.139,-0.326l-0.14,-0.324l-0.143,-0.323l-0.145,-0.323l-0.146,-0.321l-0.149,-0.32l-0.15,-0.319l-0.152,-0.318l-0.154,-0.317l-0.156,-0.316l-0.158,-0.315l-0.159,-0.314l-0.162,-0.312l-0.163,-0.312l-0.165,-0.31l-0.167,-0.31l-0.169,-0.308l-0.17,-0.307l-0.173,-0.306l-0.174,-0.305l-0.176,-0.304l-0.178,-0.302l-0.179,-0.301l-0.181,-0.301l-0.183,-0.299l-0.185,-0.297l-0.186,-0.297l-0.189,-0.295l-0.19,-0.295l-0.191,-0.293l-0.194,-0.291l-0.195,-0.291l-0.197,-0.289l-0.198,-0.288l-0.2,-0.287l-0.202,-0.286l-0.204,-0.284l-0.205,-0.283l-0.207,-0.282l-0.208,-0.28l-0.21,-0.279l-0.212,-0.278l-0.213,-0.276l-0.215,-0.276l-0.217,-0.274l-0.218,-0.272l-0.22,-0.271l-0.221,-0.27l-0.223,-0.269l-0.225,-0.267l-0.226,-0.266l-0.228,-0.264l-0.229,-0.263l-0.231,-0.262l-0.232,-0.26l-0.234,-0.259l-0.235,-0.257l-0.237,-0.256l-0.239,-0.255l-0.24,-0.253l-0.241,-0.252l-0.243,-0.25l-0.244,-0.249l-0.246,-0.247l-0.248,-0.246l-0.248,-0.245l-0.251,-0.242l-0.251,-0.242l-0.254,-0.24l-0.254,-0.238l-0.256,-0.237l-0.258,-0.236l-0.258,-0.233l-0.261,-0.233l-0.261,-0.231l-0.263,-0.229l-0.265,-0.228l-0.266,-0.226l-0.267,-0.224l-0.268,-0.223l-0.27,-0.222l-0.271,-0.219l-0.273,-0.219l-0.274,-0.216l-0.275,-0.215l-0.277,-0.214l-0.277,-0.211l-0.28,-0.211l-0.28,-0.208l-0.282,-0.207l-0.283,-0.205l-0.284,-0.204l-0.285,-0.201l-0.287,-0.201l-0.288,-0.198l-0.29,-0.197l-0.29,-0.195l-0.292,-0.193l-0.293,-0.192l-0.294,-0.19l-0.296,-0.188l-0.296,-0.187l-0.298,-0.184l-0.299,-0.183l-0.3,-0.181l-0.301,-0.18l-0.303,-0.178l-0.304,-0.176l-0.304,-0.174l-0.306,-0.172l-0.308,-0.171l-0.308,-0.168l-0.309,-0.167l-0.311,-0.165l-0.311,-0.164l-0.313,-0.161l-0.314,-0.16l-0.314,-0.157l-0.316,-0.156l-0.317,-0.154l-0.318,-0.153l-0.32,-0.15l-0.32,-0.148l-0.321,-0.147l-0.322,-0.144l-0.323,-0.143l-0.325,-0.141l-0.325,-0.139l-0.326,-0.137l-0.328,-0.135l-0.328,-0.133l-0.329,-0.131l-0.331,-0.129l-0.331,-0.127l-0.332,-0.125l-0.333,-0.124l-0.335,-0.121l-0.335,-0.119l-0.336,-0.118l-0.337,-0.115l-0.337,-0.113l-0.339,-0.111l-0.34,-0.11l-0.341,-0.107l-0.341,-0.105l-0.342,-0.103l-0.344,-0.101l-0.344,-0.099l-0.345,-0.097l-0.346,-0.095l-0.346,-0.093l-0.348,-0.09l-0.348,-0.089l-0.35,-0.086l-0.35,-0.085l-0.351,-0.082l-0.351,-0.08l-0.353,-0.078l-0.353,-0.076l-0.354,-0.074l-0.355,-0.071l-0.356,-0.07l-0.356,-0.067l-0.357,-0.065l-0.358,-0.063l-0.359,-0.06l-0.36,-0.059l-0.36,-0.056l-0.361,-0.054l-0.361,-0.052l-0.363,-0.049l-0.363,-0.048l-0.363,-0.045l-0.365,-0.043l-0.365,-0.041l-0.366,-0.038l-0.366,-0.036l-0.368,-0.034l-0.367,-0.031l-0.369,-0.03l-0.369,-0.027l-0.37,-0.024l-0.37,-0.023l-0.371,-0.02l-0.372,-0.017l-0.372,-0.016l-0.373,-0.013l-0.374,-0.01l-0.374,-0.009l-0.374,-0.005l-0.376,-0.004l-0.375,-0.001l-0.376,0.001Z" style="fill:#fff;"/></g><path d="M328.345,123.805l0,-10.512c7.292,-1.799 12.122,-7.671 12.122,-16.1c0,-6.724 -2.747,-12.217 -10.797,-17.047c-6.534,-3.978 -7.765,-5.777 -7.765,-8.997c0,-3.22 2.367,-5.872 6.818,-5.872c3.883,0 6.251,1.231 8.24,2.368l2.083,-9.471c-2.273,-1.231 -5.587,-2.367 -9.376,-2.367l0,-8.713l-8.05,0l0,9.66c-7.102,2.367 -11.364,8.334 -11.364,15.437c0,7.387 3.883,11.838 11.364,16.478c4.83,3.031 7.293,5.777 7.293,9.66c0,3.599 -2.463,6.251 -7.008,6.251c-3.883,0 -7.103,-1.042 -9.85,-2.652l-1.894,9.755c2.273,1.231 6.061,2.368 10.134,2.462l0,9.66l8.05,0Z" style="fill:#fff;fill-rule:nonzero;"/><defs><linearGradient id="_Linear1" x1="0" y1="0" x2="1" y2="0" gradientUnits="userSpaceOnUse" gradientTransform="matrix(119.725,0,0,119.725,256.412,88.1599)"><stop offset="0%" style="stop-color:#f2f2f2;stop-opacity:1"/><stop offset="100%" style="stop-color:#a3a3a3;stop-opacity:1"/></linearGradient><linearGradient id="_Linear2" x1="0" y1="0" x2="1" y2="0" gradientUnits="userSpaceOnUse" gradientTransform="matrix(145.298,0,0,145.298,248.276,358.414)"><stop offset="0%" style="stop-color:#f2f2f2;stop-opacity:1"/><stop offset="100%" style="stop-color:#a3a3a3;stop-opacity:1"/></linearGradient><linearGradient id="_Linear3" x1="0" y1="0" x2="1" y2="0" gradientUnits="userSpaceOnUse" gradientTransform="matrix(145.298,0,0,145.298,257.575,324.705)"><stop offset="0%" style="stop-color:#f2f2f2;stop-opacity:1"/><stop offset="100%" style="stop-color:#a3a3a3;stop-opacity:1"/></linearGradient><linearGradient id="_Linear4" x1="0" y1="0" x2="1" y2="0" gradientUnits="userSpaceOnUse" gradientTransform="matrix(145.298,0,0,145.298,252.925,290.996)"><stop offset="0%" style="stop-color:#f2f2f2;stop-opacity:1"/><stop offset="100%" style="stop-color:#a3a3a3;stop-opacity:1"/></linearGradient><linearGradient id="_Linear5" x1="0" y1="0" x2="1" y2="0" gradientUnits="userSpaceOnUse" gradientTransform="matrix(145.298,0,0,145.298,241.301,257.287)"><stop offset="0%" style="stop-color:#f2f2f2;stop-opacity:1"/><stop offset="100%" style="stop-color:#a3a3a3;stop-opacity:1"/></linearGradient><linearGradient id="_Linear6" x1="0" y1="0" x2="1" y2="0" gradientUnits="userSpaceOnUse" gradientTransform="matrix(145.298,0,0,145.298,245.951,223.577)"><stop offset="0%" style="stop-color:#f2f2f2;stop-opacity:1"/><stop offset="100%" style="stop-color:#a3a3a3;stop-opacity:1"/></linearGradient><linearGradient id="_Linear7" x1="0" y1="0" x2="1" y2="0" gradientUnits="userSpaceOnUse" gradientTransform="matrix(145.298,0,0,145.298,252.925,189.868)"><stop offset="0%" style="stop-color:#f2f2f2;stop-opacity:1"/><stop offset="100%" style="stop-color:#a3a3a3;stop-opacity:1"/></linearGradient><linearGradient id="_Linear8" x1="0" y1="0" x2="1" y2="0" gradientUnits="userSpaceOnUse" gradientTransform="matrix(119.725,0,0,119.725,266.874,28.2972)"><stop offset="0%" style="stop-color:#f2f2f2;stop-opacity:1"/><stop offset="100%" style="stop-color:#a3a3a3;stop-opacity:1"/></linearGradient></defs></svg>