<?xml version="1.0" encoding="UTF-8" standalone="no"?><!DOCTYPE svg PUBLIC "-//W3C//DTD SVG 1.1//EN" "http://www.w3.org/Graphics/SVG/1.1/DTD/svg11.dtd"><svg width="100%" height="100%" viewBox="0 0 614 423" version="1.1" xmlns="http://www.w3.org/2000/svg" xmlns:xlink="http://www.w3.org/1999/xlink" xml:space="preserve" style="fill-rule:evenodd;clip-rule:evenodd;stroke-linejoin:round;stroke-miterlimit:1.41421;"><path d="M436.07,140.419l-2.937,2.937l-114.131,-114.131l-116.9,116.9l-2.937,-2.937l119.837,-119.836l117.068,117.067Z" style="fill:#ccc;"/><path d="M132.797,134.966l369.641,0l0,227.045l-369.641,0l0,-227.045Z" style="fill:url(#_Linear1);fill-rule:nonzero;"/><g><path d="M240.951,280.876c-7.855,0 -14.137,-2.47 -18.845,-7.412c-4.708,-4.941 -7.062,-11.526 -7.062,-19.753c0,-8.321 2.365,-14.929 7.097,-19.824c4.731,-4.895 11.118,-7.342 19.159,-7.342c7.995,0 14.364,2.447 19.107,7.342c4.743,4.895 7.115,11.468 7.115,19.719c0,8.437 -2.372,15.092 -7.115,19.963c-4.743,4.872 -11.229,7.307 -19.456,7.307Zm0.139,-7.132c4.615,0 8.269,-1.812 10.961,-5.437c2.692,-3.624 4.038,-8.536 4.038,-14.736c0,-6.014 -1.352,-10.838 -4.055,-14.475c-2.704,-3.636 -6.282,-5.454 -10.734,-5.454c-4.498,0 -8.094,1.818 -10.786,5.454c-2.692,3.637 -4.038,8.496 -4.038,14.58c0,6.036 1.34,10.89 4.021,14.561c2.68,3.671 6.211,5.507 10.593,5.507Z" style="fill:#fff;fill-rule:nonzero;"/><path d="M277.779,279.583l0,-51.744l18.041,0c6.293,0 10.785,1.054 13.477,3.164c2.693,2.109 4.039,5.634 4.039,10.576c0,5.594 -1.801,9.947 -5.402,13.058c-3.601,3.112 -8.642,4.668 -15.121,4.668l-4.475,0l0,20.278l-10.559,0Zm10.559,-27.376l2.097,0c3.683,0 6.591,-0.856 8.723,-2.569c2.133,-1.714 3.199,-4.039 3.199,-6.975c0,-5.151 -3.274,-7.727 -9.824,-7.727l-4.195,0l0,17.271Z" style="fill:#fff;fill-rule:nonzero;"/><path d="M322.264,279.583l0,-51.744l32.34,0l0,7.097l-21.571,0l0,14.439l17.69,0l0,6.923l-17.69,0l0,15.943l23.214,0l0,7.342l-33.983,0Z" style="fill:#fff;fill-rule:nonzero;"/><path d="M365.841,279.583l0,-51.744l9.474,0l23.984,35.346l0,-35.346l8.636,0l0,51.744l-9.65,0l-23.809,-35.347l0,35.347l-8.635,0Z" style="fill:#fff;fill-rule:nonzero;"/></g><path d="M487.209,344.706l-339.183,0l0,-192.435l339.183,0l0,192.435Zm-335.03,-188.282l0,184.129l330.877,0l0,-184.129l-330.877,0Z" style="fill:#fff;"/><defs><linearGradient id="_Linear1" x1="0" y1="0" x2="1" y2="0" gradientUnits="userSpaceOnUse" gradientTransform="matrix(2.2634e-14,-369.641,369.641,2.2634e-14,317.618,327.373)"><stop offset="0%" style="stop-color:#f2f2f2;stop-opacity:1"/><stop offset="100%" style="stop-color:#a3a3a3;stop-opacity:1"/></linearGradient></defs></svg>