<?xml version="1.0" encoding="UTF-8" standalone="no"?><!DOCTYPE svg PUBLIC "-//W3C//DTD SVG 1.1//EN" "http://www.w3.org/Graphics/SVG/1.1/DTD/svg11.dtd"><svg width="100%" height="100%" viewBox="0 0 614 423" version="1.1" xmlns="http://www.w3.org/2000/svg" xmlns:xlink="http://www.w3.org/1999/xlink" xml:space="preserve" style="fill-rule:evenodd;clip-rule:evenodd;stroke-linejoin:round;stroke-miterlimit:1.41421;"><path d="M171.026,39.529l-81.416,0c-10.695,0 -19.496,8.801 -19.496,19.496l0,215.545c0,10.695 8.801,19.496 19.496,19.496l81.416,0c10.695,0 19.496,-8.801 19.496,-19.496l0,-215.545c0,-10.695 -8.801,-19.496 -19.496,-19.496Zm14.997,227.498l-110.66,0l0,-205.903l110.72,0l-0.06,205.903Z" style="fill:url(#_Linear1);fill-rule:nonzero;"/><path d="M544.635,145.84l-274.227,0c-10.695,0 -19.495,8.801 -19.495,19.495l0,177.425c0,10.695 8.8,19.495 19.495,19.495l274.227,0c10.695,0 19.496,-8.8 19.496,-19.495l0,-177.47c-0.025,-10.677 -8.818,-19.45 -19.496,-19.45Zm-5.638,210.312l-265.439,0l0,-203.294l265.439,0l0,203.294Z" style="fill:url(#_Linear2);fill-rule:nonzero;"/><rect x="102.162" y="174.093" width="90.219" height="1.545" style="fill:#b3b3b3;"/><rect x="108.34" y="180.272" width="90.219" height="1.545" style="fill:#b3b3b3;"/><rect x="91.379" y="186.436" width="90.219" height="1.545" style="fill:#b3b3b3;"/><rect x="108.73" y="192.989" width="90.219" height="1.545" style="fill:#b3b3b3;"/><rect x="108.34" y="217.284" width="90.219" height="1.545" style="fill:#b3b3b3;"/><rect x="108.34" y="223.447" width="90.219" height="1.545" style="fill:#b3b3b3;"/><rect x="114.894" y="230.001" width="90.219" height="1.545" style="fill:#b3b3b3;"/><rect x="83.281" y="236.944" width="75.193" height="1.545" style="fill:#b3b3b3;"/><rect x="416.19" y="274.45" width="90.219" height="1.545" style="fill:#b3b3b3;"/><rect x="422.368" y="280.614" width="90.219" height="1.545" style="fill:#b3b3b3;"/><rect x="405.392" y="286.793" width="90.219" height="1.545" style="fill:#b3b3b3;"/><rect x="422.743" y="293.346" width="90.219" height="1.545" style="fill:#b3b3b3;"/><rect x="422.368" y="317.641" width="90.219" height="1.545" style="fill:#b3b3b3;"/><rect x="422.368" y="323.804" width="90.219" height="1.545" style="fill:#b3b3b3;"/><rect x="428.922" y="330.358" width="90.219" height="1.545" style="fill:#b3b3b3;"/><rect x="397.309" y="337.301" width="75.193" height="1.545" style="fill:#b3b3b3;"/><path d="M104.696,113.477l-8.188,0c-4.272,-0.032 -7.768,-3.556 -7.768,-7.828l0,-8.203c0,-4.294 3.534,-7.828 7.828,-7.828l8.188,0c4.295,0 7.828,3.534 7.828,7.828l0,8.203c0,4.295 -3.533,7.829 -7.828,7.829c-0.02,0 -0.04,-0.001 -0.06,-0.001l0,0Zm38.316,-7.828l0,-8.203c0.001,-4.277 -3.505,-7.804 -7.783,-7.828l-8.248,0c-4.294,0 -7.828,3.534 -7.828,7.828l0,8.203c0,4.295 3.534,7.828 7.828,7.828l8.248,0c4.278,-0.024 7.784,-3.55 7.783,-7.828Zm30.489,0l0,-8.203c0,-4.294 -3.534,-7.828 -7.829,-7.828l-8.203,0c-4.294,0 -7.828,3.534 -7.828,7.828l0,8.203c0,4.295 3.534,7.828 7.828,7.828l8.203,0c4.295,0 7.829,-3.533 7.829,-7.828Zm-60.977,32.468l0,-8.188c0,-0.005 0,-0.01 0,-0.015c0,-4.295 -3.533,-7.829 -7.828,-7.829c0,0 0,0 0,0l-8.188,0c-4.277,0.033 -7.776,3.566 -7.768,7.844l0,8.188c0,0.025 0,0.05 0,0.075c0,4.269 3.499,7.788 7.768,7.813l8.188,0c0.005,0 0.011,0 0.016,0c4.286,0 7.813,-3.527 7.813,-7.813c0,-0.025 0,-0.05 -0.001,-0.075l0,0Zm30.488,0l0,-8.188c0.001,-4.281 -3.503,-7.811 -7.783,-7.844l-8.248,0c-4.297,0.009 -7.828,3.547 -7.828,7.844l0,8.188c0,0.02 0,0.04 0,0.06c0,4.294 3.534,7.828 7.828,7.828l8.248,0c4.278,-0.025 7.784,-3.551 7.784,-7.828c0,-0.02 0,-0.04 -0.001,-0.06Zm30.489,0l0,-8.188c0,-4.297 -3.532,-7.835 -7.829,-7.844l-8.203,0c-4.297,0.009 -7.828,3.547 -7.828,7.844l0,8.188c0,0.02 0,0.04 0,0.06c0,4.294 3.534,7.828 7.828,7.828l8.204,0c4.294,0 7.828,-3.534 7.828,-7.828c0,-0.02 0,-0.04 0,-0.06l0,0Z" style="fill:url(#_Linear3);fill-rule:nonzero;"/><path d="M479.52,225.277l-12.642,0c-4.294,0 -7.828,-3.534 -7.828,-7.828l0,-12.643c0,-4.294 3.534,-7.828 7.828,-7.828l12.642,0c4.295,0 7.829,3.534 7.829,7.828l0,12.643c0,0.005 0,0.01 0,0.015c0,4.286 -3.527,7.813 -7.814,7.813c-0.005,0 -0.01,0 -0.015,0l0,0Zm-28.268,23.319l0,-46.684c0,-4.294 -3.534,-7.828 -7.828,-7.828l-46.685,0c-4.294,0 -7.828,3.534 -7.828,7.828l0,46.684c0,4.295 3.534,7.829 7.828,7.829l46.685,0c4.294,0 7.828,-3.534 7.828,-7.829l0,0Zm-69.209,0l0,-69.599c0,-4.294 -3.534,-7.828 -7.828,-7.828l-69.525,0c-4.294,0 -7.828,3.534 -7.828,7.828l0,69.569c0,4.297 3.531,7.835 7.828,7.844l69.57,0c4.266,-0.025 7.766,-3.532 7.783,-7.799l0,-0.015Z" style="fill:url(#_Linear4);fill-rule:nonzero;"/><defs><linearGradient id="_Linear1" x1="0" y1="0" x2="1" y2="0" gradientUnits="userSpaceOnUse" gradientTransform="matrix(120.302,0,0,120.302,70.1592,166.775)"><stop offset="0%" style="stop-color:#f2f2f2;stop-opacity:1"/><stop offset="100%" style="stop-color:#a3a3a3;stop-opacity:1"/></linearGradient><linearGradient id="_Linear2" x1="0" y1="0" x2="1" y2="0" gradientUnits="userSpaceOnUse" gradientTransform="matrix(313.158,0,0,313.158,250.973,254.025)"><stop offset="0%" style="stop-color:#f2f2f2;stop-opacity:1"/><stop offset="100%" style="stop-color:#a3a3a3;stop-opacity:1"/></linearGradient><linearGradient id="_Linear3" x1="0" y1="0" x2="1" y2="0" gradientUnits="userSpaceOnUse" gradientTransform="matrix(84.8206,0,0,84.8206,88.6799,117.781)"><stop offset="0%" style="stop-color:#f2f2f2;stop-opacity:1"/><stop offset="100%" style="stop-color:#a3a3a3;stop-opacity:1"/></linearGradient><linearGradient id="_Linear4" x1="0" y1="0" x2="1" y2="0" gradientUnits="userSpaceOnUse" gradientTransform="matrix(190.531,0,0,190.531,296.817,213.834)"><stop offset="0%" style="stop-color:#f2f2f2;stop-opacity:1"/><stop offset="100%" style="stop-color:#a3a3a3;stop-opacity:1"/></linearGradient></defs></svg>