<?xml version="1.0" encoding="UTF-8" standalone="no"?><!DOCTYPE svg PUBLIC "-//W3C//DTD SVG 1.1//EN" "http://www.w3.org/Graphics/SVG/1.1/DTD/svg11.dtd"><svg width="100%" height="100%" viewBox="0 0 614 423" version="1.1" xmlns="http://www.w3.org/2000/svg" xmlns:xlink="http://www.w3.org/1999/xlink" xml:space="preserve" style="fill-rule:evenodd;clip-rule:evenodd;stroke-linejoin:round;stroke-miterlimit:1.41421;"><path d="M418.838,94.49l-337.077,10.865l38.796,257.138l335.115,-12.968l-1.969,-12.918l4.368,-0.666l2.715,17.809l-344.008,13.311l-40.128,-265.963l342.046,-11.024l0.142,4.416Z" style="fill:url(#_Linear1);"/><path d="M549.439,304.751l-329.03,15.821l5.701,-77.334l198.976,18.324l124.353,43.189Z" style="fill:url(#_Linear2);fill-rule:nonzero;"/><path d="M87.366,88.776c0,0 31.405,333.788 201.583,200.332l260.49,15.658c0,0 -100.799,-95.57 -113.88,-230.396l-348.193,14.406Z" style="fill:url(#_Linear3);fill-rule:nonzero;"/><path d="M304.802,260.572c24.628,-38.591 27.109,-46.681 25.582,-58.31c-1.589,-12.098 -9.967,-19.399 -20.617,-17.987c-10.65,1.411 -17.328,10.619 -15.724,22.832l0.276,2.103l3.018,-0.4l-0.276,-2.103c-1.301,-9.909 4.059,-17.74 13.163,-18.947c8.96,-1.187 15.793,4.823 17.117,14.905c1.464,11.147 -1.01,18.501 -27.76,60.094l0.265,2.016l41.562,-5.508l-0.458,-3.486l-36.148,4.791Z" style="fill:#fff;fill-rule:nonzero;"/><g><path d="M231.474,155.433l-6.448,-35.576l-8.277,0.448l-6.077,19.878l-8.141,-19.108l-8.278,0.449l-2.61,36.066l8.4,-0.455l1.198,-20.746l9.096,20.248l2.449,-0.133l6.859,-21.12l3.466,20.502l8.363,-0.453Z" style="fill:#fff;fill-rule:nonzero;"/><g><path d="M249.722,155.353c7.543,-0.408 12.678,-6.89 12.216,-15.427c-0.464,-8.565 -6.268,-14.425 -13.811,-14.016c-7.568,0.409 -12.681,6.86 -12.217,15.426c0.463,8.536 6.244,14.427 13.812,14.017Zm-0.464,-8.55c-2.915,0.158 -5.142,-2.247 -5.34,-5.9c-0.198,-3.653 1.757,-6.285 4.672,-6.443c2.915,-0.158 5.144,2.269 5.34,5.901c0.198,3.653 -1.756,6.285 -4.671,6.442l-0.001,0Z" style="fill:#fff;fill-rule:nonzero;"/><path d="M279.404,124.304c-3.002,0.163 -5.505,1.676 -7.109,4.062l-1.252,-2.79l-5.609,0.304l1.496,27.633l7.995,-0.433l-0.799,-14.756c-0.19,-3.517 1.132,-5.668 3.625,-5.803c2.012,-0.109 3.113,1.432 3.287,4.648l0.842,15.534l7.995,-0.433l-0.913,-16.849c-0.381,-7.04 -4.168,-11.409 -9.558,-11.117l0,0Z" style="fill:#fff;fill-rule:nonzero;"/><path d="M309.78,113.471l0.595,10.991c-1.73,-1.14 -3.728,-1.722 -5.871,-1.606c-7.123,0.386 -11.864,6.795 -11.399,15.382c0.465,8.588 5.872,14.477 12.995,14.091c2.703,-0.146 5.053,-1.371 6.839,-3.366l0.865,2.011l5.917,-0.32l-2.037,-37.611l-7.904,0.428Zm-3.067,30.373c-2.995,0.162 -5.343,-2.434 -5.539,-6.042c-0.195,-3.609 1.859,-6.443 4.854,-6.605c2.995,-0.162 5.343,2.433 5.538,6.042c0.196,3.608 -1.858,6.443 -4.853,6.605Z" style="fill:#fff;fill-rule:nonzero;"/><path d="M342.535,121.675l-0.702,2.181c-2.019,-1.779 -4.519,-2.733 -7.253,-2.585c-7.098,0.384 -11.841,6.75 -11.378,15.308c0.465,8.587 5.873,14.477 12.97,14.092c2.696,-0.146 5.046,-1.332 6.847,-3.268l0.791,1.917l6.181,-0.335l-1.497,-27.632l-5.959,0.322Zm-5.75,20.511c-2.995,0.162 -5.342,-2.412 -5.538,-6.021c-0.194,-3.587 1.843,-6.399 4.856,-6.562c2.995,-0.162 5.342,2.413 5.536,5.999c0.196,3.609 -1.86,6.422 -4.854,6.584l0,0Z" style="fill:#fff;fill-rule:nonzero;"/></g><path d="M374.685,119.644l-3.766,15.471l-5.751,-14.955l-8.687,0.47l10.964,24.831c-0.897,3.497 -1.768,4.495 -4.826,4.661l-2.199,0.119l0.443,8.178l2.737,-0.148c5.994,-0.325 8.704,-3.535 11.375,-12.162l8.299,-26.93l-8.589,0.465Z" style="fill:#fff;fill-rule:nonzero;"/></g><defs><linearGradient id="_Linear1" x1="0" y1="0" x2="1" y2="0" gradientUnits="userSpaceOnUse" gradientTransform="matrix(384.135,0,0,384.135,76.6569,228.566)"><stop offset="0%" style="stop-color:#f2f2f2;stop-opacity:1"/><stop offset="100%" style="stop-color:#a3a3a3;stop-opacity:1"/></linearGradient><linearGradient id="_Linear2" x1="0" y1="0" x2="1" y2="0" gradientUnits="userSpaceOnUse" gradientTransform="matrix(329.03,0,0,329.03,220.409,281.905)"><stop offset="0%" style="stop-color:#f2f2f2;stop-opacity:1"/><stop offset="100%" style="stop-color:#a3a3a3;stop-opacity:1"/></linearGradient><linearGradient id="_Linear3" x1="0" y1="0" x2="1" y2="0" gradientUnits="userSpaceOnUse" gradientTransform="matrix(462.073,0,0,462.073,87.3658,197.471)"><stop offset="0%" style="stop-color:#f2f2f2;stop-opacity:1"/><stop offset="100%" style="stop-color:#a3a3a3;stop-opacity:1"/></linearGradient></defs></svg>