<svg fill="none" height="74" viewBox="0 0 200 74" width="200" xmlns="http://www.w3.org/2000/svg"><g fill="#111"><path d="m9.13044 38.1511h-7.17391l7.28261-38.1511h24.45656l-1.3044 6.79704h-17.2826l-1.6304 8.55106h15.1087l-1.3044 6.7971h-15.1087z"/><path d="m39.6739 31.2444h17.0652l-1.3043 6.9067h-24.2392l7.2827-38.1511h7.1739z"/><path d="m128.043 38.1511h-6.739l6.087-31.90221h-.108l-12.5 31.90221h-7.066l-.108-31.90221h-.109l-6.087 31.90221h-6.7391l7.2831-38.1511h10.543l.435 30.1481h.108l11.848-30.1481h10.435z"/><path d="m149.674 8.66074 1.522 15.12886h-8.805zm-10.435 21.70666h12.718l.652 7.8933h7.826l-4.892-38.2607h-8.26l-19.566 38.1511h7.609z"/><path d="m193.261 0h6.739l-7.283 38.1511h-7.282l-8.805-27.1881h-.108l-5.218 27.1881h-6.63l7.283-38.1511h7.608l8.478 26.64h.109z"/><path d="m194.457 49.4428h-194.457l2.06522-7.0163h194.45678z"/><path d="m79.6739 8.66074 1.5218 15.12886h-8.8044zm-10.4348 21.70666h12.7174l.6522 7.8933h7.8261l-4.7826-38.2607h-8.2609l-19.5652 38.1511h7.6087z"/><path d="m90.1087 56.1304v3.0696h-5.1087v14.2519h-3.587v-14.2519h-5.3261v-3.0696z"/><path d="m103.152 56.5689c.652.3289 1.196.6578 1.631 1.2059.326.4385.652.8771.869 1.4252.218.5481.326 1.0963.326 1.8637 0 .877-.217 1.6444-.652 2.4119-.435.7674-1.087 1.3155-2.065 1.6444.761.3289 1.304.7674 1.739 1.4252.326.5481.543 1.5348.543 2.7407v1.206c0 .7674 0 1.3155.109 1.6444.109.4385.326.7674.652.9867v.3289h-4.021c-.109-.4386-.218-.6578-.218-.8771-.108-.4385-.108-.9866-.108-1.5348v-1.6444c0-1.0963-.218-1.8638-.544-2.1926-.326-.3289-1.087-.5482-2.0652-.5482h-3.4782v6.7971h-3.4783v-17.3215h8.2607c.978 0 1.957.1096 2.5.4385zm-7.3911 2.5215v4.714h3.913c.7611 0 1.3041-.1096 1.7391-.3288.652-.3289.978-.9867.978-1.9734 0-1.0963-.326-1.7541-.978-2.0829-.326-.2193-.978-.3289-1.6304-.3289z"/><path d="m114.348 56.1304h4.022l6.087 17.3215h-3.805l-1.087-3.6178h-6.304l-1.304 3.6178h-3.805zm-.218 10.7437h4.457l-2.174-6.7971z"/><path d="m130 73.4519h-3.587v-17.3215h3.587z"/><path d="m133.37 56.1304h3.587v14.2518h8.586v3.0697h-12.173z"/><path d="m160.652 59.2h-9.13v3.7274h8.369v3.0696h-8.369v4.4949h9.565v2.96h-13.044v-17.3215h12.609z"/><path d="m174.891 56.5689c.652.3289 1.196.6578 1.631 1.2059.326.4385.652.8771.869 1.4252.218.5481.326 1.0963.326 1.8637 0 .877-.217 1.6444-.652 2.4119-.435.7674-1.087 1.3155-2.065 1.6444.761.3289 1.304.7674 1.739 1.4252.326.5481.544 1.5348.544 2.7407v1.206c0 .7674 0 1.3155.108 1.6444.109.4385.326.7674.652.9867v.3289h-4.021c-.109-.4386-.218-.6578-.218-.8771-.108-.4385-.108-.9866-.108-1.5348v-1.6444c0-1.0963-.218-1.8638-.544-2.1926-.326-.3289-1.087-.5482-2.065-.5482h-3.478v6.7971h-3.479v-17.3215h8.261c.979 0 1.957.1096 2.5.4385zm-7.391 2.5215v4.714h3.913c.761 0 1.304-.1096 1.739-.3288.652-.3289.978-.9867.978-1.9734 0-1.0963-.326-1.7541-.978-2.0829-.326-.2193-.869-.3289-1.63-.3289z"/><path d="m183.804 68.08c.109.7674.326 1.4252.652 1.7541.544.7674 1.631 1.0963 3.044 1.0963.87 0 1.522-.1096 2.065-.3289.978-.3289 1.522-.9866 1.522-1.9733 0-.5482-.217-.9867-.761-1.3156-.543-.3289-1.304-.5481-2.391-.7674l-1.848-.4385c-1.848-.4385-3.044-.877-3.804-1.3155-1.196-.7675-1.74-2.083-1.74-3.7275 0-1.5348.544-2.8503 1.74-3.837 1.195-.9867 2.826-1.5348 5-1.5348 1.847 0 3.369.4385 4.673 1.4252 1.305.9866 1.957 2.4118 2.066 4.2755h-3.479c-.108-1.0963-.543-1.754-1.413-2.1926-.543-.3288-1.304-.4385-2.174-.4385-.978 0-1.739.2193-2.282.5482-.544.3289-.87.877-.87 1.5348s.326 1.0963.87 1.4252c.326.2192 1.087.4385 2.282.7674l3.044.7674c1.304.3289 2.283.7674 2.935 1.2059.978.7674 1.521 1.9733 1.521 3.5082 0 1.5348-.652 2.8503-1.847 3.9466-1.196 1.0963-2.935 1.5348-5.109 1.5348-2.283 0-4.022-.5481-5.326-1.5348-1.304-.9866-1.957-2.4118-1.957-4.2755h3.587z"/></g></svg>