<svg width="211" height="64" viewBox="0 0 211 64" fill="none" xmlns="http://www.w3.org/2000/svg">
<path fill-rule="evenodd" clip-rule="evenodd" d="M205.254 0C202.093 0 199.508 2.55426 199.508 5.73991C199.508 8.89686 202.093 11.4798 205.254 11.4798C208.443 11.4798 211 8.89686 211 5.73991C211 2.55426 208.414 0 205.254 0ZM205.254 10.4466C202.639 10.4466 200.542 8.32287 200.542 5.73991C200.542 3.12825 202.668 1.03318 205.254 1.03318C207.84 1.03318 209.966 3.12825 209.966 5.73991C209.966 8.35157 207.868 10.4466 205.254 10.4466ZM9.99837 2.8125H0V51.8313H9.99837V2.8125ZM195.169 26.2314C195.054 26.0592 194.968 25.8296 194.968 25.6C194.968 24.8538 195.6 24.2511 196.347 24.2511H207.064L204.765 13.6897H193.216C189.768 13.6897 186.722 15.5265 185.027 18.2816L184.912 18.4538C184.366 19.4009 181.953 24.3946 186.205 32.2583L197.353 52.7785C197.468 52.9794 197.525 53.209 197.525 53.4386C197.525 54.1848 196.922 54.7874 196.175 54.7874H71.1378L73.3214 64H196.376C210.282 64 210.914 55.1605 206.777 47.6126L195.169 26.2314ZM102.167 62.7372H100.214V58.3175L98.6908 60.2978L97.2255 58.3175V62.7372H95.2718V55.4475H97.1106L98.6908 57.5713L100.328 55.4475H102.167V62.7372ZM107.109 58.7767V57.313H109.063V62.7372H107.109V60.4126H104.983C105.012 61.2448 105.299 62.0197 105.73 62.7372L104.15 63.7417C103.431 62.6798 103 61.417 103 60.1256C103 58.8628 103.403 57.5426 104.322 56.6529C105.356 55.6197 106.592 55.4475 107.971 55.4475H108.948L109.379 57.0834H107.856C105.8 57.0834 105.419 58.1321 105.188 58.7649L105.184 58.7767H107.109ZM116.274 62.7372H114.32V60.5848L112.252 58.1166V62.7372H110.298V55.4475H112.137L114.32 57.9157V55.4475H116.274V62.7372ZM123.227 62.7372H120.067C117.883 62.7372 117.107 61.417 117.107 59.7238C117.107 58.2027 117.711 56.7964 118.4 55.4475H120.498C120.434 55.5874 120.358 55.7454 120.276 55.9181L120.276 55.9184C119.799 56.9148 119.09 58.3987 119.09 59.6951C119.09 61.1013 120.153 61.1014 120.526 61.1014H121.273V55.4475H123.227V62.7372ZM128.513 59.896H126.33V61.704V61.7041C126.33 62.0485 126.33 62.3929 126.445 62.7372L124.692 63.8278C124.434 63.3399 124.376 62.7946 124.376 62.2206V55.4475H128.772L129.232 57.0834H126.33V58.2601H128.944L128.513 59.896ZM133.139 58.7767V57.313H135.093V62.7372H133.139V60.4126H131.013C131.013 61.2448 131.329 62.0197 131.76 62.7372L130.18 63.7417C129.462 62.6798 129.031 61.417 129.031 60.1256C129.031 58.8628 129.433 57.5426 130.352 56.6529C131.387 55.6197 132.593 55.4475 134.001 55.4475H134.949L135.409 57.0834H133.886C131.829 57.0834 131.458 58.1055 131.227 58.7404L131.214 58.7767H133.139ZM144.689 62.7372H142.735V57.0834H139.345C138.943 57.0834 137.88 57.0834 137.88 58.461C137.88 59.9247 139 61.1875 140.954 61.1014L140.494 62.7372H140.15C137.65 62.7372 135.897 60.6422 135.897 58.2888C135.897 56.8251 136.644 55.4475 138.885 55.4475H140.379L140.753 56.7677L141.126 55.4475H146.298L146.758 57.0834H144.689V62.7372ZM152.849 62.7372H149.688C147.505 62.7372 146.729 61.417 146.729 59.7238C146.729 58.2027 147.332 56.7964 148.022 55.4475H150.119C150.055 55.5875 149.98 55.7456 149.897 55.9184C149.421 56.9149 148.711 58.3988 148.711 59.6951C148.711 61.1013 149.774 61.1014 150.148 61.1014H150.895V55.4475H152.849V62.7372ZM155.98 62.7372H154.027V57.313H155.98V62.7372ZM158.882 63.8278C157.704 62.5076 156.785 60.9292 156.038 59.2933C156.082 59.2614 156.131 59.2272 156.184 59.1908C156.227 59.1615 156.273 59.1309 156.32 59.0989L156.321 59.0979L156.322 59.0974L156.322 59.0972C156.901 58.7057 157.762 58.1241 157.762 57.5426C157.762 57.0796 157.218 57.0818 156.868 57.0833L156.813 57.0834H153.653L154.113 55.4475H157.704C159.457 55.4475 159.945 56.5094 159.945 57.3417C159.945 58.4036 159.227 59.0924 158.365 59.6377C158.94 60.7283 159.687 61.7614 160.52 62.7372L158.882 63.8278ZM162.847 62.7372H160.893V55.4475H162.847V62.7372ZM170.087 62.7372H168.133V60.5848L166.094 58.1166H166.065V62.7372H164.111V55.4475H165.979L168.133 57.9157V55.4475H170.087V62.7372ZM177.155 62.7372H175.575C173.104 62.7372 170.92 61.0439 170.92 58.2888C170.92 56.8251 171.696 55.4475 173.908 55.4475H176.609L177.069 57.0834H174.368C173.966 57.0834 172.932 57.0834 172.932 58.461C172.932 59.7812 173.88 61.0153 175.201 61.1014V59.3794H174.483V57.7435H177.155V62.7372ZM26.3175 13.661L37.4651 26.6619V13.661H47.4635V51.8314H37.4651V40.5812L26.8922 27.7238H26.7772V51.8314H16.7789V13.661H26.3175ZM63.9264 36.9937H75.0452L77.4012 28.3839H63.8976V22.2709H78.8664L76.5392 13.6897H53.8993V51.4296C53.8993 54.3283 54.1291 57.2269 55.4507 59.8386L64.5297 54.0413C63.9264 52.3193 63.9264 50.4538 63.9264 48.6171V48.6171V36.9937ZM116.36 28.0107C116.36 38.1416 110.758 52.6636 98.9781 52.6636C87.1984 52.6636 81.5671 38.1416 81.5959 28.0107C81.5959 19.7452 85.5607 12.8286 98.9781 12.8286C112.395 12.8286 116.36 19.7452 116.36 28.0107ZM105.931 28.4699C105.931 23.39 103.891 21.7542 98.9781 21.7542C94.0651 21.7542 91.9965 23.39 92.0252 28.4699C92.0252 35.3865 95.1856 43.6519 98.9781 43.6519C102.742 43.6519 105.931 35.3865 105.931 28.4699ZM140.782 51.8314H142.505L144.833 43.2215C134.863 43.7955 129.117 37.1372 129.117 29.4745C129.117 22.2422 134.547 22.2422 136.501 22.2422H144.315L141.988 13.661H134.173C122.767 13.661 118.889 20.8933 118.889 28.6135C118.889 40.8969 127.881 51.8314 140.782 51.8314ZM178.793 51.8314H162.56C151.383 51.8314 147.418 44.9722 147.447 36.1328C147.447 28.1543 150.521 20.7211 154.084 13.661H164.887C164.588 14.325 164.237 15.0709 163.855 15.8844L163.854 15.8866L163.854 15.8876C161.412 21.0867 157.675 29.0421 157.675 35.9893C157.675 43.2215 163.106 43.2215 165.059 43.2215H168.794V13.661H178.793V51.8314ZM206.116 6.02686C206.202 6.08426 206.288 6.14166 206.346 6.19906C206.575 6.42865 206.805 6.71565 207.035 7.03134L208.127 8.86811H206.92L206.116 7.54793C205.886 7.17484 205.714 6.91654 205.57 6.71565C205.426 6.54345 205.283 6.39995 205.196 6.34255C205.167 6.32773 205.139 6.31291 205.112 6.29858C205.035 6.25742 204.966 6.22034 204.88 6.19906C204.794 6.17036 204.679 6.17036 204.478 6.17036H203.702V8.81071H202.725V2.52551H205.397C205.915 2.52551 206.317 2.58291 206.604 2.69771C206.891 2.81251 207.121 3.0421 207.294 3.3291C207.466 3.6161 207.552 3.96049 207.552 4.30488C207.552 4.76408 207.409 5.16587 207.121 5.48157C206.863 5.73986 206.547 5.94076 206.116 6.02686ZM205.254 5.25197C205.599 5.25197 205.857 5.22327 206.03 5.13717C206.202 5.07977 206.317 4.96497 206.403 4.82148C206.489 4.67798 206.547 4.50578 206.547 4.33358C206.547 4.07529 206.46 3.87439 206.288 3.70219C206.116 3.53 205.857 3.4439 205.426 3.4439H203.702V5.25197H205.254Z" fill="black"/>
</svg>
