<svg width="62" height="51" viewBox="0 0 62 51" fill="none" xmlns="http://www.w3.org/2000/svg">
<g clip-path="url(#clip0)">
<path d="M61 0.548584H1C0.4 0.548584 0 0.948226 0 1.54769V49.5048C0 50.1042 0.4 50.5039 1 50.5039H61C61.6 50.5039 62 50.1042 62 49.5048V1.54769C62 0.948226 61.6 0.548584 61 0.548584ZM60 48.5057H2V14.5361H60V48.5057ZM60 12.5379H2V2.5468H60V12.5379Z" fill="white"/>
<path d="M13 32.5199H49C49.6 32.5199 50 32.1203 50 31.5208C50 30.9214 49.6 30.5217 49 30.5217H13C12.4 30.5217 12 30.9214 12 31.5208C12 32.1203 12.4 32.5199 13 32.5199Z" fill="white"/>
<path d="M13 40.5129H33C33.6 40.5129 34 40.1132 34 39.5138C34 38.9143 33.6 38.5146 33 38.5146H13C12.4 38.5146 12 38.9143 12 39.5138C12 40.1132 12.4 40.5129 13 40.5129Z" fill="white"/>
<path d="M13 24.5271H49C49.6 24.5271 50 24.1275 50 23.528C50 22.9286 49.6 22.5289 49 22.5289H13C12.4 22.5289 12 22.9286 12 23.528C12 24.1275 12.4 24.5271 13 24.5271Z" fill="white"/>
<path d="M7 9.54049C8.10457 9.54049 9 8.64586 9 7.54228C9 6.4387 8.10457 5.54407 7 5.54407C5.89543 5.54407 5 6.4387 5 7.54228C5 8.64586 5.89543 9.54049 7 9.54049Z" fill="white"/>
<path d="M14 9.54049C15.1046 9.54049 16 8.64586 16 7.54228C16 6.4387 15.1046 5.54407 14 5.54407C12.8954 5.54407 12 6.4387 12 7.54228C12 8.64586 12.8954 9.54049 14 9.54049Z" fill="white"/>
<path d="M21 9.54049C22.1046 9.54049 23 8.64586 23 7.54228C23 6.4387 22.1046 5.54407 21 5.54407C19.8954 5.54407 19 6.4387 19 7.54228C19 8.64586 19.8954 9.54049 21 9.54049Z" fill="white"/>
</g>
<defs>
<clipPath id="clip0">
<rect width="62" height="49.9553" fill="white" transform="translate(0 0.548584)"/>
</clipPath>
</defs>
</svg>
