<svg width="46" height="51" viewBox="0 0 46 51" fill="none" xmlns="http://www.w3.org/2000/svg">
<g clip-path="url(#clip0)">
<path d="M20.6103 29.6063H6.47175C5.87434 29.6063 5.47607 30.0046 5.47607 30.602C5.47607 31.1993 5.87434 31.5976 6.47175 31.5976H20.6103C21.2077 31.5976 21.6059 31.1993 21.6059 30.602C21.6059 30.0046 21.2077 29.6063 20.6103 29.6063Z" fill="white"/>
<path d="M14.3375 35.8755H6.47175C5.87434 35.8755 5.47607 36.2737 5.47607 36.8711C5.47607 37.4685 5.87434 37.8667 6.47175 37.8667H14.3375C14.9349 37.8667 15.3332 37.4685 15.3332 36.8711C15.3332 36.2737 14.9349 35.8755 14.3375 35.8755Z" fill="white"/>
<path d="M20.6103 23.3369H6.47175C5.87434 23.3369 5.47607 23.7352 5.47607 24.3325C5.47607 24.9299 5.87434 25.3282 6.47175 25.3282H20.6103C21.2077 25.3282 21.6059 24.9299 21.6059 24.3325C21.6059 23.7352 21.2077 23.3369 20.6103 23.3369Z" fill="white"/>
<path d="M27.7792 10.7983H0.995671C0.398268 10.7983 0 11.1964 0 11.7935V17.7642V49.5087C0 50.1058 0.398268 50.5038 0.995671 50.5038H27.7792C28.3766 50.5038 28.7749 50.1058 28.7749 49.5087V17.7642V11.7935C28.7749 11.1964 28.2771 10.7983 27.7792 10.7983ZM1.99134 12.7886H26.7835V16.7691H1.99134V12.7886ZM1.99134 48.5136V18.7593H26.7835V48.5136H1.99134Z" fill="white"/>
<path d="M3.98273 13.7837C3.4849 13.7837 2.98706 14.1819 2.98706 14.7793C2.98706 15.2771 3.38533 15.7749 3.98273 15.7749C4.48057 15.7749 4.9784 15.3767 4.9784 14.7793C4.9784 14.1819 4.48057 13.7837 3.98273 13.7837Z" fill="white"/>
<path d="M7.46759 13.7837C6.96976 13.7837 6.47192 14.1819 6.47192 14.7793C6.47192 15.2771 6.87019 15.7749 7.46759 15.7749C8.065 15.7749 8.46327 15.3767 8.46327 14.7793C8.46327 14.1819 7.96543 13.7837 7.46759 13.7837Z" fill="white"/>
<path d="M10.9525 13.7837C10.4546 13.7837 9.95679 14.1819 9.95679 14.7793C9.95679 15.2771 10.3551 15.7749 10.9525 15.7749C11.4503 15.7749 11.9481 15.3767 11.9481 14.7793C11.9481 14.1819 11.5499 13.7837 10.9525 13.7837Z" fill="white"/>
<path d="M45.0043 0.548584H7.46751H7.26838C6.67097 0.548584 6.27271 0.946634 6.27271 1.54371V7.51446C6.27271 8.11154 6.67097 8.50959 7.26838 8.50959H7.36794H7.46751H44.1082V48.5136H35.645C35.0476 48.5136 34.6493 48.9117 34.6493 49.5087C34.6493 50.1058 35.0476 50.5039 35.645 50.5039H45.1039C45.7013 50.5039 46.0995 50.1058 46.0995 49.5087V7.51446V1.54371C46 0.946634 45.6017 0.548584 45.0043 0.548584ZM8.46318 6.51933V2.53883H44.1082V6.51933H8.46318Z" fill="white"/>
<path d="M10.4547 5.5252C11.0045 5.5252 11.4503 5.07944 11.4503 4.52957C11.4503 3.97969 11.0045 3.53394 10.4547 3.53394C9.90476 3.53394 9.45898 3.97969 9.45898 4.52957C9.45898 5.07944 9.90476 5.5252 10.4547 5.5252Z" fill="white"/>
<path d="M13.9393 3.53394C13.4414 3.53394 12.9436 3.93219 12.9436 4.52957C12.9436 5.12694 13.3419 5.5252 13.9393 5.5252C14.4371 5.5252 14.9349 5.12694 14.9349 4.52957C14.9349 3.93219 14.5367 3.53394 13.9393 3.53394Z" fill="white"/>
<path d="M17.4241 3.53394C16.9263 3.53394 16.4285 3.93219 16.4285 4.52957C16.4285 5.12694 16.8267 5.5252 17.4241 5.5252C17.922 5.5252 18.4198 5.12694 18.4198 4.52957C18.4198 3.93219 17.922 3.53394 17.4241 3.53394Z" fill="white"/>
</g>
<defs>
<clipPath id="clip0">
<rect width="46" height="49.9553" fill="white" transform="translate(0 0.548584)"/>
</clipPath>
</defs>
</svg>
