<?xml version="1.0" encoding="UTF-8" standalone="no"?><!DOCTYPE svg PUBLIC "-//W3C//DTD SVG 1.1//EN" "http://www.w3.org/Graphics/SVG/1.1/DTD/svg11.dtd"><svg width="100%" height="100%" viewBox="0 0 699 204" version="1.1" xmlns="http://www.w3.org/2000/svg" xmlns:xlink="http://www.w3.org/1999/xlink" xml:space="preserve" style="fill-rule:evenodd;clip-rule:evenodd;"><g><path d="M101.8,23.4c14.5,2.4 27.6,8.7 38.3,17.8l545,0l0,-17.8l-583.3,0Zm0,158.5l583.4,0l0,-60l-518.8,0c-7.6,30.8 -33,54.7 -64.6,60Z" style="fill-rule:nonzero;"/><g><path d="M88.4,49.3l14.9,35.2l7.6,-35.2l32.4,0c-13.9,-14.3 -33.4,-23.3 -54.9,-23.3c-42.3,0 -76.6,34.3 -76.6,76.6c0,13.4 3.5,26.1 9.6,37.1l19.4,-90.4l47.6,0Z" style="fill-rule:nonzero;stroke:#000;stroke-width:0.43px;"/><path d="M155.3,65.3l-19.3,89.7l-47.7,0l-15,-35.1l-7.4,35.1l-33.5,0c14,14.9 33.9,24.3 56,24.3c42.3,0 76.6,-34.3 76.6,-76.6c0,-13.6 -3.5,-26.3 -9.7,-37.4Z" style="fill-rule:nonzero;stroke:#000;stroke-width:0.43px;"/><path d="M73.4,119.9l15,35.1l47.6,0l19.3,-89.7c-3.3,-5.9 -7.3,-11.2 -11.9,-16l-32.4,0l-7.6,35.2l-15,-35.2l-47.7,0l-19.4,90.4c3.1,5.5 6.8,10.7 11.1,15.2l33.4,0l7.6,-35Z" style="fill:#fff;fill-rule:nonzero;"/></g></g><g><path d="M251.8,115.5l-12.9,0l-18.2,-45.4l-9.5,45.4l-12.9,0l14,-67.5l13,0l18.3,45.2l9.4,-45.2l12.9,0l-14.1,67.5Z" style="fill-rule:nonzero;"/><path d="M310.2,100.6l-26.8,0l-8.1,14.9l-14.3,0l38.2,-67.5l15.4,0l11,67.5l-13.2,0l-2.2,-14.9Zm-1.7,-11.3l-3.9,-27.2l-16.3,27.2l20.2,0Z" style="fill-rule:nonzero;"/><path d="M356.5,115.5l-13.9,0l11.8,-56.3l-19.8,0l2.3,-11.3l53.2,0l-2.3,11.3l-19.5,0l-11.8,56.3Z" style="fill-rule:nonzero;"/><path d="M384.1,115.5l14.2,-67.5l13.9,0l-14.2,67.5l-13.9,0Z" style="fill-rule:nonzero;"/><path d="M415.3,89c0,-4 0.6,-8.2 1.8,-12.6c1.6,-5.9 4,-11.1 7.2,-15.4c3.2,-4.4 7.3,-7.8 12.1,-10.3c4.9,-2.5 10.4,-3.8 16.7,-3.8c8.4,0 15.1,2.6 20.2,7.8c5.1,5.2 7.7,12.1 7.7,20.6c0,7.1 -1.7,14 -5,20.7c-3.3,6.7 -7.9,11.8 -13.6,15.4c-5.7,3.6 -12.2,5.4 -19.5,5.4c-6.3,0 -11.6,-1.4 -15.8,-4.3c-4.3,-2.9 -7.3,-6.4 -9.1,-10.6c-1.8,-4.3 -2.7,-8.6 -2.7,-12.9Zm13.7,-0.3c0,4.6 1.4,8.5 4.2,11.7c2.8,3.1 6.5,4.7 11.1,4.7c3.7,0 7.3,-1.2 10.8,-3.7c3.5,-2.5 6.3,-6.2 8.6,-11.2c2.3,-5 3.4,-9.9 3.4,-14.7c0,-5.3 -1.4,-9.5 -4.3,-12.5c-2.9,-3 -6.5,-4.5 -10.9,-4.5c-6.8,0 -12.3,3.2 -16.6,9.5c-4.1,6.2 -6.3,13.2 -6.3,20.7Z" style="fill-rule:nonzero;"/><path d="M538.3,115.5l-12.9,0l-18.2,-45.4l-9.5,45.4l-12.9,0l14,-67.5l13,0l18.3,45.2l9.4,-45.2l12.9,0l-14.1,67.5Z" style="fill-rule:nonzero;"/><path d="M596.7,100.6l-26.8,0l-8.1,14.9l-14.3,0l38.2,-67.5l15.4,0l11,67.5l-13.2,0l-2.2,-14.9Zm-1.7,-11.3l-3.9,-27.2l-16.3,27.2l20.2,0Z" style="fill-rule:nonzero;"/><path d="M621,115.5l14.1,-67.5l13.9,0l-11.7,56.3l34.4,0l-2.3,11.3l-48.4,0l0,-0.1Z" style="fill-rule:nonzero;"/></g><g><path d="M206,173.8l-8.4,0l7.1,-34l-12,0l1.4,-6.8l32.1,0l-1.4,6.8l-11.8,0l-7,34Z" style="fill:#fff;fill-rule:nonzero;"/><path d="M234.1,173.8l-8.4,0l8.5,-40.8l18.1,0c3.1,0 5.5,0.3 7.3,1c1.7,0.6 3.1,1.8 4.2,3.5c1.1,1.7 1.6,3.8 1.6,6.2c0,3.5 -1,6.3 -3.1,8.6c-2.1,2.3 -5.2,3.7 -9.4,4.2c1.1,1 2.1,2.2 3,3.8c1.9,3.2 4,7.7 6.3,13.5l-9,0c-0.7,-2.3 -2.1,-5.9 -4.3,-10.8c-1.2,-2.6 -2.4,-4.4 -3.7,-5.3c-0.8,-0.5 -2.2,-0.8 -4.2,-0.8l-3.4,0l-3.5,16.9Zm4.8,-23l4.5,0c4.5,0 7.5,-0.3 9,-0.8c1.5,-0.5 2.6,-1.4 3.5,-2.5c0.8,-1.2 1.3,-2.4 1.3,-3.6c0,-1.5 -0.6,-2.6 -1.8,-3.3c-0.7,-0.4 -2.3,-0.7 -4.8,-0.7l-9.2,0l-2.5,10.9Z" style="fill:#fff;fill-rule:nonzero;"/><path d="M295.8,164.8l-16.2,0l-4.9,9l-8.6,0l23.1,-40.8l9.3,0l6.6,40.8l-8,0l-1.3,-9Zm-1,-6.8l-2.4,-16.4l-9.9,16.4l12.3,0Z" style="fill:#fff;fill-rule:nonzero;"/><path d="M312.4,173.8l8.5,-40.8l8.4,0l-8.5,40.8l-8.4,0Z" style="fill:#fff;fill-rule:nonzero;"/><path d="M331.3,173.8l8.5,-40.8l8.4,0l-7.1,34l20.8,0l-1.4,6.8l-29.2,0Z" style="fill:#fff;fill-rule:nonzero;"/><path d="M368.3,173.8l8.5,-40.8l30.3,0l-1.4,6.8l-21.8,0l-1.9,9.3l21,0l-1.4,6.8l-21.1,0l-2.6,11.1l23.7,0l-1.4,6.8l-31.9,0l0,0Z" style="fill:#fff;fill-rule:nonzero;"/><path d="M417.3,173.8l-8.4,0l8.5,-40.8l18.1,0c3.1,0 5.5,0.3 7.3,1c1.7,0.6 3.1,1.8 4.2,3.5c1.1,1.7 1.6,3.8 1.6,6.2c0,3.5 -1,6.3 -3.1,8.6c-2.1,2.3 -5.2,3.7 -9.4,4.2c1.1,1 2.1,2.2 3,3.8c1.9,3.2 4,7.7 6.3,13.5l-9,0c-0.7,-2.3 -2.1,-5.9 -4.3,-10.8c-1.2,-2.6 -2.4,-4.4 -3.7,-5.3c-0.8,-0.5 -2.2,-0.8 -4.2,-0.8l-3.4,0l-3.5,16.9Zm4.9,-23l4.5,0c4.5,0 7.5,-0.3 9,-0.8c1.5,-0.5 2.6,-1.4 3.5,-2.5c0.8,-1.2 1.3,-2.4 1.3,-3.6c0,-1.5 -0.6,-2.6 -1.8,-3.3c-0.7,-0.4 -2.3,-0.7 -4.8,-0.7l-9.2,0l-2.5,10.9Z" style="fill:#fff;fill-rule:nonzero;"/><path d="M479.1,173.8l-8.4,0l8.5,-40.8l16.6,0c3,0 5.3,0.3 7,1c1.7,0.7 3.1,1.8 4.1,3.5c1,1.6 1.5,3.5 1.5,5.7c0,2.1 -0.4,4.1 -1.2,6c-0.8,1.9 -1.8,3.5 -2.9,4.7c-1.2,1.2 -2.4,2.1 -3.7,2.7c-1.3,0.6 -3.1,1.1 -5.4,1.4c-1.3,0.2 -3.8,0.3 -7.4,0.3l-5.4,0l-3.3,15.5Zm4.6,-22.3l2.6,0c4.4,0 7.4,-0.3 8.9,-0.8c1.5,-0.6 2.7,-1.4 3.5,-2.7c0.9,-1.2 1.3,-2.6 1.3,-4c0,-1 -0.2,-1.8 -0.7,-2.4c-0.4,-0.6 -1,-1.1 -1.8,-1.4c-0.8,-0.3 -2.5,-0.4 -5.3,-0.4l-6,0l-2.5,11.7Z" style="fill:#fff;fill-rule:nonzero;"/><path d="M533.6,164.8l-16.2,0l-4.9,9l-8.6,0l23.1,-40.8l9.3,0l6.6,40.8l-8,0l-1.3,-9Zm-1,-6.8l-2.4,-16.4l-9.9,16.4l12.3,0Z" style="fill:#fff;fill-rule:nonzero;"/><path d="M559.1,173.8l-8.4,0l8.5,-40.8l18.1,0c3.1,0 5.5,0.3 7.3,1c1.7,0.6 3.1,1.8 4.2,3.5c1.1,1.7 1.6,3.8 1.6,6.2c0,3.5 -1,6.3 -3.1,8.6c-2.1,2.3 -5.2,3.7 -9.4,4.2c1.1,1 2.1,2.2 3,3.8c1.9,3.2 4,7.7 6.3,13.5l-9,0c-0.7,-2.3 -2.1,-5.9 -4.3,-10.8c-1.2,-2.6 -2.4,-4.4 -3.7,-5.3c-0.8,-0.5 -2.2,-0.8 -4.2,-0.8l-3.4,0l-3.5,16.9Zm4.8,-23l4.5,0c4.5,0 7.5,-0.3 9,-0.8c1.5,-0.5 2.6,-1.4 3.5,-2.5c0.8,-1.2 1.3,-2.4 1.3,-3.6c0,-1.5 -0.6,-2.6 -1.8,-3.3c-0.7,-0.4 -2.3,-0.7 -4.8,-0.7l-9.2,0l-2.5,10.9Z" style="fill:#fff;fill-rule:nonzero;"/><path d="M610.9,173.8l-8.4,0l7.1,-34l-12,0l1.4,-6.8l32.1,0l-1.4,6.8l-11.7,0l-7.1,34Z" style="fill:#fff;fill-rule:nonzero;"/><path d="M631.7,160.6l8,-0.4c0.1,2.5 0.5,4.3 1.3,5.1c1.2,1.4 3.5,2.2 6.8,2.2c2.7,0 4.7,-0.5 6,-1.5c1.2,-1 1.8,-2.2 1.8,-3.6c0,-1.2 -0.5,-2.2 -1.5,-3.1c-0.7,-0.6 -2.6,-1.6 -5.8,-3c-3.2,-1.4 -5.5,-2.5 -6.9,-3.4c-1.5,-0.9 -2.6,-2.1 -3.4,-3.6c-0.8,-1.5 -1.3,-3.2 -1.3,-5.1c0,-3.4 1.2,-6.3 3.7,-8.5c2.5,-2.3 6.1,-3.4 10.8,-3.4c4.8,0 8.5,1.1 11.1,3.4c2.6,2.2 4.1,5.2 4.3,9l-8,0.4c-0.2,-1.9 -0.9,-3.4 -2.1,-4.5c-1.2,-1 -3,-1.6 -5.3,-1.6c-2.3,0 -4,0.4 -5,1.2c-1,0.8 -1.5,1.8 -1.5,3.1c0,1.2 0.5,2.1 1.4,2.9c0.9,0.8 2.9,1.8 6,3.2c4.7,2 7.7,3.7 9,4.9c1.9,1.9 2.9,4.2 2.9,7.2c0,3.6 -1.4,6.7 -4.3,9.2c-2.8,2.6 -6.8,3.8 -11.9,3.8c-3.5,0 -6.5,-0.6 -9.1,-1.8c-2.6,-1.2 -4.4,-2.8 -5.4,-4.9c-1.2,-2.1 -1.7,-4.5 -1.6,-7.2Z" style="fill:#fff;fill-rule:nonzero;"/></g></svg>