<svg width="62" height="51" viewBox="0 0 62 51" fill="none" xmlns="http://www.w3.org/2000/svg">
<g clip-path="url(#clip0)">
<path d="M61 0.548584H1C0.4 0.548584 0 0.948226 0 1.54769V49.5048C0 50.1042 0.4 50.5039 1 50.5039H61C61.6 50.5039 62 50.1042 62 49.5048V1.54769C62 0.948226 61.6 0.548584 61 0.548584ZM60 48.5057H2V14.5361H60V48.5057ZM60 12.5379H2V2.5468H60V12.5379Z" fill="white"/>
<path d="M7 9.54049C8.10457 9.54049 9 8.64586 9 7.54228C9 6.4387 8.10457 5.54407 7 5.54407C5.89543 5.54407 5 6.4387 5 7.54228C5 8.64586 5.89543 9.54049 7 9.54049Z" fill="white"/>
<path d="M14 9.54049C15.1046 9.54049 16 8.64586 16 7.54228C16 6.4387 15.1046 5.54407 14 5.54407C12.8954 5.54407 12 6.4387 12 7.54228C12 8.64586 12.8954 9.54049 14 9.54049Z" fill="white"/>
<path d="M21 9.54049C22.1046 9.54049 23 8.64586 23 7.54228C23 6.4387 22.1046 5.54407 21 5.54407C19.8954 5.54407 19 6.4387 19 7.54228C19 8.64586 19.8954 9.54049 21 9.54049Z" fill="white"/>
<path d="M15.6001 44.8089C15.6001 45.4084 16.0001 45.808 16.6001 45.808H29.7001C29.9001 46.3076 30.3001 46.6073 30.8001 46.8071L32.0001 47.3067C33.0001 47.7063 34.2001 47.2068 34.7001 46.2077C35.3001 46.3076 35.9001 46.3076 36.6001 46.2077C36.9001 47.0069 37.7001 47.5065 38.5001 47.5065C38.8001 47.5065 39.0001 47.5065 39.3001 47.4066L40.5001 46.907C41.5001 46.5074 42.0001 45.3085 41.6001 44.2094C42.1001 43.8098 42.5001 43.4102 43.0001 42.9106C44.0001 43.3103 45.2001 42.8107 45.7001 41.8116L46.2001 40.6127C46.6001 39.6136 46.1001 38.4146 45.1001 37.9151L44.7001 38.8143L45.1001 37.8152C45.2001 37.2157 45.2001 36.6162 45.1001 35.9169C46.1001 35.5172 46.6001 34.3183 46.2001 33.2193L45.7001 32.0204C45.3001 31.0213 44.1001 30.5217 43.0001 30.9213C42.6001 30.4218 42.2001 30.0221 41.7001 29.5226C42.1001 28.5235 41.6001 27.3246 40.6001 26.825L39.4001 26.3255C38.4001 25.9258 37.2001 26.3255 36.7001 27.4245V18.5324C36.7001 17.933 36.3001 17.5333 35.7001 17.5333H23.8001C23.5001 17.5333 23.3001 17.6332 23.1001 17.8331L16.0001 24.9267C15.8001 25.1265 15.7001 25.3263 15.7001 25.6261V44.8089H15.6001ZM38.6001 28.3237L39.8001 28.9231C39.5001 29.7224 39.7001 30.7215 40.4001 31.321C40.8001 31.6207 41.1001 32.0204 41.4001 32.3201C42.0001 33.0195 42.9001 33.3192 43.8001 33.0195L44.3001 34.2184C43.5001 34.5181 43.0001 35.4173 43.1001 36.3165C43.1001 36.8161 43.1001 37.3156 43.1001 37.7153C43.0001 38.6145 43.5001 39.5136 44.3001 39.8134V39.9133L43.7001 41.1122C42.9001 40.8125 41.9001 41.0123 41.3001 41.7117C41.0001 42.1113 40.6001 42.4111 40.3001 42.7108C39.6001 43.3103 39.3001 44.2094 39.6001 45.1086L38.5001 45.5083C38.2001 44.709 37.4001 44.2094 36.6001 44.2094C36.5001 44.2094 36.5001 44.2094 36.4001 44.2094C35.9001 44.2094 35.4001 44.2094 35.0001 44.2094C34.1001 44.1095 33.2001 44.6091 32.8001 45.5083L31.6001 44.9088C31.9001 44.1095 31.7001 43.1104 31.0001 42.511C30.6001 42.2112 30.3001 41.8116 30.0001 41.5119C29.4001 40.8125 28.5001 40.5128 27.6001 40.8125L27.1001 39.6136C27.9001 39.3138 28.4001 38.4146 28.3001 37.5154C28.3001 37.0159 28.3001 36.5163 28.3001 36.1167C28.4001 35.2175 27.9001 34.3183 27.0001 33.9187L27.6001 32.7197C28.4001 33.0195 29.4001 32.8196 30.0001 32.1203C30.3001 31.7206 30.7001 31.4209 31.0001 31.1212C31.7001 30.5217 32.0001 29.6225 31.7001 28.7233L32.9001 28.2238C33.2001 29.023 34.1001 29.5226 35.0001 29.4227C35.5001 29.4227 36.0001 29.4227 36.4001 29.4227C37.4001 29.6225 38.2001 29.1229 38.6001 28.3237ZM34.7001 27.4245C34.2001 26.5253 33.1001 26.0257 32.1001 26.4254L30.9001 26.9249C29.9001 27.3246 29.4001 28.5235 29.8001 29.6225C29.3001 30.0221 28.9001 30.4218 28.4001 30.9213C27.4001 30.5217 26.2001 31.0213 25.7001 32.0204L25.2001 33.2193C24.8001 34.2184 25.3001 35.4173 26.3001 35.9169C26.2001 36.5163 26.2001 37.1158 26.3001 37.8152C25.3001 38.2148 24.8001 39.4137 25.2001 40.5128L25.7001 41.7117C26.1001 42.7108 27.3001 43.2103 28.4001 42.8107C28.7001 43.1104 29.0001 43.5101 29.3001 43.8098H17.6001V26.825H23.7001C24.3001 26.825 24.7001 26.4254 24.7001 25.8259V19.7314H34.6001V27.4245H34.7001ZM19.1001 24.8268L22.8001 21.1301V24.8268H19.1001Z" fill="white"/>
<path d="M33.5 31.6207C32.1 32.2202 31 33.3192 30.4 34.718C29.8 36.1167 29.8 37.7153 30.4 39.114C31 40.5128 32.1 41.6118 33.5 42.2113C34.2 42.511 35 42.6109 35.7 42.6109C37.9 42.6109 39.9999 41.3121 40.9999 39.114C41.5999 37.7153 41.5999 36.1167 40.9999 34.718C40.3999 33.3192 39.3 32.2202 37.9 31.6207C36.5 31.0213 35 31.0213 33.5 31.6207ZM37.0999 33.519C37.9999 33.9187 38.6999 34.6181 39.0999 35.5173C39.4999 36.4164 39.4999 37.4156 39.0999 38.3147C38.2999 40.213 36.1 41.1122 34.2 40.313C33.3 39.9133 32.6 39.2139 32.2 38.3147C31.8 37.4156 31.8 36.4164 32.2 35.5173C32.6 34.6181 33.3 33.9187 34.2 33.519C34.7 33.3192 35.0999 33.2193 35.5999 33.2193C36.1999 33.2193 36.6999 33.3192 37.0999 33.519Z" fill="white"/>
</g>
<defs>
<clipPath id="clip0">
<rect width="62" height="49.9553" fill="white" transform="translate(0 0.548584)"/>
</clipPath>
</defs>
</svg>
