<svg width="63" height="100" viewBox="0 0 63 100" fill="none" xmlns="http://www.w3.org/2000/svg">
<path d="M55.3702 46.2545C54.2803 46.2545 53.3356 46.4727 52.391 46.8364C51.5917 43.5636 48.6125 41.0909 45.0519 41.0909C44.2526 41.0909 43.4533 41.2364 42.7993 41.4545C47.0138 36.9455 49.3391 30.9818 49.3391 24.7273C49.3391 11.1273 38.2941 0 24.6332 0C10.9723 0 0 11.0545 0 24.7273C0 35.4909 6.90311 44.9455 17.0035 48.2182V62.5455L15.8408 60.5818C13.9516 56.8727 9.44637 55.4182 5.74048 57.3091L5.66782 57.3818C1.96194 59.2727 0.508651 63.7818 2.39792 67.4909C2.39792 67.5636 2.47059 67.5636 2.47059 67.6364L17.6574 92.6545C20.4914 97.2364 25.3599 100 30.737 100H47.7405C56.1696 100 63 93.1636 63 84.7273V53.7455C62.9273 49.6 59.5121 46.2545 55.3702 46.2545Z" fill="white"/>
<path d="M55.3702 46.2545C54.2803 46.2545 53.3356 46.4727 52.391 46.8364C51.5917 43.5636 48.6125 41.0909 45.0519 41.0909C44.2526 41.0909 43.4533 41.2364 42.7993 41.4545C47.0138 36.9455 49.3391 30.9818 49.3391 24.7273C49.3391 11.1273 38.2941 0 24.6332 0C10.9723 0 0 11.0545 0 24.7273C0 35.4909 6.90311 44.9455 17.0035 48.2182V62.5455L15.8408 60.5818C13.9516 56.8727 9.44637 55.4182 5.74048 57.3091L5.66782 57.3818C1.96194 59.2727 0.508651 63.7818 2.39792 67.4909C2.39792 67.5636 2.47059 67.5636 2.47059 67.6364L17.6574 92.6545C20.4914 97.2364 25.3599 100 30.737 100H47.7405C56.1696 100 63 93.1636 63 84.7273V53.7455C62.9273 49.6 59.5121 46.2545 55.3702 46.2545ZM4.79585 24.7273C4.79585 13.7455 13.7336 4.8 24.7059 4.8C35.6782 4.8 44.6159 13.7455 44.6159 24.7273C44.6159 30.3273 42.2907 35.5636 38.2215 39.3455C37.2042 38.8364 36.0415 38.5455 34.8062 38.5455C34.0796 38.5455 33.4256 38.6182 32.7716 38.8364C37.7855 35.9273 40.8374 30.6909 40.8374 24.8727C40.8374 16 33.5709 8.72727 24.7059 8.72727C15.8408 8.72727 8.5744 16 8.5744 24.8727C8.5744 30.8364 11.7716 36.2182 17.0035 39.0545V43.1273C9.66436 40.0727 4.79585 32.8727 4.79585 24.7273ZM17.0035 25.4545V33.1636C14.6782 31.0545 13.2976 28 13.2976 24.8C13.2976 18.5455 18.3841 13.4545 24.6332 13.4545C30.8824 13.4545 35.9689 18.5455 35.9689 24.8C35.9689 28.2182 34.5156 31.3455 31.9723 33.4545V25.4545C31.9723 21.3091 28.6298 17.8909 24.4152 17.8909C20.346 17.8909 17.0035 21.3091 17.0035 25.4545ZM58.1315 84.6545C58.1315 90.4727 53.4083 95.1273 47.6678 95.1273H30.6644C26.9585 95.1273 23.6159 93.2364 21.654 90.1091L6.53979 65.2364C5.88581 63.8545 6.46713 62.2545 7.77509 61.6L7.84775 61.5273C9.22837 60.8727 10.8997 61.3818 11.5536 62.7636C11.5536 62.8364 11.6263 62.9091 11.6263 62.9091L17.2941 72.1455C17.8754 73.0909 18.9654 73.4545 19.9827 73.1636C21 72.8727 21.7266 71.9273 21.7266 70.8364V46.4727C21.7266 46.4727 21.7266 46.4727 21.7266 46.4V25.4545C21.7266 23.9273 22.9619 22.6909 24.4879 22.6909C26.0138 22.6909 27.2491 23.9273 27.2491 25.4545V53.7455C27.2491 55.0545 28.3391 56.1455 29.6471 56.1455C30.955 56.1455 32.045 55.0545 32.045 53.7455V46.0364C32.045 44.5091 33.2803 43.2727 34.8062 43.2727C36.3322 43.2727 37.5675 44.5091 37.5675 46.0364V56.3636C37.5675 57.6727 38.6574 58.7636 39.9654 58.7636C41.2734 58.7636 42.3633 57.6727 42.3633 56.3636V48.6545C42.3633 47.1273 43.5986 45.8909 45.1246 45.8909C46.6505 45.8909 47.8858 47.1273 47.8858 48.6545V58.9091C47.8858 60.2182 48.9758 61.3091 50.2837 61.3091C51.5917 61.3091 52.6817 60.2182 52.6817 58.9091V53.7455C52.6817 52.2182 53.917 50.9818 55.4429 50.9818C56.9689 50.9818 58.2042 52.2182 58.2042 53.7455V84.6545H58.1315Z" fill="url(#paint0_linear)"/>
<defs>
<linearGradient id="paint0_linear" x1="31.5" y1="0" x2="31.5" y2="100" gradientUnits="userSpaceOnUse">
<stop stop-color="#FF782D"/>
<stop offset="1" stop-color="#FF2D2D"/>
</linearGradient>
</defs>
</svg>
