<svg width="102" height="100" viewBox="0 0 102 100" fill="none" xmlns="http://www.w3.org/2000/svg">
<path d="M101.334 41.7417C100.734 38.3634 98.2581 35.7357 95.0324 34.985C95.1074 34.9099 95.1824 34.8348 95.1824 34.7598C96.6078 32.3574 96.7578 29.5045 95.4825 27.027C90.6814 17.7928 83.2547 10.3604 74.0276 5.55556C72.9023 4.95496 71.627 4.65465 70.4267 4.65465C68.6263 4.65465 66.976 5.25526 65.5506 6.38138C65.2505 5.70571 64.8755 5.10511 64.5754 4.5045C63.3751 2.4024 61.3497 0.975976 58.9491 0.600601C56.3235 0.15015 53.6979 0 51.0723 0C48.4467 0 45.8211 0.225225 43.1955 0.600601C40.7949 0.975976 38.7695 2.4024 37.5692 4.5045C37.2691 5.10511 36.894 5.70571 36.594 6.38138C35.2437 5.33033 33.5183 4.65465 31.7178 4.65465C30.4426 4.65465 29.2423 4.95496 28.117 5.55556C18.8899 10.3604 11.4632 17.7928 6.66209 27.027C5.38679 29.5045 5.46181 32.3574 6.88714 34.7598C6.96216 34.8348 7.03717 34.9099 7.03717 34.985C3.81143 35.8108 1.33586 38.3634 0.735726 41.7417C0.435657 43.4685 -0.98967 52.4024 1.18583 59.2342C2.01102 61.9369 3.88645 64.1892 6.36202 65.4655C6.43704 65.5405 6.51205 65.5405 6.66209 65.6156C5.38679 67.9429 5.38679 70.6456 6.58707 72.973C11.3882 82.2072 18.8149 89.6396 28.042 94.4445C29.1673 95.0451 30.4426 95.3454 31.6428 95.3454C33.4432 95.3454 35.0936 94.7447 36.519 93.6186C36.819 94.2943 37.1941 94.8949 37.4942 95.4955C38.6945 97.5976 40.7199 99.024 43.1205 99.3994C45.7461 99.8498 48.3717 100 50.9973 100C53.6229 100 56.2485 99.7748 58.8741 99.3994C61.2746 99.024 63.3001 97.5976 64.5004 95.4955C64.8004 94.8949 65.1755 94.2943 65.4756 93.6186C66.8259 94.6697 68.5513 95.3454 70.3517 95.3454C71.627 95.3454 72.8273 95.0451 73.9526 94.4445C83.1797 89.6396 90.6064 82.2072 95.4075 72.973C96.6078 70.6456 96.6078 67.9429 95.3325 65.6156C95.4075 65.5405 95.5575 65.5405 95.6325 65.4655C98.1081 64.1141 99.9085 61.9369 100.809 59.2342C102.984 52.4024 101.559 43.4685 101.334 41.7417Z" fill="white"/>
<path d="M101.334 41.7417C100.734 38.3634 98.2581 35.7357 95.0324 34.985C95.1074 34.9099 95.1824 34.8348 95.1824 34.7598C96.6078 32.3574 96.7578 29.5045 95.4825 27.027C90.6814 17.7928 83.2547 10.3604 74.0276 5.55556C72.9023 4.95496 71.627 4.65465 70.4267 4.65465C68.6263 4.65465 66.976 5.25526 65.5506 6.38138C65.2505 5.70571 64.8755 5.10511 64.5754 4.5045C63.3751 2.4024 61.3497 0.975976 58.9491 0.600601C56.3235 0.15015 53.6979 0 51.0723 0C48.4467 0 45.8211 0.225225 43.1955 0.600601C40.7949 0.975976 38.7695 2.4024 37.5692 4.5045C37.2691 5.10511 36.894 5.70571 36.594 6.38138C35.2437 5.33033 33.5183 4.65465 31.7178 4.65465C30.4426 4.65465 29.2423 4.95496 28.117 5.55556C18.8899 10.3604 11.4632 17.7928 6.66209 27.027C5.38679 29.5045 5.46181 32.3574 6.88714 34.7598C6.96216 34.8348 7.03717 34.9099 7.03717 34.985C3.81143 35.8108 1.33586 38.3634 0.735726 41.7417C0.435657 43.4685 -0.98967 52.4024 1.18583 59.2342C2.01102 61.9369 3.88645 64.1892 6.36202 65.4655C6.43704 65.5405 6.51205 65.5405 6.66209 65.6156C5.38679 67.9429 5.38679 70.6456 6.58707 72.973C11.3882 82.2072 18.8149 89.6396 28.042 94.4445C29.1673 95.0451 30.4426 95.3454 31.6428 95.3454C33.4432 95.3454 35.0936 94.7447 36.519 93.6186C36.819 94.2943 37.1941 94.8949 37.4942 95.4955C38.6945 97.5976 40.7199 99.024 43.1205 99.3994C45.7461 99.8498 48.3717 100 50.9973 100C53.6229 100 56.2485 99.7748 58.8741 99.3994C61.2746 99.024 63.3001 97.5976 64.5004 95.4955C64.8004 94.8949 65.1755 94.2943 65.4756 93.6186C66.8259 94.6697 68.5513 95.3454 70.3517 95.3454C71.627 95.3454 72.8273 95.0451 73.9526 94.4445C83.1797 89.6396 90.6064 82.2072 95.4075 72.973C96.6078 70.6456 96.6078 67.9429 95.3325 65.6156C95.4075 65.5405 95.5575 65.5405 95.6325 65.4655C98.1081 64.1141 99.9085 61.9369 100.809 59.2342C102.984 52.4024 101.559 43.4685 101.334 41.7417ZM37.3441 25.3754C38.8445 17.8679 41.02 11.9369 43.4205 7.73273C43.5706 7.43243 43.8706 7.20721 44.2457 7.20721C46.4962 6.83183 48.7468 6.68168 51.0723 6.68168C53.3978 6.68168 55.6483 6.90691 57.8989 7.20721C58.2739 7.28228 58.574 7.43243 58.7241 7.73273C61.0496 11.8619 63.2251 17.8679 64.8004 25.3754C64.9505 26.1261 64.3503 26.8018 63.6002 26.7267C59.3242 26.3514 55.1232 26.1261 50.9973 26.1261C46.8713 26.1261 42.6704 26.3514 38.5444 26.7267C37.7942 26.8018 37.1941 26.1261 37.3441 25.3754ZM9.51274 59.4595C8.61254 59.009 7.93738 58.1832 7.63731 57.1321C5.91192 51.6517 7.33724 43.1682 7.33724 42.7928C7.48728 41.8919 8.38748 41.2913 9.28769 41.4414C10.1879 41.5916 10.8631 42.4925 10.638 43.3934C10.638 43.4685 9.28769 51.4264 10.788 56.1562C10.788 56.3063 10.8631 56.4565 11.0881 56.5315C11.3882 56.6817 11.7633 56.9069 12.1383 57.1321C13.0386 57.6577 14.0888 58.2583 15.3641 58.8589C13.8637 50.6006 15.8892 39.1141 16.0392 38.5135C16.1893 37.6126 17.0895 37.012 17.9897 37.1622C18.8899 37.3123 19.49 38.2132 19.34 39.1141C19.34 39.2643 16.8644 53.003 19.19 60.4354C20.6903 60.961 22.4157 61.4114 24.2161 61.7117C24.4412 61.7117 24.5912 61.6366 24.6662 61.5616C24.7412 61.4865 24.8163 61.3363 24.8163 61.1111C24.5912 56.5315 24.3662 43.2432 25.6415 37.0871C25.7915 36.1862 26.6917 35.5856 27.6669 35.7357C28.5671 35.8859 29.1673 36.7868 29.0172 37.7628C27.967 42.8679 28.042 54.6547 28.2671 60.961C28.3421 62.1622 27.8169 63.2883 26.9918 64.039C26.2416 64.7147 25.3414 65.015 24.3662 65.015C24.1411 65.015 23.9161 65.015 23.766 64.9399C17.6896 63.964 13.1886 61.4865 10.563 59.985C10.1879 59.8348 9.81281 59.6096 9.51274 59.4595ZM31.1177 88.4384C23.1659 84.3093 16.6394 77.7778 12.5134 69.8198C12.0633 68.9189 12.9635 67.8679 13.8637 68.2432C18.2147 69.7448 23.0158 70.9459 28.117 71.8468C28.5671 71.9219 28.9422 72.2973 29.0172 72.7477C29.9174 77.8529 31.1177 82.7327 32.6181 87.012C33.0682 88.0631 32.0179 88.8889 31.1177 88.4384ZM32.6931 12.8378C31.1927 17.1922 29.9924 21.997 29.0922 27.1021C29.0172 27.5526 28.6421 27.9279 28.192 28.003C23.0909 28.9039 18.2147 30.1051 13.9388 31.6066C12.9635 31.9069 12.0633 30.9309 12.5884 30.03C16.6394 22.1471 23.1659 15.6156 31.1177 11.4865C32.0179 11.036 33.0682 11.9369 32.6931 12.8378ZM64.6504 74.5496C63.1501 82.0571 60.9746 87.988 58.574 92.1922C58.424 92.4925 58.1239 92.7177 57.7488 92.7177C55.4983 93.0931 53.2478 93.2432 50.9223 93.2432C48.5967 93.2432 46.3462 93.018 44.0957 92.7177C43.7206 92.6426 43.4205 92.4925 43.2705 92.1922C40.945 88.0631 38.7695 82.0571 37.1941 74.5496C37.0441 73.7988 37.6442 73.1231 38.3944 73.1982C42.5203 73.5736 46.7213 73.7988 50.8472 73.7988C54.9732 73.7988 59.1742 73.5736 63.3001 73.1982C64.2003 73.1231 64.8004 73.7988 64.6504 74.5496ZM66.4508 62.012C65.9257 64.7898 63.5252 66.967 60.6745 67.1922H60.2994C58.0489 67.4174 55.8734 67.6426 52.5726 67.6426C51.9725 67.6426 51.2973 67.6426 50.5472 67.6426C49.797 67.6426 49.1218 67.6426 48.5217 67.6426C45.2209 67.6426 43.0454 67.4174 40.7949 67.1922H40.4198C37.5692 66.8919 35.2437 64.7898 34.6435 62.012C32.9181 52.7778 34.5685 36.1862 34.6435 35.5105C34.7185 34.6096 35.5437 33.9339 36.519 34.009C37.4192 34.0841 38.0943 34.9099 38.0193 35.8859C38.0193 36.036 36.2939 52.7027 37.9443 61.4114C38.1693 62.7628 39.2946 63.7387 40.7199 63.8889H41.095C43.3455 64.1141 45.521 64.3393 48.8218 64.2643V33.9339C48.8218 33.033 49.5719 32.2072 50.5472 32.2072C51.4474 32.2072 52.2726 32.958 52.2726 33.9339V64.2643C55.5733 64.2643 57.7488 64.039 59.9993 63.8889H60.3744C61.7247 63.7387 62.85 62.7628 63.1501 61.4114C64.8004 52.7027 63.0751 36.036 63.0751 35.8859C63 34.985 63.6752 34.1592 64.5754 34.009C65.5506 33.9339 66.3008 34.6096 66.4508 35.5105C66.5258 36.1862 68.2512 52.8529 66.4508 62.012ZM70.8768 11.4865C78.8287 15.6156 85.3552 22.1471 89.4811 30.1051C89.9312 31.006 89.031 32.0571 88.1308 31.6817C83.7798 30.1802 78.9787 28.979 73.8775 28.0781C73.4274 28.003 73.0523 27.6276 72.9773 27.1772C72.0771 22.0721 70.8768 17.1922 69.3765 12.9129C68.9264 11.9369 69.9766 11.036 70.8768 11.4865ZM89.4811 69.8198C85.3552 77.7778 78.8287 84.3093 70.8768 88.4384C69.9766 88.8889 68.9264 87.988 69.3015 87.0871C70.8018 82.7327 72.0021 77.9279 72.9023 72.8228C72.9773 72.3724 73.3524 71.997 73.8025 71.9219C78.9037 71.021 83.7798 69.8198 88.0558 68.3183C89.031 67.9429 89.9312 68.9189 89.4811 69.8198ZM94.3572 57.1321C94.0572 58.1081 93.382 58.9339 92.4818 59.4595C92.1817 59.6096 91.8067 59.8348 91.4316 60.0601C88.7309 61.5616 84.2299 64.1141 78.2285 65.015C78.0035 65.015 77.7784 65.0901 77.6284 65.0901C76.6532 65.0901 75.753 64.7147 75.0028 64.1141C74.1026 63.3634 73.6525 62.2372 73.7275 61.036C74.0276 54.8048 74.0276 42.9429 72.9773 37.8378C72.8273 36.9369 73.3524 36.036 74.3276 35.8108C75.2278 35.6607 76.1281 36.1862 76.3531 37.1622C77.5534 43.2432 77.3283 56.5315 77.1783 61.1862C77.1783 61.4114 77.2533 61.5616 77.3283 61.6366C77.4033 61.7117 77.5534 61.7868 77.7784 61.7868C79.5788 61.4865 81.3042 61.036 82.8046 60.5105C85.1301 53.0781 82.7296 39.3393 82.6545 39.1892C82.5045 38.2883 83.1047 37.3874 84.0049 37.2372C84.9051 37.0871 85.8053 37.6877 85.9553 38.5886C86.0303 39.1141 88.0558 50.6006 86.6305 58.9339C87.9058 58.3333 88.956 57.7327 89.8562 57.2072C90.2313 56.982 90.6064 56.7568 90.9064 56.6066C91.0565 56.5315 91.1315 56.3814 91.2065 56.2312C92.7069 51.5015 91.3566 43.5435 91.3566 43.4685C91.2065 42.5676 91.8066 41.6667 92.7069 41.5165C93.6071 41.3664 94.5073 41.967 94.6573 42.8679C94.7323 43.1682 96.0826 51.6517 94.3572 57.1321Z" fill="url(#paint0_linear)"/>
<defs>
<linearGradient id="paint0_linear" x1="51" y1="0" x2="51" y2="100" gradientUnits="userSpaceOnUse">
<stop stop-color="#FF782D"/>
<stop offset="1" stop-color="#FF2D2D"/>
</linearGradient>
</defs>
</svg>
