<svg width="364" height="327" viewBox="0 0 364 327" fill="none" xmlns="http://www.w3.org/2000/svg">
<path fill-rule="evenodd" clip-rule="evenodd" d="M275.762 0C226.986 0 187.525 39.6427 187.525 88.4096C187.525 137.176 227.09 176.819 275.762 176.819C324.435 176.819 364 137.176 364 88.4096C364 39.6427 324.539 0 275.762 0ZM338.775 75.6148L338.356 77.2928L331.657 78.1318L331.971 76.5587C332.599 73.5173 332.18 72.6783 330.924 72.7832C328.831 73.0978 328.203 75.0904 326.633 82.4317C325.063 89.7729 324.958 91.7656 327.051 91.4509C328.726 91.2412 329.459 89.6681 330.505 84.5292L337.204 83.6902L336.786 85.6828C335.216 93.3387 330.505 95.6459 326.109 96.1703C318.364 97.1142 317.526 93.3387 319.62 83.1658C321.818 72.7832 324.853 68.6931 331.971 67.8541C338.251 67.3297 339.821 70.3711 338.775 75.6148ZM316.689 102.253L322.551 101.519L323.283 113.789H323.388L326.005 101.099L330.924 100.47L326.633 121.026L320.876 121.76L320.038 109.489H319.934L317.317 122.179L312.397 122.809L316.689 102.253ZM314.595 97.2191L307.687 98.0581L313.339 70.8955L320.248 70.0565L314.595 97.2191ZM295.545 23.492C295.65 23.2822 295.859 23.1774 296.069 23.1774C300.465 24.5407 304.756 26.4285 308.839 28.6309C312.816 30.8332 316.584 33.4551 320.143 36.4965C323.597 39.433 326.737 42.789 329.563 46.3547C332.39 50.0253 334.902 53.9057 336.89 57.9958C336.995 58.2056 336.89 58.4153 336.681 58.5202H336.472C336.367 58.5202 336.158 58.4153 336.158 58.3105C334.169 54.2203 331.762 50.34 328.935 46.7742C326.214 43.2085 322.969 39.9573 319.62 37.0209C316.166 34.0844 312.397 31.4625 308.525 29.2601C304.547 27.0577 300.255 25.17 295.964 23.8066C295.545 23.9115 295.441 23.7017 295.545 23.492ZM299.941 72.5734L297.848 82.5366L302.035 82.0122L304.128 72.0491L311.037 71.2101L305.384 98.3727L298.476 99.2117L300.779 87.9901L296.592 88.5144L294.289 99.7361L287.381 100.575L293.033 73.4125L299.941 72.5734ZM255.666 23.1774C259.224 22.0237 262.678 21.4994 265.714 21.4994C273.25 21.4994 278.798 24.6456 279.426 28.7357C279.949 31.9869 277.751 31.3576 277.961 30.6235C278.589 26.5334 273.46 22.8627 267.598 22.8627C266.447 22.8627 265.086 23.0725 263.725 23.3871C256.398 25.3797 252.735 33.7697 252.735 41.6353C252.735 48.3473 255.456 54.6398 260.899 56.213C261.527 56.4227 262.365 56.5276 263.202 56.5276C264.667 56.5276 264.563 57.5763 261.841 57.5763C257.968 57.5763 254.409 56.8422 252.107 55.8983C243.419 52.4375 239.755 46.8791 239.755 41.3207C239.86 33.7697 246.245 26.1139 255.666 23.1774ZM274.716 47.7181C274.611 50.1302 273.564 54.9545 265.923 56.9471C265.086 57.1568 264.877 56.4227 265.714 56.0032C266.97 55.374 268.121 53.8008 268.121 50.2351C268.121 48.7668 267.912 46.8791 267.389 44.5718C267.284 44.0475 266.551 43.7328 266.551 43.7328C266.551 43.7328 264.877 43.2085 263.83 44.3621C262.679 45.5157 261.632 43.5231 262.993 43.1036C263.81 42.8914 264.495 42.6967 265.128 42.5169C266.685 42.075 267.922 41.7238 270.005 41.4256C272.936 41.0061 275.239 41.5305 276.6 41.8451C277.437 42.0549 277.228 43.3133 276.181 42.6841C276.111 42.6606 276.009 42.595 275.884 42.5145C275.45 42.2353 274.738 41.7763 274.088 42.2646C273.642 42.5995 273.878 43.4396 274.181 44.5159C274.447 45.4616 274.765 46.5899 274.716 47.7181ZM254.619 100.051L252.944 104.875L245.617 105.819L257.654 77.8172L266.342 76.7684L267.179 103.197L259.852 104.141L260.166 99.4214L254.619 100.051ZM240.698 116.201L241.64 111.692L254.723 110.119L253.781 114.628L249.909 115.153L246.559 131.199L241.326 131.828L244.675 115.782L240.698 116.201ZM265.4 35.4477C265.4 33.56 266.97 31.9869 268.854 31.9869C270.738 31.9869 272.308 33.56 272.308 35.4477C272.308 37.3355 270.738 38.9086 268.854 38.9086C266.97 38.9086 265.4 37.3355 265.4 35.4477ZM242.058 79.8098C247.292 79.1806 248.653 81.9073 247.815 86.1023C247.082 89.7729 245.198 92.2899 241.954 93.1289V93.2338C245.198 93.1289 245.722 95.1216 244.989 98.7922L244.466 101.099C244.152 102.463 243.838 104.351 244.047 104.875C244.152 105.19 244.256 105.399 244.675 105.609L244.57 106.029L237.243 106.972C236.883 105.799 237.298 103.693 237.554 102.394C237.596 102.184 237.633 101.994 237.662 101.834L238.081 100.051C238.709 97.0093 238.29 96.2752 236.615 96.4849L234.836 96.6947L232.533 107.602L225.625 108.441L231.277 81.2781L242.058 79.8098ZM208.668 76.349C210.866 63.8688 216.623 52.2277 225.102 42.789C225.206 42.5792 225.52 42.5792 225.73 42.789C225.939 42.8938 225.939 43.2085 225.73 43.4182C217.251 52.7521 211.704 64.2883 209.401 76.6636C209.401 76.8733 209.191 76.9782 208.982 76.9782H208.877C208.773 76.7685 208.668 76.5587 208.668 76.349ZM212.855 110.433C205.842 111.272 206.261 106.238 208.145 97.2191C210.029 88.0949 212.75 82.8512 220.915 81.8024C225.834 81.1732 228.765 83.2707 227.404 89.8778L220.705 90.7168C220.719 90.6266 220.733 90.5378 220.747 90.4504C220.758 90.381 220.768 90.3125 220.779 90.2449C220.958 89.109 221.099 88.2176 220.915 87.5706C220.81 86.8364 220.391 86.5218 219.554 86.6267C217.251 86.9413 216.623 88.9339 215.158 96.2752C213.588 103.616 213.483 105.609 215.576 105.294C217.042 105.085 218.089 104.036 219.135 99.3166L216.728 99.6312L217.67 94.8069L226.567 93.6533L223.531 108.441L218.821 109.07L219.135 106.658H219.031C217.775 109.28 215.262 110.119 212.855 110.433ZM214.006 135.079L218.298 114.523L223.531 113.894L219.24 134.45L214.006 135.079ZM229.079 120.816L226.358 133.506L221.438 134.135L225.73 113.58L231.591 112.845L232.324 125.116H232.429L235.045 112.426L239.965 111.797L235.673 132.352L229.916 133.086L229.079 120.816ZM255.247 153.117C255.142 153.327 255.037 153.432 254.828 153.432H254.723C246.768 150.915 239.546 146.93 233.057 141.686C232.847 141.581 232.847 141.267 232.952 141.162C233.057 140.952 233.371 140.952 233.475 141.057C239.86 146.196 247.082 150.181 254.933 152.698C255.247 152.698 255.352 152.908 255.247 153.117ZM253.363 123.333L256.189 109.909L261.422 109.28L258.387 124.067C257.968 126.06 258.492 126.479 259.434 126.374C260.376 126.269 261.108 125.64 261.527 123.648L264.563 108.86L269.796 108.231L266.865 121.655C265.714 127.423 262.888 129.416 258.596 129.94C254.2 130.464 252.211 128.996 253.363 123.333ZM266.97 155.11L266.761 156.264L265.086 156.473L264.877 157.627L266.761 157.417L266.551 158.676L263.202 159.095L264.353 153.432L267.598 153.013L267.389 154.271L265.505 154.481L265.295 155.425L266.97 155.11ZM271.68 153.956L270.32 154.166V154.061C270.424 153.747 270.32 153.432 270.005 153.537C269.691 153.537 269.482 153.852 269.482 154.061C269.393 154.552 269.777 154.682 270.216 154.831C270.809 155.032 271.502 155.268 271.262 156.473C271.052 157.732 270.215 158.361 268.959 158.466C267.807 158.571 267.179 158.256 267.389 157.103V156.893L268.749 156.683V156.788C268.645 157.312 268.854 157.417 269.063 157.417C269.377 157.417 269.587 157.103 269.587 156.788C269.677 156.288 269.297 156.163 268.862 156.019C268.293 155.83 267.629 155.611 267.807 154.481C268.017 153.327 268.749 152.593 270.005 152.488C271.576 152.278 271.994 152.803 271.68 153.956ZM274.088 157.627L272.622 157.837L273.564 153.432L272.518 153.537L272.832 152.278L276.495 151.859L276.181 153.117L275.134 153.222L274.088 157.627ZM276.495 157.417L275.239 157.627L275.553 156.054L276.809 155.844L276.495 157.417ZM272.727 127.738L267.493 128.367L271.785 107.811L277.018 107.182L272.727 127.738ZM274.925 102.253L268.017 103.092L273.669 75.9295L284.031 74.671C289.265 74.0417 290.94 77.2928 289.893 82.1171C288.742 87.6754 285.078 90.9266 279.531 91.6607L277.123 91.9753L274.925 102.253ZM277.542 111.587L278.484 107.077L291.568 105.504L290.626 110.014L286.753 110.538L283.403 126.584L278.17 127.213L281.519 111.167L277.542 111.587ZM284.241 152.383C284.136 153.117 283.717 153.642 283.194 154.166L282.147 155.11C282.043 155.215 281.833 155.425 281.729 155.634L283.613 155.425L283.403 156.578L279.74 156.998C279.949 156.264 280.263 155.425 280.996 154.691L282.147 153.537C282.461 153.222 282.671 153.013 282.775 152.593C282.88 152.069 282.775 151.964 282.566 151.964C282.357 151.964 282.147 152.174 282.043 152.803L281.938 153.013L280.577 153.222C280.682 152.593 280.891 152.174 281.205 151.754C281.519 151.335 282.043 151.125 282.775 151.02C284.241 150.915 284.45 151.544 284.241 152.383ZM288.532 153.222C288.009 155.53 287.381 156.159 286.02 156.369C284.764 156.473 284.241 155.949 284.764 153.747C285.288 151.439 285.916 150.81 287.172 150.6C288.532 150.391 289.056 150.915 288.532 153.222ZM293.033 105.19L298.267 104.56L293.975 125.116L288.742 125.745L293.033 105.19ZM292.928 152.698C292.405 155.005 291.777 155.634 290.416 155.844C289.16 155.949 288.637 155.425 289.16 153.222C289.684 150.915 290.312 150.286 291.568 150.076C292.929 149.866 293.452 150.391 292.928 152.698ZM297.534 150.705L296.173 150.915V150.496C296.173 150.391 296.069 150.391 295.859 150.391C295.65 150.391 295.441 150.6 295.336 151.02L295.127 151.964C295.336 151.649 295.755 151.439 296.173 151.439C296.906 151.335 297.429 151.649 297.115 153.013C296.801 154.586 295.964 155.215 294.813 155.32C293.557 155.425 293.033 155.005 293.452 153.117L293.557 152.488C293.871 150.705 294.394 149.761 295.964 149.552C297.534 149.342 297.743 149.971 297.534 150.705ZM298.371 114.628C299.941 106.972 302.349 103.721 307.687 103.092C313.025 102.463 314.177 105.19 312.607 112.845C311.037 120.501 308.629 123.752 303.291 124.382C297.953 125.011 296.801 122.284 298.371 114.628ZM329.982 129.835C326.737 134.135 322.969 137.911 318.887 141.371C314.7 144.727 310.199 147.664 305.384 149.971H305.175C305.07 149.971 304.861 149.866 304.756 149.761C304.652 149.552 304.756 149.342 304.966 149.237C309.781 146.93 314.281 144.098 318.364 140.742C322.446 137.386 326.109 133.611 329.354 129.416C329.459 129.206 329.773 129.206 329.877 129.311C330.087 129.416 330.087 129.625 329.982 129.835ZM338.879 102.673C337.728 102.777 337.1 103.721 336.89 104.665C336.534 106.405 337.94 106.855 339.552 107.37C341.729 108.066 344.282 108.882 343.38 113.16C342.438 117.565 339.612 119.767 335.006 120.396C330.715 120.921 328.621 119.662 329.459 115.467L329.563 114.733L334.588 114.104L334.483 114.628C334.169 116.411 334.692 116.936 335.739 116.831C336.786 116.726 337.623 115.782 337.832 114.628C338.192 112.873 336.816 112.431 335.243 111.926C333.153 111.255 330.716 110.473 331.552 106.343C332.39 102.148 335.006 99.6312 339.403 99.1068C343.903 98.5824 345.474 100.26 344.531 104.665L339.612 105.294L339.717 104.77C340.135 103.512 339.821 102.568 338.879 102.673ZM186.164 50.7595C181.349 62.4006 178.627 75.0904 178.627 88.4096C178.627 122.599 196.212 152.698 222.694 170.002H11.4674C0.790887 170.002 -3.08195 155.844 6.12912 150.391L174.65 50.2351C177.895 48.2425 181.977 48.2425 185.326 50.2351L186.164 50.7595ZM353.743 150.391L351.649 149.132C345.159 157.208 337.414 164.339 328.726 170.002H348.404C359.081 170.002 362.954 155.844 353.743 150.391ZM34.4951 327H12.0954C6.02448 327 1.00026 322.071 1.00026 315.883V202.094C1.00026 196.011 5.91981 190.977 12.0954 190.977H34.4951C40.566 190.977 45.5902 195.906 45.5902 202.094V315.988C45.5902 322.071 40.566 327 34.4951 327ZM191.188 327H77.515C71.444 327 66.4198 322.071 66.4198 315.883V202.094C66.4198 196.011 71.3394 190.977 77.515 190.977H191.188C197.259 190.977 202.283 195.906 202.283 202.094V315.988C202.283 322.071 197.259 327 191.188 327ZM234.208 327H347.881C353.952 327 358.976 322.071 358.976 315.988V202.094C358.976 195.906 353.952 190.977 347.881 190.977H234.208C228.032 190.977 223.113 196.011 223.113 202.094V315.883C223.113 322.071 228.137 327 234.208 327ZM295.127 154.271C295.441 154.271 295.545 154.061 295.755 153.327C295.859 152.593 295.859 152.383 295.545 152.488C295.231 152.488 295.127 152.698 294.917 153.432C294.813 154.166 294.813 154.376 295.127 154.271ZM290.835 151.964C290.94 151.23 291.149 150.915 291.463 150.915C291.777 150.915 291.882 151.125 291.672 151.859L291.254 153.747C291.044 154.481 290.94 154.795 290.626 154.795C290.312 154.9 290.207 154.691 290.416 153.852L290.835 151.964ZM240.698 87.9901C241.116 85.7877 240.488 84.9487 238.395 85.1584L237.034 85.3682L235.778 91.7656L237.139 91.5558C239.128 91.3461 240.384 89.9827 240.698 87.9901ZM260.794 82.8512H260.899L260.376 94.1777L256.503 94.7021L260.794 82.8512ZM287.067 151.439C286.753 151.439 286.544 151.754 286.439 152.488L286.02 154.376C285.811 155.215 285.916 155.425 286.23 155.32C286.544 155.32 286.648 155.005 286.858 154.271L287.276 152.383C287.486 151.649 287.381 151.439 287.067 151.439ZM303.71 113.894C304.861 108.336 305.384 106.868 306.954 106.658C308.629 106.448 308.42 107.916 307.268 113.475C306.117 119.033 305.594 120.501 304.024 120.711C302.454 120.921 302.558 119.453 303.71 113.894ZM280.787 80.0196C282.566 79.8098 283.194 80.7537 282.775 82.9561C282.252 85.1584 281.101 86.3121 279.426 86.6267L278.17 86.8364L279.531 80.2293L280.787 80.0196Z" fill="url(#paint0_linear)"/>
<defs>
<linearGradient id="paint0_linear" x1="182.475" y1="0" x2="182.475" y2="327" gradientUnits="userSpaceOnUse">
<stop stop-color="#A0A0A0"/>
<stop offset="1" stop-color="#F0F0F0"/>
</linearGradient>
</defs>
</svg>
