<svg width="224" height="45" viewBox="0 0 224 45" fill="none" xmlns="http://www.w3.org/2000/svg">
<path d="M212.279 33.5702C212.876 32.7733 213.275 31.8104 213.374 30.7478C213.54 29.32 213.275 28.2574 212.577 27.4605C211.083 25.7671 207.763 25.435 202.151 25.3686C197.303 25.3022 195.178 25.2026 194.614 24.5717C194.448 24.3725 194.414 24.14 194.448 23.7084C194.547 22.9447 195.045 22.3802 196.008 22.0149C197.801 22.7454 198.797 23.0443 201.786 23.0443C208.825 23.0443 211.913 18.628 212.245 15.6396C212.511 13.3817 212.013 12.3523 211.615 11.5222C212.279 11.1569 213.208 10.6589 215.433 10.6589H215.5L215.865 7.47119H215.832C213.109 7.47119 212.146 8.2017 210.286 9.62951C208.228 8.13529 206.335 7.63722 202.848 7.63722C196.672 7.63722 192.688 10.4928 192.123 15.2411C191.824 17.7979 192.887 19.1925 194.248 20.6203C193.153 21.2512 191.293 22.3802 191.061 24.3393C190.862 26.0327 191.858 26.6968 192.854 27.3277C190.463 28.191 189.234 29.4528 189.035 31.2791C189.035 31.3123 189.035 31.3123 189.035 31.3455C186.08 31.2127 184.221 31.1795 184.187 31.1795C182.394 31.1463 180.767 31.1463 179.207 31.1463C178.509 31.1463 177.845 31.1463 177.148 31.1463C173.495 31.1795 169.743 31.2791 166.057 31.4783C139.726 32.7733 115.752 37.7872 103.433 44.5278L103.5 44.6938C119.67 39.6135 143.478 35.961 168.813 34.6992C170.905 34.5996 172.997 34.5332 175.056 34.4667C176.085 34.4335 177.081 34.4003 178.111 34.3671C181.365 34.2343 185.25 34.2011 189.6 34.2343C190.529 35.6953 192.953 37.422 199.362 37.422C204.608 37.422 208.427 36.6251 210.751 34.998C215.4 35.3301 219.849 35.7617 223.967 36.3262L224 36.1602C220.547 35.164 216.628 34.3007 212.279 33.5702ZM210.12 31.0798C209.788 34.1015 203.413 34.5664 199.628 34.5664C198.001 34.5664 194.082 34.4003 192.688 32.8397C192.323 32.4412 192.157 31.9432 192.223 31.3787C192.389 29.9509 193.784 29.154 195.875 28.3903C198.366 28.5231 200.889 28.5895 203.313 28.6891C207.132 28.8219 209.191 29.0544 209.855 29.8513C210.087 30.1169 210.187 30.5154 210.12 31.0798ZM202.749 10.5592C204.575 10.5592 207.032 10.8581 208.294 12.2859C208.991 13.0496 209.257 14.079 209.124 15.3407C208.991 16.4697 208.062 20.2219 201.719 20.2219C200.823 20.2219 197.768 20.089 196.207 18.3624C195.51 17.5987 195.245 16.5693 195.377 15.3739C195.842 11.0241 200.69 10.5592 202.749 10.5592Z" fill="#555555"/>
<path d="M30.1832 7.86955C30.4489 5.61162 29.984 3.81856 28.855 2.52357C26.5971 0 22.2805 0 19.9561 0H3.4201L0 29.7848V29.8844H14.6433C17.665 29.8844 21.1183 29.7848 23.9739 28.7222C27.3608 27.4604 29.1871 25.0697 29.5855 21.4835C30.15 16.6356 26.9291 14.9422 25.2025 14.1121C27.1616 13.1823 29.7184 11.8873 30.1832 7.86955ZM22.9446 25.6009C21.5832 26.2318 19.7569 26.5307 17.2333 26.5307H3.98458L5.21316 15.8719H18.8604C21.9152 15.8719 23.9075 16.4696 25.0033 17.6982C25.8002 18.5615 26.099 19.7901 25.933 21.3175C25.7006 23.3762 24.7376 24.7708 22.9446 25.6009ZM17.5654 12.6843H5.57842L6.67418 3.18767H17.499C20.8859 3.18767 24.3724 3.18767 25.8334 4.84791C26.4643 5.57842 26.7299 6.57456 26.5639 7.90276C26.1986 11.1236 23.2766 12.6843 17.5654 12.6843Z" fill="#555555"/>
<path d="M47.0513 7.83643C46.52 7.73682 45.9555 7.67041 45.1586 7.67041C41.0412 7.67041 38.1192 10.5924 36.1601 12.6179L36.6581 8.3013H33.3377L30.8805 29.7848V29.8845H34.201L35.662 17.0342C35.8612 16.3701 39.713 11.0573 44.1292 11.0573C45.1254 11.0573 45.7895 11.1901 46.2211 11.2897C46.3872 11.3229 46.52 11.3561 46.6196 11.3561H46.686L47.0845 7.90284L47.0513 7.83643Z" fill="#555555"/>
<path d="M66.3101 11.0241C64.4175 8.86578 61.3294 7.70361 57.5773 7.70361C54.456 7.70361 51.5008 8.79937 49.2096 10.7917C46.8521 12.8836 45.3911 15.706 45.0258 19.0265C44.6606 22.2805 45.4907 25.2026 47.3502 27.3277C49.2096 29.4196 52.0653 30.5818 55.3857 30.5818C61.9603 30.5818 64.4839 28.0914 66.7086 25.8667C66.8414 25.7339 67.0075 25.5678 67.1403 25.435L67.2067 25.3686L64.8159 23.3763L64.6499 23.5755C63.1557 25.269 61.1302 27.5601 56.0166 27.5601C53.6591 27.5601 51.6668 26.7964 50.2722 25.3354C48.944 23.9408 48.2135 21.9485 48.2467 19.8566H68.3356V19.7902C68.8669 16.1044 68.1696 13.1492 66.3101 11.0241ZM48.7448 16.9014C50.1726 12.8504 53.2274 10.6921 57.5441 10.6921C62.7572 10.6921 64.8823 13.8797 65.0816 16.9014H48.7448Z" fill="#555555"/>
<path d="M91.4462 11.3228H99.5813L99.9134 8.33436H91.7782L92.6083 1.22852H89.2878L88.4577 8.33436H76.3379L77.1681 1.22852H73.8476L73.0175 8.33436H68.6676L68.3356 11.3228H72.6854L71.1912 24.4719C71.0584 25.5013 70.8591 27.4272 72.1209 28.855C73.1171 29.9839 74.8437 30.5484 77.3009 30.5484C78.5959 30.5484 80.2229 30.316 82.5473 29.9175H82.6137L82.9457 26.8627L82.5473 26.9291C80.887 27.2611 79.6916 27.5268 78.2638 27.5268C76.6368 27.5268 75.6074 27.2279 75.043 26.597C74.5781 26.0658 74.4121 25.302 74.5449 24.1399L76.0059 11.2896H88.1257L86.6314 24.4387C86.4986 25.4681 86.2994 27.3939 87.5612 28.8218C88.5573 29.9507 90.284 30.5152 92.7411 30.5152C94.0361 30.5152 95.6632 30.2828 97.9875 29.8843H98.0539L98.386 26.8295L97.9875 26.8959C96.3273 27.2279 95.1319 27.4936 93.7041 27.4936C92.0771 27.4936 91.0477 27.1947 90.4832 26.5638C90.0183 26.0325 89.8523 25.2688 89.9851 24.1067L91.4462 11.3228Z" fill="#555555"/>
<path d="M125.946 0L112.432 14.4773L102.238 0H97.5559L110.273 17.7978L108.879 29.8844H112.498L113.859 17.831L130.661 0H125.946Z" fill="#555555"/>
<path d="M141.187 10.9909C139.261 8.83258 136.372 7.67041 132.819 7.67041C129.333 7.67041 126.212 8.76617 123.788 10.8913C121.463 12.8836 120.002 15.6728 119.67 18.6944C119.272 22.2806 120.036 25.269 121.862 27.3277C123.721 29.4196 126.61 30.5154 130.23 30.5154C137.535 30.5154 142.582 25.9995 143.412 18.6944C143.777 15.7392 142.98 13.0164 141.187 10.9909ZM140.058 19.1261C139.759 21.6497 138.73 23.7416 137.07 25.2358C135.376 26.7632 133.118 27.5601 130.562 27.5601C127.972 27.5601 125.913 26.7632 124.551 25.269C123.223 23.7748 122.659 21.6497 122.958 19.1593C123.422 15.0751 126.61 10.6921 132.487 10.6921C135.011 10.6921 136.97 11.4558 138.298 12.95C139.693 14.4774 140.324 16.7353 140.058 19.1261Z" fill="#555555"/>
<path d="M163.966 8.33447L162.239 23.3099C160.645 24.9037 157.391 27.5601 153.639 27.5601C151.779 27.5601 150.451 27.0952 149.588 26.1323C148.758 25.1693 148.459 23.7415 148.691 21.8821L150.252 8.33447H146.932L145.305 22.513C145.006 25.0033 145.471 26.9624 146.699 28.3238C147.994 29.7516 150.152 30.5153 152.942 30.5153C155.93 30.5153 158.852 29.3199 161.874 26.8628L161.542 29.8512H164.862L167.319 8.30127H163.966V8.33447Z" fill="#555555"/>
<path d="M188.305 9.89513C187.01 8.46732 184.851 7.70361 182.062 7.70361C179.074 7.70361 176.152 8.89899 173.13 11.3561L173.462 8.36771H170.142L167.685 29.8845H171.005L172.732 14.9091C174.359 13.3152 177.613 10.6588 181.365 10.6588C183.224 10.6588 184.553 11.1237 185.416 12.0867C186.246 13.0496 186.545 14.4774 186.312 16.3369L184.752 29.8845H188.072L189.699 15.706C189.998 13.2156 189.533 11.2565 188.305 9.89513Z" fill="#555555"/>
<path d="M214.736 22.8118V23.6087H215.898V27.0952H216.828V23.6087H218.023V22.8118H214.736Z" fill="#555555"/>
<path d="M222.539 22.8118H221.41L220.812 24.5052C220.713 24.8373 220.58 25.2357 220.48 25.6674C220.381 25.3021 220.281 24.9037 220.182 24.5384L219.617 22.8118H218.488L218.189 27.0952H219.053L219.152 25.3685C219.185 25.0365 219.185 24.6048 219.219 24.2064C219.318 24.5384 219.385 24.9037 219.517 25.2357L220.082 27.062H220.779L221.41 25.2357C221.543 24.8705 221.643 24.5052 221.742 24.14C221.742 24.5052 221.775 24.9037 221.775 25.2357L221.875 27.0952H222.771L222.539 22.8118Z" fill="#555555"/>
</svg>
