<?xml version="1.0" encoding="UTF-8" standalone="no"?><!DOCTYPE svg PUBLIC "-//W3C//DTD SVG 1.1//EN" "http://www.w3.org/Graphics/SVG/1.1/DTD/svg11.dtd"><svg width="100%" height="100%" viewBox="0 0 614 423" version="1.1" xmlns="http://www.w3.org/2000/svg" xmlns:xlink="http://www.w3.org/1999/xlink" xml:space="preserve" style="fill-rule:evenodd;clip-rule:evenodd;stroke-linejoin:round;stroke-miterlimit:1.41421;"><path d="M226.973,157.795c4.953,0 9.891,0 14.844,0c1.543,0 2.283,0.324 2.453,1.975c1.913,20.522 -10.616,35.766 -28.73,38.019c-19.318,2.392 -37.541,-9.258 -42.247,-27.017c-0.838,-3.133 -1.263,-6.362 -1.263,-9.606c0,-18.166 13.323,-33.801 31.259,-36.683c10.579,-2.008 21.519,0.825 29.794,7.714c1.651,1.312 2.207,2.269 0.247,3.827c-1.959,1.558 -3.086,4.089 -5.107,4.629c-2.021,0.54 -3.487,-2.284 -5.447,-3.287c-9.103,-4.629 -18.253,-4.752 -26.971,0.571c-8.447,4.799 -13.397,14.073 -12.683,23.762c0.586,13.192 8.27,22.574 20.506,25.444c8.424,2.255 17.442,0.059 23.885,-5.817c3.256,-3.03 5.426,-7.049 6.172,-11.434c0.386,-1.759 -0.524,-1.898 -1.898,-1.898c-6.573,0 -13.13,0 -19.703,0c-1.821,0 -2.639,-0.416 -2.438,-2.376c0.231,-2.484 -1.019,-5.693 0.463,-7.314c1.481,-1.62 4.752,-0.432 7.236,-0.509c3.163,-0.077 6.403,0 9.628,0Zm149.252,-7.483c-8.982,-0.498 -17.42,4.495 -21.309,12.606c-4.629,8.687 -3.95,17.42 1.682,25.459c6.897,9.844 21.062,13.763 30.767,4.799c0.077,0 0.324,0 0.555,0.077c0.078,1.516 0.078,3.035 0,4.551c-0.54,5.2 -2.252,9.675 -7.714,11.496c-5.007,1.934 -10.719,0.587 -14.335,-3.38c-1.219,-1.218 -1.342,-3.795 -3.379,-3.733c-1.682,0 -3.348,1.188 -5.014,1.851c-0.649,0.303 -1.313,0.571 -1.991,0.802c-1.342,0.402 -1.25,1.096 -0.756,2.207c6.172,13.424 26.354,16.973 36.723,6.465c5.385,-5.478 6.619,-12.344 6.65,-19.611c0,-12.051 0,-24.101 0,-36.152c0,-6.002 0,-6.002 -6.064,-6.002c-3.826,0 -3.826,0 -4.228,3.934c-3.003,-3.245 -7.17,-5.176 -11.587,-5.369l0,0Zm-5.447,37.293c-6.172,-2.623 -9.505,-10.183 -7.638,-17.466c1.487,-6.675 7.934,-11.14 14.705,-10.184c5.369,0.618 9.921,5.74 10.646,11.989c0.093,0.803 0.093,1.543 0.124,2.176c0.108,10.585 -8.872,17.25 -17.837,13.485Zm-122.327,-13.763c-0.003,0.16 -0.004,0.319 -0.004,0.478c0,13.188 10.851,24.04 24.039,24.04c13.188,0 24.04,-10.852 24.04,-24.04c0,-13.187 -10.852,-24.039 -24.04,-24.039c-0.014,0 -0.028,0 -0.041,0c-0.124,-0.002 -0.247,-0.003 -0.371,-0.003c-12.925,0 -23.574,10.608 -23.623,23.533l0,0.031Zm23.855,-14.01c7.807,-0.108 13.609,6.079 13.67,14.566c0.206,7.613 -5.887,14.048 -13.501,14.257c-7.622,0 -13.439,-6.265 -13.47,-14.52c-0.031,-8.255 5.632,-14.303 13.301,-14.303Zm27.912,13.887c-0.005,0.2 -0.008,0.401 -0.008,0.601c0,13.205 10.866,24.071 24.071,24.071c13.204,0 24.07,-10.866 24.07,-24.071c0,-13.167 -10.803,-24.015 -23.97,-24.07c-0.16,-0.003 -0.32,-0.005 -0.479,-0.005c-12.914,0 -23.569,10.561 -23.684,23.474Zm37.571,0.833c0.072,7.507 -5.922,13.797 -13.424,14.087c-7.714,0 -13.562,-6.28 -13.562,-14.689c0,-8.054 5.817,-14.103 13.501,-14.103c7.684,0 13.501,6.157 13.485,14.674l0,0.031Zm96.451,22.157c9.483,3.413 20.147,0.598 26.709,-7.051c1.358,-1.543 1.667,-2.531 -0.447,-3.549c-1.285,-0.654 -2.491,-1.451 -3.595,-2.376c-1.543,-1.297 -2.608,-1.543 -4.259,0.37c-2.455,2.97 -6.113,4.693 -9.967,4.693c-3.922,0 -7.639,-1.786 -10.092,-4.847c-1.851,-2.346 -1.836,-2.392 1.034,-3.58c9.135,-3.765 18.254,-7.514 27.372,-11.341c0.71,-0.293 2.207,-0.17 1.543,-1.836c-2.638,-6.743 -6.341,-12.56 -13.377,-15.43c-14.751,-5.956 -30.458,5.509 -30.412,22.126c-0.241,10.103 6.009,19.297 15.491,22.79l0,0.031Zm11.218,-36.507c1.041,0.328 2.01,0.851 2.854,1.543c2.639,2.176 2.577,2.824 -0.494,4.105l-16.154,6.665c-0.726,0.293 -1.389,0.833 -2.253,0.664c-0.021,-0.296 -0.032,-0.593 -0.032,-0.889c0,-6.916 5.691,-12.606 12.607,-12.606c1.174,0 2.343,0.164 3.472,0.487l0,0.031Zm-30.952,-31.291c0,-1.79 -0.34,-2.623 -2.33,-2.438c-1.879,0.162 -3.768,0.162 -5.647,0c-1.852,-0.154 -2.454,0.386 -2.438,2.33c0.061,21.828 0.061,43.661 0,65.499c0,2.145 0.694,2.623 2.607,2.453c1.704,-0.162 3.419,-0.162 5.123,0c2.037,0.185 2.731,-0.401 2.716,-2.607c-0.124,-10.878 0,-21.741 0,-32.619c0,-10.878 -0.124,-21.756 -0.031,-32.649l0,0.031Z" style="fill:url(#_Linear1);fill-rule:nonzero;"/><path d="M537.504,247.535l0.163,0.001l0.162,0.003l0.162,0.004l0.161,0.004l0.162,0.006l0.161,0.006l0.161,0.008l0.161,0.009l0.16,0.009l0.16,0.011l0.16,0.012l0.16,0.013l0.16,0.013l0.159,0.015l0.159,0.016l0.158,0.016l0.159,0.018l0.158,0.018l0.158,0.02l0.157,0.021l0.157,0.021l0.157,0.023l0.157,0.023l0.156,0.024l0.156,0.026l0.156,0.026l0.155,0.027l0.155,0.029l0.155,0.029l0.155,0.03l0.154,0.031l0.153,0.032l0.154,0.033l0.153,0.034l0.153,0.035l0.152,0.035l0.152,0.037l0.152,0.038l0.151,0.038l0.151,0.039l0.151,0.041l0.15,0.041l0.15,0.042l0.149,0.043l0.15,0.044l0.148,0.045l0.148,0.045l0.148,0.047l0.148,0.047l0.147,0.049l0.147,0.049l0.146,0.05l0.146,0.051l0.146,0.052l0.145,0.052l0.144,0.054l0.145,0.054l0.144,0.056l0.143,0.056l0.143,0.056l0.143,0.058l0.142,0.059l0.142,0.059l0.141,0.061l0.141,0.061l0.14,0.062l0.14,0.063l0.139,0.063l0.139,0.065l0.139,0.065l0.138,0.066l0.138,0.067l0.136,0.067l0.137,0.069l0.137,0.069l0.135,0.07l0.135,0.071l0.135,0.072l0.134,0.072l0.134,0.073l0.133,0.074l0.133,0.075l0.132,0.076l0.132,0.076l0.131,0.077l0.131,0.078l0.13,0.079l0.13,0.079l0.129,0.08l0.129,0.081l0.128,0.081l0.127,0.083l0.127,0.083l0.127,0.084l0.126,0.085l0.126,0.085l0.124,0.086l0.124,0.087l0.124,0.087l0.124,0.088l0.122,0.089l0.123,0.09l0.121,0.09l0.121,0.091l0.12,0.092l0.12,0.093l0.12,0.093l0.118,0.094l0.119,0.094l0.117,0.096l0.117,0.095l0.116,0.097l0.116,0.098l0.115,0.098l0.115,0.098l0.114,0.099l0.113,0.101l0.113,0.1l0.112,0.101l0.112,0.103l0.111,0.102l0.11,0.104l0.11,0.104l0.109,0.104l0.108,0.105l0.108,0.106l0.107,0.107l0.107,0.107l0.106,0.108l0.105,0.108l0.105,0.109l0.103,0.11l0.104,0.11l0.103,0.111l0.102,0.112l0.101,0.112l0.1,0.113l0.101,0.113l0.099,0.114l0.099,0.115l0.098,0.115l0.097,0.116l0.097,0.116l0.095,0.117l0.096,0.117l0.095,0.119l0.093,0.118l0.093,0.12l0.093,0.12l0.092,0.12l0.091,0.121l0.09,0.122l0.09,0.122l0.089,0.122l0.088,0.124l0.088,0.124l0.086,0.124l0.086,0.125l0.086,0.125l0.084,0.126l0.084,0.127l0.083,0.127l0.083,0.128l0.081,0.127l0.081,0.129l0.08,0.129l0.08,0.13l0.078,0.13l0.078,0.131l0.077,0.131l0.076,0.132l0.076,0.132l0.075,0.133l0.074,0.133l0.073,0.134l0.073,0.134l0.071,0.135l0.071,0.135l0.07,0.136l0.069,0.136l0.069,0.137l0.067,0.137l0.067,0.137l0.066,0.138l0.066,0.139l0.064,0.139l0.064,0.139l0.062,0.14l0.062,0.14l0.061,0.141l0.061,0.142l0.059,0.141l0.059,0.142l0.058,0.143l0.057,0.143l0.056,0.143l0.055,0.144l0.054,0.145l0.054,0.144l0.052,0.145l0.052,0.146l0.051,0.146l0.05,0.146l0.05,0.147l0.048,0.147l0.047,0.148l0.047,0.147l0.046,0.149l0.044,0.149l0.044,0.149l0.043,0.149l0.042,0.15l0.041,0.15l0.041,0.151l0.039,0.151l0.039,0.151l0.037,0.152l0.037,0.152l0.036,0.152l0.034,0.153l0.034,0.153l0.033,0.154l0.032,0.153l0.031,0.154l0.03,0.155l0.03,0.155l0.028,0.155l0.027,0.155l0.026,0.156l0.026,0.156l0.024,0.156l0.024,0.156l0.022,0.158l0.022,0.157l0.02,0.157l0.02,0.158l0.018,0.158l0.018,0.159l0.017,0.159l0.015,0.158l0.015,0.159l0.014,0.16l0.012,0.16l0.012,0.159l0.011,0.161l0.009,0.161l0.009,0.16l0.008,0.161l0.006,0.161l0.006,0.162l0.005,0.162l0.003,0.161l0.003,0.163l0.001,0.162l0.001,0.163l-0.001,0.162l-0.001,0.162l-0.003,0.163l-0.003,0.161l-0.005,0.162l-0.006,0.162l-0.006,0.161l-0.008,0.161l-0.009,0.16l-0.009,0.161l-0.011,0.161l-0.012,0.159l-0.012,0.16l-0.014,0.16l-0.015,0.159l-0.015,0.158l-0.017,0.159l-0.018,0.159l-0.018,0.158l-0.02,0.158l-0.02,0.157l-0.022,0.157l-0.022,0.158l-0.024,0.156l-0.024,0.156l-0.026,0.156l-0.026,0.156l-0.027,0.155l-0.028,0.155l-0.03,0.155l-0.03,0.155l-0.031,0.154l-0.032,0.153l-0.033,0.154l-0.034,0.153l-0.034,0.153l-0.036,0.152l-0.037,0.152l-0.037,0.152l-0.039,0.151l-0.039,0.151l-0.041,0.151l-0.041,0.15l-0.042,0.15l-0.043,0.149l-0.044,0.149l-0.044,0.149l-0.046,0.149l-0.047,0.147l-0.047,0.148l-0.048,0.147l-0.05,0.147l-0.05,0.146l-0.051,0.146l-0.052,0.146l-0.052,0.145l-0.054,0.144l-0.054,0.145l-0.055,0.144l-0.056,0.143l-0.057,0.143l-0.058,0.143l-0.059,0.142l-0.059,0.141l-0.061,0.142l-0.061,0.141l-0.062,0.14l-0.062,0.14l-0.064,0.139l-0.064,0.139l-0.066,0.139l-0.066,0.138l-0.067,0.138l-0.067,0.136l-0.069,0.137l-0.069,0.136l-0.07,0.136l-0.071,0.135l-0.071,0.135l-0.073,0.134l-0.073,0.134l-0.074,0.133l-0.075,0.133l-0.076,0.132l-0.076,0.132l-0.077,0.131l-0.078,0.131l-0.078,0.13l-0.08,0.13l-0.08,0.129l-0.081,0.129l-0.081,0.128l-0.083,0.127l-0.083,0.127l-0.084,0.127l-0.084,0.126l-0.086,0.125l-0.086,0.125l-0.087,0.124l-0.087,0.124l-0.088,0.124l-0.089,0.122l-0.09,0.122l-0.09,0.122l-0.091,0.121l-0.092,0.12l-0.093,0.12l-0.093,0.119l-0.093,0.119l-0.095,0.119l-0.096,0.117l-0.095,0.117l-0.097,0.116l-0.097,0.116l-0.099,0.115l-0.098,0.115l-0.099,0.114l-0.101,0.113l-0.1,0.113l-0.101,0.112l-0.102,0.112l-0.103,0.111l-0.104,0.11l-0.104,0.11l-0.104,0.109l-0.105,0.108l-0.106,0.108l-0.107,0.107l-0.107,0.107l-0.108,0.106l-0.108,0.105l-0.109,0.104l-0.11,0.104l-0.11,0.104l-0.111,0.102l-0.112,0.103l-0.112,0.101l-0.113,0.1l-0.113,0.101l-0.114,0.099l-0.115,0.098l-0.115,0.098l-0.116,0.098l-0.116,0.097l-0.117,0.095l-0.117,0.096l-0.119,0.094l-0.118,0.094l-0.12,0.093l-0.12,0.093l-0.12,0.092l-0.121,0.091l-0.121,0.09l-0.123,0.09l-0.122,0.089l-0.124,0.088l-0.123,0.087l-0.125,0.087l-0.125,0.086l-0.125,0.085l-0.126,0.085l-0.127,0.084l-0.127,0.083l-0.127,0.083l-0.128,0.081l-0.129,0.081l-0.129,0.08l-0.13,0.08l-0.13,0.078l-0.131,0.078l-0.131,0.077l-0.132,0.076l-0.132,0.076l-0.133,0.075l-0.133,0.074l-0.134,0.073l-0.134,0.072l-0.135,0.072l-0.135,0.071l-0.135,0.07l-0.137,0.069l-0.137,0.069l-0.136,0.067l-0.138,0.067l-0.138,0.066l-0.139,0.065l-0.139,0.065l-0.139,0.063l-0.14,0.063l-0.14,0.062l-0.141,0.061l-0.141,0.061l-0.142,0.059l-0.142,0.059l-0.143,0.058l-0.143,0.056l-0.143,0.057l-0.144,0.055l-0.145,0.054l-0.144,0.054l-0.145,0.052l-0.146,0.052l-0.146,0.051l-0.146,0.05l-0.147,0.049l-0.147,0.049l-0.148,0.047l-0.148,0.047l-0.148,0.045l-0.148,0.045l-0.15,0.044l-0.149,0.043l-0.15,0.042l-0.15,0.041l-0.151,0.041l-0.151,0.039l-0.151,0.039l-0.152,0.037l-0.152,0.037l-0.152,0.035l-0.153,0.035l-0.153,0.034l-0.154,0.033l-0.153,0.032l-0.154,0.031l-0.155,0.03l-0.155,0.029l-0.155,0.029l-0.155,0.027l-0.156,0.026l-0.156,0.026l-0.156,0.024l-0.157,0.023l-0.157,0.023l-0.157,0.022l-0.157,0.02l-0.158,0.02l-0.158,0.018l-0.159,0.018l-0.158,0.017l-0.159,0.015l-0.159,0.015l-0.16,0.014l-0.16,0.012l-0.16,0.012l-0.16,0.011l-0.16,0.009l-0.161,0.009l-0.161,0.008l-0.161,0.006l-0.162,0.006l-0.161,0.004l-0.162,0.004l-0.162,0.003l-0.163,0.001l-0.158,0.001l-439.91,0l-0.158,-0.001l-0.162,-0.001l-0.162,-0.003l-0.162,-0.004l-0.162,-0.004l-0.161,-0.006l-0.161,-0.006l-0.162,-0.008l-0.16,-0.009l-0.161,-0.009l-0.16,-0.011l-0.16,-0.012l-0.16,-0.012l-0.159,-0.014l-0.159,-0.015l-0.159,-0.015l-0.159,-0.017l-0.158,-0.018l-0.158,-0.018l-0.158,-0.02l-0.158,-0.02l-0.157,-0.022l-0.157,-0.023l-0.157,-0.023l-0.156,-0.024l-0.156,-0.026l-0.156,-0.026l-0.155,-0.027l-0.155,-0.029l-0.155,-0.029l-0.154,-0.03l-0.154,-0.031l-0.154,-0.032l-0.153,-0.033l-0.153,-0.034l-0.153,-0.035l-0.153,-0.035l-0.152,-0.037l-0.151,-0.037l-0.152,-0.039l-0.151,-0.039l-0.15,-0.041l-0.151,-0.041l-0.149,-0.042l-0.15,-0.043l-0.149,-0.044l-0.149,-0.045l-0.148,-0.045l-0.148,-0.047l-0.147,-0.047l-0.148,-0.049l-0.146,-0.049l-0.147,-0.05l-0.146,-0.051l-0.145,-0.052l-0.145,-0.052l-0.145,-0.054l-0.144,-0.054l-0.144,-0.055l-0.144,-0.057l-0.143,-0.056l-0.142,-0.058l-0.142,-0.059l-0.142,-0.059l-0.141,-0.061l-0.141,-0.061l-0.14,-0.062l-0.14,-0.063l-0.14,-0.063l-0.139,-0.065l-0.138,-0.065l-0.138,-0.066l-0.138,-0.067l-0.137,-0.067l-0.137,-0.069l-0.136,-0.069l-0.136,-0.07l-0.135,-0.071l-0.135,-0.072l-0.134,-0.072l-0.134,-0.073l-0.133,-0.074l-0.132,-0.075l-0.133,-0.076l-0.132,-0.076l-0.131,-0.077l-0.131,-0.078l-0.13,-0.078l-0.129,-0.08l-0.13,-0.08l-0.128,-0.081l-0.128,-0.081l-0.128,-0.083l-0.127,-0.083l-0.126,-0.084l-0.126,-0.084l-0.126,-0.086l-0.125,-0.086l-0.124,-0.087l-0.124,-0.087l-0.123,-0.088l-0.123,-0.089l-0.122,-0.09l-0.121,-0.09l-0.122,-0.091l-0.12,-0.092l-0.12,-0.093l-0.119,-0.093l-0.119,-0.094l-0.118,-0.094l-0.118,-0.096l-0.117,-0.096l-0.116,-0.096l-0.116,-0.097l-0.115,-0.099l-0.114,-0.098l-0.114,-0.1l-0.114,-0.1l-0.112,-0.1l-0.113,-0.102l-0.111,-0.102l-0.111,-0.102l-0.111,-0.104l-0.109,-0.104l-0.109,-0.104l-0.109,-0.105l-0.108,-0.106l-0.107,-0.107l-0.106,-0.107l-0.106,-0.108l-0.106,-0.108l-0.104,-0.109l-0.104,-0.11l-0.103,-0.11l-0.103,-0.111l-0.102,-0.112l-0.101,-0.112l-0.101,-0.113l-0.1,-0.113l-0.099,-0.114l-0.099,-0.115l-0.098,-0.115l-0.097,-0.116l-0.097,-0.116l-0.096,-0.117l-0.095,-0.118l-0.095,-0.118l-0.094,-0.118l-0.093,-0.12l-0.092,-0.12l-0.092,-0.12l-0.091,-0.121l-0.091,-0.122l-0.089,-0.122l-0.089,-0.122l-0.088,-0.124l-0.088,-0.123l-0.087,-0.125l-0.086,-0.125l-0.085,-0.125l-0.085,-0.126l-0.084,-0.127l-0.083,-0.127l-0.082,-0.127l-0.082,-0.128l-0.081,-0.129l-0.08,-0.129l-0.079,-0.13l-0.079,-0.13l-0.078,-0.131l-0.077,-0.131l-0.076,-0.132l-0.076,-0.132l-0.074,-0.133l-0.074,-0.133l-0.074,-0.134l-0.072,-0.134l-0.072,-0.135l-0.07,-0.135l-0.07,-0.136l-0.07,-0.136l-0.068,-0.136l-0.068,-0.138l-0.067,-0.137l-0.066,-0.138l-0.065,-0.139l-0.065,-0.139l-0.063,-0.139l-0.063,-0.14l-0.062,-0.141l-0.061,-0.14l-0.06,-0.142l-0.06,-0.141l-0.058,-0.142l-0.058,-0.143l-0.057,-0.143l-0.056,-0.143l-0.055,-0.144l-0.055,-0.145l-0.053,-0.144l-0.053,-0.145l-0.052,-0.146l-0.051,-0.146l-0.05,-0.146l-0.049,-0.147l-0.048,-0.147l-0.048,-0.148l-0.046,-0.148l-0.046,-0.148l-0.045,-0.149l-0.044,-0.149l-0.043,-0.149l-0.042,-0.15l-0.041,-0.15l-0.04,-0.151l-0.04,-0.151l-0.038,-0.151l-0.038,-0.152l-0.036,-0.152l-0.036,-0.152l-0.035,-0.153l-0.034,-0.153l-0.033,-0.154l-0.032,-0.153l-0.031,-0.154l-0.03,-0.155l-0.029,-0.155l-0.028,-0.155l-0.028,-0.155l-0.026,-0.156l-0.025,-0.156l-0.025,-0.156l-0.023,-0.157l-0.023,-0.157l-0.021,-0.157l-0.021,-0.157l-0.019,-0.158l-0.019,-0.158l-0.017,-0.159l-0.017,-0.158l-0.016,-0.159l-0.014,-0.16l-0.014,-0.159l-0.013,-0.16l-0.011,-0.16l-0.011,-0.16l-0.01,-0.16l-0.008,-0.161l-0.008,-0.161l-0.007,-0.161l-0.005,-0.162l-0.005,-0.161l-0.004,-0.162l-0.002,-0.163l-0.002,-0.162l0,-0.162l0,-0.163l0.002,-0.162l0.002,-0.163l0.004,-0.161l0.005,-0.162l0.005,-0.162l0.007,-0.161l0.008,-0.161l0.008,-0.161l0.01,-0.16l0.011,-0.16l0.011,-0.16l0.013,-0.16l0.014,-0.159l0.014,-0.16l0.016,-0.159l0.017,-0.158l0.017,-0.159l0.019,-0.158l0.019,-0.158l0.021,-0.157l0.021,-0.157l0.023,-0.157l0.023,-0.157l0.025,-0.156l0.025,-0.156l0.026,-0.156l0.028,-0.155l0.028,-0.155l0.029,-0.155l0.03,-0.155l0.031,-0.154l0.032,-0.153l0.033,-0.154l0.034,-0.153l0.035,-0.153l0.036,-0.152l0.036,-0.152l0.038,-0.152l0.038,-0.151l0.04,-0.151l0.04,-0.151l0.041,-0.15l0.042,-0.15l0.043,-0.149l0.044,-0.149l0.045,-0.149l0.046,-0.148l0.046,-0.148l0.048,-0.148l0.048,-0.147l0.049,-0.147l0.05,-0.146l0.051,-0.146l0.052,-0.146l0.053,-0.145l0.053,-0.144l0.055,-0.145l0.055,-0.144l0.056,-0.143l0.057,-0.143l0.058,-0.143l0.058,-0.142l0.06,-0.141l0.06,-0.142l0.061,-0.14l0.062,-0.141l0.063,-0.14l0.064,-0.139l0.064,-0.139l0.065,-0.139l0.066,-0.138l0.067,-0.137l0.068,-0.137l0.068,-0.137l0.07,-0.136l0.07,-0.136l0.07,-0.135l0.072,-0.135l0.072,-0.134l0.074,-0.134l0.074,-0.133l0.074,-0.133l0.076,-0.132l0.076,-0.132l0.077,-0.131l0.078,-0.131l0.079,-0.13l0.079,-0.13l0.08,-0.129l0.081,-0.129l0.082,-0.128l0.082,-0.127l0.083,-0.127l0.084,-0.127l0.085,-0.126l0.085,-0.125l0.086,-0.125l0.087,-0.124l0.088,-0.124l0.088,-0.124l0.089,-0.122l0.089,-0.122l0.091,-0.122l0.091,-0.121l0.092,-0.12l0.092,-0.12l0.093,-0.12l0.094,-0.118l0.095,-0.118l0.095,-0.118l0.096,-0.117l0.097,-0.116l0.097,-0.116l0.098,-0.115l0.099,-0.115l0.099,-0.114l0.1,-0.113l0.101,-0.113l0.101,-0.112l0.102,-0.112l0.103,-0.111l0.103,-0.11l0.104,-0.11l0.105,-0.109l0.105,-0.108l0.106,-0.108l0.106,-0.107l0.107,-0.107l0.108,-0.106l0.109,-0.105l0.109,-0.104l0.109,-0.104l0.111,-0.104l0.111,-0.102l0.111,-0.102l0.113,-0.102l0.112,-0.1l0.114,-0.1l0.113,-0.1l0.115,-0.098l0.115,-0.099l0.116,-0.097l0.117,-0.096l0.116,-0.096l0.118,-0.096l0.118,-0.094l0.119,-0.094l0.119,-0.093l0.12,-0.093l0.12,-0.092l0.121,-0.091l0.122,-0.09l0.122,-0.09l0.123,-0.089l0.123,-0.088l0.124,-0.087l0.124,-0.087l0.125,-0.086l0.126,-0.086l0.126,-0.084l0.126,-0.084l0.127,-0.083l0.128,-0.082l0.128,-0.082l0.128,-0.081l0.13,-0.08l0.129,-0.08l0.13,-0.078l0.131,-0.078l0.132,-0.077l0.131,-0.076l0.132,-0.076l0.133,-0.075l0.133,-0.074l0.134,-0.073l0.134,-0.072l0.135,-0.072l0.135,-0.071l0.136,-0.07l0.136,-0.069l0.137,-0.069l0.137,-0.067l0.138,-0.067l0.138,-0.066l0.138,-0.065l0.139,-0.065l0.14,-0.063l0.14,-0.063l0.14,-0.062l0.141,-0.061l0.141,-0.061l0.142,-0.059l0.142,-0.059l0.142,-0.057l0.143,-0.057l0.144,-0.057l0.144,-0.055l0.144,-0.054l0.145,-0.054l0.145,-0.052l0.145,-0.052l0.146,-0.051l0.147,-0.05l0.146,-0.049l0.148,-0.049l0.147,-0.047l0.148,-0.047l0.148,-0.045l0.149,-0.045l0.149,-0.044l0.15,-0.043l0.149,-0.042l0.151,-0.041l0.15,-0.041l0.151,-0.039l0.152,-0.038l0.151,-0.038l0.152,-0.037l0.153,-0.035l0.153,-0.035l0.152,-0.034l0.154,-0.033l0.154,-0.032l0.154,-0.031l0.154,-0.03l0.155,-0.029l0.155,-0.029l0.155,-0.027l0.156,-0.026l0.156,-0.026l0.156,-0.024l0.157,-0.023l0.157,-0.023l0.157,-0.021l0.158,-0.021l0.158,-0.02l0.158,-0.018l0.158,-0.018l0.159,-0.016l0.159,-0.016l0.159,-0.015l0.159,-0.013l0.16,-0.013l0.16,-0.012l0.16,-0.011l0.161,-0.009l0.16,-0.009l0.161,-0.008l0.162,-0.006l0.161,-0.006l0.162,-0.004l0.162,-0.004l0.162,-0.003l0.162,-0.001l0.158,-0.001l439.91,0l0.158,0.001Zm-440.058,6.171l-0.129,0.001l-0.123,0.001l-0.123,0.002l-0.123,0.003l-0.122,0.003l-0.123,0.004l-0.122,0.005l-0.122,0.006l-0.121,0.007l-0.122,0.007l-0.121,0.008l-0.121,0.009l-0.121,0.01l-0.12,0.01l-0.121,0.011l-0.12,0.012l-0.12,0.012l-0.119,0.014l-0.12,0.014l-0.119,0.014l-0.119,0.016l-0.119,0.016l-0.118,0.017l-0.118,0.018l-0.118,0.018l-0.118,0.02l-0.117,0.019l-0.118,0.021l-0.116,0.021l-0.117,0.022l-0.116,0.023l-0.117,0.023l-0.116,0.024l-0.115,0.025l-0.116,0.026l-0.115,0.026l-0.115,0.027l-0.114,0.028l-0.114,0.028l-0.115,0.029l-0.113,0.03l-0.114,0.03l-0.113,0.031l-0.113,0.032l-0.112,0.032l-0.113,0.033l-0.112,0.034l-0.111,0.034l-0.112,0.035l-0.111,0.036l-0.111,0.037l-0.11,0.037l-0.111,0.037l-0.11,0.039l-0.109,0.039l-0.11,0.039l-0.109,0.041l-0.109,0.041l-0.108,0.041l-0.108,0.043l-0.108,0.043l-0.107,0.043l-0.108,0.044l-0.106,0.045l-0.107,0.046l-0.106,0.046l-0.106,0.046l-0.105,0.048l-0.105,0.048l-0.105,0.048l-0.105,0.05l-0.104,0.049l-0.104,0.051l-0.103,0.051l-0.103,0.051l-0.103,0.053l-0.102,0.053l-0.102,0.053l-0.102,0.054l-0.101,0.055l-0.101,0.055l-0.101,0.056l-0.1,0.056l-0.1,0.058l-0.1,0.057l-0.099,0.058l-0.098,0.059l-0.099,0.06l-0.098,0.059l-0.097,0.061l-0.098,0.061l-0.096,0.062l-0.097,0.062l-0.096,0.063l-0.095,0.063l-0.096,0.064l-0.094,0.065l-0.095,0.065l-0.094,0.065l-0.093,0.066l-0.094,0.067l-0.092,0.067l-0.093,0.068l-0.091,0.068l-0.092,0.069l-0.091,0.07l-0.091,0.07l-0.09,0.07l-0.09,0.071l-0.089,0.072l-0.089,0.072l-0.089,0.073l-0.088,0.073l-0.087,0.073l-0.087,0.074l-0.087,0.075l-0.086,0.075l-0.086,0.076l-0.086,0.076l-0.084,0.077l-0.085,0.077l-0.084,0.078l-0.083,0.078l-0.083,0.078l-0.083,0.08l-0.082,0.079l-0.081,0.08l-0.082,0.081l-0.08,0.081l-0.08,0.082l-0.08,0.082l-0.079,0.082l-0.079,0.084l-0.078,0.083l-0.078,0.084l-0.077,0.084l-0.077,0.085l-0.076,0.086l-0.075,0.085l-0.076,0.087l-0.074,0.086l-0.074,0.087l-0.074,0.088l-0.073,0.088l-0.073,0.089l-0.072,0.088l-0.071,0.09l-0.071,0.09l-0.071,0.09l-0.07,0.09l-0.069,0.092l-0.069,0.091l-0.068,0.092l-0.068,0.092l-0.068,0.093l-0.066,0.093l-0.066,0.094l-0.066,0.094l-0.065,0.094l-0.064,0.095l-0.064,0.095l-0.064,0.096l-0.063,0.096l-0.062,0.096l-0.062,0.097l-0.061,0.097l-0.06,0.098l-0.06,0.098l-0.06,0.098l-0.058,0.099l-0.059,0.099l-0.057,0.1l-0.057,0.099l-0.057,0.101l-0.056,0.1l-0.055,0.101l-0.054,0.102l-0.055,0.101l-0.053,0.102l-0.053,0.103l-0.052,0.102l-0.052,0.103l-0.051,0.104l-0.05,0.104l-0.05,0.104l-0.049,0.104l-0.049,0.105l-0.048,0.105l-0.047,0.106l-0.047,0.106l-0.046,0.106l-0.045,0.106l-0.045,0.107l-0.045,0.107l-0.043,0.108l-0.043,0.108l-0.042,0.108l-0.042,0.108l-0.041,0.109l-0.04,0.109l-0.04,0.109l-0.039,0.11l-0.038,0.11l-0.038,0.11l-0.037,0.111l-0.037,0.111l-0.035,0.111l-0.035,0.111l-0.035,0.112l-0.034,0.112l-0.033,0.112l-0.032,0.113l-0.032,0.113l-0.031,0.113l-0.03,0.114l-0.03,0.113l-0.029,0.114l-0.028,0.115l-0.028,0.114l-0.027,0.115l-0.026,0.115l-0.025,0.115l-0.025,0.116l-0.024,0.116l-0.024,0.116l-0.022,0.117l-0.022,0.116l-0.022,0.117l-0.02,0.117l-0.02,0.118l-0.019,0.118l-0.019,0.117l-0.017,0.119l-0.017,0.118l-0.017,0.119l-0.015,0.119l-0.015,0.119l-0.014,0.119l-0.013,0.12l-0.013,0.12l-0.012,0.12l-0.011,0.12l-0.01,0.121l-0.01,0.121l-0.009,0.121l-0.008,0.121l-0.007,0.121l-0.007,0.122l-0.005,0.122l-0.005,0.122l-0.005,0.122l-0.003,0.123l-0.003,0.123l-0.002,0.123l-0.001,0.123l0,0.124l0,0.123l0.001,0.123l0.002,0.123l0.003,0.123l0.003,0.123l0.005,0.122l0.005,0.122l0.005,0.122l0.007,0.122l0.007,0.121l0.008,0.121l0.009,0.121l0.01,0.121l0.01,0.121l0.011,0.12l0.012,0.12l0.013,0.12l0.013,0.12l0.014,0.119l0.015,0.119l0.015,0.119l0.017,0.119l0.017,0.118l0.017,0.119l0.019,0.117l0.019,0.118l0.02,0.118l0.02,0.117l0.022,0.117l0.022,0.116l0.022,0.117l0.024,0.116l0.024,0.116l0.025,0.116l0.025,0.115l0.026,0.115l0.027,0.115l0.028,0.114l0.028,0.115l0.029,0.114l0.03,0.114l0.03,0.113l0.031,0.113l0.032,0.113l0.032,0.113l0.033,0.112l0.034,0.112l0.035,0.112l0.035,0.111l0.035,0.112l0.037,0.11l0.037,0.111l0.038,0.11l0.038,0.11l0.039,0.11l0.04,0.109l0.04,0.109l0.041,0.109l0.042,0.108l0.042,0.109l0.043,0.107l0.043,0.108l0.045,0.107l0.045,0.107l0.045,0.106l0.046,0.106l0.047,0.106l0.047,0.106l0.048,0.105l0.049,0.105l0.049,0.104l0.05,0.104l0.05,0.104l0.051,0.104l0.052,0.103l0.052,0.102l0.053,0.103l0.053,0.102l0.055,0.102l0.054,0.101l0.055,0.101l0.056,0.1l0.057,0.101l0.057,0.1l0.057,0.099l0.059,0.099l0.058,0.099l0.06,0.098l0.06,0.098l0.06,0.098l0.061,0.097l0.062,0.097l0.062,0.096l0.063,0.096l0.064,0.096l0.064,0.095l0.064,0.095l0.065,0.094l0.066,0.094l0.066,0.094l0.066,0.093l0.068,0.093l0.068,0.092l0.068,0.092l0.069,0.091l0.069,0.092l0.07,0.09l0.071,0.09l0.071,0.09l0.071,0.09l0.072,0.088l0.073,0.089l0.073,0.088l0.074,0.088l0.074,0.087l0.074,0.086l0.076,0.087l0.075,0.085l0.076,0.086l0.077,0.085l0.077,0.084l0.078,0.084l0.078,0.084l0.079,0.083l0.079,0.082l0.08,0.082l0.08,0.082l0.08,0.081l0.082,0.081l0.081,0.08l0.082,0.079l0.083,0.08l0.083,0.078l0.083,0.078l0.084,0.078l0.085,0.077l0.084,0.077l0.086,0.076l0.086,0.076l0.086,0.075l0.087,0.075l0.087,0.074l0.087,0.073l0.088,0.074l0.089,0.072l0.089,0.072l0.089,0.072l0.09,0.071l0.09,0.07l0.091,0.07l0.091,0.07l0.091,0.069l0.092,0.068l0.093,0.068l0.092,0.067l0.094,0.067l0.093,0.066l0.094,0.065l0.095,0.065l0.094,0.065l0.096,0.064l0.095,0.063l0.096,0.063l0.097,0.062l0.096,0.062l0.098,0.061l0.097,0.061l0.098,0.059l0.099,0.06l0.098,0.059l0.099,0.058l0.1,0.058l0.1,0.057l0.1,0.056l0.101,0.056l0.101,0.055l0.101,0.055l0.102,0.054l0.102,0.053l0.102,0.053l0.103,0.053l0.103,0.051l0.103,0.051l0.104,0.051l0.104,0.05l0.105,0.049l0.105,0.048l0.105,0.048l0.105,0.048l0.106,0.046l0.106,0.046l0.107,0.046l0.106,0.045l0.108,0.044l0.107,0.043l0.108,0.043l0.108,0.043l0.108,0.041l0.109,0.041l0.109,0.041l0.11,0.039l0.109,0.039l0.11,0.039l0.111,0.037l0.11,0.038l0.111,0.036l0.111,0.036l0.112,0.035l0.111,0.034l0.112,0.034l0.113,0.033l0.112,0.032l0.113,0.032l0.113,0.031l0.114,0.031l0.114,0.029l0.114,0.029l0.114,0.028l0.114,0.028l0.115,0.027l0.115,0.026l0.116,0.026l0.115,0.025l0.116,0.024l0.117,0.023l0.116,0.023l0.117,0.022l0.116,0.021l0.118,0.021l0.117,0.02l0.118,0.019l0.118,0.018l0.118,0.018l0.118,0.017l0.119,0.016l0.119,0.016l0.119,0.014l0.12,0.014l0.119,0.014l0.12,0.012l0.12,0.012l0.121,0.011l0.12,0.011l0.121,0.009l0.121,0.009l0.121,0.008l0.122,0.007l0.121,0.007l0.122,0.006l0.122,0.005l0.123,0.004l0.122,0.004l0.123,0.002l0.123,0.002l0.123,0.001l0.129,0.001l439.891,0l0.128,-0.001l0.123,-0.001l0.123,-0.002l0.123,-0.002l0.123,-0.004l0.122,-0.004l0.122,-0.005l0.122,-0.006l0.122,-0.007l0.121,-0.007l0.121,-0.008l0.121,-0.009l0.121,-0.009l0.121,-0.011l0.12,-0.011l0.12,-0.012l0.12,-0.012l0.12,-0.014l0.119,-0.014l0.119,-0.014l0.119,-0.016l0.119,-0.016l0.118,-0.017l0.119,-0.018l0.118,-0.018l0.117,-0.019l0.118,-0.02l0.117,-0.021l0.117,-0.021l0.116,-0.022l0.117,-0.023l0.116,-0.023l0.116,-0.024l0.116,-0.025l0.115,-0.026l0.115,-0.026l0.115,-0.027l0.115,-0.028l0.114,-0.028l0.114,-0.029l0.114,-0.029l0.113,-0.031l0.113,-0.031l0.113,-0.032l0.113,-0.032l0.112,-0.033l0.112,-0.034l0.112,-0.034l0.111,-0.035l0.112,-0.036l0.11,-0.036l0.111,-0.038l0.11,-0.037l0.11,-0.039l0.11,-0.039l0.109,-0.039l0.109,-0.041l0.109,-0.041l0.108,-0.041l0.109,-0.043l0.107,-0.043l0.108,-0.043l0.107,-0.044l0.107,-0.045l0.106,-0.046l0.107,-0.046l0.105,-0.046l0.106,-0.048l0.105,-0.048l0.105,-0.048l0.104,-0.05l0.104,-0.049l0.104,-0.051l0.104,-0.051l0.103,-0.051l0.102,-0.053l0.103,-0.053l0.102,-0.053l0.102,-0.054l0.101,-0.055l0.101,-0.055l0.1,-0.056l0.101,-0.056l0.1,-0.057l0.099,-0.058l0.099,-0.058l0.099,-0.059l0.098,-0.059l0.098,-0.061l0.098,-0.06l0.097,-0.061l0.097,-0.062l0.096,-0.062l0.096,-0.063l0.096,-0.063l0.095,-0.064l0.095,-0.065l0.094,-0.065l0.094,-0.065l0.094,-0.066l0.093,-0.067l0.093,-0.067l0.092,-0.068l0.092,-0.068l0.091,-0.069l0.092,-0.07l0.09,-0.07l0.09,-0.07l0.09,-0.071l0.09,-0.072l0.088,-0.072l0.089,-0.073l0.088,-0.073l0.088,-0.073l0.087,-0.074l0.086,-0.075l0.087,-0.075l0.085,-0.076l0.086,-0.076l0.085,-0.077l0.084,-0.077l0.084,-0.078l0.084,-0.078l0.083,-0.078l0.082,-0.08l0.082,-0.079l0.082,-0.08l0.081,-0.081l0.081,-0.081l0.08,-0.082l0.079,-0.082l0.08,-0.082l0.079,-0.084l0.077,-0.083l0.078,-0.084l0.077,-0.084l0.077,-0.085l0.076,-0.086l0.076,-0.085l0.075,-0.086l0.075,-0.087l0.074,-0.087l0.073,-0.088l0.074,-0.088l0.072,-0.089l0.073,-0.089l0.071,-0.089l0.071,-0.089l0.07,-0.091l0.07,-0.09l0.07,-0.092l0.069,-0.091l0.068,-0.092l0.068,-0.092l0.067,-0.093l0.067,-0.093l0.066,-0.094l0.066,-0.094l0.064,-0.094l0.065,-0.095l0.064,-0.095l0.063,-0.096l0.063,-0.096l0.062,-0.096l0.062,-0.097l0.061,-0.097l0.061,-0.098l0.059,-0.098l0.06,-0.098l0.059,-0.099l0.058,-0.099l0.058,-0.1l0.057,-0.099l0.056,-0.1l0.056,-0.101l0.055,-0.101l0.055,-0.101l0.054,-0.102l0.054,-0.102l0.052,-0.103l0.053,-0.102l0.051,-0.103l0.051,-0.104l0.051,-0.104l0.05,-0.104l0.049,-0.104l0.048,-0.105l0.048,-0.105l0.048,-0.106l0.046,-0.106l0.047,-0.106l0.045,-0.106l0.045,-0.107l0.044,-0.107l0.043,-0.108l0.043,-0.107l0.043,-0.109l0.041,-0.108l0.041,-0.109l0.041,-0.109l0.039,-0.109l0.039,-0.11l0.039,-0.11l0.038,-0.11l0.037,-0.11l0.036,-0.111l0.036,-0.112l0.035,-0.111l0.034,-0.112l0.034,-0.112l0.033,-0.112l0.032,-0.113l0.032,-0.113l0.031,-0.113l0.031,-0.113l0.029,-0.114l0.029,-0.114l0.029,-0.115l0.027,-0.114l0.027,-0.115l0.026,-0.115l0.026,-0.115l0.025,-0.116l0.024,-0.116l0.023,-0.116l0.023,-0.117l0.022,-0.116l0.021,-0.117l0.021,-0.118l0.02,-0.117l0.019,-0.117l0.018,-0.118l0.018,-0.119l0.017,-0.118l0.016,-0.119l0.016,-0.119l0.014,-0.119l0.014,-0.119l0.014,-0.12l0.012,-0.12l0.012,-0.12l0.011,-0.12l0.011,-0.121l0.009,-0.121l0.009,-0.121l0.008,-0.121l0.007,-0.121l0.007,-0.122l0.006,-0.122l0.005,-0.122l0.004,-0.122l0.004,-0.123l0.002,-0.123l0.002,-0.123l0.001,-0.123l0.001,-0.123l-0.001,-0.124l-0.001,-0.123l-0.002,-0.123l-0.002,-0.123l-0.004,-0.123l-0.004,-0.122l-0.005,-0.122l-0.006,-0.122l-0.007,-0.122l-0.007,-0.121l-0.008,-0.121l-0.009,-0.121l-0.009,-0.121l-0.011,-0.121l-0.011,-0.12l-0.012,-0.12l-0.012,-0.12l-0.014,-0.12l-0.014,-0.119l-0.014,-0.119l-0.016,-0.119l-0.016,-0.119l-0.017,-0.118l-0.018,-0.118l-0.018,-0.119l-0.019,-0.117l-0.02,-0.117l-0.021,-0.118l-0.021,-0.117l-0.022,-0.116l-0.023,-0.117l-0.023,-0.116l-0.024,-0.116l-0.025,-0.116l-0.026,-0.115l-0.026,-0.115l-0.027,-0.115l-0.027,-0.114l-0.029,-0.115l-0.029,-0.114l-0.029,-0.114l-0.031,-0.113l-0.031,-0.113l-0.032,-0.113l-0.032,-0.113l-0.033,-0.112l-0.034,-0.112l-0.034,-0.112l-0.035,-0.111l-0.036,-0.112l-0.036,-0.111l-0.037,-0.11l-0.038,-0.11l-0.039,-0.11l-0.039,-0.11l-0.039,-0.109l-0.041,-0.109l-0.041,-0.109l-0.041,-0.108l-0.043,-0.108l-0.043,-0.109l-0.043,-0.107l-0.044,-0.107l-0.045,-0.107l-0.045,-0.106l-0.047,-0.106l-0.046,-0.106l-0.048,-0.106l-0.048,-0.105l-0.048,-0.105l-0.049,-0.104l-0.05,-0.104l-0.051,-0.104l-0.051,-0.104l-0.051,-0.102l-0.053,-0.103l-0.052,-0.103l-0.054,-0.102l-0.054,-0.102l-0.055,-0.101l-0.055,-0.101l-0.056,-0.101l-0.056,-0.1l-0.057,-0.099l-0.058,-0.1l-0.058,-0.099l-0.059,-0.099l-0.059,-0.098l-0.06,-0.098l-0.061,-0.098l-0.061,-0.097l-0.062,-0.097l-0.062,-0.096l-0.063,-0.096l-0.063,-0.096l-0.064,-0.095l-0.064,-0.095l-0.065,-0.094l-0.066,-0.094l-0.066,-0.094l-0.067,-0.093l-0.067,-0.093l-0.068,-0.092l-0.068,-0.092l-0.069,-0.091l-0.07,-0.092l-0.069,-0.09l-0.071,-0.09l-0.071,-0.09l-0.071,-0.089l-0.073,-0.089l-0.072,-0.089l-0.073,-0.088l-0.074,-0.088l-0.074,-0.087l-0.075,-0.086l-0.075,-0.087l-0.076,-0.085l-0.076,-0.086l-0.077,-0.085l-0.077,-0.084l-0.077,-0.084l-0.078,-0.083l-0.079,-0.084l-0.08,-0.082l-0.079,-0.082l-0.08,-0.082l-0.081,-0.081l-0.081,-0.081l-0.082,-0.08l-0.082,-0.079l-0.082,-0.08l-0.083,-0.078l-0.084,-0.078l-0.084,-0.078l-0.084,-0.077l-0.085,-0.077l-0.085,-0.076l-0.086,-0.076l-0.087,-0.075l-0.086,-0.075l-0.087,-0.074l-0.088,-0.073l-0.088,-0.073l-0.089,-0.073l-0.088,-0.072l-0.09,-0.072l-0.09,-0.071l-0.09,-0.07l-0.09,-0.07l-0.092,-0.07l-0.091,-0.069l-0.092,-0.068l-0.092,-0.068l-0.093,-0.067l-0.093,-0.067l-0.094,-0.066l-0.094,-0.065l-0.094,-0.066l-0.095,-0.064l-0.095,-0.064l-0.096,-0.063l-0.096,-0.063l-0.096,-0.062l-0.097,-0.062l-0.097,-0.061l-0.098,-0.06l-0.098,-0.06l-0.098,-0.06l-0.099,-0.059l-0.099,-0.058l-0.099,-0.058l-0.1,-0.057l-0.101,-0.056l-0.1,-0.056l-0.101,-0.055l-0.101,-0.055l-0.102,-0.054l-0.102,-0.053l-0.103,-0.053l-0.102,-0.053l-0.103,-0.051l-0.104,-0.051l-0.104,-0.051l-0.104,-0.049l-0.104,-0.05l-0.105,-0.048l-0.105,-0.048l-0.106,-0.048l-0.105,-0.046l-0.107,-0.046l-0.106,-0.046l-0.107,-0.045l-0.107,-0.044l-0.108,-0.043l-0.107,-0.043l-0.109,-0.043l-0.108,-0.041l-0.109,-0.041l-0.109,-0.041l-0.109,-0.039l-0.11,-0.039l-0.11,-0.039l-0.11,-0.037l-0.111,-0.038l-0.11,-0.036l-0.112,-0.036l-0.111,-0.035l-0.112,-0.034l-0.112,-0.034l-0.112,-0.033l-0.113,-0.032l-0.113,-0.032l-0.113,-0.031l-0.113,-0.031l-0.114,-0.029l-0.114,-0.029l-0.114,-0.028l-0.115,-0.028l-0.115,-0.027l-0.115,-0.026l-0.115,-0.026l-0.116,-0.024l-0.116,-0.025l-0.116,-0.023l-0.117,-0.023l-0.116,-0.022l-0.117,-0.021l-0.117,-0.021l-0.118,-0.019l-0.117,-0.02l-0.118,-0.018l-0.119,-0.018l-0.118,-0.017l-0.119,-0.016l-0.119,-0.016l-0.119,-0.014l-0.119,-0.014l-0.12,-0.014l-0.12,-0.012l-0.12,-0.012l-0.12,-0.011l-0.121,-0.01l-0.121,-0.01l-0.121,-0.009l-0.121,-0.008l-0.121,-0.007l-0.122,-0.007l-0.122,-0.006l-0.122,-0.005l-0.122,-0.004l-0.123,-0.003l-0.123,-0.003l-0.123,-0.002l-0.123,-0.001l-0.128,-0.001l-439.891,0Z" style="fill:url(#_Linear2);"/><path d="M543.994,273.781l0.003,0.095l0.002,0.095l0.001,0.095l-0.001,0.096l-0.002,0.095l-0.003,0.095l-0.004,0.095l-0.006,0.094l-0.006,0.095l-0.008,0.094l-0.009,0.093l-0.01,0.094l-0.012,0.092l-0.012,0.093l-0.014,0.093l-0.015,0.092l-0.016,0.091l-0.017,0.092l-0.018,0.091l-0.019,0.09l-0.021,0.09l-0.021,0.09l-0.023,0.089l-0.024,0.089l-0.024,0.088l-0.026,0.089l-0.027,0.087l-0.028,0.087l-0.029,0.087l-0.03,0.086l-0.031,0.086l-0.032,0.085l-0.033,0.084l-0.034,0.084l-0.035,0.084l-0.036,0.083l-0.037,0.083l-0.038,0.082l-0.039,0.081l-0.04,0.081l-0.041,0.081l-0.041,0.079l-0.043,0.08l-0.044,0.079l-0.044,0.077l-0.045,0.078l-0.047,0.077l-0.047,0.076l-0.048,0.076l-0.049,0.075l-0.05,0.074l-0.05,0.074l-0.052,0.073l-0.052,0.072l-0.053,0.072l-0.055,0.072l-0.054,0.07l-0.056,0.07l-0.056,0.069l-0.057,0.068l-0.059,0.068l-0.058,0.067l-0.06,0.066l-0.06,0.066l-0.061,0.064l-0.062,0.065l-0.063,0.063l-0.063,0.063l-0.064,0.062l-0.066,0.061l-0.065,0.06l-0.066,0.06l-0.067,0.058l-0.068,0.059l-0.068,0.057l-0.069,0.056l-0.07,0.056l-0.07,0.055l-0.072,0.054l-0.072,0.053l-0.072,0.052l-0.073,0.052l-0.074,0.05l-0.074,0.05l-0.075,0.049l-0.076,0.048l-0.076,0.047l-0.077,0.046l-0.078,0.046l-0.077,0.044l-0.079,0.044l-0.08,0.043l-0.079,0.041l-0.081,0.041l-0.08,0.04l-0.082,0.039l-0.082,0.038l-0.083,0.037l-0.083,0.036l-0.083,0.035l-0.085,0.034l-0.084,0.033l-0.085,0.032l-0.086,0.031l-0.086,0.03l-0.087,0.029l-0.087,0.028l-0.087,0.027l-0.089,0.026l-0.088,0.024l-0.089,0.024l-0.089,0.023l-0.09,0.021l-0.09,0.021l-0.09,0.019l-0.091,0.018l-0.092,0.017l-0.091,0.016l-0.092,0.015l-0.093,0.014l-0.092,0.012l-0.093,0.012l-0.094,0.01l-0.093,0.009l-0.094,0.008l-0.094,0.006l-0.095,0.006l-0.095,0.004l-0.095,0.003l-0.095,0.002l-0.096,0l-0.095,0l-0.095,-0.002l-0.095,-0.003l-0.095,-0.004l-0.095,-0.006l-0.094,-0.006l-0.094,-0.008l-0.094,-0.009l-0.093,-0.01l-0.093,-0.012l-0.092,-0.012l-0.093,-0.014l-0.092,-0.015l-0.092,-0.016l-0.091,-0.017l-0.091,-0.018l-0.09,-0.019l-0.09,-0.021l-0.09,-0.021l-0.09,-0.023l-0.088,-0.024l-0.089,-0.024l-0.088,-0.026l-0.087,-0.027l-0.087,-0.028l-0.087,-0.029l-0.086,-0.03l-0.086,-0.031l-0.085,-0.032l-0.085,-0.033l-0.084,-0.034l-0.083,-0.035l-0.083,-0.036l-0.083,-0.037l-0.082,-0.038l-0.082,-0.039l-0.081,-0.04l-0.08,-0.041l-0.08,-0.041l-0.079,-0.043l-0.079,-0.044l-0.078,-0.044l-0.077,-0.046l-0.077,-0.046l-0.076,-0.047l-0.076,-0.048l-0.075,-0.049l-0.074,-0.05l-0.074,-0.05l-0.073,-0.052l-0.073,-0.052l-0.071,-0.053l-0.072,-0.054l-0.07,-0.055l-0.07,-0.056l-0.069,-0.056l-0.068,-0.057l-0.068,-0.059l-0.067,-0.058l-0.066,-0.06l-0.066,-0.06l-0.065,-0.061l-0.064,-0.062l-0.063,-0.063l-0.063,-0.063l-0.062,-0.065l-0.061,-0.064l-0.06,-0.066l-0.06,-0.066l-0.059,-0.067l-0.058,-0.068l-0.057,-0.068l-0.057,-0.07l-0.055,-0.069l-0.055,-0.07l-0.054,-0.072l-0.053,-0.072l-0.052,-0.072l-0.052,-0.073l-0.05,-0.074l-0.05,-0.074l-0.049,-0.075l-0.048,-0.076l-0.047,-0.076l-0.047,-0.077l-0.045,-0.078l-0.044,-0.077l-0.044,-0.079l-0.043,-0.08l-0.042,-0.079l-0.04,-0.081l-0.04,-0.081l-0.039,-0.081l-0.038,-0.082l-0.037,-0.083l-0.036,-0.083l-0.035,-0.084l-0.034,-0.084l-0.033,-0.084l-0.032,-0.085l-0.031,-0.086l-0.03,-0.086l-0.029,-0.087l-0.028,-0.087l-0.027,-0.087l-0.026,-0.089l-0.025,-0.088l-0.023,-0.089l-0.023,-0.089l-0.021,-0.09l-0.021,-0.09l-0.019,-0.09l-0.018,-0.091l-0.017,-0.092l-0.016,-0.091l-0.015,-0.092l-0.014,-0.092l-0.012,-0.094l-0.012,-0.093l-0.01,-0.093l-0.009,-0.093l-0.008,-0.094l-0.007,-0.095l-0.005,-0.094l-0.004,-0.095l-0.003,-0.095l-0.002,-0.095l-0.001,-0.096l0.001,-0.095l0.002,-0.095l0.003,-0.095l0.004,-0.085l3.082,0.137l-0.003,0.066l-0.001,0.056l-0.001,0.056l-0.001,0.055l0.001,0.056l0.001,0.056l0.001,0.055l0.003,0.056l0.003,0.055l0.004,0.054l0.005,0.055l0.005,0.054l0.006,0.055l0.006,0.054l0.008,0.053l0.008,0.054l0.008,0.054l0.009,0.053l0.01,0.053l0.011,0.052l0.011,0.053l0.012,0.052l0.012,0.052l0.014,0.052l0.013,0.052l0.015,0.051l0.015,0.051l0.015,0.051l0.017,0.051l0.016,0.05l0.018,0.05l0.018,0.05l0.019,0.049l0.019,0.05l0.02,0.049l0.02,0.049l0.021,0.048l0.022,0.049l0.022,0.047l0.023,0.048l0.023,0.047l0.024,0.047l0.024,0.047l0.025,0.046l0.026,0.046l0.026,0.047l0.027,0.045l0.027,0.045l0.027,0.045l0.029,0.044l0.029,0.045l0.029,0.043l0.03,0.044l0.03,0.043l0.031,0.043l0.031,0.042l0.032,0.042l0.032,0.042l0.033,0.041l0.033,0.04l0.034,0.041l0.034,0.04l0.035,0.039l0.036,0.04l0.035,0.038l0.036,0.039l0.037,0.037l0.037,0.038l0.037,0.037l0.038,0.037l0.038,0.035l0.039,0.036l0.04,0.036l0.039,0.034l0.04,0.034l0.04,0.034l0.041,0.034l0.041,0.032l0.042,0.033l0.042,0.032l0.042,0.031l0.043,0.031l0.043,0.03l0.043,0.03l0.044,0.029l0.044,0.029l0.045,0.028l0.045,0.028l0.045,0.027l0.045,0.027l0.046,0.026l0.046,0.025l0.047,0.025l0.046,0.025l0.047,0.024l0.048,0.023l0.047,0.023l0.048,0.022l0.049,0.022l0.048,0.021l0.049,0.02l0.049,0.02l0.049,0.019l0.05,0.019l0.05,0.018l0.05,0.017l0.05,0.017l0.051,0.016l0.051,0.016l0.051,0.015l0.051,0.014l0.052,0.014l0.051,0.013l0.053,0.013l0.052,0.012l0.052,0.011l0.053,0.01l0.053,0.01l0.053,0.01l0.054,0.008l0.053,0.008l0.054,0.007l0.054,0.007l0.054,0.006l0.055,0.005l0.054,0.005l0.055,0.004l0.055,0.003l0.055,0.002l0.056,0.002l0.055,0.001l0.056,0l0.056,0l0.056,-0.001l0.055,-0.002l0.056,-0.002l0.055,-0.003l0.055,-0.004l0.054,-0.005l0.054,-0.005l0.055,-0.006l0.054,-0.007l0.054,-0.007l0.053,-0.008l0.054,-0.008l0.053,-0.01l0.053,-0.01l0.052,-0.01l0.053,-0.011l0.052,-0.012l0.052,-0.013l0.052,-0.013l0.052,-0.014l0.051,-0.014l0.051,-0.015l0.051,-0.016l0.051,-0.016l0.05,-0.017l0.05,-0.017l0.05,-0.018l0.05,-0.019l0.049,-0.019l0.049,-0.02l0.049,-0.02l0.048,-0.021l0.049,-0.022l0.047,-0.022l0.048,-0.023l0.047,-0.023l0.047,-0.024l0.047,-0.025l0.047,-0.025l0.046,-0.025l0.046,-0.026l0.045,-0.027l0.045,-0.027l0.045,-0.028l0.044,-0.028l0.045,-0.029l0.044,-0.029l0.043,-0.03l0.043,-0.03l0.043,-0.031l0.042,-0.031l0.042,-0.032l0.041,-0.033l0.042,-0.032l0.041,-0.034l0.04,-0.034l0.04,-0.034l0.039,-0.034l0.039,-0.036l0.04,-0.036l0.038,-0.035l0.037,-0.037l0.038,-0.037l0.037,-0.038l0.036,-0.037l0.037,-0.039l0.035,-0.038l0.035,-0.04l0.035,-0.039l0.034,-0.04l0.034,-0.041l0.034,-0.04l0.032,-0.041l0.033,-0.042l0.032,-0.042l0.031,-0.042l0.031,-0.043l0.03,-0.043l0.03,-0.044l0.029,-0.043l0.029,-0.045l0.028,-0.044l0.028,-0.045l0.027,-0.045l0.027,-0.045l0.026,-0.047l0.026,-0.046l0.024,-0.046l0.025,-0.047l0.024,-0.047l0.023,-0.047l0.023,-0.048l0.022,-0.047l0.022,-0.049l0.021,-0.048l0.02,-0.049l0.02,-0.049l0.019,-0.05l0.019,-0.049l0.018,-0.05l0.017,-0.05l0.017,-0.05l0.016,-0.051l0.016,-0.051l0.015,-0.051l0.014,-0.051l0.014,-0.052l0.013,-0.052l0.013,-0.052l0.012,-0.052l0.011,-0.053l0.01,-0.052l0.01,-0.053l0.01,-0.053l0.008,-0.054l0.008,-0.053l0.007,-0.054l0.007,-0.054l0.006,-0.055l0.005,-0.054l0.005,-0.055l0.004,-0.054l0.003,-0.055l0.002,-0.056l0.002,-0.055l0.001,-0.056l0.001,-0.056l-0.001,-0.055l-0.001,-0.056l-0.002,-0.056l-0.003,-0.066l3.083,-0.137l0.004,0.085Z" style="fill:#d0d0d0;"/><rect x="535.181" y="279.659" width="3.086" height="6.048" style="fill:#d0d0d0;"/><path d="M539.749,265.525c0,-1.669 -1.355,-3.024 -3.025,-3.024c-1.669,0 -3.024,1.355 -3.024,3.024l0,8.086c0,1.669 1.355,3.024 3.024,3.024c1.67,0 3.025,-1.355 3.025,-3.024l0,-8.086Z" style="fill:#d0d0d0;"/><path d="M99.055,260.187l0.133,0.003l0.132,0.004l0.132,0.006l0.132,0.008l0.131,0.009l0.131,0.011l0.13,0.013l0.13,0.014l0.13,0.016l0.129,0.017l0.128,0.019l0.129,0.021l0.127,0.022l0.127,0.024l0.127,0.025l0.126,0.027l0.125,0.028l0.125,0.03l0.125,0.032l0.123,0.033l0.123,0.034l0.123,0.036l0.122,0.038l0.121,0.039l0.121,0.04l0.12,0.042l0.119,0.043l0.119,0.044l0.117,0.046l0.118,0.048l0.116,0.049l0.116,0.05l0.115,0.051l0.114,0.053l0.113,0.054l0.113,0.056l0.112,0.057l0.111,0.058l0.11,0.059l0.11,0.061l0.109,0.062l0.107,0.063l0.107,0.064l0.107,0.066l0.105,0.067l0.104,0.068l0.104,0.069l0.102,0.071l0.102,0.071l0.101,0.073l0.1,0.074l0.099,0.075l0.098,0.077l0.097,0.077l0.096,0.078l0.095,0.08l0.095,0.081l0.093,0.082l0.092,0.083l0.091,0.084l0.091,0.085l0.089,0.086l0.088,0.087l0.087,0.088l0.086,0.09l0.086,0.09l0.084,0.091l0.083,0.092l0.081,0.094l0.081,0.094l0.08,0.095l0.078,0.096l0.078,0.097l0.076,0.098l0.075,0.099l0.074,0.1l0.073,0.101l0.072,0.102l0.07,0.103l0.069,0.103l0.069,0.105l0.066,0.105l0.066,0.106l0.065,0.107l0.063,0.108l0.062,0.109l0.06,0.109l0.06,0.11l0.058,0.111l0.057,0.112l0.055,0.113l0.054,0.113l0.053,0.115l0.052,0.115l0.05,0.115l0.048,0.117l0.048,0.117l0.046,0.118l0.044,0.118l0.044,0.12l0.041,0.12l0.041,0.12l0.039,0.121l0.037,0.122l0.036,0.123l0.034,0.123l0.033,0.124l0.032,0.124l0.03,0.125l0.028,0.125l0.027,0.126l0.026,0.127l0.023,0.127l0.023,0.128l0.02,0.128l0.019,0.128l0.018,0.13l0.016,0.129l0.014,0.13l0.012,0.13l0.011,0.131l0.01,0.132l0.007,0.131l0.006,0.132l0.004,0.132l0.003,0.133l0.001,0.13l-0.001,0.077l0,0.121l-0.003,0.134l-0.004,0.133l-0.006,0.133l-0.008,0.132l-0.009,0.132l-0.011,0.132l-0.013,0.131l-0.014,0.131l-0.016,0.13l-0.018,0.13l-0.019,0.129l-0.02,0.129l-0.023,0.128l-0.024,0.128l-0.025,0.128l-0.027,0.126l-0.029,0.127l-0.03,0.125l-0.032,0.125l-0.033,0.125l-0.035,0.124l-0.036,0.123l-0.037,0.123l-0.04,0.122l-0.04,0.121l-0.042,0.121l-0.044,0.12l-0.044,0.119l-0.047,0.118l-0.047,0.118l-0.049,0.117l-0.051,0.117l-0.052,0.115l-0.053,0.115l-0.054,0.114l-0.056,0.114l-0.057,0.112l-0.059,0.112l-0.059,0.111l-0.061,0.11l-0.063,0.11l-0.063,0.108l-0.065,0.108l-0.066,0.106l-0.067,0.106l-0.069,0.105l-0.07,0.105l-0.071,0.103l-0.072,0.102l-0.073,0.102l-0.074,0.1l-0.076,0.1l-0.077,0.098l-0.078,0.098l-0.079,0.097l-0.08,0.096l-0.081,0.094l-0.082,0.094l-0.084,0.093l-0.084,0.092l-0.086,0.091l-0.087,0.089l-0.087,0.089l-0.089,0.088l-0.09,0.086l-0.091,0.086l-0.091,0.085l-0.093,0.083l-0.094,0.082l-0.095,0.082l-0.096,0.08l-0.096,0.079l-0.098,0.078l-0.099,0.076l-0.099,0.076l-0.101,0.074l-0.101,0.074l-0.103,0.072l-0.103,0.071l-0.104,0.069l-0.105,0.069l-0.106,0.067l-0.107,0.066l-0.107,0.065l-0.109,0.064l-0.109,0.062l-0.11,0.061l-0.111,0.06l-0.112,0.058l-0.112,0.057l-0.114,0.056l-0.114,0.055l-0.115,0.053l-0.116,0.051l-0.116,0.051l-0.117,0.049l-0.118,0.048l-0.118,0.046l-0.12,0.045l-0.12,0.043l-0.121,0.042l-0.121,0.041l-0.122,0.039l-0.123,0.038l-0.123,0.036l-0.123,0.034l-0.125,0.034l-0.125,0.031l-0.126,0.03l-0.126,0.029l-0.127,0.027l-0.127,0.026l-0.128,0.024l-0.128,0.022l-0.129,0.021l-0.129,0.019l-0.131,0.017l-0.13,0.016l-0.13,0.015l-0.131,0.012l-0.132,0.011l-0.132,0.01l-0.133,0.007l-0.132,0.006l-0.133,0.004l-0.134,0.003l-0.134,0.001l-0.134,-0.001l-0.133,-0.003l-0.133,-0.004l-0.133,-0.006l-0.132,-0.007l-0.132,-0.01l-0.132,-0.011l-0.131,-0.012l-0.13,-0.015l-0.131,-0.016l-0.13,-0.017l-0.129,-0.019l-0.129,-0.021l-0.128,-0.022l-0.128,-0.024l-0.128,-0.026l-0.126,-0.027l-0.126,-0.029l-0.126,-0.03l-0.125,-0.031l-0.125,-0.034l-0.124,-0.034l-0.123,-0.036l-0.122,-0.038l-0.122,-0.039l-0.122,-0.041l-0.121,-0.042l-0.119,-0.043l-0.119,-0.045l-0.119,-0.046l-0.118,-0.048l-0.117,-0.049l-0.116,-0.051l-0.116,-0.051l-0.115,-0.053l-0.114,-0.055l-0.114,-0.056l-0.112,-0.057l-0.112,-0.058l-0.111,-0.06l-0.11,-0.061l-0.109,-0.062l-0.109,-0.064l-0.107,-0.065l-0.107,-0.066l-0.106,-0.067l-0.105,-0.069l-0.104,-0.069l-0.104,-0.071l-0.102,-0.072l-0.101,-0.074l-0.101,-0.074l-0.1,-0.076l-0.098,-0.076l-0.098,-0.078l-0.097,-0.079l-0.095,-0.08l-0.095,-0.082l-0.094,-0.082l-0.093,-0.083l-0.092,-0.085l-0.09,-0.086l-0.09,-0.086l-0.089,-0.088l-0.088,-0.089l-0.086,-0.089l-0.086,-0.091l-0.084,-0.092l-0.084,-0.093l-0.082,-0.094l-0.081,-0.094l-0.08,-0.096l-0.08,-0.097l-0.077,-0.098l-0.077,-0.098l-0.076,-0.1l-0.074,-0.1l-0.074,-0.102l-0.072,-0.102l-0.071,-0.103l-0.069,-0.105l-0.069,-0.105l-0.067,-0.106l-0.066,-0.106l-0.065,-0.108l-0.063,-0.108l-0.063,-0.11l-0.061,-0.11l-0.059,-0.111l-0.059,-0.112l-0.057,-0.112l-0.056,-0.114l-0.054,-0.114l-0.053,-0.115l-0.052,-0.115l-0.051,-0.117l-0.049,-0.117l-0.047,-0.118l-0.047,-0.118l-0.045,-0.12l-0.043,-0.119l-0.042,-0.121l-0.041,-0.122l-0.039,-0.121l-0.037,-0.123l-0.037,-0.123l-0.034,-0.124l-0.033,-0.125l-0.032,-0.125l-0.03,-0.125l-0.029,-0.127l-0.027,-0.126l-0.025,-0.128l-0.024,-0.128l-0.023,-0.128l-0.02,-0.129l-0.02,-0.129l-0.017,-0.13l-0.016,-0.13l-0.014,-0.131l-0.013,-0.131l-0.011,-0.132l-0.009,-0.132l-0.008,-0.132l-0.006,-0.133l-0.004,-0.133l-0.003,-0.133l-0.001,-0.134l0.001,-0.134l0.003,-0.133l0.004,-0.133l0.006,-0.133l0.008,-0.133l0.009,-0.132l0.011,-0.131l0.013,-0.131l0.014,-0.131l0.016,-0.13l0.017,-0.13l0.02,-0.13l0.02,-0.128l0.023,-0.129l0.024,-0.128l0.025,-0.127l0.027,-0.127l0.029,-0.126l0.03,-0.126l0.032,-0.125l0.033,-0.124l0.034,-0.124l0.037,-0.123l0.037,-0.123l0.039,-0.122l0.041,-0.121l0.042,-0.121l0.043,-0.12l0.045,-0.119l0.047,-0.119l0.047,-0.118l0.049,-0.117l0.051,-0.116l0.052,-0.116l0.053,-0.115l0.054,-0.114l0.056,-0.113l0.057,-0.113l0.059,-0.112l0.059,-0.11l0.061,-0.111l0.063,-0.109l0.063,-0.108l0.065,-0.108l0.066,-0.107l0.067,-0.106l0.069,-0.105l0.069,-0.104l0.071,-0.103l0.072,-0.103l0.074,-0.101l0.074,-0.1l0.076,-0.1l0.077,-0.099l0.077,-0.097l0.08,-0.097l0.08,-0.096l0.081,-0.095l0.082,-0.094l0.084,-0.093l0.084,-0.091l0.086,-0.091l0.086,-0.09l0.088,-0.088l0.089,-0.088l0.09,-0.087l0.091,-0.086l0.091,-0.084l0.093,-0.083l0.094,-0.083l0.095,-0.081l0.095,-0.08l0.097,-0.079l0.098,-0.078l0.099,-0.077l0.099,-0.075l0.101,-0.075l0.101,-0.073l0.102,-0.072l0.104,-0.071l0.104,-0.07l0.105,-0.068l0.106,-0.068l0.107,-0.066l0.107,-0.065l0.109,-0.063l0.109,-0.062l0.11,-0.061l0.111,-0.06l0.112,-0.059l0.113,-0.057l0.113,-0.055l0.114,-0.055l0.115,-0.053l0.116,-0.052l0.116,-0.05l0.117,-0.049l0.118,-0.048l0.119,-0.046l0.119,-0.045l0.12,-0.044l0.12,-0.042l0.122,-0.04l0.122,-0.039l0.122,-0.038l0.124,-0.036l0.123,-0.035l0.125,-0.033l0.125,-0.032l0.125,-0.03l0.127,-0.029l0.127,-0.027l0.127,-0.025l0.128,-0.024l0.128,-0.022l0.129,-0.021l0.13,-0.019l0.129,-0.018l0.13,-0.016l0.131,-0.014l0.131,-0.013l0.132,-0.011l0.132,-0.009l0.133,-0.008l0.132,-0.006l0.133,-0.004l0.134,-0.002l0.126,-0.001l0.02,0l0.054,0l0.128,0Zm-0.176,4.629l-0.011,0l-0.082,0l-0.074,0.002l-0.073,0.002l-0.074,0.003l-0.073,0.004l-0.073,0.006l-0.073,0.006l-0.072,0.007l-0.072,0.008l-0.072,0.008l-0.072,0.01l-0.071,0.011l-0.07,0.011l-0.071,0.012l-0.071,0.013l-0.07,0.015l-0.07,0.014l-0.069,0.016l-0.069,0.017l-0.069,0.017l-0.068,0.018l-0.069,0.02l-0.068,0.019l-0.067,0.021l-0.068,0.022l-0.066,0.022l-0.067,0.023l-0.066,0.024l-0.066,0.025l-0.066,0.026l-0.065,0.026l-0.065,0.027l-0.064,0.028l-0.065,0.029l-0.063,0.029l-0.064,0.031l-0.063,0.031l-0.062,0.031l-0.062,0.033l-0.062,0.033l-0.061,0.034l-0.062,0.035l-0.06,0.035l-0.06,0.037l-0.06,0.036l-0.059,0.038l-0.058,0.038l-0.059,0.039l-0.057,0.04l-0.058,0.04l-0.057,0.041l-0.056,0.042l-0.056,0.042l-0.055,0.044l-0.055,0.043l-0.054,0.044l-0.054,0.045l-0.053,0.046l-0.053,0.046l-0.052,0.047l-0.052,0.048l-0.05,0.048l-0.051,0.048l-0.05,0.05l-0.049,0.049l-0.049,0.051l-0.048,0.051l-0.047,0.052l-0.047,0.052l-0.046,0.052l-0.046,0.054l-0.045,0.053l-0.044,0.054l-0.044,0.055l-0.043,0.056l-0.042,0.055l-0.042,0.057l-0.041,0.057l-0.04,0.057l-0.04,0.058l-0.039,0.058l-0.038,0.059l-0.038,0.059l-0.037,0.059l-0.036,0.06l-0.035,0.061l-0.035,0.061l-0.034,0.061l-0.033,0.062l-0.033,0.062l-0.032,0.063l-0.031,0.063l-0.03,0.063l-0.029,0.064l-0.029,0.064l-0.028,0.064l-0.027,0.065l-0.027,0.066l-0.025,0.065l-0.025,0.066l-0.024,0.066l-0.023,0.067l-0.023,0.067l-0.021,0.067l-0.021,0.068l-0.02,0.068l-0.019,0.068l-0.018,0.068l-0.018,0.069l-0.016,0.069l-0.016,0.07l-0.015,0.07l-0.014,0.07l-0.013,0.07l-0.012,0.071l-0.012,0.071l-0.01,0.071l-0.01,0.071l-0.009,0.072l-0.008,0.072l-0.007,0.073l-0.006,0.072l-0.005,0.073l-0.004,0.073l-0.003,0.074l-0.003,0.074l-0.001,0.074l-0.001,0.074l0.001,0.074l0.001,0.074l0.003,0.074l0.003,0.073l0.004,0.073l0.005,0.073l0.006,0.073l0.007,0.072l0.008,0.072l0.009,0.072l0.01,0.072l0.01,0.071l0.012,0.071l0.012,0.07l0.013,0.071l0.014,0.07l0.015,0.07l0.016,0.069l0.016,0.069l0.018,0.069l0.018,0.069l0.019,0.068l0.02,0.068l0.021,0.067l0.021,0.068l0.023,0.067l0.023,0.066l0.024,0.067l0.025,0.065l0.025,0.066l0.027,0.065l0.027,0.065l0.028,0.065l0.029,0.064l0.029,0.064l0.03,0.063l0.031,0.063l0.032,0.062l0.033,0.063l0.033,0.061l0.034,0.062l0.035,0.061l0.035,0.06l0.036,0.06l0.037,0.06l0.038,0.059l0.038,0.059l0.039,0.058l0.04,0.058l0.04,0.057l0.041,0.057l0.042,0.056l0.042,0.056l0.043,0.055l0.044,0.055l0.044,0.054l0.045,0.054l0.046,0.053l0.046,0.053l0.047,0.052l0.047,0.052l0.048,0.051l0.049,0.05l0.049,0.05l0.05,0.049l0.051,0.049l0.051,0.048l0.051,0.047l0.052,0.047l0.053,0.046l0.053,0.046l0.054,0.045l0.054,0.044l0.055,0.044l0.055,0.043l0.056,0.043l0.056,0.041l0.057,0.041l0.057,0.041l0.058,0.039l0.059,0.039l0.058,0.039l0.059,0.037l0.06,0.037l0.06,0.036l0.061,0.036l0.06,0.034l0.062,0.034l0.062,0.034l0.062,0.032l0.062,0.032l0.063,0.031l0.064,0.03l0.063,0.03l0.065,0.028l0.064,0.028l0.065,0.027l0.065,0.027l0.066,0.025l0.066,0.025l0.066,0.024l0.066,0.023l0.067,0.023l0.068,0.021l0.067,0.021l0.068,0.02l0.069,0.019l0.068,0.018l0.069,0.018l0.069,0.016l0.07,0.016l0.069,0.015l0.07,0.014l0.071,0.013l0.07,0.013l0.071,0.011l0.072,0.011l0.071,0.009l0.072,0.009l0.072,0.008l0.072,0.007l0.073,0.006l0.073,0.005l0.073,0.004l0.073,0.004l0.074,0.002l0.074,0.001l0.074,0.001l0.075,-0.001l0.074,-0.001l0.073,-0.002l0.074,-0.004l0.073,-0.004l0.073,-0.005l0.072,-0.006l0.073,-0.007l0.072,-0.008l0.072,-0.009l0.071,-0.009l0.071,-0.011l0.072,-0.011l0.07,-0.013l0.07,-0.013l0.07,-0.014l0.07,-0.015l0.07,-0.016l0.069,-0.016l0.069,-0.018l0.068,-0.018l0.068,-0.019l0.069,-0.02l0.067,-0.021l0.067,-0.021l0.067,-0.023l0.067,-0.023l0.066,-0.024l0.066,-0.025l0.066,-0.025l0.065,-0.027l0.065,-0.027l0.064,-0.028l0.064,-0.028l0.064,-0.03l0.064,-0.03l0.062,-0.031l0.063,-0.032l0.062,-0.032l0.062,-0.034l0.061,-0.034l0.061,-0.034l0.061,-0.036l0.06,-0.036l0.059,-0.037l0.06,-0.037l0.058,-0.039l0.059,-0.039l0.057,-0.039l0.058,-0.041l0.056,-0.041l0.057,-0.042l0.056,-0.042l0.055,-0.043l0.055,-0.044l0.054,-0.044l0.054,-0.045l0.053,-0.045l0.053,-0.047l0.052,-0.047l0.051,-0.047l0.051,-0.048l0.051,-0.049l0.05,-0.049l0.049,-0.05l0.048,-0.05l0.048,-0.051l0.048,-0.052l0.047,-0.052l0.046,-0.053l0.046,-0.053l0.045,-0.054l0.044,-0.054l0.044,-0.055l0.043,-0.055l0.042,-0.056l0.042,-0.056l0.041,-0.057l0.04,-0.057l0.04,-0.058l0.039,-0.058l0.038,-0.059l0.038,-0.059l0.037,-0.06l0.036,-0.06l0.035,-0.06l0.035,-0.061l0.034,-0.062l0.033,-0.061l0.033,-0.063l0.032,-0.062l0.03,-0.063l0.031,-0.063l0.029,-0.064l0.029,-0.064l0.028,-0.065l0.027,-0.065l0.026,-0.065l0.026,-0.065l0.025,-0.066l0.024,-0.067l0.023,-0.066l0.022,-0.067l0.022,-0.068l0.021,-0.067l0.02,-0.068l0.019,-0.068l0.018,-0.069l0.017,-0.069l0.017,-0.069l0.016,-0.069l0.015,-0.07l0.014,-0.07l0.013,-0.071l0.012,-0.07l0.012,-0.071l0.01,-0.071l0.01,-0.072l0.009,-0.072l0.008,-0.072l0.006,-0.072l0.007,-0.073l0.005,-0.073l0.004,-0.073l0.003,-0.073l0.003,-0.074l0.001,-0.074l0.001,-0.086l0,-0.047l-0.001,-0.077l-0.001,-0.073l-0.002,-0.073l-0.004,-0.072l-0.004,-0.073l-0.005,-0.072l-0.006,-0.072l-0.007,-0.071l-0.008,-0.072l-0.008,-0.071l-0.01,-0.07l-0.01,-0.071l-0.012,-0.07l-0.012,-0.07l-0.013,-0.07l-0.014,-0.069l-0.015,-0.069l-0.015,-0.068l-0.017,-0.069l-0.017,-0.068l-0.018,-0.068l-0.019,-0.067l-0.019,-0.068l-0.021,-0.066l-0.021,-0.067l-0.023,-0.066l-0.022,-0.066l-0.024,-0.066l-0.025,-0.065l-0.025,-0.065l-0.026,-0.064l-0.027,-0.065l-0.028,-0.063l-0.028,-0.064l-0.029,-0.063l-0.03,-0.063l-0.031,-0.062l-0.031,-0.062l-0.032,-0.061l-0.033,-0.061l-0.034,-0.061l-0.034,-0.06l-0.035,-0.06l-0.036,-0.06l-0.037,-0.059l-0.037,-0.058l-0.038,-0.058l-0.038,-0.058l-0.04,-0.057l-0.039,-0.057l-0.041,-0.056l-0.041,-0.056l-0.042,-0.055l-0.043,-0.055l-0.043,-0.054l-0.044,-0.053l-0.044,-0.054l-0.046,-0.052l-0.045,-0.052l-0.047,-0.052l-0.047,-0.051l-0.047,-0.05l-0.048,-0.05l-0.049,-0.05l-0.049,-0.048l-0.05,-0.049l-0.051,-0.047l-0.051,-0.047l-0.051,-0.046l-0.052,-0.046l-0.053,-0.045l-0.053,-0.045l-0.054,-0.044l-0.054,-0.043l-0.055,-0.043l-0.055,-0.041l-0.056,-0.042l-0.056,-0.04l-0.057,-0.04l-0.057,-0.039l-0.058,-0.039l-0.057,-0.038l-0.059,-0.037l-0.059,-0.037l-0.059,-0.035l-0.06,-0.035l-0.061,-0.035l-0.06,-0.033l-0.061,-0.033l-0.062,-0.032l-0.062,-0.032l-0.062,-0.031l-0.063,-0.029l-0.063,-0.03l-0.063,-0.028l-0.064,-0.028l-0.064,-0.027l-0.065,-0.026l-0.065,-0.025l-0.065,-0.025l-0.066,-0.023l-0.065,-0.023l-0.067,-0.022l-0.066,-0.022l-0.067,-0.02l-0.067,-0.02l-0.068,-0.019l-0.068,-0.018l-0.068,-0.017l-0.068,-0.017l-0.069,-0.015l-0.069,-0.015l-0.069,-0.014l-0.07,-0.013l-0.07,-0.012l-0.07,-0.011l-0.07,-0.011l-0.071,-0.009l-0.071,-0.009l-0.071,-0.008l-0.072,-0.007l-0.072,-0.006l-0.072,-0.005l-0.072,-0.004l-0.073,-0.003l-0.073,-0.003l-0.073,-0.001l-0.078,0l-0.039,0Z" style="fill:#d0d0d0;"/><g><path d="M107.501,283.547l-4.305,-6.48" style="fill-rule:nonzero;"/><path d="M109.429,282.267l-3.856,2.561l-4.305,-6.481l3.856,-2.561l4.305,6.481Z" style="fill:#d0d0d0;"/></g><defs><linearGradient id="_Linear1" x1="0" y1="0" x2="1" y2="0" gradientUnits="userSpaceOnUse" gradientTransform="matrix(290.711,0,0,290.711,172.028,171.697)"><stop offset="0%" style="stop-color:#f2f2f2;stop-opacity:1"/><stop offset="100%" style="stop-color:#a3a3a3;stop-opacity:1"/></linearGradient><linearGradient id="_Linear2" x1="0" y1="0" x2="1" y2="0" gradientUnits="userSpaceOnUse" gradientTransform="matrix(490.325,0,0,490.325,72.2288,272.747)"><stop offset="0%" style="stop-color:#f2f2f2;stop-opacity:1"/><stop offset="100%" style="stop-color:#a3a3a3;stop-opacity:1"/></linearGradient></defs></svg>