<?xml version="1.0" encoding="UTF-8" standalone="no"?><!DOCTYPE svg PUBLIC "-//W3C//DTD SVG 1.1//EN" "http://www.w3.org/Graphics/SVG/1.1/DTD/svg11.dtd"><svg width="100%" height="100%" viewBox="0 0 614 423" version="1.1" xmlns="http://www.w3.org/2000/svg" xmlns:xlink="http://www.w3.org/1999/xlink" xml:space="preserve" style="fill-rule:evenodd;clip-rule:evenodd;stroke-linejoin:round;stroke-miterlimit:1.41421;"><path d="M233.425,183.856l-46.873,0c-0.004,0 -0.008,0 -0.013,0c-17.593,0 -32.071,-14.477 -32.071,-32.071c0,-0.005 0,-0.009 0,-0.013l0,-46.873c0,-0.004 0,-0.008 0,-0.013c0,-17.594 14.478,-32.071 32.071,-32.071c0.005,0 0.009,0 0.013,0l46.873,0c0.004,0 0.009,0 0.013,0c17.594,0 32.071,14.477 32.071,32.071c0,0.005 0,0.009 0,0.013l0,46.873c0,0.004 0,0.008 0,0.013c0,17.594 -14.477,32.071 -32.071,32.071c-0.004,0 -0.009,0 -0.013,0l0,-11.757c11.148,-0.007 20.32,-9.179 20.327,-20.327l0,-46.873c-0.007,-11.148 -9.179,-20.32 -20.327,-20.327l-46.873,0c-11.148,0.007 -20.32,9.179 -20.327,20.327l0,46.873c0.007,11.148 9.179,20.32 20.327,20.327l46.873,0l0,11.757Zm-45.645,-55.52l5.226,0c0,-0.003 0,-0.005 0,-0.007c0,-9.316 7.666,-16.983 16.983,-16.983c9.316,0 16.982,7.667 16.982,16.983c0,9.317 -7.666,16.983 -16.982,16.983c-4.501,0 -8.822,-1.789 -12.006,-4.971c-3.194,-3.176 -4.987,-7.501 -4.977,-12.005l-10.451,0c0.001,15.048 12.385,27.431 27.434,27.431c15.049,0 27.433,-12.384 27.433,-27.433c0,-15.05 -12.384,-27.434 -27.433,-27.434c-7.274,0 -14.257,2.892 -19.4,8.036c-5.143,5.143 -8.035,12.126 -8.034,19.4l5.225,0Zm51.929,-34.619c-3.225,0 -5.879,2.653 -5.879,5.878c0,3.225 2.654,5.879 5.879,5.879c3.225,0 5.878,-2.654 5.878,-5.879c0,-0.004 0,-0.008 0,-0.013c0,-3.217 -2.648,-5.865 -5.865,-5.865c-0.005,0 -0.009,0 -0.013,0Zm184.929,48.113l0,91.89c0,7.403 -6.092,13.495 -13.495,13.495l-91.89,0c-7.4,-0.007 -13.487,-6.094 -13.494,-13.495l0,-91.89c0.007,-7.4 6.094,-13.487 13.494,-13.494l91.89,0c7.403,0 13.495,6.091 13.495,13.494Zm-33.325,-0.339l-22.209,-0.092c0,0 -13.063,0 -13.063,18.289l0,15.677l-15.677,0l0,16.983l15.677,0l0,41.803l16.983,0l0,-41.803l13.063,0l3.919,-16.983l-15.676,0l0,-9.145c0,0 -1.306,-9.144 7.838,-9.144c9.145,0 9.145,0.091 9.145,0.091l0,-15.676Zm-81.452,180.644c0,26.975 -22.197,49.172 -49.172,49.172c-26.975,0 -49.172,-22.197 -49.172,-49.172c0,-26.974 22.197,-49.171 49.172,-49.171c26.975,0 49.172,22.197 49.172,49.171l0,0Zm-24.704,-14.291l-3.344,-0.157c1.113,-1.372 1.96,-2.941 2.495,-4.625c0.535,-1.684 -2.286,0.784 -5.225,1.882c-1.712,0.64 -0.954,-1.372 -8.218,-2.796c-7.263,-1.424 -9.013,5.225 -10.359,10.83c-1.346,5.604 -16.983,-5.709 -19.596,-8.361c-2.207,-2.247 -2.181,5.16 -1.58,6.989c0.601,1.829 3.488,5.944 1.424,5.408c-2.064,-0.535 -2.613,-0.614 -1.646,2.496c1.058,3.344 6.336,6.74 6.336,6.74c-3.018,-0.836 -3.567,-0.13 -2.822,1.725c1.306,3.24 8.818,6.14 8.818,6.14c-2.051,2.874 -14.161,4.219 -14.161,4.219c0,0 4.376,5.579 20.902,3.423c20.196,-2.613 23.083,-27.63 23.932,-30.046c0.622,-1.555 1.679,-2.898 3.044,-3.867l0,0Zm-109.591,-73.693c-3.583,0 -6.532,2.949 -6.532,6.532c0,3.584 2.949,6.532 6.532,6.532c3.583,0 6.532,-2.948 6.532,-6.532c0,-3.583 -2.949,-6.532 -6.532,-6.532Zm-43.306,138.384c-5.562,0 -10.138,4.576 -10.138,10.137c0,5.562 4.577,10.138 10.138,10.138c5.561,0 10.137,-4.576 10.137,-10.138c0,-0.004 0,-0.008 0,-0.013c0,0 0,0 0,0c0,-5.554 -4.57,-10.124 -10.124,-10.124c-0.005,0 -0.009,0 -0.013,0l0,0Zm305.233,-17.296c-0.005,0 -0.009,0 -0.013,0c-7.023,0 -12.803,5.779 -12.803,12.802c0,7.023 5.78,12.803 12.803,12.803c7.023,0 12.802,-5.78 12.802,-12.803c0,-0.004 0,-0.009 0,-0.013c0,-7.016 -5.773,-12.789 -12.789,-12.789c0,0 0,0 0,0Zm36.866,-290.916c-11.116,0 -20.262,9.147 -20.262,20.262c0,11.115 9.146,20.262 20.262,20.262c11.115,0 20.261,-9.147 20.261,-20.262c0,-0.004 0,-0.009 0,-0.013c0,-11.108 -9.14,-20.249 -20.248,-20.249c-0.005,0 -0.009,0 -0.013,0Zm-140.592,-40.497c-6.249,0 -11.391,5.142 -11.391,11.392c0,6.249 5.142,11.391 11.391,11.391c6.249,0 11.392,-5.142 11.392,-11.391c0,-0.005 0,-0.009 0,-0.014c0,-6.242 -5.137,-11.378 -11.379,-11.378c-0.004,0 -0.008,0 -0.013,0Z" style="fill:url(#_Linear1);fill-rule:nonzero;"/><defs><linearGradient id="_Linear1" x1="0" y1="0" x2="1" y2="0" gradientUnits="userSpaceOnUse" gradientTransform="matrix(372.485,0,0,372.485,122.135,208.311)"><stop offset="0%" style="stop-color:#f2f2f2;stop-opacity:1"/><stop offset="100%" style="stop-color:#a3a3a3;stop-opacity:1"/></linearGradient></defs></svg>