<svg width="85" height="41" viewBox="0 0 85 41" fill="none" xmlns="http://www.w3.org/2000/svg">
<path d="M84.4231 40.5325L83.1953 39.4615L84.6302 38.3906L84.4231 40.5325ZM84.5414 38.0931L83.0621 39.1938L82.5296 36.9775L84.5414 38.0931ZM84.5266 35.3414L82.4112 36.4867L81.8491 34.196L84.5266 35.3414ZM84.3195 32.5747L81.7308 33.7349L81.1538 31.4294L84.3195 32.5747ZM83.5503 28.99L81.0207 30.9386L80.3254 28.8413L83.5503 28.99ZM82.4408 26.149L80.1627 28.4397L79.2012 26.4614L82.4408 26.149ZM76.7899 19.2622L75.7692 21.9099L75.0592 21.2851L76.7899 19.2622ZM76.7604 18.8606L74.8521 21.0918L73.6391 20.0208L76.7604 18.8606ZM70.5769 13.5802L70.1183 17.2096L67.2929 15.1272L70.5769 13.5802ZM67.4852 11.2152L70.4586 13.2976L67.1746 14.8446L67.4852 11.2152ZM67.2041 11.2152L66.8935 14.8446L63.9793 12.8812L67.2041 11.2152ZM63.713 9.28157L63.5651 12.5985L62.2041 11.7656L63.713 9.28157ZM63.4615 9.13283L61.9379 11.6168L60.5769 10.769L63.4615 9.13283ZM60.1627 6.87193L60.1479 10.5161L57.1006 8.80559L60.1627 6.87193ZM56.8195 4.90852L60.0296 6.61907L56.9527 8.55273L56.8195 4.90852ZM56.5237 4.9234L56.6568 8.5676L53.5355 6.97605L56.5237 4.9234ZM52.8107 3.12361L53.0917 6.76781L49.9112 5.325L52.8107 3.12361ZM49.0533 1.79979L49.4527 5.13164L47.9438 4.55154L49.0533 1.79979ZM48.7722 1.74029L47.6775 4.43255L46.3166 3.91194L48.7722 1.74029ZM44.6598 0.356984L45.8284 3.79295L42.6479 3.37647L44.6598 0.356984ZM40.3698 0.178492H44.4231L42.3965 3.22773L40.3698 0.178492ZM40.1331 0.356984L42.145 3.37647L38.9645 3.79295L40.1331 0.356984ZM37.1302 4.43255L36.0207 1.74029L38.4763 3.92682L37.1302 4.43255ZM35.7249 1.79979L36.8491 4.55154L35.3402 5.13164L35.7249 1.79979ZM31.9823 3.12361L34.8965 5.31013L31.7012 6.75294L31.9823 3.12361ZM28.2692 4.9234L31.2574 6.97605L28.1509 8.5676L28.2692 4.9234ZM24.7633 6.61907L27.9734 4.90852L27.855 8.55273L24.7633 6.61907ZM24.6154 6.87193L27.6923 8.80559L24.645 10.5161L24.6154 6.87193ZM22.8402 11.6168L21.3166 9.13283L24.216 10.769L22.8402 11.6168ZM21.0799 9.28157L22.6036 11.7656L21.2426 12.5985L21.0799 9.28157ZM17.5888 11.2152L20.8136 12.8812L17.9142 14.8446L17.5888 11.2152ZM14.3195 13.3125L17.2929 11.2301L17.6183 14.8594L14.3195 13.3125ZM14.2012 13.5802L17.5 15.1272L14.6746 17.2096L14.2012 13.5802ZM9.03846 21.9099L8.00296 19.2622L9.74852 21.2851L9.03846 21.9099ZM7.27811 23.8733L5.68047 21.0174L8.72781 22.2222L7.27811 23.8733ZM4.63018 28.4397L2.35207 26.149L5.60651 26.4614L4.63018 28.4397ZM3.78698 30.9386L1.2426 28.99L4.46746 28.8413L3.78698 30.9386ZM3.07692 33.7201L0.473373 32.5747L3.65385 31.4145L3.07692 33.7201ZM2.39645 36.4718L0.281065 35.3414L2.97337 34.1812L2.39645 36.4718ZM1.73077 39.2087L0.266272 38.108L2.27811 36.9924L1.73077 39.2087ZM0.177515 38.3906L1.59763 39.4615L0.369823 40.5325L0.177515 38.3906ZM0.0887574 35.5645L2.18935 36.6949L0.133136 37.8403L0.0887574 35.5645ZM0.221894 32.783L2.81065 33.9283L0.10355 35.0885L0.221894 32.783ZM0.91716 29.109L3.43195 31.0278H0.428994L0.91716 29.109ZM5.34024 21.0025L6.96746 23.903L3.72781 23.1147L5.34024 21.0025ZM7.5 18.7863L8.71302 21.9099L5.60651 20.6753L7.5 18.7863ZM10.6361 16.1386L11.2574 19.7382L7.85503 18.4739L10.6361 16.1386ZM14.3935 17.2393L11.0355 15.8411L13.9201 13.61L14.3935 17.2393ZM20.932 12.6134L17.7071 10.9475L20.7692 8.98409L20.932 12.6134ZM24.3639 10.5161L21.1982 8.73122L24.3343 6.87193L24.3639 10.5161ZM31.4201 6.73806L28.432 4.68541L31.7012 3.09386L31.4201 6.73806ZM35.0592 5.07214L32.145 2.88562L35.4734 1.44281L35.0592 5.07214ZM38.6982 3.71858L35.9467 1.27919L39.8669 0.237989L38.6982 3.71858ZM44.926 0.237989L48.8462 1.27919L46.1095 3.71858L44.926 0.237989ZM49.3195 1.44281L52.6479 2.88562L49.7485 5.07214L49.3195 1.44281ZM53.1065 3.09386L56.3757 4.68541L53.3876 6.73806L53.1065 3.09386ZM60.4586 6.87193L63.5947 8.71635L60.4438 10.5013L60.4586 6.87193ZM64.0237 8.98409L67.0858 10.9475L63.861 12.6134L64.0237 8.98409ZM70.8728 13.61L73.7574 15.8411L70.4142 17.2393L70.8728 13.61ZM76.9527 18.4739L73.5355 19.7382L74.1568 16.1386L76.9527 18.4739ZM79.1716 20.6753L76.0799 21.895L77.2781 18.7714L79.1716 20.6753ZM81.0799 23.1296L77.8402 23.9179L79.4527 21.0174L81.0799 23.1296ZM81.3757 31.0427L83.8757 29.1239L84.3639 31.0427H81.3757ZM84.4231 31.3253L84.5414 32.3368L81.7751 31.3253H84.4231ZM84.7041 35.0885L81.997 33.9283L84.571 32.783L84.7041 35.0885ZM84.6746 37.8403L82.6183 36.6949L84.7189 35.5645L84.6746 37.8403ZM83.7278 28.7074L80.4438 28.5587L82.7663 26.2234L83.7278 28.7074ZM82.6036 25.8367L79.3047 26.149L81.3166 23.4865L82.6036 25.8367ZM3.49112 23.4865L5.50296 26.149L2.18935 25.8367L3.49112 23.4865ZM2.01183 26.2234L4.33432 28.5587L1.0503 28.7074L2.01183 26.2234ZM0.369823 31.3253H3.03254L0.251479 32.3368L0.369823 31.3253ZM1.37574 40.6812H0.636095L1.56805 39.8632L1.37574 40.6812ZM5.81361 26.0747L3.84615 23.4568L7.02663 24.2303L5.81361 26.0747ZM9.95562 21.0918L8.03254 18.8606L11.1538 20.0208L9.95562 21.0918ZM11.5385 19.6936L10.932 16.1089L14.2899 17.5071L11.5385 19.6936ZM70.5178 17.5071L73.8609 16.1089L73.2544 19.6936L70.5178 17.5071ZM76.0799 22.2222L79.1124 21.0174L77.5296 23.8733L76.0799 22.2222ZM77.7811 24.2303L80.9615 23.4568L78.9941 26.0747L77.7811 24.2303ZM83.432 40.6812L83.2249 39.878L84.1568 40.6812H83.432ZM85 35.3116L84.8373 32.545L84.6746 31.1766V31.1617L84.0828 28.8413L82.9586 25.9408C82.9586 25.9408 82.9586 25.9408 82.9586 25.9259L81.4497 23.1891L79.5562 20.705L77.3521 18.4888L74.1716 15.8263L70.8876 13.2976L67.5 10.9177L64.0237 8.6866L60.4586 6.57445L56.8047 4.62591L53.0769 2.81124L49.2752 1.17507C49.2752 1.17507 49.2752 1.17507 49.2604 1.17507L44.8225 0H44.8077H44.7929H40.1923H40.1775H40.1627L35.7249 1.17507H35.7101L31.9083 2.81124L28.1805 4.62591L24.5266 6.57445L20.9615 8.6866L17.4852 10.9177L14.0828 13.2976L10.7988 15.8263L7.61834 18.4888L5.4142 20.705C5.4142 20.705 5.4142 20.705 5.4142 20.7199L3.5355 23.2039L2.01183 25.9408L0.887574 28.8413L0.295858 31.1617V31.1766L0.133136 32.545L0 35.3116L0.0591716 38.0782L0.310651 40.8151V40.83V40.8449C0.310651 40.8449 0.310651 40.8449 0.310651 40.8597C0.310651 40.8746 0.325444 40.8746 0.325444 40.8746C0.325444 40.8746 0.325444 40.8895 0.340237 40.8895C0.35503 40.9044 0.35503 40.9044 0.369823 40.9044C0.369823 40.9044 0.369822 40.9044 0.384615 40.9044C0.399408 40.9044 0.414201 40.9192 0.443787 40.9192H1.68639C1.70118 40.9192 1.71598 40.9192 1.74556 40.9044C1.74556 40.9044 1.76035 40.9044 1.76035 40.8895C1.77515 40.8895 1.77515 40.8746 1.78994 40.8746L1.80473 40.8597C1.80473 40.8449 1.81953 40.8449 1.81953 40.83C1.81953 40.83 1.81953 40.8151 1.83432 40.8151V40.8002L3.5355 33.8986L4.21598 31.1617L5.01479 28.6777L6.15385 26.3424L7.57397 24.1559L9.27515 22.2073L10.2071 21.3744C10.2219 21.3744 10.2367 21.3595 10.2515 21.3446C10.2663 21.3298 10.2663 21.3149 10.2811 21.3149L11.5237 20.0803L14.645 17.5814L17.855 15.2015L21.1538 12.9704L22.855 11.9292L24.571 10.8731L28.0473 8.92459L31.5976 7.10992L35.2219 5.45887L37.0858 4.74491L38.787 4.10531L42.3965 3.62933L46.0059 4.10531L47.7071 4.74491L49.571 5.45887L53.1805 7.10992L56.7456 8.92459L60.2219 10.8731L61.9231 11.9292L63.6243 12.9704L66.9379 15.2015L70.1479 17.5666L73.2544 20.0654L74.7633 21.4041L75.7396 22.252L77.4408 24.2005L78.8609 26.387L79.9852 28.7223L80.7988 31.2063L81.4793 33.9432L82.1598 36.7098L82.8255 39.4764L83.1805 40.8449C83.1805 40.8449 83.1805 40.8449 83.1805 40.8597C83.1805 40.8597 83.1805 40.8746 83.1953 40.8746C83.1953 40.8895 83.2101 40.8895 83.2101 40.9044L83.2249 40.9192C83.2396 40.9341 83.2396 40.9341 83.2544 40.9341C83.2544 40.9341 83.2692 40.9341 83.2692 40.949C83.284 40.949 83.2988 40.9639 83.3284 40.9639H84.5562C84.571 40.9639 84.6006 40.9639 84.6154 40.949C84.6154 40.949 84.6154 40.949 84.6302 40.949C84.645 40.949 84.645 40.9341 84.6598 40.9341C84.6598 40.9341 84.6598 40.9192 84.6746 40.9192L84.6894 40.9044C84.6894 40.9044 84.6894 40.9044 84.6894 40.8895V40.8746V40.8597L84.9556 38.1229V38.108L85 35.3116Z" fill="black"/>
<path d="M75.6805 34.1363C75.6805 34.0024 75.7101 33.8685 75.7544 33.7495C75.7988 33.6305 75.8728 33.5264 75.9615 33.452C76.0503 33.3628 76.1538 33.3033 76.2722 33.2438C76.3905 33.1992 76.5089 33.1694 76.642 33.1694C76.7752 33.1694 76.8935 33.1992 77.0118 33.2438C77.1302 33.2884 77.2337 33.3628 77.3225 33.452C77.4113 33.5413 77.4852 33.6454 77.5296 33.7495C77.574 33.8685 77.6036 33.9875 77.6036 34.1363C77.6036 34.2701 77.574 34.404 77.5296 34.523C77.4852 34.642 77.4113 34.7461 77.3225 34.8354C77.2337 34.9246 77.1302 34.9841 77.0118 35.0436C76.8935 35.0882 76.7752 35.118 76.642 35.118C76.5089 35.118 76.3905 35.0882 76.2722 35.0436C76.1538 34.999 76.0503 34.9246 75.9615 34.8354C75.8728 34.7461 75.7988 34.642 75.7544 34.523C75.7101 34.404 75.6805 34.2701 75.6805 34.1363ZM77.4408 34.1363C77.4408 34.0173 77.426 33.9131 77.3817 33.8239C77.3373 33.7198 77.2929 33.6454 77.2189 33.571C77.145 33.4967 77.071 33.4372 76.9675 33.4074C76.8787 33.3628 76.7752 33.3479 76.6568 33.3479C76.5385 33.3479 76.4349 33.3628 76.3462 33.4074C76.2574 33.452 76.1686 33.5115 76.0947 33.571C76.0207 33.6454 75.9615 33.7347 75.932 33.8239C75.8876 33.928 75.8728 34.0321 75.8728 34.1363C75.8728 34.2553 75.8876 34.3594 75.932 34.4635C75.9763 34.5676 76.0207 34.642 76.0947 34.7164C76.1686 34.7907 76.2426 34.8502 76.3462 34.88C76.4349 34.9246 76.5385 34.9395 76.6568 34.9395C76.7604 34.9395 76.8639 34.9246 76.9675 34.88C77.0562 34.8354 77.145 34.7759 77.2189 34.7164C77.2929 34.642 77.3521 34.5527 77.3817 34.4635C77.426 34.3594 77.4408 34.2404 77.4408 34.1363ZM76.4497 34.6866H76.2722V33.571H76.7012C76.8343 33.571 76.9379 33.6008 76.997 33.6454C77.0562 33.69 77.1006 33.7793 77.1006 33.8834C77.1006 33.9875 77.071 34.0619 77.0118 34.1065C76.9527 34.1511 76.8935 34.1809 76.8047 34.1958L77.1154 34.6866H76.9231L76.6272 34.2106H76.4349L76.4497 34.6866ZM76.4497 34.0619H76.6568C76.7604 34.0619 76.8343 34.047 76.8639 34.0173C76.9083 33.9875 76.9231 33.9429 76.9231 33.8834C76.9231 33.8239 76.9083 33.7942 76.8787 33.7644C76.8491 33.7347 76.7752 33.7198 76.6864 33.7198H76.4497V34.0619Z" fill="black"/>
<path d="M8.53551 24.8702H16.642V27.3393H11.3314V29.0647H16.1243V31.4H11.3314V35.0293H8.52071V24.8702H8.53551ZM19.7929 33.4973C20.1923 33.4973 20.5325 33.3783 20.7692 33.1552C21.0207 32.9172 21.1391 32.6048 21.1391 32.2032V31.8462C21.0059 31.7867 20.8432 31.7421 20.6509 31.6975C20.4586 31.6528 20.2663 31.638 20.0592 31.638C19.6598 31.638 19.3491 31.7272 19.1272 31.9057C18.9053 32.0842 18.8018 32.3222 18.8018 32.6048V32.6345C18.8018 32.9023 18.8905 33.1105 19.0828 33.2741C19.2752 33.4229 19.5118 33.4973 19.7929 33.4973ZM18.8018 35.2376C18.432 35.2376 18.0769 35.1781 17.7663 35.0739C17.4408 34.9698 17.1746 34.8062 16.9379 34.6128C16.7012 34.4046 16.5089 34.1517 16.3757 33.8542C16.2426 33.5568 16.1686 33.1998 16.1686 32.813V32.7833C16.1686 32.3817 16.2426 32.0247 16.3905 31.7123C16.5385 31.4 16.7456 31.1471 17.0118 30.9389C17.2781 30.7306 17.6036 30.5819 17.9734 30.4778C18.3432 30.3737 18.7722 30.3142 19.2308 30.3142C19.6006 30.3142 19.9408 30.3439 20.2811 30.4034C20.6065 30.4629 20.8876 30.5373 21.1095 30.6116V30.4778C21.1095 30.0762 20.9763 29.7489 20.7249 29.5258C20.4734 29.3027 20.074 29.1986 19.5414 29.1986C19.1272 29.1986 18.7574 29.2432 18.4172 29.3176C18.0769 29.392 17.7367 29.4961 17.3965 29.6448L16.8343 27.6963C17.2781 27.5178 17.7515 27.369 18.2396 27.25C18.7426 27.1459 19.3195 27.0864 20 27.0864C20.7101 27.0864 21.3018 27.1757 21.7899 27.3393C22.2781 27.5029 22.6775 27.7409 22.9882 28.0533C23.284 28.3507 23.5059 28.6929 23.6391 29.1093C23.7722 29.5258 23.8314 30.0018 23.8314 30.5521V35.0739H21.1095V34.2559C20.8432 34.5533 20.5178 34.7913 20.1479 34.9698C19.7633 35.1483 19.3195 35.2376 18.8018 35.2376ZM27.9734 35.2376C27.3077 35.2376 26.6568 35.1483 26.0355 34.9549C25.4142 34.7616 24.8225 34.479 24.2752 34.0774L25.2959 32.4114C25.7544 32.7089 26.213 32.932 26.6716 33.0808C27.145 33.2295 27.574 33.3039 27.9734 33.3039C28.432 33.3039 28.6686 33.17 28.6686 32.8874V32.8577C28.6686 32.7089 28.5651 32.5751 28.3432 32.5007C28.1361 32.4114 27.8107 32.3073 27.3965 32.1883C27.0118 32.0842 26.642 31.9801 26.3166 31.8462C25.9763 31.7123 25.6805 31.5487 25.429 31.3702C25.1775 31.1769 24.9852 30.9538 24.8373 30.686C24.6894 30.4183 24.6154 30.0762 24.6154 29.6894V29.6597C24.6154 29.2432 24.6894 28.8713 24.8521 28.5441C25.0148 28.2169 25.2367 27.9491 25.503 27.726C25.784 27.5029 26.1095 27.3393 26.4941 27.2203C26.8787 27.1013 27.2929 27.0418 27.7515 27.0418C28.3284 27.0418 28.9053 27.1162 29.4527 27.2798C30.0148 27.4434 30.5178 27.6665 30.9763 27.9491L30.0296 29.6894C29.6302 29.4663 29.216 29.2878 28.8018 29.154C28.3876 29.0201 28.0325 28.9606 27.7219 28.9606C27.5148 28.9606 27.3521 28.9903 27.2485 29.0647C27.145 29.1391 27.0858 29.2283 27.0858 29.3325V29.3622C27.0858 29.5109 27.1894 29.6448 27.4112 29.7341C27.6331 29.8233 27.9438 29.9423 28.358 30.0613C28.7426 30.1654 29.1124 30.2844 29.4379 30.4183C29.7781 30.5521 30.074 30.7158 30.3254 30.8943C30.5769 31.0876 30.7692 31.3107 30.9172 31.5785C31.0651 31.8462 31.1391 32.1734 31.1391 32.5602V32.5899C31.1391 33.0213 31.0651 33.408 30.9024 33.7352C30.7544 34.0625 30.5325 34.3302 30.2515 34.5533C29.9704 34.7765 29.6302 34.9401 29.2456 35.0591C28.8757 35.1781 28.4468 35.2376 27.9734 35.2376ZM34.9704 35.2227C34.142 35.2227 33.4911 35.0293 33.0326 34.6277C32.574 34.2261 32.3373 33.5568 32.3373 32.6197V29.4217H31.4053V27.1906H32.3373V25.1974H35.0888V27.1906H36.9083V29.4217H35.0888V32.0842C35.0888 32.3668 35.1479 32.5602 35.2811 32.694C35.3994 32.813 35.5917 32.8725 35.8432 32.8725C36.0207 32.8725 36.1982 32.8428 36.3757 32.7982C36.5533 32.7535 36.716 32.694 36.8787 32.6048V34.7765C36.6272 34.9103 36.3462 35.0144 36.0207 35.1037C35.7101 35.1781 35.355 35.2227 34.9704 35.2227ZM42.7663 35.2673C42.0414 35.2673 41.361 35.1334 40.7249 34.8806C40.0888 34.6128 39.5414 34.2559 39.0681 33.7799C38.5947 33.3039 38.2249 32.7535 37.9586 32.1139C37.6775 31.4744 37.5444 30.7753 37.5444 30.0167V29.9869C37.5444 29.2432 37.6775 28.559 37.9438 27.9194C38.2101 27.2798 38.5799 26.7146 39.0533 26.2386C39.5266 25.7626 40.0888 25.3759 40.7397 25.1081C41.3905 24.8404 42.1006 24.7065 42.8698 24.7065C43.3876 24.7065 43.861 24.7512 44.2899 24.8553C44.7189 24.9594 45.1036 25.1081 45.4586 25.2866C45.8136 25.48 46.1243 25.7031 46.4201 25.956C46.7012 26.2237 46.9527 26.5063 47.1746 26.8187L45.0592 28.4549C44.7633 28.083 44.4527 27.8004 44.0976 27.5773C43.7574 27.369 43.3284 27.25 42.8402 27.25C42.4852 27.25 42.1598 27.3244 41.8639 27.4583C41.5681 27.5922 41.3166 27.7855 41.1095 28.0384C40.9024 28.2764 40.7249 28.5739 40.6065 28.9011C40.4882 29.2283 40.429 29.5853 40.429 29.9423V29.972C40.429 30.3439 40.4882 30.7009 40.6065 31.043C40.7249 31.3702 40.8876 31.6677 41.1095 31.9057C41.3166 32.1437 41.5681 32.3371 41.8639 32.4858C42.1598 32.6197 42.4852 32.694 42.8402 32.694C43.1065 32.694 43.3432 32.6643 43.5503 32.6048C43.7722 32.5453 43.9645 32.4561 44.142 32.3519C44.3195 32.2478 44.4823 32.1139 44.645 31.9652C44.8077 31.8165 44.9556 31.6528 45.1183 31.4595L47.2337 32.9767C46.997 33.3039 46.7308 33.6163 46.4497 33.8989C46.1686 34.1815 45.8432 34.4195 45.4734 34.6277C45.1183 34.8359 44.7041 34.9847 44.2604 35.1037C43.8314 35.2078 43.3136 35.2673 42.7663 35.2673ZM51.5385 32.9023C51.7899 32.9023 52.0118 32.8577 52.2189 32.7684C52.426 32.6792 52.5888 32.5453 52.7367 32.3966C52.8698 32.2329 52.9882 32.0545 53.0621 31.8313C53.1361 31.6231 53.1805 31.4 53.1805 31.162V31.1322C53.1805 30.8943 53.1361 30.6563 53.0621 30.448C52.9734 30.2398 52.8698 30.0464 52.7219 29.8828C52.574 29.7192 52.3965 29.6002 52.1894 29.4961C51.9823 29.392 51.7604 29.3473 51.5237 29.3473C51.2722 29.3473 51.0503 29.3919 50.8432 29.4812C50.6361 29.5704 50.4734 29.7043 50.3255 29.8531C50.1923 30.0167 50.074 30.1952 50 30.4183C49.926 30.6265 49.8817 30.8496 49.8817 31.0876V31.1174C49.8817 31.3554 49.926 31.5933 50 31.8016C50.0888 32.0098 50.1923 32.2032 50.3402 32.3668C50.4882 32.5304 50.6657 32.6494 50.8728 32.7535C51.0651 32.8577 51.287 32.9023 51.5385 32.9023ZM51.5089 35.2524C50.8876 35.2524 50.3107 35.1483 49.7781 34.9252C49.2456 34.717 48.8018 34.4195 48.4172 34.0476C48.0325 33.6758 47.7367 33.2444 47.5148 32.7387C47.3077 32.2478 47.1894 31.7123 47.1894 31.1471V31.1174C47.1894 30.5521 47.2929 30.0315 47.5148 29.5258C47.7367 29.0201 48.0325 28.5887 48.4172 28.2169C48.8018 27.845 49.2604 27.5475 49.7929 27.3244C50.3255 27.1013 50.9024 26.9972 51.5237 26.9972C52.145 26.9972 52.7219 27.1013 53.2544 27.3244C53.787 27.5475 54.2308 27.8301 54.6154 28.202C55 28.5739 55.2959 29.0052 55.5178 29.4961C55.7249 29.9869 55.8432 30.5224 55.8432 31.0876V31.1174C55.8432 31.6826 55.7397 32.2181 55.5178 32.7089C55.2959 33.2146 55 33.646 54.6154 34.0179C54.2308 34.3897 53.7722 34.6872 53.2397 34.9103C52.7071 35.1334 52.1302 35.2524 51.5089 35.2524ZM55.2219 27.1906H58.1213L59.6302 31.7867L61.1391 27.1906H63.9941L60.8728 35.1186H58.3728L55.2219 27.1906ZM68.7574 30.4778C68.713 30.0464 68.5651 29.6894 68.3284 29.4366C68.0917 29.1837 67.7811 29.0498 67.3965 29.0498C67.0266 29.0498 66.7308 29.1837 66.4941 29.4366C66.2574 29.6894 66.1095 30.0464 66.0355 30.4778H68.7574ZM67.6184 35.2524C66.997 35.2524 66.4349 35.1483 65.932 34.9549C65.4142 34.7616 64.9852 34.479 64.6154 34.122C64.2456 33.765 63.9497 33.3336 63.7426 32.8279C63.5355 32.3222 63.432 31.7718 63.432 31.162V31.1322C63.432 30.567 63.5355 30.0315 63.7278 29.5258C63.9201 29.0201 64.1864 28.5887 64.5414 28.2169C64.8965 27.845 65.3107 27.5475 65.7988 27.3393C66.287 27.1311 66.8047 27.0121 67.3965 27.0121C68.0769 27.0121 68.6539 27.1311 69.1568 27.3542C69.6598 27.5922 70.0592 27.9045 70.3846 28.2913C70.7101 28.678 70.9468 29.1391 71.1095 29.6597C71.2722 30.1803 71.3462 30.7306 71.3462 31.3107C71.3462 31.4 71.3462 31.4892 71.3462 31.5933C71.3462 31.6975 71.3462 31.7867 71.3314 31.8908H66.0947C66.1982 32.3222 66.4053 32.6494 66.7012 32.8725C66.997 33.0808 67.3521 33.1998 67.7959 33.1998C68.1213 33.1998 68.432 33.1403 68.6982 33.0064C68.9793 32.8874 69.2456 32.6792 69.5266 32.3966L71.0503 33.6609C70.6805 34.1517 70.2071 34.5385 69.6598 34.8211C69.0681 35.1037 68.4024 35.2524 67.6184 35.2524ZM71.9231 27.1906H74.6746V28.7821C74.8965 28.2466 75.2071 27.8153 75.5917 27.5029C75.9763 27.1757 76.4941 27.0418 77.1598 27.0716V29.9869H76.9231C76.1982 29.9869 75.6509 30.1952 75.2663 30.6265C74.8817 31.0579 74.6894 31.7272 74.6894 32.6345V35.0739H71.9379L71.9231 27.1906Z" fill="#ED1C24"/>
<path d="M71.0799 39.2383L71.4349 39.2086C71.4497 39.3276 71.4941 39.4168 71.5533 39.4912C71.6124 39.5656 71.716 39.6251 71.8343 39.6697C71.9675 39.7143 72.1154 39.7292 72.2633 39.7292C72.4112 39.7292 72.5296 39.7143 72.6479 39.6846C72.7515 39.6548 72.8402 39.6102 72.8994 39.5507C72.9586 39.4912 72.9734 39.4317 72.9734 39.3573C72.9734 39.283 72.9438 39.2235 72.8994 39.1788C72.855 39.1342 72.7663 39.0896 72.6479 39.045C72.574 39.0152 72.3965 38.9855 72.145 38.9408C71.8787 38.8962 71.7012 38.8516 71.5976 38.807C71.4645 38.7475 71.361 38.688 71.3018 38.5987C71.2278 38.5095 71.1982 38.4202 71.1982 38.3161C71.1982 38.1971 71.2426 38.093 71.3166 38.0038C71.3905 37.8996 71.5089 37.8253 71.6716 37.7807C71.8343 37.736 71.997 37.7063 72.1894 37.7063C72.3965 37.7063 72.5888 37.736 72.7515 37.7807C72.9142 37.8402 73.0325 37.9145 73.1213 38.0186C73.2101 38.1228 73.2544 38.2418 73.2544 38.3756L72.8994 38.3905C72.8846 38.2566 72.8107 38.1376 72.7071 38.0781C72.5888 38.0038 72.426 37.974 72.2189 37.974C71.997 37.974 71.8195 38.0038 71.716 38.0781C71.6124 38.1376 71.5533 38.2269 71.5533 38.3161C71.5533 38.3905 71.5976 38.4649 71.6568 38.5095C71.7308 38.5541 71.9231 38.6136 72.2189 38.6731C72.5296 38.7326 72.7367 38.7772 72.8402 38.8219C73.003 38.8814 73.1213 38.9557 73.2101 39.045C73.284 39.1342 73.3284 39.2383 73.3284 39.3573C73.3284 39.4763 73.284 39.5804 73.1953 39.6846C73.1065 39.7887 72.9882 39.8779 72.8254 39.9226C72.6627 39.9821 72.4852 40.0118 72.2781 40.0118C72.0266 40.0118 71.8047 39.9821 71.6272 39.9226C71.4497 39.8631 71.3166 39.7738 71.213 39.6548C71.1391 39.5209 71.0947 39.3871 71.0799 39.2383ZM69.6006 39.0896V38.8219H70.7988V39.6399C70.6213 39.7589 70.429 39.8482 70.2219 39.8928C70.0296 39.9523 69.8225 39.982 69.6154 39.982C69.3343 39.982 69.0828 39.9374 68.861 39.8482C68.6391 39.7589 68.4615 39.6251 68.3432 39.4466C68.2249 39.2681 68.1657 39.0747 68.1657 38.8516C68.1657 38.6285 68.2249 38.4351 68.3432 38.2418C68.4615 38.0484 68.6243 37.9145 68.8462 37.8253C69.0681 37.736 69.3195 37.6914 69.6006 37.6914C69.8077 37.6914 69.9852 37.7212 70.1627 37.7658C70.3254 37.8253 70.4586 37.8848 70.5473 37.9889C70.6361 38.0781 70.7101 38.1971 70.7692 38.3608L70.429 38.4351C70.3846 38.3161 70.3402 38.2269 70.2663 38.1674C70.2071 38.1079 70.1183 38.0484 70 38.0186C69.8817 37.974 69.7485 37.9591 69.6154 37.9591C69.4379 37.9591 69.2899 37.974 69.1716 38.0186C69.0533 38.0633 68.9497 38.1079 68.8757 38.1823C68.8018 38.2418 68.7426 38.3161 68.6982 38.4054C68.6243 38.5392 68.5947 38.688 68.5947 38.8516C68.5947 39.045 68.6391 39.2235 68.7278 39.3573C68.8166 39.4912 68.9349 39.5953 69.1124 39.6548C69.2752 39.7143 69.4527 39.7589 69.645 39.7589C69.8077 39.7589 69.9704 39.7292 70.1183 39.6846C70.2663 39.6399 70.3846 39.5804 70.4734 39.5209V39.1045H69.6006V39.0896ZM65.5621 39.9523V37.7212H65.9467L67.4408 39.4763V37.7212H67.7959V39.9523H67.4112L65.9172 38.1971V39.9523H65.5621ZM64.6894 39.9523V37.7212H65.0592V39.9523H64.6894ZM62.2929 39.6994H62.8994C63.0917 39.6994 63.2397 39.6846 63.3432 39.6548C63.4468 39.6251 63.5355 39.5953 63.5947 39.5358C63.6834 39.4614 63.7574 39.3722 63.8018 39.2532C63.8462 39.1342 63.8757 38.9855 63.8757 38.8219C63.8757 38.5839 63.8314 38.4054 63.7278 38.2864C63.6243 38.1674 63.5059 38.0781 63.3728 38.0335C63.2692 38.0038 63.1065 37.9889 62.8846 37.9889H62.2929V39.6994ZM61.9083 39.9523V37.7212H62.8846C63.1065 37.7212 63.2692 37.736 63.3876 37.7509C63.5503 37.7807 63.6834 37.8401 63.8018 37.9145C63.9497 38.0186 64.0681 38.1376 64.142 38.3013C64.216 38.45 64.2604 38.6285 64.2604 38.8367C64.2604 39.0003 64.2308 39.1491 64.1864 39.283C64.142 39.4168 64.0681 39.5209 63.9941 39.6102C63.9201 39.6994 63.8314 39.7589 63.7278 39.8184C63.6391 39.8631 63.5207 39.9077 63.3876 39.9374C63.2544 39.9672 63.1065 39.982 62.929 39.982H61.9083V39.9523ZM59.8521 39.9523V37.7212H60.2219V39.6846H61.6124V39.9523H59.8521ZM58.9793 39.9523V37.7212H59.3491V39.9523H58.9793ZM58.0621 37.736H58.432V39.0152C58.432 39.2383 58.4024 39.4168 58.3284 39.5507C58.2692 39.6846 58.1509 39.7887 57.9734 39.8779C57.8107 39.9672 57.5888 39.9969 57.3077 39.9969C57.0414 39.9969 56.8195 39.9672 56.6568 39.8928C56.4941 39.8184 56.361 39.7143 56.3018 39.5804C56.2278 39.4466 56.1982 39.2532 56.1982 39.0152V37.736H56.5681V39.0152C56.5681 39.2086 56.5976 39.3573 56.642 39.4466C56.6864 39.5358 56.7604 39.6102 56.8787 39.6548C56.997 39.6994 57.1302 39.7292 57.2929 39.7292C57.574 39.7292 57.7663 39.6846 57.8846 39.5804C58.003 39.4763 58.0621 39.2978 58.0621 39.0152V37.736ZM54.0828 39.6994H54.7929C54.9112 39.6994 55 39.6994 55.0444 39.6846C55.1331 39.6697 55.2071 39.6548 55.2663 39.6251C55.3254 39.5953 55.3698 39.5507 55.4142 39.5061C55.4586 39.4466 55.4734 39.3871 55.4734 39.3127C55.4734 39.2235 55.4438 39.164 55.3846 39.0896C55.3254 39.0301 55.2515 38.9855 55.1627 38.9557C55.074 38.926 54.926 38.9111 54.7485 38.9111H54.0976V39.6994H54.0828ZM54.0828 38.6731H54.6894C54.8521 38.6731 54.9704 38.6582 55.0444 38.6434C55.1331 38.6285 55.2071 38.5839 55.2663 38.5392C55.3107 38.4946 55.3402 38.4202 55.3402 38.3459C55.3402 38.2715 55.3107 38.212 55.2663 38.1525C55.2219 38.093 55.1627 38.0633 55.074 38.0335C54.9852 38.0186 54.8521 38.0038 54.645 38.0038H54.0828V38.6731ZM53.6982 39.9523V37.7212H54.7633C54.9852 37.7212 55.1479 37.736 55.2811 37.7955C55.4142 37.8402 55.5178 37.9145 55.5917 38.0038C55.6657 38.093 55.7101 38.1971 55.7101 38.3013C55.7101 38.3905 55.6805 38.4797 55.6065 38.569C55.5473 38.6582 55.4438 38.7177 55.3107 38.7772C55.4882 38.8219 55.6213 38.8814 55.7101 38.9855C55.7988 39.0747 55.8432 39.1937 55.8432 39.3276C55.8432 39.4317 55.8136 39.5358 55.7544 39.6251C55.6953 39.7143 55.6361 39.7887 55.5473 39.8333C55.4586 39.8779 55.355 39.9226 55.2367 39.9374C55.1183 39.9672 54.9556 39.982 54.7781 39.982H53.6982V39.9523ZM51.7752 39.1788L52.145 39.2532C52.071 39.4912 51.9231 39.6846 51.716 39.8036C51.5089 39.9374 51.2574 39.9969 50.9615 39.9969C50.6509 39.9969 50.4142 39.9523 50.2219 39.8482C50.0296 39.7441 49.8817 39.6102 49.7781 39.4168C49.6746 39.2383 49.6302 39.0301 49.6302 38.8219C49.6302 38.5839 49.6894 38.3905 49.7929 38.212C49.9112 38.0335 50.0592 37.9145 50.2811 37.8253C50.4882 37.736 50.7249 37.6914 50.9615 37.6914C51.2426 37.6914 51.4793 37.7509 51.6716 37.855C51.8639 37.974 51.997 38.1228 52.071 38.331L51.7012 38.4054C51.642 38.2418 51.5385 38.1228 51.4201 38.0484C51.3018 37.974 51.1391 37.9443 50.9467 37.9443C50.7249 37.9443 50.5473 37.9889 50.3994 38.0633C50.2515 38.1525 50.1479 38.2566 50.0888 38.3905C50.0296 38.5244 50 38.6731 50 38.8219C50 39.0152 50.0296 39.1788 50.1036 39.3127C50.1775 39.4614 50.2811 39.5656 50.429 39.6251C50.5769 39.6994 50.7396 39.7292 50.9024 39.7292C51.1095 39.7292 51.287 39.6846 51.4349 39.5804C51.6272 39.5061 51.716 39.3722 51.7752 39.1788ZM48.8609 39.9523V37.7212H49.2308V39.9523H48.8609ZM46.4793 38.7177H47.2781C47.4556 38.7177 47.5888 38.7029 47.6775 38.6731C47.7811 38.6434 47.8402 38.5987 47.8994 38.5392C47.9438 38.4797 47.9734 38.4054 47.9734 38.3459C47.9734 38.2418 47.929 38.1525 47.8254 38.093C47.7219 38.0186 47.574 37.9889 47.3669 37.9889H46.4645V38.7177H46.4793ZM46.1095 39.9523V37.7212H47.3669C47.6183 37.7212 47.8107 37.736 47.9438 37.7807C48.0769 37.8253 48.1805 37.8848 48.2544 37.9889C48.3284 38.093 48.3728 38.1971 48.3728 38.331C48.3728 38.4946 48.3136 38.6285 48.1805 38.7326C48.0473 38.8367 47.855 38.9111 47.574 38.9408C47.6775 38.9855 47.7515 39.0152 47.7959 39.045C47.8994 39.1193 48.003 39.2235 48.1065 39.3425L48.5947 39.9523H48.1213L47.7515 39.4912C47.6479 39.3573 47.5592 39.2532 47.4852 39.1788C47.4112 39.1045 47.3521 39.0598 47.2929 39.0301C47.2337 39.0003 47.1746 38.9855 47.1154 38.9706C47.071 38.9706 46.997 38.9557 46.9083 38.9557H46.4793V39.9523H46.1095ZM43.9645 39.6994H44.6746C44.7929 39.6994 44.8817 39.6994 44.926 39.6846C45.0148 39.6697 45.0888 39.6548 45.1479 39.6251C45.2071 39.5953 45.2515 39.5507 45.2959 39.5061C45.3402 39.4466 45.355 39.3871 45.355 39.3127C45.355 39.2235 45.3254 39.164 45.2663 39.0896C45.2071 39.0301 45.1331 38.9855 45.0444 38.9557C44.9556 38.926 44.8077 38.9111 44.6302 38.9111H43.9793V39.6994H43.9645ZM43.9645 38.6731H44.571C44.7337 38.6731 44.8521 38.6582 44.926 38.6434C45.0148 38.6285 45.0888 38.5839 45.1479 38.5392C45.1923 38.4946 45.2219 38.4202 45.2219 38.3459C45.2219 38.2715 45.1923 38.212 45.1479 38.1525C45.1036 38.093 45.0444 38.0633 44.9556 38.0335C44.8669 38.0186 44.7337 38.0038 44.5266 38.0038H43.9645V38.6731ZM43.5947 39.9523V37.7212H44.6598C44.8817 37.7212 45.0444 37.736 45.1775 37.7955C45.3106 37.8402 45.4142 37.9145 45.4882 38.0038C45.5621 38.093 45.6065 38.1971 45.6065 38.3013C45.6065 38.3905 45.5769 38.4797 45.503 38.569C45.4438 38.6582 45.3402 38.7177 45.2071 38.7772C45.3846 38.8219 45.5177 38.8814 45.6065 38.9855C45.6953 39.0747 45.7396 39.1937 45.7396 39.3276C45.7396 39.4317 45.7101 39.5358 45.6509 39.6251C45.5917 39.7143 45.5325 39.7887 45.4438 39.8333C45.355 39.8779 45.2515 39.9226 45.1331 39.9374C45.0148 39.9672 44.8521 39.982 44.6746 39.982H43.5947V39.9523ZM41.6272 39.045H42.5888L42.2929 38.4202C42.2041 38.2269 42.1302 38.0781 42.0858 37.9591C42.0414 38.1079 41.997 38.2418 41.9231 38.3905L41.6272 39.045ZM40.7988 39.9523L41.8935 37.7212H42.3077L43.4615 39.9523H43.0325L42.7071 39.283H41.5089L41.1982 39.9523H40.7988ZM39.0828 39.9523V37.7212H40.9911V37.9889H39.4527V38.688H40.784V38.9557H39.4527V39.9672L39.0828 39.9523ZM36.1982 39.9523V39.0152L35.1036 37.736H35.5621L36.1243 38.4054C36.2278 38.5244 36.3314 38.6582 36.4201 38.7772C36.5089 38.6582 36.6124 38.5244 36.7308 38.3905L37.2781 37.736H37.7219L36.5828 39.0152V39.9523H36.1982ZM33.8462 39.9523V37.9889H32.9142V37.7212H35.1627V37.9889H34.2308V39.9523H33.8462ZM32.2337 39.9523V37.7212H32.6035V39.9523H32.2337ZM30.1036 39.9523V37.7212H30.4734V39.6846H31.8639V39.9523H30.1036ZM28.1361 39.045H29.0976L28.8018 38.4202C28.713 38.2269 28.6391 38.0781 28.5947 37.9591C28.5503 38.1079 28.5059 38.2418 28.432 38.3905L28.1361 39.045ZM27.3225 39.9523L28.4172 37.7212H28.8314L29.9852 39.9523H29.5562L29.2308 39.283H28.0325L27.7219 39.9523H27.3225ZM26.7899 37.736H27.1598V39.0152C27.1598 39.2383 27.1302 39.4168 27.0562 39.5507C26.997 39.6846 26.8787 39.7887 26.7012 39.8779C26.5385 39.9672 26.3166 39.9969 26.0355 39.9969C25.7692 39.9969 25.5473 39.9672 25.3846 39.8928C25.2219 39.8184 25.0888 39.7143 25.0296 39.5804C24.9556 39.4466 24.926 39.2532 24.926 39.0152V37.736H25.2959V39.0152C25.2959 39.2086 25.3254 39.3573 25.3698 39.4466C25.4142 39.5358 25.4882 39.6102 25.6065 39.6548C25.7249 39.6994 25.858 39.7292 26.0207 39.7292C26.3018 39.7292 26.4941 39.6846 26.6124 39.5804C26.7308 39.4763 26.7899 39.2978 26.7899 39.0152V37.736ZM23.3284 39.3425C23.5503 39.3871 23.7278 39.4614 23.8609 39.5507C24.0828 39.3871 24.1864 39.1491 24.1864 38.8367C24.1864 38.6582 24.142 38.4946 24.068 38.3608C23.9941 38.2269 23.8757 38.1228 23.7278 38.0484C23.5799 37.974 23.4024 37.9443 23.2249 37.9443C22.9438 37.9443 22.7071 38.0186 22.5296 38.1674C22.3521 38.3161 22.2485 38.5392 22.2485 38.8367C22.2485 39.1193 22.3373 39.3425 22.5148 39.5061C22.6923 39.6548 22.929 39.7441 23.2101 39.7441C23.3432 39.7441 23.4763 39.7292 23.5947 39.6846C23.4763 39.6251 23.358 39.5804 23.2249 39.5507L23.3284 39.3425ZM24.142 39.7143C24.3195 39.8036 24.4822 39.8779 24.6302 39.9226L24.5118 40.1308C24.3047 40.0713 24.0976 39.9821 23.9053 39.8631C23.6982 39.9523 23.4615 39.9969 23.2101 39.9969C22.9586 39.9969 22.7219 39.9523 22.5148 39.8482C22.3077 39.7441 22.145 39.6102 22.0266 39.4317C21.9083 39.2532 21.8639 39.0598 21.8639 38.8367C21.8639 38.6136 21.9231 38.4202 22.0414 38.2418C22.1598 38.0633 22.3225 37.9294 22.5296 37.8253C22.7367 37.736 22.9734 37.6914 23.2396 37.6914C23.5059 37.6914 23.7426 37.736 23.9497 37.8401C24.1568 37.9443 24.3195 38.0781 24.4379 38.2566C24.5414 38.4351 24.6006 38.6285 24.6006 38.8516C24.6006 39.0301 24.571 39.1937 24.497 39.3425C24.3935 39.4912 24.2899 39.6102 24.142 39.7143ZM18.0473 39.9523V37.7212H18.4172V38.6434H19.8817V37.7212H20.2515V39.9523H19.8817V38.9111H18.4172V39.9523H18.0473ZM16.4349 39.0896V38.8219H17.6331V39.6399C17.4556 39.7589 17.2633 39.8482 17.0562 39.8928C16.8639 39.9523 16.6568 39.982 16.4497 39.982C16.1686 39.982 15.9172 39.9374 15.6953 39.8482C15.4734 39.7589 15.2959 39.6251 15.1775 39.4466C15.0592 39.2681 15 39.0747 15 38.8516C15 38.6285 15.0592 38.4351 15.1775 38.2418C15.2959 38.0484 15.4586 37.9145 15.6805 37.8253C15.9024 37.736 16.1538 37.6914 16.4349 37.6914C16.642 37.6914 16.8195 37.7212 16.997 37.7658C17.1598 37.8253 17.2929 37.8848 17.3817 37.9889C17.4704 38.0781 17.5444 38.1971 17.6036 38.3608L17.2633 38.4351C17.2189 38.3161 17.1746 38.2269 17.1006 38.1674C17.0414 38.1079 16.9527 38.0484 16.8343 38.0186C16.716 37.974 16.5828 37.9591 16.4497 37.9591C16.2722 37.9591 16.1243 37.974 16.0059 38.0186C15.8876 38.0633 15.784 38.1079 15.7101 38.1823C15.6361 38.2418 15.5769 38.3161 15.5325 38.4054C15.4586 38.5392 15.429 38.688 15.429 38.8516C15.429 39.045 15.4734 39.2235 15.5621 39.3573C15.6509 39.4912 15.7692 39.5953 15.9467 39.6548C16.1095 39.7143 16.287 39.7589 16.4793 39.7589C16.642 39.7589 16.8047 39.7292 16.9527 39.6846C17.1006 39.6399 17.2189 39.5804 17.3077 39.5209V39.1045H16.4349V39.0896ZM14.216 39.9523V37.7212H14.5858V39.9523H14.216ZM11.4645 39.9523V37.7212H11.8343V38.6434H13.2988V37.7212H13.6686V39.9523H13.2988V38.9111H11.8343V39.9523H11.4645Z" fill="black"/>
</svg>
