<?xml version="1.0" encoding="UTF-8" standalone="no"?><!DOCTYPE svg PUBLIC "-//W3C//DTD SVG 1.1//EN" "http://www.w3.org/Graphics/SVG/1.1/DTD/svg11.dtd"><svg width="100%" height="100%" viewBox="0 0 92 83" version="1.1" xmlns="http://www.w3.org/2000/svg" xmlns:xlink="http://www.w3.org/1999/xlink" xml:space="preserve" style="fill-rule:evenodd;clip-rule:evenodd;stroke-linejoin:round;stroke-miterlimit:1.41421;"><path d="M84.344,48.711c-0.746,-0.31 -2.984,-2.29 -4.973,-0.929c-1.989,1.362 1.554,6.932 1.43,12.379c-0.187,5.447 -2.611,16.588 -20.263,21.292c-1.989,0.433 -2.362,-1.3 -0.621,-2.167c2.983,-1.485 5.656,-5.199 5.656,-13.245c0,-3.404 -0.373,-7.737 -1.616,-12.998c-0.311,-1.176 -2.051,-1.795 -2.051,-1.795c0,0 -3.792,-1.114 -6.34,1.548c-2.548,2.599 -5.159,-2.043 -1.865,-2.909c6.464,-1.61 9.51,-2.971 16.285,-3.838c6.775,-0.866 12.12,0.31 15.228,0.929c2.051,0.371 1.367,3.218 -0.87,1.733Z" style="fill:#f36f21;fill-rule:nonzero;"/><path d="M75.207,32.123c0,-4.394 -3.605,-7.984 -8.018,-7.984c-4.413,0 -7.956,3.59 -7.956,7.984c0,4.395 3.605,7.984 7.956,7.984c4.413,-0.062 8.018,-3.59 8.018,-7.984Z" style="fill:#f36f21;fill-rule:nonzero;"/><path d="M51.091,83c-9.012,0 -17.217,-1.733 -22.624,-3.775c-20.138,-7.923 -28.467,-20.797 -28.467,-33.671c0,-17.33 14.793,-34.97 36.671,-41.717c8.329,-2.599 16.16,-3.837 23.308,-3.837c17.528,0 30.269,7.118 31.823,16.588c1.243,7.365 -3.791,6.065 -3.48,4.27c1.367,-9.469 -10.442,-17.763 -23.992,-17.763c-2.797,0 -5.905,0.371 -8.888,1.052c-17.03,4.518 -25.546,23.829 -25.546,41.964c0,15.474 6.278,29.957 18.957,33.609c1.368,0.371 3.295,0.742 5.408,0.742c3.481,0.062 3.232,2.538 -3.17,2.538Z" style="fill:#f36f21;fill-rule:nonzero;"/></svg>