<svg width="224" height="55" viewBox="0 0 224 55" fill="none" xmlns="http://www.w3.org/2000/svg">
<path d="M10.2261 42.3652H2.19128L10.3478 0H37.7391L36.2782 7.54783H16.9217L15.0956 17.0435H32.0174L30.5565 24.5913H13.6348L10.2261 42.3652Z" fill="#555555"/>
<path d="M44.4347 34.6957H63.5478L62.0869 42.3652H34.9391L43.0956 0H51.1304L44.4347 34.6957Z" fill="#555555"/>
<path d="M143.409 42.3652H135.861L142.678 6.93913H142.557L128.557 42.3652H120.643L120.522 6.93913H120.4L113.583 42.3652H106.035L114.191 0H126L126.487 33.4783H126.609L139.878 0H151.565L143.409 42.3652Z" fill="#555555"/>
<path d="M167.635 9.61739L169.339 26.4174H159.478L167.635 9.61739ZM155.948 33.7217H170.191L170.922 42.487H179.687L174.209 0H164.957L143.043 42.3652H151.565L155.948 33.7217Z" fill="#555555"/>
<path d="M216.452 0H224L215.844 42.3652H207.687L197.826 12.1739H197.704L191.861 42.3652H184.435L192.591 0H201.113L210.609 29.5826H210.73L216.452 0Z" fill="#555555"/>
<path d="M217.791 54.9043H0L2.31304 47.113H220.104L217.791 54.9043Z" fill="#555555"/>
<path d="M89.2348 9.61739L90.9392 26.4174H81.0783L89.2348 9.61739ZM77.5479 33.7217H91.7913L92.5218 42.487H101.287L95.9305 0H86.6783L64.7653 42.3652H73.287L77.5479 33.7217Z" fill="#555555"/>
</svg>
