<svg xmlns="http://www.w3.org/2000/svg" viewBox="0 0 225.83 186.81"><style>.st0{fill:#fff}</style><g id="Layer_1"><path class="st0" d="M165.29 83.74c-1.16-.45-4.79-3.71-7.96-1.46-3.18 2.24 2.53 11.22 2.28 19.99-.26 8.77-4.22 26.82-32.64 34.38-3.16.66-3.82-2.14-.97-3.54 4.8-2.38 9.07-8.37 9.07-21.42 0-5.53-.65-12.51-2.6-20.97-.49-1.95-3.25-2.92-3.25-2.92s-6.09-1.78-10.2 2.46c-4.1 4.24-8.34-3.28-2.97-4.73 10.4-2.6 15.27-4.84 26.21-6.2 10.94-1.37 19.46.52 24.5 1.49 3.25.69 2.16 5.34-1.47 2.92M150.53 56.9c0-7.1-5.75-12.85-12.85-12.85s-12.85 5.75-12.85 12.85 5.75 12.85 12.85 12.85c7.09 0 12.85-5.75 12.85-12.85"/><path class="st0" d="M111.8 139.1c-14.54 0-27.69-2.78-36.36-6.15C43 120.26 29.57 99.44 29.57 78.61c0-27.96 23.77-56.52 59.01-67.43 13.42-4.16 26.01-6.15 37.48-6.15 28.25 0 48.66 11.5 51.18 26.77 1.96 11.9-6.11 9.84-5.59 6.94 2.24-15.27-16.78-28.76-38.6-28.76-4.47 0-9.51.59-14.26 1.78-27.41 7.36-41.11 38.49-41.11 67.84 0 24.99 10.07 48.39 30.48 54.34 2.24.59 5.31 1.19 8.67 1.19 5.65 0 5.26 3.97-5.03 3.97"/><g><path class="st0" d="M10.25 163.34c-2.68 0-4.86 2.18-4.86 4.86s2.18 4.86 4.86 4.86 4.86-2.18 4.86-4.86c-.01-2.68-2.18-4.86-4.86-4.86m6.39 10.35c0 6.11-4.03 7.17-6.53 7.17-2.47 0-4.83-.95-6.08-2.57l1.25-1.17c1.11 1.57 2.92 2.31 4.83 2.31 4.86 0 4.94-4.25 4.94-5.63v-1.7H15c-.93 1.46-2.55 2.39-4.65 2.39-3.61 0-6.56-2.84-6.56-6.29s2.95-6.29 6.56-6.29c2.1 0 3.72.93 4.65 2.39h.06v-2.07h1.59v11.46zM21.88 165.68c0-.9-.13-2.81-.13-3.45h1.59c.03.9.05 1.91.11 2.15.8-1.43 2.07-2.47 3.9-2.47.32 0 .61.05.93.13l-.18 1.57c-.24-.08-.45-.11-.61-.11-2.76 0-4.01 1.91-4.01 4.3v6.69h-1.59v-8.81zM38.39 168.33c-2.66 0-5.31.66-5.31 2.76 0 1.51 1.46 2.28 2.79 2.28 3.4 0 4.27-2.18 4.27-4.22v-.82h-1.75zm3.19 1.01c0 2.39.05 3.74.24 5.15h-1.49c-.11-.61-.16-1.3-.16-1.99h-.05c-.9 1.57-2.23 2.31-4.3 2.31-2.1 0-4.33-1.04-4.33-3.64 0-3.74 4.38-4.11 6.8-4.11h1.86v-.75c0-2.12-1.49-2.97-3.45-2.97-1.43 0-2.65.45-3.74 1.38l-.93-1.09c1.17-1.11 3.08-1.73 4.67-1.73 2.98 0 4.89 1.33 4.89 4.43v3.01zM53.37 173.37c3 0 4.86-2.26 4.86-5.02s-1.86-5.02-4.86-5.02c-2.9 0-5.13 2.26-5.13 5.02.01 2.77 2.23 5.02 5.13 5.02m-6.56-11.15h1.59v2.15h.06c.98-1.7 3.08-2.47 4.91-2.47 3.77 0 6.45 2.71 6.45 6.45s-2.68 6.45-6.45 6.45c-1.83 0-3.93-.77-4.91-2.47h-.06v8.2h-1.59v-18.31zM64.71 154.42h1.59v9.96h.06c.64-1.35 2.2-2.47 4.19-2.47 3.82 0 4.67 2.6 4.67 5.28v7.3h-1.59v-7.22c0-1.99-.56-3.93-3.08-3.93-2.36 0-4.25 1.65-4.25 5.02v6.13h-1.59v-20.07zM81.07 162.22h1.59v12.27h-1.59v-12.27zm.79-6.05c.66 0 1.19.53 1.19 1.19 0 .66-.53 1.2-1.19 1.2-.66 0-1.19-.53-1.19-1.2 0-.66.53-1.19 1.19-1.19M98.78 172.68c-1.19 1.43-2.76 2.12-4.51 2.12-3.77 0-6.45-2.71-6.45-6.45s2.68-6.45 6.45-6.45c1.78 0 3.37.77 4.57 2.12l-1.27.96c-.93-1.01-2.02-1.64-3.29-1.64-3 0-4.86 2.26-4.86 5.02s1.86 5.02 4.86 5.02c1.33 0 2.47-.69 3.29-1.7l1.21 1zM102.47 161.91h2.39v12.59h-2.39v-12.59zm1.19-6.27c.96 0 1.75.8 1.75 1.75s-.8 1.75-1.75 1.75c-.96 0-1.75-.8-1.75-1.75s.8-1.75 1.75-1.75M109.98 161.9h2.39v1.94h.05c.61-1.33 2.2-2.26 4.14-2.26 2.44 0 4.56 1.46 4.56 4.81v8.1h-2.39v-7.43c0-2.36-1.35-3.24-2.87-3.24-1.99 0-3.5 1.27-3.5 4.19v6.48h-2.39V161.9zM132.82 163.98h-3.43v5.71c0 1.41 0 2.89 1.81 2.89.56 0 1.22-.08 1.7-.37v2.18c-.56.32-1.67.42-2.15.42-3.69 0-3.74-2.26-3.74-4.27v-6.56h-2.76v-2.07h2.76v-3.53h2.39v3.53h3.43v2.07zM148.38 174.49h-2.39v-1.94h-.05c-.61 1.33-2.2 2.26-4.14 2.26-2.44 0-4.57-1.46-4.57-4.81v-8.1h2.39v7.43c0 2.36 1.35 3.24 2.87 3.24 1.99 0 3.5-1.27 3.5-4.19v-6.48h2.39v12.59zM153.51 161.91h2.39v12.59h-2.39v-12.59zm1.19-6.27c.96 0 1.75.8 1.75 1.75s-.8 1.75-1.75 1.75c-.96 0-1.75-.8-1.75-1.75s.8-1.75 1.75-1.75M167.77 163.98h-3.43v5.71c0 1.41 0 2.89 1.81 2.89.56 0 1.22-.08 1.7-.37v2.18c-.56.32-1.67.42-2.15.42-3.69 0-3.74-2.26-3.74-4.27v-6.56h-2.76v-2.07h2.76v-3.53h2.39v3.53h3.43v2.07zM172.36 161.91h2.39v12.59h-2.39v-12.59zm1.2-6.27c.96 0 1.75.8 1.75 1.75s-.8 1.75-1.75 1.75c-.96 0-1.75-.8-1.75-1.75s.79-1.75 1.75-1.75M185.96 172.58c2.55 0 4.14-1.83 4.14-4.38s-1.59-4.38-4.14-4.38-4.14 1.83-4.14 4.38 1.59 4.38 4.14 4.38m0-10.99c3.74 0 6.69 2.95 6.69 6.61s-2.95 6.61-6.69 6.61-6.69-2.95-6.69-6.61c0-3.67 2.94-6.61 6.69-6.61M196.98 161.9h2.39v1.94h.05c.61-1.33 2.2-2.26 4.14-2.26 2.44 0 4.57 1.46 4.57 4.81v8.1h-2.39v-7.43c0-2.36-1.35-3.24-2.87-3.24-1.99 0-3.5 1.27-3.5 4.19v6.48h-2.39V161.9zM219.76 165.06c-.56-.69-1.38-1.25-2.57-1.25-1.11 0-2.1.51-2.1 1.41 0 1.52 2.15 1.73 3.21 1.97 2.07.5 3.66 1.3 3.66 3.66 0 2.84-2.6 3.96-5.1 3.96-2.07 0-3.61-.53-4.86-2.23l1.81-1.49c.77.77 1.67 1.49 3.05 1.49 1.22 0 2.55-.5 2.55-1.59 0-1.43-1.99-1.7-3.03-1.94-2.04-.5-3.85-1.17-3.85-3.58 0-2.63 2.41-3.88 4.78-3.88 1.67 0 3.4.58 4.3 2.07l-1.85 1.4z"/></g></g></svg>