<svg width="92" height="83" viewBox="0 0 92 83" fill="none" xmlns="http://www.w3.org/2000/svg">
<path d="M84.3435 48.7107C83.5976 48.4012 81.3601 46.4206 79.3711 47.7822C77.3822 49.1439 80.925 54.7144 80.8007 60.1611C80.6142 65.6077 78.1902 76.7487 60.5383 81.4526C58.5494 81.8859 58.1765 80.1529 59.9168 79.2863C62.9002 77.8009 65.5728 74.0872 65.5728 66.041C65.5728 62.6368 65.1999 58.3042 63.9568 53.0432C63.6461 51.8672 61.9057 51.2483 61.9057 51.2483C61.9057 51.2483 58.1143 50.1342 55.566 52.7957C53.0176 55.3952 50.4071 50.7532 53.7013 49.8866C60.1654 48.2774 63.211 46.9157 69.9858 46.0492C76.7606 45.1827 82.1059 46.3587 85.2137 46.9776C87.2648 47.349 86.5811 50.1961 84.3435 48.7107Z" fill="white"/>
<path d="M75.2069 32.123C75.2069 27.7286 71.6019 24.1387 67.1889 24.1387C62.776 24.1387 59.2332 27.7286 59.2332 32.123C59.2332 36.5175 62.8381 40.1074 67.1889 40.1074C71.6019 40.0455 75.2069 36.5175 75.2069 32.123Z" fill="white"/>
<path d="M51.091 83C42.0786 83 33.8742 81.267 28.4668 79.2245C8.3287 71.302 0 58.428 0 45.5541C0 28.2237 14.7928 10.5839 36.6712 3.83743C44.9999 1.23788 52.8313 0 59.9791 0C77.5067 0 90.2483 7.11782 91.8022 16.5876C93.0453 23.953 88.0108 22.6532 88.3215 20.8583C89.6889 11.3885 77.8796 3.09471 64.3299 3.09471C61.5329 3.09471 58.4252 3.46607 55.4418 4.1469C38.4115 8.66517 29.8963 27.9761 29.8963 46.1111C29.8963 61.5846 36.1739 76.0679 48.8534 79.7196C50.2208 80.091 52.1476 80.4623 54.2609 80.4623C57.7415 80.5242 57.4929 83 51.091 83Z" fill="white"/>
</svg>
