<svg width="224" height="61" viewBox="0 0 224 61" fill="none" xmlns="http://www.w3.org/2000/svg">
<path d="M87.9161 27.3326H76.5865V37.1432H87.9161V33.6975H81.9974V31.0567H91.4552V36.3984C91.4552 37.8353 91.1823 38.8059 90.6367 39.3099C90.0911 39.8065 89.0756 40.0623 87.5826 40.0623H76.829C75.3361 40.0623 74.3206 39.814 73.7749 39.3099C73.2293 38.8134 72.9565 37.8429 72.9565 36.3984V28.2354C72.9565 26.7985 73.2293 25.8279 73.7749 25.3239C74.3206 24.8273 75.3361 24.5715 76.829 24.5715H87.5826C89.0301 24.5715 90.038 24.8198 90.6064 25.3088C91.1672 25.7979 91.4552 26.7232 91.4552 28.085V28.4461L87.9161 29.0781V27.3326Z" fill="#555555"/>
<path d="M102.148 40.0548V24.5791H105.771V37.1508H117.464V40.0623H102.148V40.0548Z" fill="#555555"/>
<path d="M125.474 28.2354C125.474 26.7985 125.747 25.8279 126.293 25.3239C126.838 24.8273 127.854 24.5715 129.347 24.5715H140.828C142.321 24.5715 143.336 24.8198 143.882 25.3239C144.428 25.8204 144.7 26.7909 144.7 28.2354V36.3908C144.7 37.8278 144.428 38.7983 143.882 39.3024C143.336 39.799 142.321 40.0548 140.828 40.0548H129.347C127.854 40.0548 126.838 39.8065 126.293 39.3024C125.747 38.8059 125.474 37.8353 125.474 36.3908V28.2354ZM129.097 37.1432H141.063V27.3326H129.097V37.1432Z" fill="#555555"/>
<path d="M155.356 40.0548V24.5791H168.708C171.042 24.5791 172.209 25.5797 172.209 27.581V29.4693C172.209 30.9891 171.315 31.8618 169.519 32.08C171.391 32.3207 172.331 33.3138 172.331 35.0517V37.0304C172.331 39.0467 170.8 40.0623 167.738 40.0623H155.356V40.0548ZM167.193 27.0995H158.918V30.7859H167.193C168.299 30.7859 168.852 30.4173 168.852 29.6725V28.2054C168.86 27.4681 168.307 27.0995 167.193 27.0995ZM167.193 33.3364H158.918V37.2636H167.193C167.799 37.2636 168.223 37.1959 168.458 37.053C168.777 36.8498 168.943 36.4661 168.943 35.8793V34.7132C168.943 34.1339 168.784 33.7426 168.458 33.547C168.223 33.4041 167.799 33.3364 167.193 33.3364Z" fill="#555555"/>
<path d="M179.372 40.0548L188.193 24.5791H191.694L200.637 40.0548H196.559L194.688 36.6693H184.805L182.994 40.0548H179.372ZM186.351 33.8781H193.179L189.822 27.581L186.351 33.8781Z" fill="#555555"/>
<path d="M208.677 40.0548V24.5791H212.3V37.1508H223.993V40.0623H208.677V40.0548Z" fill="#555555"/>
<path d="M73.3127 53.5368L76.7457 47.5181H78.1098L81.5882 53.5368H80.0043L79.2768 52.2202H75.4346L74.7298 53.5368H73.3127ZM76.0333 51.1368H78.6857L77.3822 48.6842L76.0333 51.1368Z" fill="#555555"/>
<path d="M86.7111 47.5181V52.4083H90.7276V47.5181H92.1372V52.1149C92.1372 52.6716 92.0311 53.0553 91.8189 53.2434C91.6067 53.4315 91.2126 53.5368 90.6291 53.5368H86.8021C86.2185 53.5368 85.8245 53.439 85.6123 53.2434C85.4001 53.0478 85.294 52.6716 85.294 52.1149V47.5181H86.7111Z" fill="#555555"/>
<path d="M102.088 48.594H98.2832V52.4083H102.088V51.1143L103.497 51.4077V52.1225C103.497 52.6792 103.391 53.0629 103.179 53.251C102.967 53.4466 102.573 53.5444 101.989 53.5444H98.3666C97.7831 53.5444 97.389 53.4466 97.1768 53.251C96.9646 53.0554 96.8585 52.6792 96.8585 52.1225V48.9476C96.8585 48.3908 96.9646 48.0071 97.1768 47.8191C97.389 47.6234 97.7831 47.5256 98.3666 47.5256H101.989C102.565 47.5256 102.967 47.6234 103.179 47.8191C103.391 48.0147 103.497 48.3908 103.497 48.9476V49.5193L102.088 49.7451V48.594Z" fill="#555555"/>
<path d="M111 48.5939V53.5368H109.59V48.5939H106.809V47.5181H113.804V48.5939H111Z" fill="#555555"/>
<path d="M117.282 53.5368V47.5181H118.692V53.5368H117.282Z" fill="#555555"/>
<path d="M123.428 48.9476C123.428 48.3908 123.534 48.0071 123.746 47.8191C123.959 47.6234 124.353 47.5256 124.936 47.5256H129.4C129.983 47.5256 130.377 47.6234 130.59 47.8191C130.802 48.0147 130.908 48.3908 130.908 48.9476V52.1225C130.908 52.6792 130.802 53.0629 130.59 53.251C130.377 53.4466 129.983 53.5444 129.4 53.5444H124.936C124.353 53.5444 123.959 53.4466 123.746 53.251C123.534 53.0554 123.428 52.6792 123.428 52.1225V48.9476ZM124.838 52.4083H129.491V48.594H124.838V52.4083Z" fill="#555555"/>
<path d="M135.629 53.5368V47.5181H136.592L140.858 51.0616C141.161 51.3174 141.396 51.5356 141.548 51.7161C141.51 51.1594 141.487 50.8133 141.487 50.6779V47.5181H142.753V53.5368H141.79L137.334 49.8127C137.145 49.6547 136.978 49.4967 136.827 49.3237C136.864 49.7149 136.887 50.0309 136.887 50.2792V53.5368H135.629Z" fill="#555555"/>
<path d="M159.607 48.594H155.204V52.4083H159.607V51.0692H157.303V50.046H160.979V52.1225C160.979 52.6792 160.873 53.0629 160.66 53.251C160.448 53.4466 160.054 53.5444 159.471 53.5444H155.287C154.704 53.5444 154.31 53.4466 154.098 53.251C153.885 53.0554 153.779 52.6792 153.779 52.1225V48.9476C153.779 48.3908 153.885 48.0071 154.098 47.8191C154.31 47.6234 154.704 47.5256 155.287 47.5256H159.471C160.031 47.5256 160.425 47.6234 160.645 47.8115C160.865 47.9996 160.971 48.3607 160.971 48.8874V49.0303L159.599 49.2786V48.594H159.607Z" fill="#555555"/>
<path d="M167.139 47.5181V52.4083H171.156V47.5181H172.565V52.1149C172.565 52.6716 172.459 53.0553 172.247 53.2434C172.035 53.439 171.641 53.5368 171.057 53.5368H167.23C166.647 53.5368 166.253 53.439 166.041 53.2434C165.828 53.0478 165.722 52.6716 165.722 52.1149V47.5181H167.139Z" fill="#555555"/>
<path d="M177.432 53.5368V47.5181H178.841V53.5368H177.432Z" fill="#555555"/>
<path d="M183.707 53.5368V47.5181H187.609C188.731 47.5181 189.587 47.7814 190.186 48.3005C190.785 48.8196 191.08 49.5494 191.08 50.4973C191.08 51.0992 190.944 51.6409 190.671 52.1299C190.376 52.6415 189.959 53.0102 189.428 53.2359C188.943 53.439 188.216 53.5368 187.253 53.5368H183.707ZM185.116 52.4083H186.935C187.867 52.4083 188.534 52.2729 188.943 52.002C189.39 51.7086 189.61 51.197 189.61 50.4748C189.61 49.2259 188.943 48.5939 187.617 48.5939H185.116V52.4083Z" fill="#555555"/>
<path d="M195.422 53.5368V47.5181H201.628V48.5413H196.831V49.8804H199.628V50.9036H196.831V52.4008H201.681V53.5293H195.422V53.5368Z" fill="#555555"/>
<path d="M38.172 24.549L36.6184 24.5414V21.2387H27.1607V39.6109H36.6184V36.3081H48.6528C46.1823 43.8014 39.0814 49.2258 30.7149 49.2258C20.3099 49.2258 11.8449 40.8221 11.8449 30.4925C11.8449 20.1628 20.3099 11.7591 30.7149 11.7591C36.5957 11.7591 41.8475 14.4525 45.3108 18.6581H59.0351C54.3896 7.69647 43.4617 0 30.7225 0C13.7547 0 0 13.655 0 30.5C0 47.345 13.7547 61 30.7225 61C47.6904 61 61.445 47.345 61.445 30.5C61.445 28.4611 61.2404 26.475 60.8539 24.549H38.172Z" fill="#555555"/>
</svg>
