<svg xmlns="http://www.w3.org/2000/svg" viewBox="0 0 682.4 238.86"><defs><style>.cls-1{fill:#33475b;}.cls-2{fill:#fff;}.cls-3{fill:#dfe3eb;}.cls-4{fill:#cbd6e2;}.cls-5{fill:#ff7a59;}</style></defs><title>partner-horizontal-color</title><g id="Layer_2" data-name="Layer 2"><g id="Layer_1-2" data-name="Layer 1"><path class="cls-1" d="M635.56,115.19l45.07-67.06a6,6,0,0,0-4.25-10.25H124a6,6,0,0,0-6,6V195a6,6,0,0,0,6,6H676.38a6,6,0,0,0,4.25-10.25l-45.07-67.06A6,6,0,0,1,635.56,115.19Z"/><polygon class="cls-2" points="290.79 74.43 290.79 92.08 274.57 92.08 274.57 74.43 266.88 74.43 266.88 116.58 274.57 116.58 274.57 99.49 290.79 99.49 290.79 116.58 298.49 116.58 298.49 74.43 290.79 74.43"/><path class="cls-2" d="M323.12,103a6.37,6.37,0,1,1-12.73,0v-18h-7.3v18a13.66,13.66,0,1,0,27.31,0v-18h-7.28Z"/><path class="cls-2" d="M377.23,86.76c0-3.7,2.44-4.87,5.13-4.87,2.16,0,5,1.64,6.88,3.64L394,79.89a15.06,15.06,0,0,0-11.19-5.46c-7.92,0-13.65,4.64-13.65,12.33,0,14.27,17.44,9.74,17.44,17.73,0,2.46-2.39,4.64-5.13,4.64-4.32,0-5.72-2.12-7.7-4.35l-5.31,5.52a15.65,15.65,0,0,0,12.6,6.28c7.52,0,13.58-4.69,13.58-12,0-15.84-17.45-10.92-17.45-17.79"/><path class="cls-2" d="M485.12,109.84c-4.31,0-5.54-1.86-5.54-4.72V92.46h6.71V86.05h-6.71V77.59l-7.4,3.32v25.78c0,6.59,4.54,9.91,10.78,9.91a15,15,0,0,0,2.92-.23l1.81-6.65c-.82.06-1.75.11-2.57.11"/><path class="cls-2" d="M350.92,85.11a11.21,11.21,0,0,0-8.58,3.44V74.68H335v25.71c0,9.63,7,16.22,14.78,16.22,8.68,0,16.31-6.71,16.31-15.74a15.49,15.49,0,0,0-15.19-15.76m-.05,24.14a8.3,8.3,0,1,1,8.3-8.29,8.29,8.29,0,0,1-8.3,8.29"/><path class="cls-2" d="M430.33,100.48c0-9-7.62-15.75-16.31-15.75-7.82,0-14.77,6.6-14.77,16.22v25.73h7.31V112.79a11.21,11.21,0,0,0,8.58,3.44,15.47,15.47,0,0,0,15.18-15.75m-6.92-.09a8.3,8.3,0,1,1-8.29-8.3,8.3,8.3,0,0,1,8.29,8.3"/><path class="cls-2" d="M453.88,84.62V77.34a5.59,5.59,0,0,0,3.23-5v-.17a5.6,5.6,0,0,0-5.59-5.59h-.17a5.6,5.6,0,0,0-5.6,5.59v.17a5.59,5.59,0,0,0,3.23,5v7.28a15.77,15.77,0,0,0-7.54,3.32l-20-15.54a6.41,6.41,0,0,0,.23-1.57,6.31,6.31,0,1,0-6.32,6.3,6.22,6.22,0,0,0,3.12-.85l19.63,15.28a15.9,15.9,0,0,0,.25,17.94l-6,6a4.68,4.68,0,0,0-1.48-.24,5.19,5.19,0,1,0,5.19,5.18,5.33,5.33,0,0,0-.24-1.48l5.91-5.91a15.93,15.93,0,1,0,12.1-28.41m-2.44,23.92a8.18,8.18,0,1,1,8.17-8.18,8.18,8.18,0,0,1-8.17,8.18"/><path class="cls-2" d="M275.66,154a3.07,3.07,0,0,0-1.13-.87,3.44,3.44,0,0,0-1.47-.35,3.72,3.72,0,0,0-.88.11,2.61,2.61,0,0,0-.8.34,1.78,1.78,0,0,0-.59.6,1.6,1.6,0,0,0-.23.89,1.54,1.54,0,0,0,.2.82,1.69,1.69,0,0,0,.55.58,3.54,3.54,0,0,0,.85.42c.33.12.7.24,1.1.36s.92.31,1.41.5a5.65,5.65,0,0,1,1.34.74,3.75,3.75,0,0,1,1,1.16,3.55,3.55,0,0,1,.39,1.74,4.45,4.45,0,0,1-.42,2,4.12,4.12,0,0,1-1.12,1.41,5,5,0,0,1-1.64.84,6.82,6.82,0,0,1-2,.28,7.43,7.43,0,0,1-2.7-.51,5.18,5.18,0,0,1-2.16-1.51l1.8-1.68a3.57,3.57,0,0,0,1.39,1.14,3.91,3.91,0,0,0,1.71.42,4.1,4.1,0,0,0,.9-.11,2.49,2.49,0,0,0,.83-.37,2.2,2.2,0,0,0,.6-.65,1.91,1.91,0,0,0,.23-1,1.62,1.62,0,0,0-.26-.93,2.4,2.4,0,0,0-.7-.64,5,5,0,0,0-1-.47l-1.26-.42a10.45,10.45,0,0,1-1.28-.48,4.19,4.19,0,0,1-1.15-.74,3.53,3.53,0,0,1-.83-1.13,3.77,3.77,0,0,1-.32-1.67,3.66,3.66,0,0,1,.45-1.86,3.94,3.94,0,0,1,1.18-1.29,5.26,5.26,0,0,1,1.66-.76,7.11,7.11,0,0,1,1.89-.25,6.82,6.82,0,0,1,2.19.38,5.29,5.29,0,0,1,1.93,1.14Z"/><path class="cls-2" d="M280.44,158.06A7.92,7.92,0,0,1,281,155a6.68,6.68,0,0,1,1.58-2.33,7,7,0,0,1,2.4-1.48,8.46,8.46,0,0,1,3-.52,8.7,8.7,0,0,1,3.06.52,7.17,7.17,0,0,1,2.42,1.48,6.7,6.7,0,0,1,1.59,2.33,7.92,7.92,0,0,1,.57,3.07,7.79,7.79,0,0,1-.57,3,7,7,0,0,1-1.59,2.36,7.31,7.31,0,0,1-2.42,1.54,8.28,8.28,0,0,1-3.06.55,8,8,0,0,1-3-.55,7.12,7.12,0,0,1-2.4-1.54,7,7,0,0,1-1.58-2.36A7.79,7.79,0,0,1,280.44,158.06Zm2.74,0a5.84,5.84,0,0,0,.35,2.09,4.78,4.78,0,0,0,1,1.65,4.45,4.45,0,0,0,1.54,1.09,4.84,4.84,0,0,0,2,.39,4.93,4.93,0,0,0,2-.39,4.59,4.59,0,0,0,1.55-1.09,5.1,5.1,0,0,0,1-1.65,6.07,6.07,0,0,0,.35-2.09,5.91,5.91,0,0,0-.35-2,5.21,5.21,0,0,0-1-1.64,4.61,4.61,0,0,0-1.54-1.1,4.83,4.83,0,0,0-2-.4,4.72,4.72,0,0,0-2,.4,4.47,4.47,0,0,0-1.53,1.1,4.86,4.86,0,0,0-1,1.64A5.68,5.68,0,0,0,283.18,158.06Z"/><path class="cls-2" d="M299.3,151h2.52v11.92h6v2.24H299.3Z"/><path class="cls-2" d="M321.52,160a5.91,5.91,0,0,1-.44,2.31,5.12,5.12,0,0,1-3,2.86,6.43,6.43,0,0,1-2.26.39,6.35,6.35,0,0,1-2.26-.39,5.29,5.29,0,0,1-1.81-1.11,4.8,4.8,0,0,1-1.2-1.75,5.91,5.91,0,0,1-.43-2.31v-9h2.52v8.86a4.72,4.72,0,0,0,.16,1.23,2.84,2.84,0,0,0,.53,1.09,2.65,2.65,0,0,0,1,.78,4,4,0,0,0,3,0,2.83,2.83,0,0,0,1-.78,3.16,3.16,0,0,0,.53-1.09,5.19,5.19,0,0,0,.16-1.23V151h2.52Z"/><path class="cls-2" d="M328.58,153.22h-4.34V151h11.2v2.2H331.1v12h-2.52Z"/><path class="cls-2" d="M338.28,151h2.52v14.16h-2.52Z"/><path class="cls-2" d="M344.44,158.06A7.92,7.92,0,0,1,345,155a6.68,6.68,0,0,1,1.58-2.33,7,7,0,0,1,2.4-1.48,8.46,8.46,0,0,1,3-.52,8.7,8.7,0,0,1,3.06.52,7.17,7.17,0,0,1,2.42,1.48,6.7,6.7,0,0,1,1.59,2.33,7.92,7.92,0,0,1,.57,3.07,7.79,7.79,0,0,1-.57,3,7,7,0,0,1-1.59,2.36,7.31,7.31,0,0,1-2.42,1.54,8.28,8.28,0,0,1-3.06.55,8,8,0,0,1-3-.55,7.12,7.12,0,0,1-2.4-1.54,7,7,0,0,1-1.58-2.36A7.79,7.79,0,0,1,344.44,158.06Zm2.74,0a5.84,5.84,0,0,0,.35,2.09,4.78,4.78,0,0,0,1,1.65,4.45,4.45,0,0,0,1.54,1.09,4.84,4.84,0,0,0,2,.39,4.93,4.93,0,0,0,2-.39,4.59,4.59,0,0,0,1.55-1.09,5.1,5.1,0,0,0,1-1.65,6.07,6.07,0,0,0,.35-2.09,5.91,5.91,0,0,0-.35-2,5.21,5.21,0,0,0-1-1.64,4.61,4.61,0,0,0-1.54-1.1,4.83,4.83,0,0,0-2-.4,4.72,4.72,0,0,0-2,.4,4.47,4.47,0,0,0-1.53,1.1,4.86,4.86,0,0,0-1,1.64A5.68,5.68,0,0,0,347.18,158.06Z"/><path class="cls-2" d="M363.29,151h3.35l6.58,10.6h0V151h2.53v14.16h-3.2l-6.72-10.94h0v10.94h-2.53Z"/><path class="cls-2" d="M387.31,154a2.91,2.91,0,0,0-1.13-.87,3.37,3.37,0,0,0-1.47-.35,3.85,3.85,0,0,0-.88.11,2.72,2.72,0,0,0-.8.34,1.88,1.88,0,0,0-.59.6,1.68,1.68,0,0,0-.23.89,1.63,1.63,0,0,0,.2.82,1.9,1.9,0,0,0,.55.58,4,4,0,0,0,.85.42c.34.12.7.24,1.1.36s.93.31,1.41.5a5.29,5.29,0,0,1,1.34.74,3.63,3.63,0,0,1,1,1.16,3.55,3.55,0,0,1,.39,1.74,4.45,4.45,0,0,1-.42,2,4,4,0,0,1-1.12,1.41,4.8,4.8,0,0,1-1.64.84,6.72,6.72,0,0,1-2,.28,7.43,7.43,0,0,1-2.7-.51,5.18,5.18,0,0,1-2.16-1.51l1.8-1.68a3.64,3.64,0,0,0,1.39,1.14,3.91,3.91,0,0,0,1.71.42,4,4,0,0,0,.9-.11,2.32,2.32,0,0,0,.83-.37,2,2,0,0,0,.6-.65,1.81,1.81,0,0,0,.23-1,1.55,1.55,0,0,0-.26-.93,2.17,2.17,0,0,0-.7-.64,4.78,4.78,0,0,0-1-.47l-1.26-.42a11.83,11.83,0,0,1-1.28-.48,4.35,4.35,0,0,1-1.15-.74,3.68,3.68,0,0,1-.83-1.13,3.92,3.92,0,0,1-.32-1.67,3.66,3.66,0,0,1,.45-1.86,4.05,4.05,0,0,1,1.18-1.29,5.36,5.36,0,0,1,1.66-.76,7.11,7.11,0,0,1,1.89-.25A6.82,6.82,0,0,1,387,151a5.2,5.2,0,0,1,1.93,1.14Z"/><path class="cls-2" d="M399,151h4.62a9.81,9.81,0,0,1,2.2.22,4.6,4.6,0,0,1,1.68.72,3.27,3.27,0,0,1,1.08,1.28,4.18,4.18,0,0,1,.38,1.88,4,4,0,0,1-.44,2,3.6,3.6,0,0,1-1.19,1.29,5.19,5.19,0,0,1-1.75.71,9.58,9.58,0,0,1-2.12.22h-1.94v5.86H399Zm4.28,6.18a7.34,7.34,0,0,0,1.18-.09,3.26,3.26,0,0,0,1-.32,1.71,1.71,0,0,0,.7-.63,1.82,1.82,0,0,0,.26-1,1.74,1.74,0,0,0-.26-1,1.78,1.78,0,0,0-.69-.61,2.88,2.88,0,0,0-1-.29,8.26,8.26,0,0,0-1.13-.07h-1.84v4.06Z"/><path class="cls-2" d="M415.61,151h2.18l6.1,14.16H421l-1.32-3.24h-6.14l-1.28,3.24h-2.82Zm3.2,8.76L416.63,154l-2.22,5.76Z"/><path class="cls-2" d="M426.49,151h4.92a8.81,8.81,0,0,1,1.94.21,4.9,4.9,0,0,1,1.67.69,3.54,3.54,0,0,1,1.17,1.26,3.74,3.74,0,0,1,.44,1.9,3.62,3.62,0,0,1-.87,2.51,4.38,4.38,0,0,1-2.37,1.31l3.78,6.28h-3l-3.28-6H429v6h-2.52Zm4.58,6.1a7.85,7.85,0,0,0,1.08-.08,2.9,2.9,0,0,0,1-.3,1.88,1.88,0,0,0,.71-.63,1.78,1.78,0,0,0,.28-1.05,1.57,1.57,0,0,0-.26-.95,1.88,1.88,0,0,0-.66-.59,2.57,2.57,0,0,0-.91-.3,6.83,6.83,0,0,0-1-.08H429v4Z"/><path class="cls-2" d="M442.89,153.22h-4.34V151h11.2v2.2h-4.34v12h-2.52Z"/><path class="cls-2" d="M452.59,151h3.34l6.58,10.6h0V151h2.52v14.16h-3.2l-6.72-10.94h0v10.94h-2.52Z"/><path class="cls-2" d="M469.39,151h9.38v2.2h-6.86v3.6h6.5v2.12h-6.5v4h7.22v2.24h-9.74Z"/><path class="cls-2" d="M482.79,151h4.92a8.81,8.81,0,0,1,1.94.21,4.9,4.9,0,0,1,1.67.69,3.54,3.54,0,0,1,1.17,1.26,3.74,3.74,0,0,1,.44,1.9,3.62,3.62,0,0,1-.87,2.51,4.38,4.38,0,0,1-2.37,1.31l3.78,6.28h-3l-3.28-6h-1.84v6h-2.52Zm4.58,6.1a7.85,7.85,0,0,0,1.08-.08,2.9,2.9,0,0,0,1-.3,1.88,1.88,0,0,0,.71-.63,1.78,1.78,0,0,0,.28-1.05,1.57,1.57,0,0,0-.26-.95,1.88,1.88,0,0,0-.66-.59,2.57,2.57,0,0,0-.91-.3,6.83,6.83,0,0,0-1-.08h-2.28v4Z"/><path class="cls-2" d="M502.77,151h4.62a9.81,9.81,0,0,1,2.2.22,4.6,4.6,0,0,1,1.68.72,3.27,3.27,0,0,1,1.08,1.28,4.18,4.18,0,0,1,.38,1.88,4,4,0,0,1-.44,2,3.6,3.6,0,0,1-1.19,1.29,5.19,5.19,0,0,1-1.75.71,9.58,9.58,0,0,1-2.12.22h-1.94v5.86h-2.52Zm4.28,6.18a7.34,7.34,0,0,0,1.18-.09,3.26,3.26,0,0,0,1-.32,1.71,1.71,0,0,0,.7-.63,1.82,1.82,0,0,0,.26-1,1.74,1.74,0,0,0-.26-1,1.78,1.78,0,0,0-.69-.61,2.88,2.88,0,0,0-1-.29,8.26,8.26,0,0,0-1.13-.07h-1.84v4.06Z"/><path class="cls-2" d="M516.17,151h4.92a8.81,8.81,0,0,1,1.94.21,4.9,4.9,0,0,1,1.67.69,3.54,3.54,0,0,1,1.17,1.26,3.84,3.84,0,0,1,.44,1.9,3.62,3.62,0,0,1-.87,2.51,4.38,4.38,0,0,1-2.37,1.31l3.78,6.28h-3l-3.28-6h-1.84v6h-2.52Zm4.58,6.1a7.85,7.85,0,0,0,1.08-.08,2.9,2.9,0,0,0,1-.3,1.88,1.88,0,0,0,.71-.63,1.78,1.78,0,0,0,.28-1.05,1.64,1.64,0,0,0-.26-.95,1.88,1.88,0,0,0-.66-.59,2.57,2.57,0,0,0-.91-.3,6.83,6.83,0,0,0-1-.08h-2.28v4Z"/><path class="cls-2" d="M529.27,158.06a7.92,7.92,0,0,1,.57-3.07,6.82,6.82,0,0,1,1.58-2.33,7.18,7.18,0,0,1,2.4-1.48,8.53,8.53,0,0,1,3-.52,8.62,8.62,0,0,1,3.06.52,7.07,7.07,0,0,1,2.42,1.48,6.7,6.7,0,0,1,1.59,2.33,7.92,7.92,0,0,1,.57,3.07,7.79,7.79,0,0,1-.57,3,7,7,0,0,1-1.59,2.36,7.21,7.21,0,0,1-2.42,1.54,8.2,8.2,0,0,1-3.06.55,8.12,8.12,0,0,1-3-.55,7.32,7.32,0,0,1-2.4-1.54,7.14,7.14,0,0,1-1.58-2.36A7.79,7.79,0,0,1,529.27,158.06Zm2.74,0a6.07,6.07,0,0,0,.35,2.09,5.1,5.1,0,0,0,1,1.65,4.65,4.65,0,0,0,1.54,1.09,5.2,5.2,0,0,0,4,0,4.49,4.49,0,0,0,1.55-1.09,4.78,4.78,0,0,0,1-1.65,5.84,5.84,0,0,0,.35-2.09,5.68,5.68,0,0,0-.35-2,4.86,4.86,0,0,0-1-1.64,4.51,4.51,0,0,0-1.54-1.1,5.18,5.18,0,0,0-4,0,4.68,4.68,0,0,0-1.53,1.1,5.21,5.21,0,0,0-1,1.64A5.91,5.91,0,0,0,532,158.06Z"/><path class="cls-2" d="M560.53,164.44a10.66,10.66,0,0,1-2.37.81,13.84,13.84,0,0,1-3,.29,8.59,8.59,0,0,1-3.14-.55,7.3,7.3,0,0,1-2.44-1.54,7,7,0,0,1-1.59-2.36,8.31,8.31,0,0,1,0-6.1,7.06,7.06,0,0,1,1.62-2.33,7.31,7.31,0,0,1,2.43-1.48,8.63,8.63,0,0,1,3-.52,9.31,9.31,0,0,1,3.11.49,6.41,6.41,0,0,1,2.27,1.29l-1.74,1.88a4.26,4.26,0,0,0-1.51-1,5.23,5.23,0,0,0-2.11-.42,5,5,0,0,0-2,.4,4.65,4.65,0,0,0-1.55,1.1,5.21,5.21,0,0,0-1,1.64,5.91,5.91,0,0,0-.35,2,6.07,6.07,0,0,0,.35,2.09,5.1,5.1,0,0,0,1,1.65,4.52,4.52,0,0,0,1.58,1.09,5.44,5.44,0,0,0,2.11.39,7.36,7.36,0,0,0,2.82-.5v-3.6h-3V157.1h5.42Z"/><path class="cls-2" d="M564.79,151h4.92a8.81,8.81,0,0,1,1.94.21,4.9,4.9,0,0,1,1.67.69,3.54,3.54,0,0,1,1.17,1.26,3.74,3.74,0,0,1,.44,1.9,3.62,3.62,0,0,1-.87,2.51,4.38,4.38,0,0,1-2.37,1.31l3.78,6.28h-3l-3.28-6h-1.84v6h-2.52Zm4.58,6.1a7.85,7.85,0,0,0,1.08-.08,2.9,2.9,0,0,0,1-.3,1.88,1.88,0,0,0,.71-.63,1.78,1.78,0,0,0,.28-1.05,1.57,1.57,0,0,0-.26-.95,1.88,1.88,0,0,0-.66-.59,2.57,2.57,0,0,0-.91-.3,6.83,6.83,0,0,0-1-.08h-2.28v4Z"/><path class="cls-2" d="M583,151h2.18l6.1,14.16h-2.88l-1.32-3.24H581l-1.28,3.24h-2.82Zm3.2,8.76L584,154l-2.22,5.76Z"/><path class="cls-2" d="M593.89,151h3.94l3.68,10.06h.06L605.21,151h4v14.16h-2.5V153.8h0l-4.3,11.38h-1.76l-4.24-11.38h0v11.38h-2.4Z"/><path class="cls-2" d="M205,169.61V69.26a.09.09,0,0,0-.05-.08L118.05,19a.17.17,0,0,0-.1,0L31.05,69.18a.09.09,0,0,0-.05.08V169.61a.1.1,0,0,0,.05.08L118,219.86a.09.09,0,0,0,.1,0L205,169.69A.1.1,0,0,0,205,169.61Z"/><path class="cls-2" d="M118.16,238.86l-8.46-4.71L22.88,184l-8.33-4.69-.05-9.73V69.26a16.62,16.62,0,0,1,8.3-14.37L109.86,4.62,118.08,0l8.25,4.74,86.84,50.13a16.62,16.62,0,0,1,8.33,14.39v110L213.19,184ZM47.5,160.14l70.5,40.7,70.5-40.7V78.73L118,38,47.5,78.73Z"/><path class="cls-2" d="M205,169.61V69.26a.09.09,0,0,0-.05-.08L118.05,19a.17.17,0,0,0-.1,0L31.05,69.18a.09.09,0,0,0-.05.08V169.61a.1.1,0,0,0,.05.08L118,219.86a.09.09,0,0,0,.1,0L205,169.69A.1.1,0,0,0,205,169.61Z"/><path class="cls-1" d="M118.1,229.07,114,226.84l-91-52.53-.05-4.7V69.26a8.12,8.12,0,0,1,4.13-7.06L118,9.76l4.11,2.33L209,62.25a8.07,8.07,0,0,1,4.05,7v105l-4.13,2.38ZM39,165l79,45.62L197,165V73.82L118,28.21,39,73.82Zm161.87-89,.16.09ZM35.2,76l-.15.08Z"/><line class="cls-3" x1="82.02" y1="81.16" x2="118" y2="81.16"/><path class="cls-4" d="M118,82.66H82a1.5,1.5,0,0,1,0-3h36a1.5,1.5,0,0,1,0,3Z"/><line class="cls-3" x1="86.84" y1="63.17" x2="118" y2="81.16"/><path class="cls-4" d="M118,82.66a1.56,1.56,0,0,1-.75-.2l-31.16-18a1.5,1.5,0,0,1,1.5-2.6l31.16,18a1.5,1.5,0,0,1-.75,2.8Z"/><line class="cls-3" x1="100.01" y1="50" x2="118" y2="81.16"/><path class="cls-4" d="M118,82.66a1.5,1.5,0,0,1-1.3-.75l-18-31.16a1.5,1.5,0,1,1,2.6-1.5l18,31.16a1.5,1.5,0,0,1-.55,2A1.56,1.56,0,0,1,118,82.66Z"/><line class="cls-3" x1="118" y1="45.17" x2="118" y2="81.16"/><path class="cls-4" d="M118,82.66a1.5,1.5,0,0,1-1.5-1.5v-36a1.5,1.5,0,0,1,3,0v36A1.5,1.5,0,0,1,118,82.66Z"/><line class="cls-3" x1="135.99" y1="50" x2="118" y2="81.16"/><path class="cls-4" d="M118,82.66a1.56,1.56,0,0,1-.75-.2,1.5,1.5,0,0,1-.55-2l18-31.16a1.5,1.5,0,1,1,2.6,1.5l-18,31.16A1.5,1.5,0,0,1,118,82.66Z"/><line class="cls-3" x1="149.16" y1="63.17" x2="118" y2="81.16"/><path class="cls-4" d="M118,82.66a1.5,1.5,0,0,1-.75-2.8l31.16-18a1.5,1.5,0,0,1,1.5,2.6l-31.16,18A1.56,1.56,0,0,1,118,82.66Z"/><line class="cls-3" x1="153.98" y1="81.16" x2="118" y2="81.16"/><path class="cls-4" d="M154,82.66H118a1.5,1.5,0,0,1,0-3h36a1.5,1.5,0,0,1,0,3Z"/><line class="cls-3" x1="153.98" y1="157.71" x2="118" y2="157.71"/><path class="cls-4" d="M154,159.21H118a1.5,1.5,0,0,1,0-3h36a1.5,1.5,0,0,1,0,3Z"/><line class="cls-3" x1="149.16" y1="175.7" x2="118" y2="157.71"/><path class="cls-4" d="M149.16,177.2a1.48,1.48,0,0,1-.75-.2l-31.16-18a1.5,1.5,0,1,1,1.5-2.6l31.16,18a1.5,1.5,0,0,1-.75,2.8Z"/><line class="cls-3" x1="135.99" y1="188.87" x2="118" y2="157.71"/><path class="cls-4" d="M136,190.37a1.51,1.51,0,0,1-1.3-.75l-18-31.16a1.5,1.5,0,0,1,2.6-1.5l18,31.16a1.5,1.5,0,0,1-.55,2A1.43,1.43,0,0,1,136,190.37Z"/><line class="cls-3" x1="118" y1="193.69" x2="118" y2="157.71"/><path class="cls-4" d="M118,195.19a1.5,1.5,0,0,1-1.5-1.5v-36a1.5,1.5,0,0,1,3,0v36A1.5,1.5,0,0,1,118,195.19Z"/><line class="cls-3" x1="100.01" y1="188.87" x2="118" y2="157.71"/><path class="cls-4" d="M100,190.37a1.43,1.43,0,0,1-.75-.2,1.49,1.49,0,0,1-.55-2l18-31.16a1.5,1.5,0,0,1,2.6,1.5l-18,31.16A1.51,1.51,0,0,1,100,190.37Z"/><line class="cls-3" x1="86.84" y1="175.7" x2="118" y2="157.71"/><path class="cls-4" d="M86.84,177.2a1.5,1.5,0,0,1-.75-2.8l31.16-18a1.5,1.5,0,1,1,1.5,2.6L87.59,177A1.48,1.48,0,0,1,86.84,177.2Z"/><line class="cls-3" x1="82.02" y1="157.71" x2="118" y2="157.71"/><path class="cls-4" d="M118,159.21H82a1.5,1.5,0,0,1,0-3h36a1.5,1.5,0,1,1,0,3Z"/><rect class="cls-5" x="8" y="95.43" width="220" height="46" rx="3.02"/><path class="cls-2" d="M225,95.43a3,3,0,0,1,3,3v40a3,3,0,0,1-3,3H11a3,3,0,0,1-3-3v-40a3,3,0,0,1,3-3H225m0-8H11a11,11,0,0,0-11,11v40a11,11,0,0,0,11,11H225a11,11,0,0,0,11-11v-40a11,11,0,0,0-11-11Z"/><path class="cls-2" d="M72.64,108.39H79.1a13.78,13.78,0,0,1,3.08.31,6.48,6.48,0,0,1,2.36,1,4.8,4.8,0,0,1,1.51,1.8,6,6,0,0,1,.53,2.63A5.7,5.7,0,0,1,86,116.9a5,5,0,0,1-1.66,1.81,7.37,7.37,0,0,1-2.45,1,13.53,13.53,0,0,1-3,.31H76.16v8.2H72.64Zm6,8.65a9.68,9.68,0,0,0,1.65-.13,4.6,4.6,0,0,0,1.4-.44,2.55,2.55,0,0,0,1-.89,2.62,2.62,0,0,0,.36-1.45,2.56,2.56,0,0,0-.36-1.42,2.51,2.51,0,0,0-1-.85,4.14,4.14,0,0,0-1.37-.41,13.53,13.53,0,0,0-1.58-.1H76.16V117Z"/><path class="cls-2" d="M97.44,126.5h-.08A3.74,3.74,0,0,1,95.73,128a5.39,5.39,0,0,1-2.55.58,7.3,7.3,0,0,1-1.69-.21,5.1,5.1,0,0,1-1.62-.7,4.14,4.14,0,0,1-1.24-1.29,3.76,3.76,0,0,1-.49-2A3.35,3.35,0,0,1,89,122a5.52,5.52,0,0,1,2.2-1.38,12.57,12.57,0,0,1,3-.62,31.89,31.89,0,0,1,3.2-.16v-.33a2.08,2.08,0,0,0-.91-1.87,3.84,3.84,0,0,0-2.17-.6,4.85,4.85,0,0,0-2,.45,5.54,5.54,0,0,0-1.62,1.09l-1.74-2a7.71,7.71,0,0,1,2.65-1.6,9.12,9.12,0,0,1,3-.53,7.61,7.61,0,0,1,3,.5,4.91,4.91,0,0,1,1.83,1.32,4.73,4.73,0,0,1,.94,1.82,7.74,7.74,0,0,1,.27,2v8.17H97.44Zm-.06-4.42h-.75c-.54,0-1.11,0-1.71.07a7.44,7.44,0,0,0-1.65.31,3.43,3.43,0,0,0-1.26.67,1.49,1.49,0,0,0-.51,1.19,1.44,1.44,0,0,0,.21.8,1.82,1.82,0,0,0,.55.52,2.54,2.54,0,0,0,.76.28,4.78,4.78,0,0,0,.84.08,3.54,3.54,0,0,0,2.63-.92,3.46,3.46,0,0,0,.89-2.52Z"/><path class="cls-2" d="M104.39,114.77h3.22V117h.06a4.79,4.79,0,0,1,1.57-1.9,3.86,3.86,0,0,1,2.35-.73H112a2,2,0,0,1,.39.07v3.08l-.57-.11-.47,0a3.53,3.53,0,0,0-1.84.42,3.47,3.47,0,0,0-1.1,1,3.79,3.79,0,0,0-.53,1.21,4.86,4.86,0,0,0-.14,1v7.2h-3.36Z"/><path class="cls-2" d="M113.62,117.46v-2.69H116v-3.89h3.3v3.89h3.36v2.69h-3.36v6.24a3.13,3.13,0,0,0,.32,1.49c.22.39.7.59,1.44.59a4.85,4.85,0,0,0,.73-.07,3.21,3.21,0,0,0,.7-.21l.11,2.63a5.13,5.13,0,0,1-1.06.26,7,7,0,0,1-1.18.1,5.23,5.23,0,0,1-2.18-.38,3.29,3.29,0,0,1-1.33-1,3.76,3.76,0,0,1-.67-1.51,8.9,8.9,0,0,1-.18-1.84v-6.27Z"/><path class="cls-2" d="M125.19,114.77h3.2v2.16h.05a4.29,4.29,0,0,1,1.56-1.78,4.47,4.47,0,0,1,2.61-.77,5.06,5.06,0,0,1,2.26.46,4.56,4.56,0,0,1,1.54,1.22,4.93,4.93,0,0,1,.88,1.74,7.12,7.12,0,0,1,.28,2v8.4h-3.36v-7.45a10.71,10.71,0,0,0-.08-1.23,3.36,3.36,0,0,0-.37-1.16,2.35,2.35,0,0,0-.77-.86,2.3,2.3,0,0,0-1.3-.33,2.92,2.92,0,0,0-1.4.32,3.12,3.12,0,0,0-1,.83,3.59,3.59,0,0,0-.57,1.16,4.66,4.66,0,0,0-.2,1.33v7.39h-3.36Z"/><path class="cls-2" d="M154.22,121.66v.45a3.4,3.4,0,0,1,0,.45H144a3.33,3.33,0,0,0,1.23,2.36,4.37,4.37,0,0,0,1.21.69,3.86,3.86,0,0,0,1.4.25,4.4,4.4,0,0,0,2.12-.46,3.91,3.91,0,0,0,1.43-1.28l2.24,1.8a6.73,6.73,0,0,1-5.77,2.68,8.14,8.14,0,0,1-2.88-.49,6.57,6.57,0,0,1-2.28-1.38,6.13,6.13,0,0,1-1.51-2.2,7.46,7.46,0,0,1-.55-3,7.61,7.61,0,0,1,.55-3,6.84,6.84,0,0,1,1.49-2.27,6.75,6.75,0,0,1,2.26-1.45,7.43,7.43,0,0,1,2.81-.52,7,7,0,0,1,2.59.46,5.68,5.68,0,0,1,2.06,1.37,6.48,6.48,0,0,1,1.36,2.27A9.57,9.57,0,0,1,154.22,121.66Zm-3.36-1.51a4.16,4.16,0,0,0-.18-1.23,2.94,2.94,0,0,0-.58-1,2.68,2.68,0,0,0-1-.71,3.43,3.43,0,0,0-1.42-.27,3.77,3.77,0,0,0-2.56.91,3.31,3.31,0,0,0-1.16,2.34Z"/><path class="cls-2" d="M157.37,114.77h3.22V117h.06a4.85,4.85,0,0,1,1.56-1.9,3.91,3.91,0,0,1,2.36-.73H165a2,2,0,0,1,.39.07v3.08c-.23-.05-.42-.09-.58-.11a3.55,3.55,0,0,0-.46,0,3.59,3.59,0,0,0-1.85.42,3.43,3.43,0,0,0-1.09,1,3.58,3.58,0,0,0-.53,1.21,4.86,4.86,0,0,0-.14,1v7.2h-3.36Z"/></g></g></svg>