<svg width="30" height="30" viewBox="0 0 30 30" fill="none" xmlns="http://www.w3.org/2000/svg">
<path d="M15 2.7C19.02 2.7 19.47 2.73 21.06 2.79C22.53 2.85 23.31 3.09 23.85 3.3C24.54 3.57 25.05 3.9 25.56 4.41C26.07 4.92 26.4 5.43 26.67 6.12C26.88 6.66 27.12 7.44 27.18 8.91C27.24 10.5 27.27 10.98 27.27 14.97C27.27 18.96 27.24 19.44 27.18 21.03C27.12 22.5 26.88 23.28 26.67 23.82C26.4 24.51 26.07 25.02 25.56 25.53C25.05 26.04 24.54 26.37 23.85 26.64C23.31 26.85 22.53 27.09 21.06 27.15C19.47 27.21 18.99 27.24 15 27.24C11.01 27.24 10.53 27.21 8.94 27.15C7.47 27.09 6.69 26.85 6.15 26.64C5.46 26.37 4.95 26.04 4.44 25.53C3.93 25.02 3.6 24.51 3.33 23.82C3.12 23.28 2.88 22.5 2.82 21.03C2.76 19.44 2.73 18.96 2.73 14.97C2.73 10.98 2.76 10.5 2.82 8.91C2.88 7.44 3.12 6.66 3.33 6.12C3.6 5.43 3.93 4.92 4.44 4.41C4.95 3.9 5.46 3.57 6.15 3.3C6.69 3.09 7.47 2.85 8.94 2.79C10.53 2.73 10.98 2.7 15 2.7ZM15 0C10.92 0 10.41 0.03 8.82 0.09C7.23 0.15 6.12 0.42 5.19 0.78C4.2 1.17 3.36 1.68 2.52 2.52C1.68 3.36 1.17 4.2 0.78 5.19C0.42 6.12 0.15 7.23 0.09 8.82C0.03 10.41 0 10.92 0 15C0 19.08 0.03 19.59 0.09 21.18C0.15 22.77 0.42 23.88 0.78 24.81C1.17 25.8 1.68 26.64 2.52 27.48C3.36 28.32 4.2 28.83 5.19 29.22C6.15 29.58 7.23 29.85 8.82 29.91C10.41 29.97 10.92 30 15 30C19.08 30 19.59 29.97 21.18 29.91C22.77 29.85 23.88 29.58 24.81 29.22C25.8 28.83 26.64 28.32 27.48 27.48C28.32 26.64 28.83 25.8 29.22 24.81C29.58 23.85 29.85 22.77 29.91 21.18C29.97 19.59 30 19.08 30 15C30 10.92 29.97 10.41 29.91 8.82C29.85 7.23 29.58 6.12 29.22 5.19C28.83 4.2 28.32 3.36 27.48 2.52C26.64 1.68 25.8 1.17 24.81 0.78C23.88 0.42 22.77 0.15 21.18 0.09C19.59 0.03 19.08 0 15 0Z" fill="#1F1F1F"/>
<path d="M15 8C10.5798 8 7 11.356 7 15.5C7 19.644 10.5798 23 15 23C19.4202 23 23 19.644 23 15.5C23 11.356 19.4202 8 15 8ZM15 20.3735C12.1362 20.3735 9.80156 18.1848 9.80156 15.5C9.80156 12.8152 12.1362 10.6265 15 10.6265C17.8638 10.6265 20.1984 12.8152 20.1984 15.5C20.1984 18.1848 17.8638 20.3735 15 20.3735Z" fill="#1F1F1F"/>
<path d="M23 9C24.1046 9 25 8.32843 25 7.5C25 6.67157 24.1046 6 23 6C21.8954 6 21 6.67157 21 7.5C21 8.32843 21.8954 9 23 9Z" fill="#1F1F1F"/>
</svg>
