<svg width="405" height="394" viewBox="0 0 405 394" fill="none" xmlns="http://www.w3.org/2000/svg">
<path fill-rule="evenodd" clip-rule="evenodd" d="M389.955 185.5H388.955C387.855 185.5 386.955 184.6 386.955 183.5C386.955 182.4 387.855 181.5 388.955 181.5H389.955C391.055 181.5 391.955 182.4 391.955 183.5C391.955 184.6 391.055 185.5 389.955 185.5ZM377.055 185.5H376.055C374.955 185.5 374.055 184.6 374.055 183.5C374.055 182.4 374.955 181.5 376.055 181.5H377.055C378.155 181.5 379.055 182.4 379.055 183.5C379.055 184.6 378.155 185.5 377.055 185.5ZM364.055 185.5H363.055C361.955 185.5 361.055 184.6 361.055 183.5C361.055 182.4 361.955 181.5 363.055 181.5H364.055C365.155 181.5 366.055 182.4 366.055 183.5C366.055 184.6 365.155 185.5 364.055 185.5ZM351.055 185.5H350.055C348.955 185.5 348.055 184.6 348.055 183.5C348.055 182.4 348.955 181.5 350.055 181.5H351.055C352.155 181.5 353.055 182.4 353.055 183.5C353.055 184.6 352.155 185.5 351.055 185.5ZM338.155 185.5H337.155C336.055 185.5 335.155 184.6 335.155 183.5C335.155 182.4 336.055 181.5 337.155 181.5H338.155C339.255 181.5 340.155 182.4 340.155 183.5C340.155 184.6 339.255 185.5 338.155 185.5ZM325.155 185.5H324.155C323.055 185.5 322.155 184.6 322.155 183.5C322.155 182.4 323.055 181.5 324.155 181.5H325.155C326.255 181.5 327.155 182.4 327.155 183.5C327.155 184.6 326.255 185.5 325.155 185.5ZM312.155 185.5H311.155C310.055 185.5 309.155 184.6 309.155 183.5C309.155 182.4 310.055 181.5 311.155 181.5H312.155C313.255 181.5 314.155 182.4 314.155 183.5C314.155 184.6 313.355 185.5 312.155 185.5ZM299.255 184.7H298.955C298.805 184.7 298.631 184.675 298.456 184.65L298.455 184.65C298.28 184.625 298.105 184.6 297.955 184.6C296.855 184.4 296.155 183.4 296.255 182.3C296.455 181.2 297.455 180.4 298.555 180.6C298.695 180.6 298.834 180.622 298.983 180.645C299.155 180.671 299.341 180.7 299.555 180.7C300.655 180.8 301.455 181.9 301.255 183C301.155 183.9 300.255 184.7 299.255 184.7ZM286.655 182C286.455 182 286.255 182 286.055 181.9L285.055 181.6C283.955 181.3 283.355 180.2 283.755 179.1C284.055 178 285.155 177.4 286.255 177.8L287.155 178.1C288.255 178.4 288.855 179.5 288.555 180.6C288.255 181.4 287.455 182 286.655 182ZM274.455 177.5C274.155 177.5 273.855 177.4 273.655 177.3C273.505 177.25 273.355 177.175 273.205 177.1L273.205 177.1C273.055 177.025 272.905 176.95 272.755 176.9C271.755 176.4 271.355 175.2 271.755 174.2C272.255 173.2 273.455 172.8 274.455 173.2C274.605 173.25 274.755 173.325 274.905 173.4C275.055 173.475 275.205 173.55 275.355 173.6C276.355 174.1 276.855 175.2 276.355 176.2C275.955 177.1 275.255 177.5 274.455 177.5ZM39.4554 172.9C38.3554 172.9 37.4554 172 37.4554 170.9V169.9C37.4554 168.8 38.3554 167.9 39.4554 167.9C40.5554 167.9 41.4554 168.8 41.4554 169.9V170.9C41.4554 172 40.5554 172.9 39.4554 172.9ZM263.055 171.4C262.655 171.4 262.355 171.3 261.955 171.1L261.055 170.5C260.155 169.9 259.855 168.7 260.455 167.7C261.055 166.8 262.255 166.5 263.255 167.1C263.345 167.16 263.426 167.219 263.503 167.276C263.684 167.411 263.845 167.53 264.055 167.6C264.955 168.2 265.255 169.4 264.655 170.4C264.355 171 263.755 171.4 263.055 171.4ZM252.655 163.7C252.155 163.7 251.755 163.5 251.355 163.2L250.555 162.5C249.755 161.8 249.655 160.5 250.355 159.7C251.055 158.9 252.355 158.8 253.155 159.5L253.855 160.1C254.655 160.8 254.755 162.1 254.055 162.9C253.755 163.4 253.255 163.7 252.655 163.7ZM39.4554 159.9C38.3554 159.9 37.4554 159 37.4554 157.9V156.9C37.4554 155.8 38.3554 154.9 39.4554 154.9C40.5554 154.9 41.4554 155.8 41.4554 156.9V157.9C41.4554 159 40.5554 159.9 39.4554 159.9ZM243.455 154.6C242.855 154.6 242.355 154.4 241.955 153.9L241.255 153.1C240.555 152.3 240.655 151 241.455 150.3C242.255 149.6 243.555 149.7 244.255 150.5L244.855 151.2C245.555 152 245.455 153.3 244.655 154C244.355 154.4 243.955 154.6 243.455 154.6ZM39.4554 147C38.3554 147 37.4554 146.1 37.4554 145V144C37.4554 142.9 38.3554 142 39.4554 142C40.5554 142 41.4554 142.9 41.4554 144V145C41.4554 146.1 40.5554 147 39.4554 147ZM235.655 144.3C234.955 144.3 234.355 144 233.955 143.4L233.455 142.5C232.855 141.6 233.155 140.3 234.055 139.7C234.955 139.1 236.255 139.4 236.855 140.3L237.355 141.1C237.955 142 237.655 143.3 236.755 143.9C236.355 144.2 235.955 144.3 235.655 144.3ZM39.4554 134C38.3554 134 37.4554 133.1 37.4554 132V131C37.4554 129.9 38.3554 129 39.4554 129C40.5554 129 41.4554 129.9 41.4554 131V132C41.4554 133.1 40.5554 134 39.4554 134ZM229.355 132.9C228.555 132.9 227.855 132.5 227.555 131.7C227.505 131.55 227.43 131.4 227.355 131.25C227.28 131.1 227.205 130.95 227.155 130.8C226.655 129.8 227.155 128.6 228.155 128.2C229.155 127.7 230.355 128.2 230.755 129.2C230.805 129.35 230.88 129.5 230.955 129.65C231.03 129.8 231.105 129.95 231.155 130.1C231.655 131.1 231.155 132.3 230.155 132.8C229.955 132.9 229.655 132.9 229.355 132.9ZM39.4554 121C38.3554 121 37.4554 120.1 37.4554 119V118C37.4554 116.9 38.3554 116 39.4554 116C40.5554 116 41.4554 116.9 41.4554 118V119C41.4554 120.1 40.5554 121 39.4554 121ZM224.755 120.8C223.855 120.8 223.055 120.2 222.855 119.4C222.812 119.271 222.769 119.124 222.727 118.974L222.705 118.9C222.655 118.725 222.605 118.55 222.555 118.4C222.255 117.3 222.855 116.2 223.955 115.9C225.055 115.6 226.155 116.2 226.455 117.3L226.755 118.2C227.055 119.3 226.455 120.4 225.455 120.7C225.155 120.8 224.955 120.8 224.755 120.8ZM221.955 108.2C220.955 108.2 220.155 107.5 219.955 106.5L219.855 105.5C219.655 104.4 220.455 103.4 221.555 103.2C222.655 103 223.655 103.8 223.855 104.9L223.955 105.9C224.155 107 223.355 108 222.255 108.2H221.955ZM39.4554 108.1C38.3554 108.1 37.4554 107.2 37.4554 106.1V105.1C37.4554 104 38.3554 103.1 39.4554 103.1C40.5554 103.1 41.4554 104 41.4554 105.1V106.1C41.4554 107.2 40.5554 108.1 39.4554 108.1ZM220.955 95.3C219.855 95.3 218.955 94.4 218.955 93.3V92.3C218.955 91.2 219.855 90.3 220.955 90.3C222.055 90.3 222.955 91.2 222.955 92.3V93.3C222.955 94.4 222.055 95.3 220.955 95.3ZM39.4554 95.1C38.3554 95.1 37.4554 94.2 37.4554 93.1V92.1C37.4554 91 38.3554 90.1 39.4554 90.1C40.5554 90.1 41.4554 91 41.4554 92.1V93.1C41.4554 94.2 40.5554 95.1 39.4554 95.1ZM220.055 82.4C219.055 82.4 218.255 81.7 218.055 80.7L217.955 79.7C217.755 78.6 218.555 77.6 219.655 77.4C220.755 77.2 221.755 78 221.955 79.1L222.055 80.1C222.155 81.2 221.455 82.2 220.355 82.4H220.055ZM40.3554 82.2H40.0554C38.9554 82 38.1554 81 38.3554 79.9L38.4554 78.9C38.6554 77.8 39.6554 77 40.7554 77.2C41.8554 77.4 42.5554 78.4 42.4554 79.5L42.3554 80.5C42.1554 81.5 41.2554 82.2 40.3554 82.2ZM217.455 69.7C216.555 69.7 215.755 69.1 215.555 68.3L215.255 67.4C214.955 66.3 215.555 65.2 216.555 64.9C217.655 64.6 218.755 65.2 219.055 66.2L219.355 67.2C219.655 68.3 219.055 69.4 217.955 69.7H217.455ZM42.9554 69.5C42.7554 69.5 42.5554 69.5 42.3554 69.4C41.3554 69.1 40.7554 68 41.0554 67C41.1054 66.85 41.1554 66.675 41.2054 66.5C41.2554 66.325 41.3054 66.15 41.3554 66C41.6554 64.9 42.7554 64.3 43.8554 64.7C44.9554 65 45.5554 66.1 45.1554 67.2L44.8554 68.1C44.6554 69 43.8554 69.5 42.9554 69.5ZM212.955 57.6C212.155 57.6 211.455 57.2 211.155 56.4C211.105 56.25 211.03 56.1 210.955 55.95C210.88 55.8 210.805 55.65 210.755 55.5C210.255 54.5 210.755 53.3 211.755 52.8C212.755 52.3 213.955 52.8 214.455 53.8C214.505 53.95 214.58 54.1 214.655 54.25C214.73 54.4 214.805 54.55 214.855 54.7C215.355 55.7 214.855 56.9 213.855 57.3C213.555 57.5 213.255 57.6 212.955 57.6ZM47.4554 57.4C47.1554 57.4 46.8554 57.3 46.6554 57.2C45.6554 56.7 45.1554 55.6 45.6554 54.6C45.7054 54.45 45.7804 54.3 45.8554 54.15C45.9304 54 46.0054 53.85 46.0554 53.7C46.5554 52.7 47.7554 52.3 48.7554 52.7C49.7554 53.2 50.1554 54.4 49.7554 55.4C49.7054 55.55 49.6304 55.7 49.5554 55.85C49.4804 56 49.4054 56.15 49.3554 56.3C48.9554 56.9 48.2554 57.4 47.4554 57.4ZM206.855 46.2C206.155 46.2 205.555 45.9 205.155 45.3L204.655 44.5C204.055 43.6 204.355 42.3 205.255 41.7C206.155 41.1 207.455 41.4 208.055 42.3L208.655 43.2C209.255 44.1 208.955 45.4 208.055 46C207.791 46 207.583 46.0557 207.387 46.1084C207.211 46.1554 207.044 46.2 206.855 46.2ZM53.6554 46C53.2554 46 52.9554 45.9 52.5554 45.7C51.6554 45.1 51.3554 43.9 51.9554 42.9L52.5554 42C53.1554 41.1 54.3554 40.8 55.3554 41.4C56.2554 42 56.5554 43.2 55.9554 44.2C55.8958 44.2894 55.8362 44.3699 55.7793 44.4468L55.779 44.4472C55.6449 44.6283 55.5255 44.7895 55.4554 45C54.9554 45.7 54.2554 46 53.6554 46ZM199.155 35.7C198.555 35.7 198.055 35.5 197.655 35C197.555 34.9 197.455 34.775 197.355 34.6499C197.255 34.525 197.155 34.4 197.055 34.3C196.355 33.5 196.455 32.2 197.255 31.5C198.055 30.8 199.355 30.9 200.055 31.7C200.255 31.9999 200.455 32.1998 200.755 32.4996L200.755 32.4998L200.755 32.5C201.455 33.3 201.355 34.6 200.555 35.3C200.055 35.6 199.555 35.7 199.155 35.7ZM61.3554 35.6C60.8554 35.6 60.4554 35.4 60.0554 35.1C59.2554 34.4 59.1554 33.1 59.8554 32.3L60.5554 31.5C61.2554 30.7 62.5554 30.6 63.3554 31.3C64.1554 32 64.2554 33.3 63.5554 34.1L62.9554 34.8C62.4554 35.4 61.9554 35.6 61.3554 35.6ZM190.055 26.5C189.555 26.5 189.155 26.3 188.755 26C188.655 25.9 188.53 25.8 188.405 25.7C188.28 25.6 188.155 25.5 188.055 25.4C187.255 24.7 187.155 23.4 187.855 22.6C188.555 21.8 189.855 21.7 190.655 22.4C190.955 22.6 191.155 22.8 191.455 23.1C192.255 23.8 192.355 25.1 191.655 25.9C191.155 26.3 190.555 26.5 190.055 26.5ZM70.4554 26.4C69.8554 26.4 69.3554 26.2 68.9554 25.7C68.2554 24.9 68.3554 23.6 69.1554 22.9C69.4554 22.7 69.6554 22.5 69.9554 22.2C70.7554 21.5 72.0554 21.6 72.7554 22.4C73.4554 23.2 73.3554 24.5 72.5554 25.2C72.4554 25.3 72.3304 25.4 72.2054 25.5C72.0804 25.6 71.9554 25.7 71.8554 25.8C71.3554 26.3 70.9554 26.4 70.4554 26.4ZM179.755 18.7C179.355 18.7 178.955 18.6 178.655 18.4C178.566 18.3403 178.485 18.2806 178.408 18.2236C178.227 18.0896 178.066 17.9702 177.855 17.9C176.955 17.3 176.655 16.1 177.255 15.1C177.855 14.2 179.055 13.9 180.055 14.5L180.955 15.1C181.855 15.7 182.155 16.9 181.555 17.9C181.055 18.4 180.355 18.7 179.755 18.7ZM80.7554 18.6C80.0554 18.6 79.4554 18.3 79.0554 17.7C78.4554 16.8 78.7554 15.5 79.6554 14.9L80.5554 14.3C81.4554 13.7 82.7554 14 83.3554 14.9C83.9554 15.8 83.6554 17.1 82.7554 17.7C82.6054 17.8 82.4804 17.875 82.3553 17.95L82.3552 17.9501C82.2303 18.0251 82.1053 18.1 81.9554 18.2C81.5554 18.5 81.1554 18.6 80.7554 18.6ZM168.455 12.4C168.155 12.4 167.855 12.3 167.655 12.2C167.505 12.15 167.356 12.0751 167.206 12.0001L167.205 12L167.205 11.9999C167.055 11.9249 166.905 11.85 166.755 11.8C165.755 11.3 165.255 10.2 165.755 9.2C166.255 8.2 167.355 7.7 168.355 8.2C168.505 8.25 168.655 8.32501 168.805 8.40002C168.955 8.47501 169.105 8.55 169.255 8.6C170.255 9.1 170.655 10.3 170.255 11.3C169.855 12 169.155 12.4 168.455 12.4ZM92.1554 12.3C91.3554 12.3 90.6554 11.9 90.3554 11.1C89.8554 10.1 90.3554 8.9 91.3554 8.4C91.5054 8.35 91.6554 8.27499 91.8054 8.19999C91.9554 8.12499 92.1054 8.05 92.2554 8C93.2554 7.5 94.4554 8 94.8554 9C95.3554 10 94.8554 11.2 93.8554 11.6C93.7054 11.65 93.5554 11.725 93.4054 11.8C93.2554 11.875 93.1054 11.95 92.9554 12C92.6554 12.3 92.4554 12.3 92.1554 12.3ZM156.355 7.8C156.155 7.8 155.955 7.8 155.755 7.7L154.855 7.4C153.755 7.1 153.155 6 153.455 4.9C153.755 3.8 154.855 3.2 155.955 3.5C156.105 3.55001 156.28 3.60002 156.455 3.65002L156.456 3.65021C156.631 3.70014 156.806 3.75007 156.955 3.8C158.055 4.1 158.655 5.2 158.255 6.3C157.955 7.3 157.155 7.8 156.355 7.8ZM104.255 7.8C103.355 7.8 102.555 7.2 102.355 6.4C102.055 5.3 102.655 4.2 103.655 3.9C103.805 3.85 103.98 3.8 104.155 3.75C104.33 3.7 104.505 3.65 104.655 3.6C105.755 3.3 106.855 3.9 107.155 5C107.455 6.1 106.855 7.2 105.755 7.5L104.855 7.8C104.722 7.73333 104.589 7.75556 104.455 7.77778C104.389 7.78889 104.322 7.8 104.255 7.8ZM143.655 5H143.355C143.216 5 143.077 4.97846 142.928 4.95538C142.755 4.92872 142.57 4.9 142.355 4.9C141.255 4.7 140.455 3.7 140.655 2.6C140.855 1.5 141.855 0.7 142.955 0.9C143.105 0.9 143.28 0.924999 143.455 0.949998C143.63 0.974999 143.805 1 143.955 1C145.055 1.2 145.755 2.2 145.655 3.3C145.555 4.3 144.655 5 143.655 5ZM116.855 5C115.855 5 115.055 4.3 114.855 3.3C114.655 2.2 115.455 1.2 116.555 1C116.705 1 116.88 0.975001 117.055 0.950002C117.23 0.925001 117.405 0.9 117.555 0.9C118.655 0.8 119.655 1.5 119.855 2.6C119.955 3.7 119.255 4.7 118.155 4.9C118.016 4.9 117.877 4.92154 117.728 4.94462C117.555 4.97128 117.37 5 117.155 5H116.855ZM130.755 4H130.155H129.755C128.655 4 127.755 3.1 127.755 2C127.755 0.9 128.655 0 129.755 0H130.155H130.755C131.855 0 132.755 0.9 132.755 2C132.755 3.1 131.855 4 130.755 4ZM401.955 185.5H402.455C403.555 185.5 404.455 184.6 404.455 183.5C404.455 182.4 403.555 181.5 402.455 181.5H401.955C400.855 181.5 399.955 182.4 399.955 183.5C399.955 184.6 400.855 185.5 401.955 185.5ZM25.3554 227.7C25.3554 226.981 25.4362 226.343 25.5252 225.64L25.5554 225.4L29.8554 198.7C30.4554 194.6 36.2554 194.5 37.1554 198.5L41.3554 217.7L43.1554 211.4C44.2554 207.7 49.5554 207.9 50.3554 211.6L53.2554 224.5C55.2554 233.3 48.5554 241.7 39.4554 241.7C31.5554 241.8 25.3554 235.3 25.3554 227.7ZM77.2554 270.7L73.4554 292.9C81.6554 312 80.7554 334.7 68.5554 353.8L45.6554 389.7C42.7554 394.3 36.0554 394.3 33.1554 389.7L10.2554 353.8C-1.9446 334.7 -2.84461 311.9 5.35539 292.9L1.5554 270.7C0.855391 266.9 4.4554 263.8 8.15539 264.9L22.6554 269.4L24.9554 270.1L24.6554 267.8L22.8554 252.8C22.3554 248.7 25.5554 245.1 29.6554 245.1H49.1554C53.2554 245.1 56.4554 248.7 55.9554 252.8L54.1554 267.8L53.8554 270.1L56.1554 269.4L70.6554 264.9C74.3554 263.8 77.8554 266.9 77.2554 270.7ZM21.9554 313.7C21.9554 323.4 29.7554 331.2 39.4554 331.2C49.1554 331.2 56.9554 323.3 56.9554 313.7C56.9554 304 49.1554 296.2 39.4554 296.2C29.7554 296.2 21.9554 304 21.9554 313.7ZM37.4554 183.5C37.4554 184.6 38.3554 185.5 39.4554 185.5C40.5554 185.5 41.4554 184.6 41.4554 183.5V183C41.4554 181.9 40.5554 181 39.4554 181C38.3554 181 37.4554 181.9 37.4554 183V183.5Z" fill="url(#paint0_linear)"/>
<defs>
<linearGradient id="paint0_linear" x1="202.228" y1="0" x2="202.228" y2="393.15" gradientUnits="userSpaceOnUse">
<stop stop-color="#A0A0A0"/>
<stop offset="1" stop-color="#F0F0F0"/>
</linearGradient>
</defs>
</svg>
