<svg width="224" height="69" viewBox="0 0 224 69" fill="none" xmlns="http://www.w3.org/2000/svg">
<path d="M82.1692 9.64697H88.2L88.2538 19.4019C88.2538 19.4019 88.2 22.4738 90.1923 22.5816C92.1846 22.7433 95.7384 22.7433 95.7384 22.7433L95.6307 9.70087H101.392L101.446 27.2166H89.223C89.223 27.2166 82.1692 26.4081 82.1692 20.3181C82.1153 14.228 82.1692 9.64697 82.1692 9.64697Z" fill="#555555"/>
<path d="M105.7 4.63501H111.569V9.75498H118.192V14.4438H111.623V19.5638C111.623 19.5638 111.408 22.528 114.315 22.6357C117.223 22.6896 118.246 22.6357 118.246 22.6357V27.4324H111.838C111.838 27.4324 105.969 27.3785 105.861 22.7435C105.915 19.0787 105.7 4.63501 105.7 4.63501Z" fill="#555555"/>
<path d="M128.208 14.4439L128.262 27.4324H122.177L122.069 4.68896H127.885V9.70115H134.131C134.131 9.70115 141.023 9.59336 141.346 15.2523C141.669 20.9112 141.4 27.4324 141.4 27.4324H135.585L135.531 17.947C135.531 17.947 135.8 14.5516 133.054 14.5516C130.308 14.5516 128.208 14.4439 128.208 14.4439Z" fill="#555555"/>
<path d="M145.761 4.68896H151.685L151.792 27.4324H145.708L145.761 4.68896Z" fill="#555555"/>
<path d="M175.431 27.4863L175.377 9.86279H162.938C162.938 9.86279 155.023 10.4017 154.969 18.9171C154.862 29.642 167.408 27.4863 167.408 27.4863V23.013C167.408 23.013 160.892 24.0909 160.892 18.8093C160.892 13.4198 169.615 14.875 169.615 14.875V27.4863H175.431Z" fill="#555555"/>
<path d="M185.5 14.6055L185.554 27.4863H179.738L179.685 9.86279H191.423C191.423 9.86279 197.938 10.0245 198.369 15.5756C198.8 21.1267 198.423 27.4863 198.423 27.4863H193.038L192.985 17.6236C192.985 17.6236 192.285 14.6594 189.808 14.6594C187.277 14.6055 185.5 14.6055 185.5 14.6055Z" fill="#555555"/>
<path d="M217.323 22.9051L217.269 4.74268H223.515L223.623 27.4861H210.054C210.054 27.4861 202.677 26.6777 202.569 19.5098C202.408 7.86855 215.385 9.64707 215.385 9.64707V14.4976C215.385 14.4976 208.6 13.6892 208.6 18.7013C208.654 25.2226 217.323 22.9051 217.323 22.9051Z" fill="#555555"/>
<path d="M67.8462 22.9051C74.9001 22.9051 74.0385 13.6892 67.7924 13.6892C61.5462 13.6892 60.7924 22.9051 67.8462 22.9051ZM67.6308 8.67698C81.2001 8.78477 84.4308 27.3783 67.6847 27.3783C52.0693 27.3245 54.4924 8.56919 67.6308 8.67698Z" fill="#555555"/>
<path d="M58.2077 31.6899C58.2077 31.6899 51.3692 30.8276 46.2538 30.2348C41.1385 29.6419 45.3923 24.6836 45.3923 24.6836L63.0538 0L54.6538 0.215578C54.6538 0.215578 22.1846 27.8634 17.0154 32.1211C11.2 36.9177 20.0846 38.0495 20.0846 38.0495C20.0846 38.0495 24.9308 38.4267 30.5846 39.7741C36.1846 41.1215 31.7154 44.4629 31.7154 44.4629L0 68.2842L55.7308 68.0687C55.7308 68.0687 63.4846 48.4511 65.4231 40.9598C67.3077 33.5223 58.2077 31.6899 58.2077 31.6899ZM44.3692 34.6002L47.3846 35.5164L46.3077 36.3248L43.1308 35.3009L44.3692 34.6002ZM57.7769 0.377261H58.7462L57.8308 1.29347H56.8615L57.7769 0.377261ZM55.0846 3.23367H55.8385L55.1385 4.14987H54.1154L55.0846 3.23367ZM52.5 5.87449H53.4692L52.2308 7.11406H51.2615L52.5 5.87449ZM49.8077 8.83869H50.6692L49.7 9.97047H48.6769L49.8077 8.83869ZM47.2231 11.6412H48.1385L47.2769 12.5574H46.0923L47.2231 11.6412ZM44.5308 14.1203H45.8231L44.8 15.2521H43.5077L44.5308 14.1203ZM42 16.8151H43.2923L42.2154 18.0007H40.8692L42 16.8151ZM39.7923 19.2942H40.9769L39.9538 20.2643H38.6077L39.7923 19.2942ZM41.8923 33.8457L40.7615 34.5463L38.6615 33.8457L39.7385 33.1451L41.8923 33.8457ZM37.7462 21.45H38.9308L37.8538 22.5279H36.5615L37.7462 21.45ZM38.0154 32.66L36.9923 33.3068L34.8923 32.66L35.9154 31.9594L38.0154 32.66ZM35.2154 23.983H36.7231L35.1077 25.4921L33.7077 25.4382L35.2154 23.983ZM33.1692 26.3005L34.3538 26.3544L33.0077 27.8634L31.5538 27.7556L33.1692 26.3005ZM30.5846 31.0971C30.5846 31.0971 29.0231 30.5042 29.4 29.9114C29.7231 29.4264 30.8 28.9413 30.8 28.9413L32.1462 29.103C32.1462 29.103 30.9615 29.3186 30.8538 29.9114C30.7462 30.3426 31.7154 30.612 31.7154 30.612L30.5846 31.0971ZM31.5 31.636L32.6308 31.0432L34.6231 31.636L33.7077 32.3367L31.5 31.636ZM32.3077 68.0687H27.7308L32.8462 60.3618H36.5077L32.3077 68.0687ZM38.1769 58.206H34.1385L39.5769 50.2835L42.9692 50.3913L38.1769 58.206ZM43.8846 48.6667L41.0846 48.3972L44.8538 42.361L47.3846 42.4688L43.8846 48.6667ZM49.3769 39.0735L47.0077 38.804C47.0077 38.804 48.1923 38.265 48.0846 37.6183C47.9769 36.9716 47.3846 36.756 47.3846 36.756L48.2462 36.1093C48.2462 36.1093 49.1615 36.3787 49.5385 37.2949C49.8615 37.9417 49.3769 39.0735 49.3769 39.0735Z" fill="#555555"/>
<path d="M183.831 54.7028C183.831 55.619 184.585 56.8047 186.9 56.8047C188.892 56.8047 191.908 55.619 191.962 52.4392H188.623C185.608 52.4392 183.831 53.0859 183.831 54.7028Z" fill="#555555"/>
<path d="M168.269 47.2654C165.685 47.2654 164.015 49.3673 164.015 51.8464C164.015 54.3794 165.738 56.4813 168.323 56.4813C170.908 56.4813 172.577 54.3794 172.577 51.9003C172.577 49.3673 170.854 47.2654 168.269 47.2654Z" fill="#555555"/>
<path d="M128.908 47.2114C125.838 47.2114 124.385 49.2055 124.385 51.7925C124.385 54.3794 125.838 56.4274 128.908 56.4274C131.977 56.4274 133.431 54.4333 133.431 51.8463C133.431 49.2055 131.977 47.2114 128.908 47.2114Z" fill="#555555"/>
<path d="M223.838 31.097L69.4615 30.9353L69.6231 68.6614L224 68.8231L223.838 31.097ZM112.377 58.4754L112.323 50.2834H101.823L101.877 58.4754H97.5154L97.4615 39.2889H101.823L101.877 47.1036H112.377L112.323 39.2889H116.685L116.738 58.4215L112.377 58.4754ZM128.908 58.9604C122.069 58.9604 120.131 55.4573 120.131 51.7924C120.131 48.1276 122.015 44.6245 128.854 44.6245C135.692 44.6245 137.631 48.1276 137.631 51.7924C137.685 55.4573 135.746 58.9604 128.908 58.9604ZM152.546 58.4754V51.4152C152.546 48.1276 150.985 47.3731 149.046 47.3731C146.946 47.3731 144.9 48.8283 144.9 52.0619V58.4754H140.808L140.754 48.3432C140.754 47.1575 140.7 46.0257 140.646 45.1634H144.577C144.631 45.918 144.685 46.6186 144.685 47.3731H144.738C146.085 45.4868 147.915 44.6784 150.392 44.6784C152.815 44.6784 156.531 45.9718 156.585 50.2834L156.638 58.4754H152.546ZM172.846 58.5292C172.792 57.9364 172.738 57.2897 172.738 56.6968H172.685C171.554 58.4215 169.346 59.0143 167.192 59.0143C162.185 59.0143 159.762 55.7267 159.762 51.9541C159.762 45.9718 164.392 44.6784 166.977 44.6784C168.969 44.6784 171.123 45.2173 172.469 46.9958H172.523L172.469 39.3428H176.562L176.615 55.3495C176.615 56.4274 176.669 57.7208 176.723 58.4754L172.846 58.5292ZM192.446 58.5292C192.338 57.9364 192.338 57.2897 192.338 56.6968C190.669 58.3676 188.569 59.0143 185.985 59.0143C181.246 59.0143 179.631 56.8585 179.631 54.9183C179.631 50.7685 183.615 50.0678 188.785 50.0678H192.015C192.015 47.6965 190.292 47.1036 188.3 47.1036C186.308 47.1036 185.177 47.912 185.015 48.936H180.762C181.138 45.5407 184.854 44.6784 188.354 44.6784C192.123 44.6784 196.054 45.7563 196.054 50.3912V55.9423C196.054 56.8046 196.108 57.5592 196.162 58.4754L192.446 58.5292Z" fill="#555555"/>
</svg>
