<svg width="72" height="120" viewBox="0 0 72 120" fill="none" xmlns="http://www.w3.org/2000/svg">
<path d="M35.953 18.5196V63.2125C35.953 64.0629 35.2001 64.8188 34.353 64.7243C21.9295 63.874 12.1412 53.4803 12.1412 40.8188C12.1412 28.1574 21.9295 17.7637 34.353 16.9133C35.2942 16.9133 35.953 17.5747 35.953 18.5196Z" fill="url(#paint0_linear)"/>
<path d="M35.9529 6.23618V9.82673C35.9529 10.5826 35.3882 11.2441 34.5412 11.3385C19.0118 12 6.49412 24.9448 6.49412 40.8189C6.49412 56.6929 19.0118 69.6377 34.5412 70.3937C35.2941 70.3937 35.9529 71.0551 35.9529 71.9055V75.496C35.9529 76.3464 35.2 77.0078 34.3529 77.0078C15.2471 76.0629 0 60.2834 0 40.8189C0 21.4488 15.2471 5.57476 34.4471 4.72437C35.2941 4.72437 35.9529 5.38578 35.9529 6.23618Z" fill="url(#paint1_linear)"/>
<path d="M72 38.9291C72 17.9528 55.4353 0.850394 34.7294 0C33.8824 0 33.2236 0.661417 33.2236 1.51181V4.15748C33.2236 5.00787 33.8824 5.66929 34.7294 5.66929C52.3295 6.4252 66.4471 21.0709 66.4471 38.9291C66.4471 56.2205 52.9883 70.7717 35.8589 72.0945L34.6353 72.189C33.8824 72.2835 33.2236 72.9449 33.2236 73.7008V81.4488H31.153C28.2353 81.4488 25.7883 83.9055 25.7883 86.8346V114.614C25.7883 117.543 28.2353 120 31.153 120H35.2942C38.2118 120 40.6589 117.543 40.6589 114.614V86.8346C40.6589 85.2283 40 83.811 38.8706 82.8661V77.4803C57.6 74.7402 72 58.2992 72 38.9291ZM34.9177 114.331H31.3412V87.1181H34.9177V114.331Z" fill="#121212"/>
<path d="M34.0706 66.992V64.3464C34.0706 63.5905 34.6353 62.9291 35.4823 62.8346C48 62.0787 57.9764 51.685 57.9764 38.9291C57.9764 26.1731 48 15.7794 35.4823 15.0235C34.7294 15.0235 34.0706 14.2676 34.0706 13.5117V10.8661C34.0706 10.0157 34.8235 9.35425 35.6706 9.35425C51.2 10.2046 63.5294 23.1495 63.5294 38.9291C63.5294 54.7086 51.2 67.6535 35.6706 68.5039C34.8235 68.5039 34.0706 67.8424 34.0706 66.992Z" fill="#121212"/>
<defs>
<linearGradient id="paint0_linear" x1="22.5077" y1="23.2629" x2="30.6024" y2="61.7568" gradientUnits="userSpaceOnUse">
<stop stop-color="#F47732"/>
<stop offset="1" stop-color="#EF3734"/>
</linearGradient>
<linearGradient id="paint1_linear" x1="15.6923" y1="14.2858" x2="27.9553" y2="72.6021" gradientUnits="userSpaceOnUse">
<stop stop-color="#F47732"/>
<stop offset="1" stop-color="#EF3734"/>
</linearGradient>
</defs>
</svg>
