<svg width="78" height="120" viewBox="0 0 78 120" fill="none" xmlns="http://www.w3.org/2000/svg">
<path d="M36.7873 43.4922V83.9548L25.2599 72.4084L36.7873 43.4922Z" fill="url(#paint0_linear)"/>
<path d="M22.8542 78.4326L36.7873 92.4891V118.996H6.61569L22.8542 78.4326Z" fill="url(#paint1_linear)"/>
<path d="M64.7537 120H35.384C34.8828 120 34.4818 119.598 34.4818 119.096V114.98C34.4818 114.478 34.8828 114.076 35.384 114.076H58.7394C59.441 114.076 59.842 113.373 59.6415 112.771L46.6106 80.1398L37.5892 89.1761C36.9878 89.7785 35.9854 89.3769 35.9854 88.4733V82.6499C35.9854 82.4491 36.0856 82.1479 36.2861 81.9471L44.2049 74.0152L32.5773 44.9986C31.5749 42.5889 32.0761 39.878 33.7802 37.8699C36.1859 35.0586 35.4842 33.7534 31.4747 29.0344C28.1668 25.1187 23.8566 19.9981 25.8614 12.769C26.3626 11.0622 28.2671 10.2589 29.7706 10.9618L30.1716 11.1626C31.3744 11.765 31.9759 13.1706 31.5749 14.4759C30.5725 18.3916 32.6775 21.2029 35.9854 25.1187C39.3935 29.2352 44.2049 34.8578 38.1906 41.7856C37.9901 42.0869 37.8899 42.3881 37.9901 42.6893L67.2596 115.883C68.1617 117.892 66.7584 120 64.7537 120Z" fill="#121212"/>
<path d="M9.12164 93.9956C6.41521 93.9956 4.20998 93.0919 2.60617 91.4855C-0.10025 88.5738 -1.15236e-05 84.5576 -1.15236e-05 84.156C-1.15236e-05 83.0516 1.00237 82.1479 2.10498 82.1479C3.2076 82.1479 4.10974 83.152 4.10974 84.2564C4.10974 84.2564 4.10974 86.9673 5.61331 88.5738C6.41521 89.4774 7.61807 89.879 9.12164 89.879C10.2243 89.879 11.1264 90.7826 11.1264 91.9875C11.1264 93.0919 10.2243 93.9956 9.12164 93.9956Z" fill="#121212"/>
<path d="M58.2382 35.6609C59.4411 37.5685 59.7418 39.4762 59.2406 41.3839C58.4387 44.4964 55.5318 46.2032 55.2311 46.4041C54.4292 46.9061 53.3265 46.6049 52.9256 45.8016C52.4244 44.9984 52.7251 43.9944 53.527 43.4923C53.527 43.4923 55.4315 42.3879 55.9327 40.4802C56.1332 39.4762 55.9327 38.5726 55.3313 37.4681C54.8301 36.6649 55.1308 35.6609 55.9327 35.1589C56.7346 34.5564 57.737 34.8576 58.2382 35.6609Z" fill="#121212"/>
<path d="M55.1308 62.4687C53.4268 62.4687 52.0235 61.063 52.0235 59.3562C52.0235 57.6493 53.4268 56.2437 55.1308 56.2437C56.8349 56.2437 58.2382 57.6493 58.2382 59.3562C58.2382 61.063 56.7346 62.4687 55.1308 62.4687ZM55.1308 58.3521C54.5294 58.3521 54.0282 58.8541 54.0282 59.4566C54.0282 60.059 54.5294 60.561 55.1308 60.561C55.7323 60.561 56.2334 60.059 56.2334 59.4566C56.2334 58.8541 55.632 58.3521 55.1308 58.3521Z" fill="#121212"/>
<path d="M17.3411 64.9788C15.2361 64.9788 13.5321 63.272 13.5321 61.1635C13.5321 59.055 15.2361 57.3481 17.3411 57.3481C19.4461 57.3481 21.1502 59.055 21.1502 61.1635C21.1502 63.272 19.4461 64.9788 17.3411 64.9788ZM17.3411 59.4566C16.3388 59.4566 15.5369 60.2598 15.5369 61.2639C15.5369 62.2679 16.3388 63.0711 17.3411 63.0711C18.3435 63.0711 19.1454 62.2679 19.1454 61.2639C19.1454 60.2598 18.3435 59.4566 17.3411 59.4566Z" fill="#121212"/>
<path d="M4.61093 69.1962C5.66277 69.1962 6.51545 68.3421 6.51545 67.2885C6.51545 66.235 5.66277 65.3809 4.61093 65.3809C3.55909 65.3809 2.70641 66.235 2.70641 67.2885C2.70641 68.3421 3.55909 69.1962 4.61093 69.1962Z" fill="#121212"/>
<path d="M54.0282 22.4076C55.08 22.4076 55.9327 21.5535 55.9327 20.5C55.9327 19.4464 55.08 18.5923 54.0282 18.5923C52.9764 18.5923 52.1237 19.4464 52.1237 20.5C52.1237 21.5535 52.9764 22.4076 54.0282 22.4076Z" fill="#121212"/>
<path d="M69.7656 95.9032C70.8174 95.9032 71.6701 95.0491 71.6701 93.9956C71.6701 92.942 70.8174 92.0879 69.7656 92.0879C68.7137 92.0879 67.861 92.942 67.861 93.9956C67.861 95.0491 68.7137 95.9032 69.7656 95.9032Z" fill="#121212"/>
<path d="M66.4577 81.8465C65.8563 81.8465 65.2548 81.6456 64.7537 81.1436C63.9518 80.24 64.052 78.8343 64.9541 78.0311C66.2572 76.8263 66.157 76.1235 65.8563 74.4166C65.5556 72.6093 65.0544 69.8984 67.861 67.4887C68.1617 67.1875 68.262 67.1875 67.9613 65.9827C67.5603 64.075 66.8587 60.9625 70.8682 57.348C72.3717 56.0427 72.2715 55.6411 71.7703 54.2355C70.9684 51.9262 70.4672 49.2153 74.4767 46.2032C75.4791 45.5004 76.8824 45.7012 77.5841 46.7052C78.2858 47.7092 78.0853 49.1149 77.0829 49.8177C75.3789 51.123 75.4791 51.4242 75.9803 52.7294C76.5817 54.4363 77.5841 57.348 73.8753 60.6613C71.7703 62.4686 71.9708 63.3722 72.3717 64.9787C72.6725 66.3843 73.2739 68.794 70.8682 70.8021C69.966 71.6053 70.0663 72.0069 70.2667 73.7138C70.5675 75.6214 71.0687 78.5331 67.9613 81.3444C67.4601 81.6456 66.9589 81.8465 66.4577 81.8465Z" fill="#121212"/>
<path d="M23.5559 47.2075C23.3554 47.4083 23.0547 47.5087 22.754 47.5087C22.1526 47.5087 21.7516 46.9063 21.7516 46.3039C21.8518 45.5006 21.5511 45.1994 20.8495 44.6974C20.1478 44.1954 19.0452 43.3922 19.2457 41.5849C19.2457 41.3841 19.2457 41.3841 18.7445 40.9825C17.9426 40.4805 16.6395 39.5768 16.9402 36.9663C17.0404 35.9623 16.84 35.8619 16.2385 35.5607C15.2361 35.0587 14.1335 34.2555 14.5345 31.8458C14.6347 31.2433 15.2361 30.8417 15.7373 30.9421C16.3388 31.0425 16.7397 31.645 16.6395 32.147C16.439 33.151 16.5392 33.2514 17.2409 33.5526C18.0428 33.9542 19.3459 34.6571 19.1454 37.0668C19.0452 38.372 19.4461 38.6732 20.0476 39.0748C20.649 39.4764 21.6514 40.0789 21.4509 41.5849C21.3507 42.1873 21.5511 42.2877 22.2528 42.7898C23.0547 43.3922 24.1573 44.1954 23.9568 46.2035C23.8566 46.8059 23.6561 47.0067 23.5559 47.2075Z" fill="#121212"/>
<path d="M38.1906 19.8977C37.7897 19.7973 37.489 19.5965 37.2885 19.2952C36.8875 18.6928 37.088 17.8896 37.7897 17.488C38.6918 16.986 38.6918 16.4839 38.6918 15.4799C38.6918 14.3755 38.792 12.769 40.6966 11.6646C40.897 11.5642 40.897 11.5642 40.897 10.7609C40.897 9.6565 40.7968 7.64843 43.6035 6.14238C44.6058 5.53996 44.6058 5.33915 44.5056 4.43552C44.4054 3.02987 44.4054 1.42341 47.1118 0.118166C47.8135 -0.183044 48.5151 0.118166 48.8158 0.720588C49.1166 1.42341 48.8158 2.12624 48.2144 2.42745C47.0116 2.92947 47.1118 3.13027 47.212 4.03391C47.3123 5.13834 47.613 6.94561 45.0068 8.35126C43.6035 9.15449 43.6035 9.75691 43.6035 10.6605C43.6035 11.5642 43.6035 12.9698 41.9997 13.8735C41.3982 14.1747 41.3982 14.4759 41.298 15.4799C41.298 16.6848 41.1978 18.3916 39.0928 19.5965C38.8923 19.8977 38.4913 19.8977 38.1906 19.8977Z" fill="#121212"/>
<defs>
<linearGradient id="paint0_linear" x1="31.0081" y1="61.6007" x2="31.0081" y2="110.839" gradientUnits="userSpaceOnUse">
<stop stop-color="#F47732"/>
<stop offset="1" stop-color="#EF3734"/>
</linearGradient>
<linearGradient id="paint1_linear" x1="21.706" y1="61.6007" x2="21.706" y2="110.839" gradientUnits="userSpaceOnUse">
<stop stop-color="#F47732"/>
<stop offset="1" stop-color="#EF3734"/>
</linearGradient>
</defs>
</svg>
