<svg width="114" height="120" viewBox="0 0 114 120" fill="none" xmlns="http://www.w3.org/2000/svg">
<path d="M26.7127 57.0507C26.7127 58.6946 28.0653 60.0483 29.7076 59.9516C31.35 59.8549 32.8958 60.5318 33.8619 61.8855C36.6636 66.1402 33.6686 70.5882 29.611 70.5882C27.7754 70.5882 26.4229 72.232 26.8093 74.0693C27.0992 75.5197 28.4517 76.39 29.9008 76.39C34.9246 76.2933 39.0788 72.8122 40.4314 68.1708H53.9568C54.8263 68.1708 55.5025 68.8477 55.5025 69.7179V113.521C55.5025 113.908 55.3093 114.392 55.0195 114.682C52.2178 117.292 48.45 118.936 44.2958 118.936C35.6009 118.936 28.5483 111.877 28.5483 103.272C19.8534 103.272 12.8008 96.2127 12.8008 87.6067C12.8008 84.8025 13.5737 82.1917 14.8297 79.871H14.7331C9.12966 77.4536 5.16864 71.9419 5.16864 65.3666C5.16864 58.8879 9.12966 53.2796 14.7331 50.8622H14.8297C13.5737 48.6381 12.8008 45.9307 12.8008 43.1265C12.8008 34.4238 19.8534 27.365 28.5483 27.365C28.5483 18.6623 35.6009 11.7002 44.2958 11.7002C48.45 11.7002 52.2178 13.344 55.0195 15.9548C55.3093 16.2449 55.5025 16.6317 55.5025 17.1152V61.0153C55.5025 61.8855 54.8263 62.5624 53.9568 62.5624H40.4314C39.1754 57.8243 34.828 54.3432 29.7076 54.3432C27.9686 54.1498 26.7127 55.4069 26.7127 57.0507Z" fill="url(#paint0_linear)"/>
<path d="M78.3025 68.6542C74.2449 68.6542 71.25 64.1095 74.0517 59.9515C74.9212 58.5978 76.5636 58.0176 78.2059 58.0176C79.8483 58.1143 81.2008 56.7605 81.2008 55.1167C81.2008 53.4729 79.9449 52.2158 78.3025 52.2158C73.1822 52.2158 68.8347 55.6969 67.5788 60.435H54.0534C53.1839 60.435 52.5076 61.1119 52.5076 61.9821V64.6896C52.5076 65.5599 53.1839 66.2368 54.0534 66.2368H67.5788C68.8347 70.8782 73.0856 74.3593 78.1093 74.4559C79.5585 74.4559 80.911 73.5857 81.2008 72.1352C81.4907 70.298 80.0415 68.6542 78.3025 68.6542Z" fill="#121212"/>
<path d="M100.33 76.7768C100.523 76.9702 100.426 77.2603 100.233 77.4537C100.136 77.5504 100.04 77.5504 99.9432 77.5504C99.75 77.5504 99.6534 77.4537 99.5568 77.357C99.4602 77.1636 99.3636 77.0669 99.1703 76.8735C98.2042 77.7438 97.2381 78.6141 96.0788 79.2909C96.8517 81.3215 97.2381 83.5456 97.2381 85.6729C97.2381 95.0524 90.2822 102.788 81.2975 104.045C79.9449 113.038 72.2161 120 62.9415 120C59.3669 120 55.9856 118.936 53.1839 117.196C52.7008 116.906 52.5076 116.422 52.5076 115.939V112.651C52.5076 111.394 53.9568 110.621 55.0195 111.491C57.628 113.618 61.0093 114.682 64.6805 114.198C70.3805 113.425 75.0178 108.88 75.6941 103.078C76.3703 97.5665 73.5686 92.4416 68.7381 90.0242C67.289 89.2506 66.7093 87.6068 67.4822 86.1564C68.2551 84.7059 69.9941 84.1257 71.3466 84.8993C72.4093 85.3828 73.3754 86.0597 74.2449 86.7365C75.3076 84.996 76.95 83.5456 78.9788 82.772C80.5246 82.1918 82.1669 82.9654 82.7466 84.4158C83.3263 85.963 82.5534 87.6068 81.1042 88.187C80.428 88.4771 79.8483 88.9605 79.3653 89.5407C78.9788 90.1209 78.689 90.8945 78.689 91.5714C79.9449 93.602 80.911 95.9227 81.2975 98.3401C87.0941 97.1797 91.4415 91.9581 91.4415 85.7696C91.4415 83.5456 90.8619 81.4182 89.7992 79.4843C89.0263 78.1306 89.5093 76.4867 90.7653 75.6165C90.7653 75.6165 90.8619 75.6165 90.8619 75.5198C90.8619 75.5198 90.9585 75.5198 90.9585 75.4231C90.9585 75.4231 91.0551 75.4231 91.1517 75.3264C91.2483 75.3264 91.2483 75.2297 91.3449 75.2297C96.0788 73.1991 99.1703 68.5576 99.1703 63.4327C99.1703 58.3078 96.0788 53.6664 91.3449 51.6358C91.2483 51.6358 91.1517 51.5391 91.0551 51.4424H90.9585L90.8619 51.3457L90.7653 51.249C89.5093 50.3788 89.1229 48.7349 89.7992 47.3812C90.8619 45.4473 91.4415 43.3199 91.4415 41.0959C91.4415 39.3554 91.0551 37.6149 90.3788 36.0677C90.3788 36.0677 90.3788 36.0677 90.2822 36.1644C89.0263 36.938 87.867 37.8083 86.8042 38.9686L86.7076 39.0653C86.611 39.162 86.5144 39.2587 86.3212 39.2587C86.2246 39.2587 86.128 39.2587 86.0314 39.162C85.8381 38.9686 85.8381 38.6785 86.0314 38.4851L86.128 38.2917C87.2873 37.0347 88.4466 36.0677 89.7992 35.2941C89.8958 35.2941 89.8958 35.1975 89.9924 35.1975C88.2534 31.8131 85.0653 29.299 81.2008 28.5254C80.8144 30.9428 79.9449 33.2635 78.5924 35.2941C78.5924 36.8413 79.5585 38.195 80.911 38.6785C82.3602 39.2587 83.1331 40.9025 82.5534 42.4497C82.2636 43.8034 81.2008 44.4803 80.0415 44.4803C79.7517 44.4803 79.3652 44.3836 78.9788 44.2869C76.95 43.5133 75.3076 42.0629 74.2449 40.3224C73.3754 40.9992 72.4093 41.5794 71.3466 42.1596C69.8975 42.8365 68.1585 42.2563 67.4822 40.9025C66.7093 39.4521 67.3856 37.7116 68.7381 37.0347C73.0856 34.8107 75.7907 30.4593 75.7907 25.5278C75.7907 18.469 70.0907 12.7639 63.0381 12.7639C60.0432 12.7639 57.2415 13.8276 55.0195 15.5681C54.0534 16.3417 52.5076 15.6648 52.5076 14.3111V11.0234C52.5076 10.5399 52.7975 9.95974 53.1839 9.76635C56.0822 8.02582 59.3669 6.96216 62.9415 6.96216C72.3127 6.96216 80.0415 13.9243 81.2975 22.917C87.6737 23.884 92.9873 27.9452 95.5958 33.6503C96.0788 33.6503 96.5619 33.5536 97.1415 33.5536C97.2381 33.5536 97.4314 33.5536 97.528 33.5536C97.8178 33.5536 98.011 33.747 98.011 34.0371C98.011 34.3272 97.8178 34.5206 97.528 34.5206C97.4314 34.5206 97.2381 34.5206 97.1415 34.5206C96.7551 34.5206 96.4653 34.5206 96.0788 34.5206C96.8517 36.6479 97.3347 38.8719 97.3347 41.2893C97.3347 43.5133 96.9483 45.6406 96.1754 47.6713C101.586 51.0556 104.967 56.9541 104.967 63.5294C104.967 68.3643 103.131 72.909 99.9432 76.2934C100.04 76.39 100.233 76.5834 100.33 76.7768Z" fill="#121212"/>
<path d="M6.42458 90.5076L8.35678 88.5737C8.93644 87.9935 8.93644 87.1232 8.35678 86.543C7.77712 85.9629 6.90763 85.9629 6.32797 86.543L4.39576 88.477L2.46356 86.543C1.8839 85.9629 1.01441 85.9629 0.434746 86.543C-0.144915 87.1232 -0.144915 87.9935 0.434746 88.5737L2.36695 90.5076L0.434746 92.4415C-0.144915 93.0217 -0.144915 93.892 0.434746 94.4721C0.724576 94.7622 1.11102 94.8589 1.49746 94.8589C1.8839 94.8589 2.27034 94.7622 2.56017 94.4721L4.49237 92.5382L6.42458 94.4721C6.71441 94.7622 7.10085 94.8589 7.48729 94.8589C7.87373 94.8589 8.26017 94.7622 8.55 94.4721C9.12966 93.892 9.12966 93.0217 8.55 92.4415L6.42458 90.5076Z" fill="#121212"/>
<path d="M90.8619 117.679C88.35 117.679 86.4178 115.649 86.4178 113.231C86.4178 110.814 88.4466 108.783 90.8619 108.783C93.2771 108.783 95.3059 110.814 95.3059 113.231C95.3059 115.649 93.2771 117.679 90.8619 117.679ZM90.8619 111.587C89.9924 111.587 89.3161 112.264 89.3161 113.135C89.3161 114.005 89.9924 114.682 90.8619 114.682C91.7314 114.682 92.4076 114.005 92.4076 113.135C92.4076 112.264 91.7314 111.587 90.8619 111.587Z" fill="#121212"/>
<path d="M30.2873 8.99275C27.7754 8.99275 25.8432 6.96213 25.8432 4.54472C25.8432 2.12732 27.872 0 30.2873 0C32.7025 0 34.828 2.03062 34.828 4.44803C34.828 6.86543 32.7992 8.99275 30.2873 8.99275ZM30.2873 2.90089C29.4178 2.90089 28.7415 3.57776 28.7415 4.44803C28.7415 5.31829 29.4178 5.99517 30.2873 5.99517C31.1568 5.99517 31.8331 5.31829 31.8331 4.44803C31.8331 3.57776 31.2534 2.90089 30.2873 2.90089Z" fill="#121212"/>
<path d="M100.136 105.302C100.04 105.302 99.9432 105.302 99.8466 105.205C99.6534 105.012 99.5568 104.722 99.75 104.528C100.716 103.271 101.489 102.014 102.165 100.661C102.262 100.467 102.552 100.37 102.842 100.467C103.131 100.564 103.131 100.854 103.035 101.144C102.358 102.498 101.489 103.851 100.523 105.205C100.426 105.302 100.233 105.302 100.136 105.302ZM103.711 98.8233C103.614 98.8233 103.614 98.8233 103.518 98.8233C103.228 98.7266 103.131 98.4365 103.228 98.2431C103.711 96.7927 104.097 95.2455 104.291 93.7951C104.291 93.505 104.581 93.3116 104.87 93.4083C105.16 93.4083 105.353 93.6984 105.257 93.9885C105.064 95.5356 104.677 97.0828 104.194 98.6299C104.097 98.7266 103.904 98.8233 103.711 98.8233ZM104.87 91.4744C104.581 91.4744 104.387 91.281 104.387 90.9909C104.291 89.4438 104.001 87.8966 103.711 86.4462C103.614 86.1561 103.808 85.9627 104.097 85.866C104.387 85.7693 104.581 85.9627 104.677 86.2528C105.064 87.7999 105.257 89.3471 105.45 90.8942C105.353 91.281 105.16 91.4744 104.87 91.4744C104.967 91.4744 104.87 91.4744 104.87 91.4744ZM103.421 84.2222C103.228 84.2222 103.035 84.1255 102.938 83.9321C102.455 82.4816 101.779 81.1279 101.006 79.7741C100.909 79.5807 101.006 79.2907 101.199 79.0973C101.392 79.0006 101.682 79.0973 101.875 79.2907C102.648 80.6444 103.325 82.0948 103.808 83.642C103.904 83.9321 103.808 84.1255 103.518 84.2222H103.421Z" fill="#121212"/>
<path d="M96.5619 109.17C96.4653 109.17 96.272 109.073 96.1754 108.976C95.9822 108.783 96.0788 108.493 96.272 108.3C96.272 108.3 96.9483 107.719 98.011 106.656C98.2042 106.462 98.4941 106.462 98.6873 106.656C98.8805 106.849 98.8805 107.139 98.6873 107.333C97.6246 108.396 96.9483 108.976 96.8517 109.073C96.7551 109.17 96.6585 109.17 96.5619 109.17Z" fill="#121212"/>
<path d="M36.1805 12.0869C35.9873 12.0869 35.8907 11.9902 35.7941 11.8935C35.0212 10.7331 34.4415 9.95953 34.4415 9.95953C34.2483 9.76614 34.3449 9.47605 34.5381 9.28266C34.7314 9.08927 35.0212 9.18596 35.2144 9.37936C35.2144 9.37936 35.8907 10.1529 36.6636 11.41C36.7602 11.6034 36.7602 11.8935 36.4703 12.0869C36.3737 12.0869 36.2771 12.0869 36.1805 12.0869Z" fill="#121212"/>
<path d="M39.272 20.5964C38.9822 20.5964 38.789 20.4031 38.789 20.113C38.5958 18.3724 38.1127 16.6319 37.3398 14.7947C37.2432 14.5046 37.3398 14.3112 37.6297 14.1178C37.9195 14.0211 38.1127 14.1178 38.3059 14.4079C39.1754 16.3418 39.6585 18.2757 39.8517 20.0163C39.8517 20.4031 39.6585 20.5964 39.272 20.5964C39.3686 20.5964 39.3686 20.5964 39.272 20.5964Z" fill="#121212"/>
<path d="M38.4992 26.398C38.4025 26.398 38.4025 26.398 38.3059 26.398C38.0161 26.3013 37.9195 26.0112 38.0161 25.7211C38.3059 25.0443 38.4992 24.2707 38.6924 23.4971C38.6924 23.207 38.9822 23.1104 39.272 23.1104C39.5619 23.1104 39.7551 23.4004 39.6585 23.6905C39.4653 24.5608 39.272 25.3344 38.9822 26.1079C38.8856 26.3013 38.6924 26.398 38.4992 26.398Z" fill="#121212"/>
<path d="M86.4178 56.1803C86.3212 55.8902 86.128 55.7936 85.8381 55.7936C85.5483 55.8903 85.4517 56.0836 85.4517 56.3737C85.6449 57.4374 85.8381 58.3077 85.8381 59.0812C85.8381 59.7581 85.7415 60.3383 85.5483 60.9185C85.4517 61.2085 85.5483 61.4019 85.8381 61.4986C85.9347 61.4986 85.9347 61.4986 86.0314 61.4986C86.2246 61.4986 86.4178 61.4019 86.5144 61.2085C86.7076 60.5317 86.8042 59.8548 86.8042 59.0812C86.8042 58.3077 86.611 57.3407 86.4178 56.1803ZM85.6449 53.3761L85.5483 53.1828C85.1619 51.7323 84.6788 50.2819 84.389 48.7347C84.389 48.4446 84.0992 48.2512 83.8093 48.3479C83.5195 48.3479 83.3263 48.638 83.4229 48.9281C83.7127 50.4753 84.0992 52.0224 84.5822 53.4728V53.6662C84.6788 53.8596 84.872 54.053 85.0653 54.053H85.1619C85.5483 53.8596 85.6449 53.6662 85.6449 53.3761ZM85.0653 40.8056C84.872 40.7089 84.5822 40.8056 84.389 40.999C83.6161 42.4495 83.2297 44.0933 83.2297 45.8338C83.2297 46.1239 83.4229 46.3173 83.7127 46.3173C84.0025 46.3173 84.1958 46.1239 84.1958 45.8338C84.1958 44.19 84.5822 42.7396 85.2585 41.3858C85.3551 41.2891 85.2585 40.999 85.0653 40.8056ZM105.16 35.4873C105.064 35.4873 103.228 34.4237 100.523 33.8435C100.233 33.7468 100.04 33.9402 99.9432 34.2303C99.9432 34.5204 100.04 34.7138 100.33 34.8105C102.938 35.3907 104.677 36.3576 104.677 36.3576C104.774 36.3576 104.87 36.4543 104.87 36.4543C105.064 36.4543 105.16 36.3576 105.257 36.1642C105.45 35.9708 105.45 35.584 105.16 35.4873Z" fill="#121212"/>
<path d="M19.3703 112.844H19.2737C18.9839 112.844 18.7907 112.651 18.7907 112.361C18.7907 112.071 18.9839 111.877 19.2737 111.877H19.4669C21.0127 111.877 22.5585 111.684 23.911 111.297C24.2008 111.201 24.3941 111.394 24.4907 111.587C24.5873 111.877 24.3941 112.071 24.2008 112.168C22.6551 112.554 21.0127 112.844 19.3703 112.844ZM16.3754 112.554C16.2788 112.554 16.2788 112.554 16.3754 112.554C14.6364 112.264 12.9941 111.684 11.6415 110.911C11.4483 110.814 11.3517 110.524 11.4483 110.234C11.5449 110.04 11.8347 109.944 12.1246 110.04C13.4771 110.717 14.9263 111.297 16.5686 111.587C16.8585 111.587 17.0517 111.877 16.9551 112.168C16.7619 112.361 16.5686 112.554 16.3754 112.554ZM26.7127 111.104C26.5195 111.104 26.3263 111.007 26.3263 110.814C26.2297 110.62 26.3263 110.33 26.5195 110.137C27.2924 109.75 28.0653 109.267 28.6449 108.687C29.128 108.203 29.7076 107.816 30.3839 107.333C30.5771 107.139 30.8669 107.236 31.0602 107.429C31.2534 107.623 31.1568 107.913 30.9636 108.106C30.3839 108.493 29.8042 108.977 29.3212 109.363C28.6449 109.944 27.872 110.524 27.0025 110.911C26.8093 111.104 26.8093 111.104 26.7127 111.104ZM9.41949 109.363C9.32288 109.363 9.22627 109.363 9.12966 109.267C7.87373 108.203 6.81102 106.849 5.94153 105.399C5.84492 105.205 5.94153 104.915 6.13475 104.722C6.32797 104.625 6.6178 104.722 6.81102 104.915C7.5839 106.269 8.55 107.526 9.70932 108.493C9.90254 108.687 9.90254 108.977 9.80593 109.17C9.70932 109.267 9.5161 109.363 9.41949 109.363ZM33.089 106.753C32.8958 106.753 32.7992 106.656 32.7025 106.462C32.6059 106.269 32.7025 105.979 32.8958 105.786C34.2483 105.012 35.6975 104.335 37.3398 103.658C37.6297 103.562 37.8229 103.658 37.9195 103.948C38.0161 104.238 37.9195 104.432 37.6297 104.529C36.0839 105.109 34.6347 105.786 33.2822 106.559C33.1856 106.656 33.089 106.753 33.089 106.753ZM40.1415 103.658C39.9483 103.658 39.7551 103.562 39.6585 103.368C39.5619 103.078 39.7551 102.885 39.9483 102.788C40.2381 102.691 40.528 102.595 40.8178 102.498C41.1076 102.401 41.3008 102.595 41.3975 102.788C41.4941 103.078 41.3008 103.272 41.1076 103.368C40.8178 103.465 40.528 103.562 40.2381 103.658C40.2381 103.658 40.2381 103.658 40.1415 103.658ZM5.26525 102.981C5.07203 102.981 4.87881 102.885 4.7822 102.691C4.29915 101.241 4.00932 99.5971 3.91271 97.8565C3.91271 97.5664 4.10593 97.373 4.39576 97.373C4.68559 97.373 4.87881 97.5664 4.87881 97.8565C4.97542 99.5004 5.16864 101.048 5.6517 102.498C5.74831 102.788 5.55508 102.981 5.36186 103.078C5.36186 102.981 5.26525 102.981 5.26525 102.981Z" fill="#121212"/>
<path d="M111.44 42.7398L113.372 40.8058C113.952 40.2257 113.952 39.3554 113.372 38.7752C112.792 38.195 111.923 38.195 111.343 38.7752L109.411 40.7091L107.479 38.7752C106.899 38.195 106.03 38.195 105.45 38.7752C104.87 39.3554 104.87 40.2257 105.45 40.8058L107.382 42.7398L105.45 44.6737C104.87 45.2539 104.87 46.1241 105.45 46.7043C105.74 46.9944 106.126 47.0911 106.513 47.0911C106.899 47.0911 107.286 46.9944 107.575 46.7043L109.508 44.7704L111.44 46.7043C111.73 46.9944 112.116 47.0911 112.503 47.0911C112.889 47.0911 113.275 46.9944 113.565 46.7043C114.145 46.1241 114.145 45.2539 113.565 44.6737L111.44 42.7398Z" fill="#121212"/>
<defs>
<linearGradient id="paint0_linear" x1="36.9671" y1="12" x2="36.9671" y2="110" gradientUnits="userSpaceOnUse">
<stop stop-color="#F47732"/>
<stop offset="1" stop-color="#EF3734"/>
</linearGradient>
</defs>
</svg>
