<svg width="100" height="120" viewBox="0 0 100 120" fill="none" xmlns="http://www.w3.org/2000/svg">
<path d="M55.4743 62.9571H19.2013C17.1861 62.9571 15.4588 61.3355 15.4588 59.2369V31.7647C15.4588 30.2385 16.4184 28.903 17.7619 28.3307L35.9943 21.0811C36.4741 20.8903 36.858 20.7949 37.3378 20.7949H55.4743C57.8733 20.7949 59.7925 22.7027 59.7925 25.0875V58.5692C59.7925 61.0493 57.8733 62.9571 55.4743 62.9571Z" fill="url(#paint0_linear)"/>
<path d="M96.3535 0C94.3384 0 92.707 1.62162 92.707 3.6248C92.707 5.62798 94.3384 7.2496 96.3535 7.2496C98.3687 7.2496 100 5.62798 100 3.6248C100 1.62162 98.3687 0 96.3535 0ZM96.3535 4.86486C95.6818 4.86486 95.106 4.29253 95.106 3.6248C95.106 2.95707 95.6818 2.38474 96.3535 2.38474C97.0253 2.38474 97.601 2.95707 97.601 3.6248C97.601 4.29253 97.1212 4.86486 96.3535 4.86486Z" fill="#121212"/>
<path d="M92.8029 14.0225C90.308 14.0225 88.2928 16.0256 88.2928 18.5058C88.2928 20.9859 90.308 22.9891 92.8029 22.9891C95.2979 22.9891 97.3131 20.9859 97.3131 18.5058C97.2171 16.0256 95.2019 14.0225 92.8029 14.0225ZM92.8029 20.6043C91.6514 20.6043 90.6918 19.6504 90.6918 18.5058C90.6918 17.3611 91.6514 16.4072 92.8029 16.4072C93.9545 16.4072 94.9141 17.3611 94.9141 18.5058C94.9141 19.6504 93.9545 20.6043 92.8029 20.6043Z" fill="#121212"/>
<path d="M7.78198 55.803C9.00092 55.803 9.98907 54.8207 9.98907 53.609C9.98907 52.3973 9.00092 51.415 7.78198 51.415C6.56304 51.415 5.57489 52.3973 5.57489 53.609C5.57489 54.8207 6.56304 55.803 7.78198 55.803Z" fill="#121212"/>
<path d="M81.1918 4.57835C82.4107 4.57835 83.3989 3.59608 83.3989 2.38439C83.3989 1.1727 82.4107 0.19043 81.1918 0.19043C79.9728 0.19043 78.9847 1.1727 78.9847 2.38439C78.9847 3.59608 79.9728 4.57835 81.1918 4.57835Z" fill="#121212"/>
<path d="M9.02947 38.5377C8.26179 37.9653 8.06987 37.7745 8.16583 37.1068C8.35775 35.3898 7.20622 34.6267 6.5345 34.1497C5.76682 33.6728 5.38298 33.3866 5.47894 31.765C5.76682 28.9033 4.23145 28.1402 3.27184 27.6633C2.50416 27.2817 2.4082 27.1863 2.60012 26.0416C2.69608 25.3739 2.21628 24.7062 1.54456 24.6108C0.872833 24.5154 0.201109 24.9923 0.105149 25.6601C-0.374654 28.4264 0.872833 29.3803 2.12032 29.9526C2.888 30.3342 3.07992 30.4295 2.98396 31.5742C2.69608 34.6267 4.23145 35.676 5.19105 36.2483C5.67086 36.6299 5.67086 36.6299 5.5749 36.916C5.38297 39.0146 6.63046 39.9685 7.49411 40.5408C8.26179 41.1132 8.64563 41.3993 8.54967 42.3532C8.45371 43.021 9.02947 43.6887 9.7012 43.6887C10.085 43.6887 10.4689 43.5933 10.6608 43.3071C10.8527 43.1164 11.0446 42.8302 11.0446 42.4486C11.2366 40.1593 9.89312 39.2054 9.02947 38.5377Z" fill="#121212"/>
<path d="M72.6513 12.1143H44.247C43.3833 12.1143 42.6156 12.305 41.848 12.5912L24.5751 19.4592C22.1761 20.4131 20.5447 22.7025 20.5447 25.3734V31.8599C20.5447 33.4815 21.7922 34.7216 23.4236 34.7216C25.0549 34.7216 26.3024 33.4815 26.3024 31.8599V25.3734C26.3024 25.0872 26.4943 24.8965 26.6862 24.8011L43.9591 17.933C44.0551 17.933 44.151 17.933 44.151 17.933H72.4594C73.1311 17.933 73.7068 18.5054 73.7068 19.1731V50.9378C73.7068 51.6055 73.1311 52.1778 72.4594 52.1778H55.9542C51.1561 52.1778 47.2217 56.0888 47.2217 60.8583V73.4497H46.9339C43.9591 73.4497 41.4641 75.9298 41.4641 78.8869V114.563C41.4641 117.52 43.9591 120 46.9339 120H53.2673C56.242 120 58.737 117.52 58.737 114.563V78.8869C58.737 75.9298 56.242 73.4497 53.2673 73.4497H52.9794V60.6675C52.9794 59.0459 54.3228 57.7104 55.9542 57.7104H72.6513C76.4897 57.7104 79.6564 54.5626 79.6564 50.747V19.0777C79.5604 15.2621 76.4897 12.1143 72.6513 12.1143ZM52.9794 114.276H47.2217V79.1731H52.9794V114.276Z" fill="#121212"/>
<defs>
<linearGradient id="paint0_linear" x1="37.6257" y1="20.7949" x2="37.6257" y2="62.9571" gradientUnits="userSpaceOnUse">
<stop stop-color="#FF782D"/>
<stop offset="1" stop-color="#FF2D2D"/>
</linearGradient>
</defs>
</svg>
