<svg width="29" height="25" viewBox="0 0 29 25" fill="none" xmlns="http://www.w3.org/2000/svg">
<path d="M9.11992 25C20.0634 25 26.049 15.3809 26.049 7.0393C26.049 6.76609 26.049 6.49411 26.0316 6.22336C27.196 5.32977 28.2012 4.22334 29 2.95587C27.9141 3.46637 26.7622 3.80115 25.5826 3.94904C26.8247 3.16014 27.7543 1.91935 28.1984 0.457571C27.0305 1.19285 25.7527 1.71104 24.4203 1.98978C23.5232 0.977765 22.3368 0.307634 21.0446 0.083088C19.7523 -0.141458 18.4264 0.0921005 17.2719 0.747621C16.1174 1.40314 15.1987 2.44408 14.658 3.70935C14.1173 4.97462 13.9847 6.39368 14.2808 7.74695C11.9152 7.62113 9.60108 6.96895 7.48854 5.83272C5.376 4.6965 3.51229 3.10164 2.0184 1.15168C1.25755 2.54133 1.02451 4.18639 1.36675 5.75193C1.70898 7.31746 2.60075 8.68575 3.86048 9.57822C2.91362 9.54844 1.9874 9.27745 1.16 8.78812C1.16 8.81396 1.16 8.84103 1.16 8.86811C1.16038 10.3255 1.6359 11.7379 2.50593 12.8658C3.37595 13.9936 4.58691 14.7674 5.9334 15.056C5.05745 15.3095 4.13839 15.3465 3.24684 15.1643C3.62704 16.4186 4.36724 17.5154 5.36392 18.3014C6.3606 19.0875 7.56391 19.5233 8.80556 19.548C6.69869 21.3048 4.09603 22.2584 1.41636 22.2556C0.942968 22.2546 0.470037 22.2242 0 22.1645C2.72094 24.017 5.8869 24.9997 9.11992 24.9951" fill="#1F1F1F"/>
</svg>
