<svg width="30" height="21" viewBox="0 0 30 21" fill="none" xmlns="http://www.w3.org/2000/svg">
<path fill-rule="evenodd" clip-rule="evenodd" d="M26.7379 0.642353C28.0229 0.988235 29.0361 2.00118 29.3821 3.28588C30.0246 5.63294 29.9999 10.5247 29.9999 10.5247C29.9999 10.5247 29.9999 15.3918 29.3821 17.7388C29.0361 19.0235 28.0229 20.0365 26.7379 20.3824C24.3903 21 14.9999 21 14.9999 21C14.9999 21 5.63424 21 3.26193 20.3576C1.97693 20.0118 0.963752 18.9988 0.61779 17.7141C0 15.3918 0 10.5 0 10.5C0 10.5 0 5.63294 0.61779 3.28588C0.963752 2.00118 2.00164 0.963529 3.26193 0.617647C5.60953 0 14.9999 0 14.9999 0C14.9999 0 24.3903 0 26.7379 0.642353ZM20 10.5L12 15V6L20 10.5Z" fill="#1F1F1F"/>
</svg>
